<?xml version="1.0" encoding="utf-8" standalone="no"?>
<!DOCTYPE svg PUBLIC "-//W3C//DTD SVG 1.1//EN"
  "http://www.w3.org/Graphics/SVG/1.1/DTD/svg11.dtd">
<svg xmlns:xlink="http://www.w3.org/1999/xlink" width="720pt" height="504pt" viewBox="0 0 720 504" xmlns="http://www.w3.org/2000/svg" version="1.1">
 <metadata>
  <rdf:RDF xmlns:dc="http://purl.org/dc/elements/1.1/" xmlns:cc="http://creativecommons.org/ns#" xmlns:rdf="http://www.w3.org/1999/02/22-rdf-syntax-ns#">
   <cc:Work>
    <dc:type rdf:resource="http://purl.org/dc/dcmitype/StillImage"/>
    <dc:date>2022-03-25T17:26:44.568833</dc:date>
    <dc:format>image/svg+xml</dc:format>
    <dc:creator>
     <cc:Agent>
      <dc:title>Matplotlib v3.5.1, https://matplotlib.org/</dc:title>
     </cc:Agent>
    </dc:creator>
   </cc:Work>
  </rdf:RDF>
 </metadata>
 <defs>
  <style type="text/css">*{stroke-linejoin: round; stroke-linecap: butt}</style>
 </defs>
 <g id="figure_1">
  <g id="patch_1">
   <path d="M 0 504 
L 720 504 
L 720 0 
L 0 0 
z
" style="fill: #ffffff"/>
  </g>
  <g id="axes_1">
   <g id="patch_2">
    <path d="M 45.83 222.626625 
L 351.81 222.626625 
L 351.81 21.72 
L 45.83 21.72 
z
" style="fill: #ffffff"/>
   </g>
   <g id="matplotlib.axis_1">
    <g id="xtick_1">
     <g id="text_1">
      <!-- $\mathdefault{10^{1}}$ -->
      <g style="fill: #262626" transform="translate(77.141954 239.939125)scale(0.1 -0.1)">
       <defs>
        <path id="ArialMT-31" d="M 2384 0 
L 1822 0 
L 1822 3584 
Q 1619 3391 1289 3197 
Q 959 3003 697 2906 
L 697 3450 
Q 1169 3672 1522 3987 
Q 1875 4303 2022 4600 
L 2384 4600 
L 2384 0 
z
" transform="scale(0.015625)"/>
        <path id="ArialMT-30" d="M 266 2259 
Q 266 3072 433 3567 
Q 600 4063 929 4331 
Q 1259 4600 1759 4600 
Q 2128 4600 2406 4451 
Q 2684 4303 2865 4023 
Q 3047 3744 3150 3342 
Q 3253 2941 3253 2259 
Q 3253 1453 3087 958 
Q 2922 463 2592 192 
Q 2263 -78 1759 -78 
Q 1097 -78 719 397 
Q 266 969 266 2259 
z
M 844 2259 
Q 844 1131 1108 757 
Q 1372 384 1759 384 
Q 2147 384 2411 759 
Q 2675 1134 2675 2259 
Q 2675 3391 2411 3762 
Q 2147 4134 1753 4134 
Q 1366 4134 1134 3806 
Q 844 3388 844 2259 
z
" transform="scale(0.015625)"/>
       </defs>
       <use xlink:href="#ArialMT-31" transform="translate(0 0.99375)"/>
       <use xlink:href="#ArialMT-30" transform="translate(55.615234 0.99375)"/>
       <use xlink:href="#ArialMT-31" transform="translate(112.972813 70.6875)scale(0.7)"/>
      </g>
     </g>
    </g>
    <g id="xtick_2">
     <g id="text_2">
      <!-- $\mathdefault{10^{3}}$ -->
      <g style="fill: #262626" transform="translate(149.401916 239.939125)scale(0.1 -0.1)">
       <defs>
        <path id="ArialMT-33" d="M 269 1209 
L 831 1284 
Q 928 806 1161 595 
Q 1394 384 1728 384 
Q 2125 384 2398 659 
Q 2672 934 2672 1341 
Q 2672 1728 2419 1979 
Q 2166 2231 1775 2231 
Q 1616 2231 1378 2169 
L 1441 2663 
Q 1497 2656 1531 2656 
Q 1891 2656 2178 2843 
Q 2466 3031 2466 3422 
Q 2466 3731 2256 3934 
Q 2047 4138 1716 4138 
Q 1388 4138 1169 3931 
Q 950 3725 888 3313 
L 325 3413 
Q 428 3978 793 4289 
Q 1159 4600 1703 4600 
Q 2078 4600 2393 4439 
Q 2709 4278 2876 4000 
Q 3044 3722 3044 3409 
Q 3044 3113 2884 2869 
Q 2725 2625 2413 2481 
Q 2819 2388 3044 2092 
Q 3269 1797 3269 1353 
Q 3269 753 2831 336 
Q 2394 -81 1725 -81 
Q 1122 -81 723 278 
Q 325 638 269 1209 
z
" transform="scale(0.015625)"/>
       </defs>
       <use xlink:href="#ArialMT-31" transform="translate(0 0.99375)"/>
       <use xlink:href="#ArialMT-30" transform="translate(55.615234 0.99375)"/>
       <use xlink:href="#ArialMT-33" transform="translate(112.972813 70.6875)scale(0.7)"/>
      </g>
     </g>
    </g>
    <g id="xtick_3">
     <g id="text_3">
      <!-- $\mathdefault{10^{5}}$ -->
      <g style="fill: #262626" transform="translate(221.661877 239.839125)scale(0.1 -0.1)">
       <defs>
        <path id="ArialMT-35" d="M 266 1200 
L 856 1250 
Q 922 819 1161 601 
Q 1400 384 1738 384 
Q 2144 384 2425 690 
Q 2706 997 2706 1503 
Q 2706 1984 2436 2262 
Q 2166 2541 1728 2541 
Q 1456 2541 1237 2417 
Q 1019 2294 894 2097 
L 366 2166 
L 809 4519 
L 3088 4519 
L 3088 3981 
L 1259 3981 
L 1013 2750 
Q 1425 3038 1878 3038 
Q 2478 3038 2890 2622 
Q 3303 2206 3303 1553 
Q 3303 931 2941 478 
Q 2500 -78 1738 -78 
Q 1113 -78 717 272 
Q 322 622 266 1200 
z
" transform="scale(0.015625)"/>
       </defs>
       <use xlink:href="#ArialMT-31" transform="translate(0 0.879688)"/>
       <use xlink:href="#ArialMT-30" transform="translate(55.615234 0.879688)"/>
       <use xlink:href="#ArialMT-35" transform="translate(112.972813 70.573438)scale(0.7)"/>
      </g>
     </g>
    </g>
    <g id="xtick_4">
     <g id="text_4">
      <!-- $\mathdefault{10^{7}}$ -->
      <g style="fill: #262626" transform="translate(293.921838 239.839125)scale(0.1 -0.1)">
       <defs>
        <path id="ArialMT-37" d="M 303 3981 
L 303 4522 
L 3269 4522 
L 3269 4084 
Q 2831 3619 2401 2847 
Q 1972 2075 1738 1259 
Q 1569 684 1522 0 
L 944 0 
Q 953 541 1156 1306 
Q 1359 2072 1739 2783 
Q 2119 3494 2547 3981 
L 303 3981 
z
" transform="scale(0.015625)"/>
       </defs>
       <use xlink:href="#ArialMT-31" transform="translate(0 0.846875)"/>
       <use xlink:href="#ArialMT-30" transform="translate(55.615234 0.846875)"/>
       <use xlink:href="#ArialMT-37" transform="translate(112.972813 70.540625)scale(0.7)"/>
      </g>
     </g>
    </g>
   </g>
   <g id="matplotlib.axis_2">
    <g id="ytick_1">
     <g id="text_5">
      <!-- 0 -->
      <g style="fill: #262626" transform="translate(33.269062 217.073417)scale(0.1 -0.1)">
       <use xlink:href="#ArialMT-30"/>
      </g>
     </g>
    </g>
    <g id="ytick_2">
     <g id="text_6">
      <!-- 1 -->
      <g style="fill: #262626" transform="translate(33.269062 180.544939)scale(0.1 -0.1)">
       <use xlink:href="#ArialMT-31"/>
      </g>
     </g>
    </g>
    <g id="ytick_3">
     <g id="text_7">
      <!-- 2 -->
      <g style="fill: #262626" transform="translate(33.269062 144.016461)scale(0.1 -0.1)">
       <defs>
        <path id="ArialMT-32" d="M 3222 541 
L 3222 0 
L 194 0 
Q 188 203 259 391 
Q 375 700 629 1000 
Q 884 1300 1366 1694 
Q 2113 2306 2375 2664 
Q 2638 3022 2638 3341 
Q 2638 3675 2398 3904 
Q 2159 4134 1775 4134 
Q 1369 4134 1125 3890 
Q 881 3647 878 3216 
L 300 3275 
Q 359 3922 746 4261 
Q 1134 4600 1788 4600 
Q 2447 4600 2831 4234 
Q 3216 3869 3216 3328 
Q 3216 3053 3103 2787 
Q 2991 2522 2730 2228 
Q 2469 1934 1863 1422 
Q 1356 997 1212 845 
Q 1069 694 975 541 
L 3222 541 
z
" transform="scale(0.015625)"/>
       </defs>
       <use xlink:href="#ArialMT-32"/>
      </g>
     </g>
    </g>
    <g id="ytick_4">
     <g id="text_8">
      <!-- 3 -->
      <g style="fill: #262626" transform="translate(33.269062 107.487983)scale(0.1 -0.1)">
       <use xlink:href="#ArialMT-33"/>
      </g>
     </g>
    </g>
    <g id="ytick_5">
     <g id="text_9">
      <!-- 4 -->
      <g style="fill: #262626" transform="translate(33.269062 70.959505)scale(0.1 -0.1)">
       <defs>
        <path id="ArialMT-34" d="M 2069 0 
L 2069 1097 
L 81 1097 
L 81 1613 
L 2172 4581 
L 2631 4581 
L 2631 1613 
L 3250 1613 
L 3250 1097 
L 2631 1097 
L 2631 0 
L 2069 0 
z
M 2069 1613 
L 2069 3678 
L 634 1613 
L 2069 1613 
z
" transform="scale(0.015625)"/>
       </defs>
       <use xlink:href="#ArialMT-34"/>
      </g>
     </g>
    </g>
    <g id="ytick_6">
     <g id="text_10">
      <!-- 5 -->
      <g style="fill: #262626" transform="translate(33.269062 34.431027)scale(0.1 -0.1)">
       <use xlink:href="#ArialMT-35"/>
      </g>
     </g>
    </g>
    <g id="text_11">
     <!-- Expectation -->
     <g style="fill: #262626" transform="translate(27.281562 148.299875)rotate(-90)scale(0.1 -0.1)">
      <defs>
       <path id="ArialMT-45" d="M 506 0 
L 506 4581 
L 3819 4581 
L 3819 4041 
L 1113 4041 
L 1113 2638 
L 3647 2638 
L 3647 2100 
L 1113 2100 
L 1113 541 
L 3925 541 
L 3925 0 
L 506 0 
z
" transform="scale(0.015625)"/>
       <path id="ArialMT-78" d="M 47 0 
L 1259 1725 
L 138 3319 
L 841 3319 
L 1350 2541 
Q 1494 2319 1581 2169 
Q 1719 2375 1834 2534 
L 2394 3319 
L 3066 3319 
L 1919 1756 
L 3153 0 
L 2463 0 
L 1781 1031 
L 1600 1309 
L 728 0 
L 47 0 
z
" transform="scale(0.015625)"/>
       <path id="ArialMT-70" d="M 422 -1272 
L 422 3319 
L 934 3319 
L 934 2888 
Q 1116 3141 1344 3267 
Q 1572 3394 1897 3394 
Q 2322 3394 2647 3175 
Q 2972 2956 3137 2557 
Q 3303 2159 3303 1684 
Q 3303 1175 3120 767 
Q 2938 359 2589 142 
Q 2241 -75 1856 -75 
Q 1575 -75 1351 44 
Q 1128 163 984 344 
L 984 -1272 
L 422 -1272 
z
M 931 1641 
Q 931 1000 1190 694 
Q 1450 388 1819 388 
Q 2194 388 2461 705 
Q 2728 1022 2728 1688 
Q 2728 2322 2467 2637 
Q 2206 2953 1844 2953 
Q 1484 2953 1207 2617 
Q 931 2281 931 1641 
z
" transform="scale(0.015625)"/>
       <path id="ArialMT-65" d="M 2694 1069 
L 3275 997 
Q 3138 488 2766 206 
Q 2394 -75 1816 -75 
Q 1088 -75 661 373 
Q 234 822 234 1631 
Q 234 2469 665 2931 
Q 1097 3394 1784 3394 
Q 2450 3394 2872 2941 
Q 3294 2488 3294 1666 
Q 3294 1616 3291 1516 
L 816 1516 
Q 847 969 1125 678 
Q 1403 388 1819 388 
Q 2128 388 2347 550 
Q 2566 713 2694 1069 
z
M 847 1978 
L 2700 1978 
Q 2663 2397 2488 2606 
Q 2219 2931 1791 2931 
Q 1403 2931 1139 2672 
Q 875 2413 847 1978 
z
" transform="scale(0.015625)"/>
       <path id="ArialMT-63" d="M 2588 1216 
L 3141 1144 
Q 3050 572 2676 248 
Q 2303 -75 1759 -75 
Q 1078 -75 664 370 
Q 250 816 250 1647 
Q 250 2184 428 2587 
Q 606 2991 970 3192 
Q 1334 3394 1763 3394 
Q 2303 3394 2647 3120 
Q 2991 2847 3088 2344 
L 2541 2259 
Q 2463 2594 2264 2762 
Q 2066 2931 1784 2931 
Q 1359 2931 1093 2626 
Q 828 2322 828 1663 
Q 828 994 1084 691 
Q 1341 388 1753 388 
Q 2084 388 2306 591 
Q 2528 794 2588 1216 
z
" transform="scale(0.015625)"/>
       <path id="ArialMT-74" d="M 1650 503 
L 1731 6 
Q 1494 -44 1306 -44 
Q 1000 -44 831 53 
Q 663 150 594 308 
Q 525 466 525 972 
L 525 2881 
L 113 2881 
L 113 3319 
L 525 3319 
L 525 4141 
L 1084 4478 
L 1084 3319 
L 1650 3319 
L 1650 2881 
L 1084 2881 
L 1084 941 
Q 1084 700 1114 631 
Q 1144 563 1211 522 
Q 1278 481 1403 481 
Q 1497 481 1650 503 
z
" transform="scale(0.015625)"/>
       <path id="ArialMT-61" d="M 2588 409 
Q 2275 144 1986 34 
Q 1697 -75 1366 -75 
Q 819 -75 525 192 
Q 231 459 231 875 
Q 231 1119 342 1320 
Q 453 1522 633 1644 
Q 813 1766 1038 1828 
Q 1203 1872 1538 1913 
Q 2219 1994 2541 2106 
Q 2544 2222 2544 2253 
Q 2544 2597 2384 2738 
Q 2169 2928 1744 2928 
Q 1347 2928 1158 2789 
Q 969 2650 878 2297 
L 328 2372 
Q 403 2725 575 2942 
Q 747 3159 1072 3276 
Q 1397 3394 1825 3394 
Q 2250 3394 2515 3294 
Q 2781 3194 2906 3042 
Q 3031 2891 3081 2659 
Q 3109 2516 3109 2141 
L 3109 1391 
Q 3109 606 3145 398 
Q 3181 191 3288 0 
L 2700 0 
Q 2613 175 2588 409 
z
M 2541 1666 
Q 2234 1541 1622 1453 
Q 1275 1403 1131 1340 
Q 988 1278 909 1158 
Q 831 1038 831 891 
Q 831 666 1001 516 
Q 1172 366 1500 366 
Q 1825 366 2078 508 
Q 2331 650 2450 897 
Q 2541 1088 2541 1459 
L 2541 1666 
z
" transform="scale(0.015625)"/>
       <path id="ArialMT-69" d="M 425 3934 
L 425 4581 
L 988 4581 
L 988 3934 
L 425 3934 
z
M 425 0 
L 425 3319 
L 988 3319 
L 988 0 
L 425 0 
z
" transform="scale(0.015625)"/>
       <path id="ArialMT-6f" d="M 213 1659 
Q 213 2581 725 3025 
Q 1153 3394 1769 3394 
Q 2453 3394 2887 2945 
Q 3322 2497 3322 1706 
Q 3322 1066 3130 698 
Q 2938 331 2570 128 
Q 2203 -75 1769 -75 
Q 1072 -75 642 372 
Q 213 819 213 1659 
z
M 791 1659 
Q 791 1022 1069 705 
Q 1347 388 1769 388 
Q 2188 388 2466 706 
Q 2744 1025 2744 1678 
Q 2744 2294 2464 2611 
Q 2184 2928 1769 2928 
Q 1347 2928 1069 2612 
Q 791 2297 791 1659 
z
" transform="scale(0.015625)"/>
       <path id="ArialMT-6e" d="M 422 0 
L 422 3319 
L 928 3319 
L 928 2847 
Q 1294 3394 1984 3394 
Q 2284 3394 2536 3286 
Q 2788 3178 2913 3003 
Q 3038 2828 3088 2588 
Q 3119 2431 3119 2041 
L 3119 0 
L 2556 0 
L 2556 2019 
Q 2556 2363 2490 2533 
Q 2425 2703 2258 2804 
Q 2091 2906 1866 2906 
Q 1506 2906 1245 2678 
Q 984 2450 984 1813 
L 984 0 
L 422 0 
z
" transform="scale(0.015625)"/>
      </defs>
      <use xlink:href="#ArialMT-45"/>
      <use xlink:href="#ArialMT-78" x="66.699219"/>
      <use xlink:href="#ArialMT-70" x="116.699219"/>
      <use xlink:href="#ArialMT-65" x="172.314453"/>
      <use xlink:href="#ArialMT-63" x="227.929688"/>
      <use xlink:href="#ArialMT-74" x="277.929688"/>
      <use xlink:href="#ArialMT-61" x="305.712891"/>
      <use xlink:href="#ArialMT-74" x="361.328125"/>
      <use xlink:href="#ArialMT-69" x="389.111328"/>
      <use xlink:href="#ArialMT-6f" x="411.328125"/>
      <use xlink:href="#ArialMT-6e" x="466.943359"/>
     </g>
    </g>
    <g id="text_12">
     <!-- 1e7 -->
     <g style="fill: #262626" transform="translate(45.83 18.72)scale(0.1 -0.1)">
      <use xlink:href="#ArialMT-31"/>
      <use xlink:href="#ArialMT-65" x="55.615234"/>
      <use xlink:href="#ArialMT-37" x="111.230469"/>
     </g>
    </g>
   </g>
   <g id="PolyCollection_1">
    <defs>
     <path id="m38f933a9ae" d="M 59.738182 -290.505495 
L 59.738182 -290.505494 
L 59.738182 -290.505495 
L 59.738182 -290.505495 
z
" style="stroke: #1f77b4; stroke-opacity: 0.2"/>
    </defs>
    <g clip-path="url(#p8951f19339)">
     <use xlink:href="#m38f933a9ae" x="0" y="504" style="fill: #1f77b4; fill-opacity: 0.2; stroke: #1f77b4; stroke-opacity: 0.2"/>
    </g>
   </g>
   <g id="PolyCollection_2">
    <defs>
     <path id="m17926253f3" d="M 59.738182 -290.505495 
L 59.738182 -290.505495 
L 59.738182 -290.505495 
L 59.738182 -290.505495 
z
" style="stroke: #ff7f0e; stroke-opacity: 0.2"/>
    </defs>
    <g clip-path="url(#p8951f19339)">
     <use xlink:href="#m17926253f3" x="0" y="504" style="fill: #ff7f0e; fill-opacity: 0.2; stroke: #ff7f0e; stroke-opacity: 0.2"/>
    </g>
   </g>
   <g id="PolyCollection_3">
    <defs>
     <path id="md566b2fa6a" d="M 59.738182 -290.505495 
L 59.738182 -290.505495 
L 59.738182 -290.505495 
L 59.738182 -290.505495 
z
" style="stroke: #2ca02c; stroke-opacity: 0.2"/>
    </defs>
    <g clip-path="url(#p8951f19339)">
     <use xlink:href="#md566b2fa6a" x="0" y="504" style="fill: #2ca02c; fill-opacity: 0.2; stroke: #2ca02c; stroke-opacity: 0.2"/>
    </g>
   </g>
   <g id="line2d_1">
    <path d="M 59.738182 213.494506 
L 66.100356 213.494504 
L 70.61439 213.494502 
L 76.976563 213.494498 
L 81.490598 213.494494 
L 87.852771 213.494488 
L 92.366805 213.494478 
L 97.363679 213.49447 
L 101.698385 213.494456 
L 106.74437 213.494432 
L 111.453327 213.494415 
L 116.183793 213.49437 
L 120.964235 213.494326 
L 125.714229 213.494262 
L 130.431857 213.494192 
L 135.118322 213.494047 
L 139.855834 213.493909 
L 144.582391 213.493684 
L 149.314784 213.493435 
L 154.022777 213.492963 
L 158.733161 213.492556 
L 163.456389 213.491735 
L 168.167302 213.490864 
L 172.889296 213.489689 
L 177.601899 213.488119 
L 182.316257 213.485531 
L 187.03227 213.482888 
L 191.747845 213.478003 
L 196.462154 213.472969 
L 201.176697 213.465598 
L 205.891381 213.454567 
L 210.606149 213.440349 
L 215.321096 213.420662 
L 220.035608 213.393841 
L 224.750495 213.360753 
L 229.465047 213.307734 
L 234.17975 213.243159 
L 238.894364 213.168577 
L 243.609031 213.053265 
L 248.323656 212.909702 
L 253.038335 212.705592 
L 257.752948 212.391578 
L 262.467599 212.036906 
L 267.182243 211.486834 
L 271.896883 210.685645 
L 276.611524 209.959934 
L 281.32616 208.338748 
L 286.040798 206.586759 
L 290.755437 204.424255 
L 295.470075 201.061394 
L 300.184715 197.383067 
L 304.899352 191.492182 
L 309.61399 185.022029 
L 314.328628 173.432586 
L 319.043266 160.752096 
L 323.757904 138.541771 
L 328.472542 113.867216 
L 333.18718 81.863016 
L 337.901818 37.347923 
" clip-path="url(#p8951f19339)" style="fill: none; stroke: #1f77b4; stroke-width: 1.5; stroke-linecap: round"/>
   </g>
   <g id="line2d_2">
    <path d="M 59.738182 213.494505 
L 66.100356 213.494504 
L 70.61439 213.494502 
L 76.976563 213.494498 
L 81.490598 213.494495 
L 87.852771 213.494487 
L 92.366805 213.49448 
L 97.363679 213.494469 
L 101.698385 213.494456 
L 106.74437 213.494436 
L 111.453327 213.494411 
L 116.183793 213.494376 
L 120.964235 213.494328 
L 125.714229 213.494264 
L 130.431857 213.494179 
L 135.118322 213.494063 
L 139.855834 213.493906 
L 144.582391 213.493695 
L 149.314784 213.493408 
L 154.022777 213.493022 
L 158.733161 213.492502 
L 163.456389 213.491797 
L 168.167302 213.490847 
L 172.889296 213.489561 
L 177.601899 213.487828 
L 182.316257 213.485487 
L 187.03227 213.482323 
L 191.747845 213.478051 
L 196.462154 213.472283 
L 201.176697 213.464494 
L 205.891381 213.453973 
L 210.606149 213.439766 
L 215.321096 213.420577 
L 220.035608 213.394666 
L 224.750495 213.35967 
L 229.465047 213.312411 
L 234.17975 213.248587 
L 238.894364 213.162394 
L 243.609031 213.045991 
L 248.323656 212.88879 
L 253.038335 212.67649 
L 257.752948 212.389786 
L 262.467599 212.002591 
L 267.182243 211.47969 
L 271.896883 210.773517 
L 276.611524 209.819839 
L 281.32616 208.531909 
L 286.040798 206.792573 
L 290.755437 204.443618 
L 295.470075 201.271381 
L 300.184715 196.987308 
L 304.899352 191.201718 
L 309.61399 183.388342 
L 314.328628 172.836465 
L 319.043266 158.586271 
L 323.757904 139.341544 
L 328.472542 113.351753 
L 333.18718 78.252828 
L 337.901818 30.852119 
" clip-path="url(#p8951f19339)" style="fill: none; stroke: #ff7f0e; stroke-width: 1.5; stroke-linecap: round"/>
   </g>
   <g id="line2d_3">
    <path d="M 59.738182 213.494505 
L 66.100356 213.494504 
L 70.61439 213.494502 
L 76.976563 213.494498 
L 81.490598 213.494495 
L 87.852771 213.494487 
L 92.366805 213.49448 
L 97.363679 213.494469 
L 101.698385 213.494456 
L 106.74437 213.494436 
L 111.453327 213.494411 
L 116.183793 213.494376 
L 120.964235 213.494328 
L 125.714229 213.494264 
L 130.431857 213.494179 
L 135.118322 213.494063 
L 139.855834 213.493906 
L 144.582391 213.493695 
L 149.314784 213.493408 
L 154.022777 213.493022 
L 158.733161 213.492502 
L 163.456389 213.491797 
L 168.167302 213.490847 
L 172.889296 213.489561 
L 177.601899 213.487828 
L 182.316257 213.485487 
L 187.03227 213.482323 
L 191.747845 213.478051 
L 196.462154 213.472283 
L 201.176697 213.464494 
L 205.891381 213.453973 
L 210.606149 213.439766 
L 215.321096 213.420577 
L 220.035608 213.394666 
L 224.750495 213.35967 
L 229.465047 213.312411 
L 234.17975 213.248587 
L 238.894364 213.162394 
L 243.609031 213.045991 
L 248.323656 212.88879 
L 253.038335 212.67649 
L 257.752948 212.389786 
L 262.467599 212.002591 
L 267.182243 211.47969 
L 271.896883 210.773517 
L 276.611524 209.819839 
L 281.32616 208.531909 
L 286.040798 206.792573 
L 290.755437 204.443618 
L 295.470075 201.271381 
L 300.184715 196.987308 
L 304.899352 191.201718 
L 309.61399 183.388342 
L 314.328628 172.836465 
L 319.043266 158.586271 
L 323.757904 139.341544 
L 328.472542 113.351753 
L 333.18718 78.252828 
L 337.901818 30.852119 
" clip-path="url(#p8951f19339)" style="fill: none; stroke: #2ca02c; stroke-width: 1.5; stroke-linecap: round"/>
   </g>
   <g id="line2d_4"/>
   <g id="line2d_5"/>
   <g id="line2d_6"/>
   <g id="patch_3">
    <path d="M 45.83 222.626625 
L 45.83 21.72 
" style="fill: none; stroke: #262626; stroke-width: 0.8; stroke-linejoin: miter; stroke-linecap: square"/>
   </g>
   <g id="patch_4">
    <path d="M 351.81 222.626625 
L 351.81 21.72 
" style="fill: none; stroke: #262626; stroke-width: 0.8; stroke-linejoin: miter; stroke-linecap: square"/>
   </g>
   <g id="patch_5">
    <path d="M 45.83 222.626625 
L 351.81 222.626625 
" style="fill: none; stroke: #262626; stroke-width: 0.8; stroke-linejoin: miter; stroke-linecap: square"/>
   </g>
   <g id="patch_6">
    <path d="M 45.83 21.72 
L 351.81 21.72 
" style="fill: none; stroke: #262626; stroke-width: 0.8; stroke-linejoin: miter; stroke-linecap: square"/>
   </g>
   <g id="legend_1">
    <g id="patch_7">
     <path d="M 52.83 86.30125 
L 179.306562 86.30125 
Q 181.306562 86.30125 181.306562 84.30125 
L 181.306562 28.72 
Q 181.306562 26.72 179.306562 26.72 
L 52.83 26.72 
Q 50.83 26.72 50.83 28.72 
L 50.83 84.30125 
Q 50.83 86.30125 52.83 86.30125 
z
" style="fill: #ffffff; opacity: 0.8; stroke: #cccccc; stroke-linejoin: miter"/>
    </g>
    <g id="text_13">
     <!-- metric -->
     <g style="fill: #262626" transform="translate(102.458125 37.877813)scale(0.1 -0.1)">
      <defs>
       <path id="ArialMT-6d" d="M 422 0 
L 422 3319 
L 925 3319 
L 925 2853 
Q 1081 3097 1340 3245 
Q 1600 3394 1931 3394 
Q 2300 3394 2536 3241 
Q 2772 3088 2869 2813 
Q 3263 3394 3894 3394 
Q 4388 3394 4653 3120 
Q 4919 2847 4919 2278 
L 4919 0 
L 4359 0 
L 4359 2091 
Q 4359 2428 4304 2576 
Q 4250 2725 4106 2815 
Q 3963 2906 3769 2906 
Q 3419 2906 3187 2673 
Q 2956 2441 2956 1928 
L 2956 0 
L 2394 0 
L 2394 2156 
Q 2394 2531 2256 2718 
Q 2119 2906 1806 2906 
Q 1569 2906 1367 2781 
Q 1166 2656 1075 2415 
Q 984 2175 984 1722 
L 984 0 
L 422 0 
z
" transform="scale(0.015625)"/>
       <path id="ArialMT-72" d="M 416 0 
L 416 3319 
L 922 3319 
L 922 2816 
Q 1116 3169 1280 3281 
Q 1444 3394 1641 3394 
Q 1925 3394 2219 3213 
L 2025 2691 
Q 1819 2813 1613 2813 
Q 1428 2813 1281 2702 
Q 1134 2591 1072 2394 
Q 978 2094 978 1738 
L 978 0 
L 416 0 
z
" transform="scale(0.015625)"/>
      </defs>
      <use xlink:href="#ArialMT-6d"/>
      <use xlink:href="#ArialMT-65" x="83.300781"/>
      <use xlink:href="#ArialMT-74" x="138.916016"/>
      <use xlink:href="#ArialMT-72" x="166.699219"/>
      <use xlink:href="#ArialMT-69" x="200"/>
      <use xlink:href="#ArialMT-63" x="222.216797"/>
     </g>
    </g>
    <g id="line2d_7">
     <path d="M 54.83 48.523125 
L 64.83 48.523125 
L 74.83 48.523125 
" style="fill: none; stroke: #1f77b4; stroke-width: 1.5; stroke-linecap: round"/>
    </g>
    <g id="text_14">
     <!-- HarmonicMeanRank -->
     <g style="fill: #262626" transform="translate(82.83 52.023125)scale(0.1 -0.1)">
      <defs>
       <path id="ArialMT-48" d="M 513 0 
L 513 4581 
L 1119 4581 
L 1119 2700 
L 3500 2700 
L 3500 4581 
L 4106 4581 
L 4106 0 
L 3500 0 
L 3500 2159 
L 1119 2159 
L 1119 0 
L 513 0 
z
" transform="scale(0.015625)"/>
       <path id="ArialMT-4d" d="M 475 0 
L 475 4581 
L 1388 4581 
L 2472 1338 
Q 2622 884 2691 659 
Q 2769 909 2934 1394 
L 4031 4581 
L 4847 4581 
L 4847 0 
L 4263 0 
L 4263 3834 
L 2931 0 
L 2384 0 
L 1059 3900 
L 1059 0 
L 475 0 
z
" transform="scale(0.015625)"/>
       <path id="ArialMT-52" d="M 503 0 
L 503 4581 
L 2534 4581 
Q 3147 4581 3465 4457 
Q 3784 4334 3975 4021 
Q 4166 3709 4166 3331 
Q 4166 2844 3850 2509 
Q 3534 2175 2875 2084 
Q 3116 1969 3241 1856 
Q 3506 1613 3744 1247 
L 4541 0 
L 3778 0 
L 3172 953 
Q 2906 1366 2734 1584 
Q 2563 1803 2427 1890 
Q 2291 1978 2150 2013 
Q 2047 2034 1813 2034 
L 1109 2034 
L 1109 0 
L 503 0 
z
M 1109 2559 
L 2413 2559 
Q 2828 2559 3062 2645 
Q 3297 2731 3419 2920 
Q 3541 3109 3541 3331 
Q 3541 3656 3305 3865 
Q 3069 4075 2559 4075 
L 1109 4075 
L 1109 2559 
z
" transform="scale(0.015625)"/>
       <path id="ArialMT-6b" d="M 425 0 
L 425 4581 
L 988 4581 
L 988 1969 
L 2319 3319 
L 3047 3319 
L 1778 2088 
L 3175 0 
L 2481 0 
L 1384 1697 
L 988 1316 
L 988 0 
L 425 0 
z
" transform="scale(0.015625)"/>
      </defs>
      <use xlink:href="#ArialMT-48"/>
      <use xlink:href="#ArialMT-61" x="72.216797"/>
      <use xlink:href="#ArialMT-72" x="127.832031"/>
      <use xlink:href="#ArialMT-6d" x="161.132812"/>
      <use xlink:href="#ArialMT-6f" x="244.433594"/>
      <use xlink:href="#ArialMT-6e" x="300.048828"/>
      <use xlink:href="#ArialMT-69" x="355.664062"/>
      <use xlink:href="#ArialMT-63" x="377.880859"/>
      <use xlink:href="#ArialMT-4d" x="427.880859"/>
      <use xlink:href="#ArialMT-65" x="511.181641"/>
      <use xlink:href="#ArialMT-61" x="566.796875"/>
      <use xlink:href="#ArialMT-6e" x="622.412109"/>
      <use xlink:href="#ArialMT-52" x="678.027344"/>
      <use xlink:href="#ArialMT-61" x="750.244141"/>
      <use xlink:href="#ArialMT-6e" x="805.859375"/>
      <use xlink:href="#ArialMT-6b" x="861.474609"/>
     </g>
    </g>
    <g id="line2d_8">
     <path d="M 54.83 62.668437 
L 64.83 62.668437 
L 74.83 62.668437 
" style="fill: none; stroke: #ff7f0e; stroke-width: 1.5; stroke-linecap: round"/>
    </g>
    <g id="text_15">
     <!-- ArithmeticMeanRank -->
     <g style="fill: #262626" transform="translate(82.83 66.168437)scale(0.1 -0.1)">
      <defs>
       <path id="ArialMT-41" d="M -9 0 
L 1750 4581 
L 2403 4581 
L 4278 0 
L 3588 0 
L 3053 1388 
L 1138 1388 
L 634 0 
L -9 0 
z
M 1313 1881 
L 2866 1881 
L 2388 3150 
Q 2169 3728 2063 4100 
Q 1975 3659 1816 3225 
L 1313 1881 
z
" transform="scale(0.015625)"/>
       <path id="ArialMT-68" d="M 422 0 
L 422 4581 
L 984 4581 
L 984 2938 
Q 1378 3394 1978 3394 
Q 2347 3394 2619 3248 
Q 2891 3103 3008 2847 
Q 3125 2591 3125 2103 
L 3125 0 
L 2563 0 
L 2563 2103 
Q 2563 2525 2380 2717 
Q 2197 2909 1863 2909 
Q 1613 2909 1392 2779 
Q 1172 2650 1078 2428 
Q 984 2206 984 1816 
L 984 0 
L 422 0 
z
" transform="scale(0.015625)"/>
      </defs>
      <use xlink:href="#ArialMT-41"/>
      <use xlink:href="#ArialMT-72" x="66.699219"/>
      <use xlink:href="#ArialMT-69" x="100"/>
      <use xlink:href="#ArialMT-74" x="122.216797"/>
      <use xlink:href="#ArialMT-68" x="150"/>
      <use xlink:href="#ArialMT-6d" x="205.615234"/>
      <use xlink:href="#ArialMT-65" x="288.916016"/>
      <use xlink:href="#ArialMT-74" x="344.53125"/>
      <use xlink:href="#ArialMT-69" x="372.314453"/>
      <use xlink:href="#ArialMT-63" x="394.53125"/>
      <use xlink:href="#ArialMT-4d" x="444.53125"/>
      <use xlink:href="#ArialMT-65" x="527.832031"/>
      <use xlink:href="#ArialMT-61" x="583.447266"/>
      <use xlink:href="#ArialMT-6e" x="639.0625"/>
      <use xlink:href="#ArialMT-52" x="694.677734"/>
      <use xlink:href="#ArialMT-61" x="766.894531"/>
      <use xlink:href="#ArialMT-6e" x="822.509766"/>
      <use xlink:href="#ArialMT-6b" x="878.125"/>
     </g>
    </g>
    <g id="line2d_9">
     <path d="M 54.83 76.81375 
L 64.83 76.81375 
L 74.83 76.81375 
" style="fill: none; stroke: #2ca02c; stroke-width: 1.5; stroke-linecap: round"/>
    </g>
    <g id="text_16">
     <!-- GeometricMeanRank -->
     <g style="fill: #262626" transform="translate(82.83 80.31375)scale(0.1 -0.1)">
      <defs>
       <path id="ArialMT-47" d="M 2638 1797 
L 2638 2334 
L 4578 2338 
L 4578 638 
Q 4131 281 3656 101 
Q 3181 -78 2681 -78 
Q 2006 -78 1454 211 
Q 903 500 622 1047 
Q 341 1594 341 2269 
Q 341 2938 620 3517 
Q 900 4097 1425 4378 
Q 1950 4659 2634 4659 
Q 3131 4659 3532 4498 
Q 3934 4338 4162 4050 
Q 4391 3763 4509 3300 
L 3963 3150 
Q 3859 3500 3706 3700 
Q 3553 3900 3268 4020 
Q 2984 4141 2638 4141 
Q 2222 4141 1919 4014 
Q 1616 3888 1430 3681 
Q 1244 3475 1141 3228 
Q 966 2803 966 2306 
Q 966 1694 1177 1281 
Q 1388 869 1791 669 
Q 2194 469 2647 469 
Q 3041 469 3416 620 
Q 3791 772 3984 944 
L 3984 1797 
L 2638 1797 
z
" transform="scale(0.015625)"/>
      </defs>
      <use xlink:href="#ArialMT-47"/>
      <use xlink:href="#ArialMT-65" x="77.783203"/>
      <use xlink:href="#ArialMT-6f" x="133.398438"/>
      <use xlink:href="#ArialMT-6d" x="189.013672"/>
      <use xlink:href="#ArialMT-65" x="272.314453"/>
      <use xlink:href="#ArialMT-74" x="327.929688"/>
      <use xlink:href="#ArialMT-72" x="355.712891"/>
      <use xlink:href="#ArialMT-69" x="389.013672"/>
      <use xlink:href="#ArialMT-63" x="411.230469"/>
      <use xlink:href="#ArialMT-4d" x="461.230469"/>
      <use xlink:href="#ArialMT-65" x="544.53125"/>
      <use xlink:href="#ArialMT-61" x="600.146484"/>
      <use xlink:href="#ArialMT-6e" x="655.761719"/>
      <use xlink:href="#ArialMT-52" x="711.376953"/>
      <use xlink:href="#ArialMT-61" x="783.59375"/>
      <use xlink:href="#ArialMT-6e" x="839.208984"/>
      <use xlink:href="#ArialMT-6b" x="894.824219"/>
     </g>
    </g>
   </g>
  </g>
  <g id="axes_2">
   <g id="patch_8">
    <path d="M 403.22 222.626625 
L 709.2 222.626625 
L 709.2 21.72 
L 403.22 21.72 
z
" style="fill: #ffffff"/>
   </g>
   <g id="matplotlib.axis_3">
    <g id="xtick_5">
     <g id="text_17">
      <!-- $\mathdefault{10^{1}}$ -->
      <g style="fill: #262626" transform="translate(434.531954 239.939125)scale(0.1 -0.1)">
       <use xlink:href="#ArialMT-31" transform="translate(0 0.99375)"/>
       <use xlink:href="#ArialMT-30" transform="translate(55.615234 0.99375)"/>
       <use xlink:href="#ArialMT-31" transform="translate(112.972813 70.6875)scale(0.7)"/>
      </g>
     </g>
    </g>
    <g id="xtick_6">
     <g id="text_18">
      <!-- $\mathdefault{10^{3}}$ -->
      <g style="fill: #262626" transform="translate(506.791916 239.939125)scale(0.1 -0.1)">
       <use xlink:href="#ArialMT-31" transform="translate(0 0.99375)"/>
       <use xlink:href="#ArialMT-30" transform="translate(55.615234 0.99375)"/>
       <use xlink:href="#ArialMT-33" transform="translate(112.972813 70.6875)scale(0.7)"/>
      </g>
     </g>
    </g>
    <g id="xtick_7">
     <g id="text_19">
      <!-- $\mathdefault{10^{5}}$ -->
      <g style="fill: #262626" transform="translate(579.051877 239.839125)scale(0.1 -0.1)">
       <use xlink:href="#ArialMT-31" transform="translate(0 0.879688)"/>
       <use xlink:href="#ArialMT-30" transform="translate(55.615234 0.879688)"/>
       <use xlink:href="#ArialMT-35" transform="translate(112.972813 70.573438)scale(0.7)"/>
      </g>
     </g>
    </g>
    <g id="xtick_8">
     <g id="text_20">
      <!-- $\mathdefault{10^{7}}$ -->
      <g style="fill: #262626" transform="translate(651.311838 239.839125)scale(0.1 -0.1)">
       <use xlink:href="#ArialMT-31" transform="translate(0 0.846875)"/>
       <use xlink:href="#ArialMT-30" transform="translate(55.615234 0.846875)"/>
       <use xlink:href="#ArialMT-37" transform="translate(112.972813 70.540625)scale(0.7)"/>
      </g>
     </g>
    </g>
   </g>
   <g id="matplotlib.axis_4">
    <g id="ytick_7">
     <g id="text_21">
      <!-- 0 -->
      <g style="fill: #262626" transform="translate(390.659063 217.073412)scale(0.1 -0.1)">
       <use xlink:href="#ArialMT-30"/>
      </g>
     </g>
    </g>
    <g id="ytick_8">
     <g id="text_22">
      <!-- 2 -->
      <g style="fill: #262626" transform="translate(390.659063 175.439498)scale(0.1 -0.1)">
       <use xlink:href="#ArialMT-32"/>
      </g>
     </g>
    </g>
    <g id="ytick_9">
     <g id="text_23">
      <!-- 4 -->
      <g style="fill: #262626" transform="translate(390.659063 133.805585)scale(0.1 -0.1)">
       <use xlink:href="#ArialMT-34"/>
      </g>
     </g>
    </g>
    <g id="ytick_10">
     <g id="text_24">
      <!-- 6 -->
      <g style="fill: #262626" transform="translate(390.659063 92.171672)scale(0.1 -0.1)">
       <defs>
        <path id="ArialMT-36" d="M 3184 3459 
L 2625 3416 
Q 2550 3747 2413 3897 
Q 2184 4138 1850 4138 
Q 1581 4138 1378 3988 
Q 1113 3794 959 3422 
Q 806 3050 800 2363 
Q 1003 2672 1297 2822 
Q 1591 2972 1913 2972 
Q 2475 2972 2870 2558 
Q 3266 2144 3266 1488 
Q 3266 1056 3080 686 
Q 2894 316 2569 119 
Q 2244 -78 1831 -78 
Q 1128 -78 684 439 
Q 241 956 241 2144 
Q 241 3472 731 4075 
Q 1159 4600 1884 4600 
Q 2425 4600 2770 4297 
Q 3116 3994 3184 3459 
z
M 888 1484 
Q 888 1194 1011 928 
Q 1134 663 1356 523 
Q 1578 384 1822 384 
Q 2178 384 2434 671 
Q 2691 959 2691 1453 
Q 2691 1928 2437 2201 
Q 2184 2475 1800 2475 
Q 1419 2475 1153 2201 
Q 888 1928 888 1484 
z
" transform="scale(0.015625)"/>
       </defs>
       <use xlink:href="#ArialMT-36"/>
      </g>
     </g>
    </g>
    <g id="ytick_11">
     <g id="text_25">
      <!-- 8 -->
      <g style="fill: #262626" transform="translate(390.659063 50.537758)scale(0.1 -0.1)">
       <defs>
        <path id="ArialMT-38" d="M 1131 2484 
Q 781 2613 612 2850 
Q 444 3088 444 3419 
Q 444 3919 803 4259 
Q 1163 4600 1759 4600 
Q 2359 4600 2725 4251 
Q 3091 3903 3091 3403 
Q 3091 3084 2923 2848 
Q 2756 2613 2416 2484 
Q 2838 2347 3058 2040 
Q 3278 1734 3278 1309 
Q 3278 722 2862 322 
Q 2447 -78 1769 -78 
Q 1091 -78 675 323 
Q 259 725 259 1325 
Q 259 1772 486 2073 
Q 713 2375 1131 2484 
z
M 1019 3438 
Q 1019 3113 1228 2906 
Q 1438 2700 1772 2700 
Q 2097 2700 2305 2904 
Q 2513 3109 2513 3406 
Q 2513 3716 2298 3927 
Q 2084 4138 1766 4138 
Q 1444 4138 1231 3931 
Q 1019 3725 1019 3438 
z
M 838 1322 
Q 838 1081 952 856 
Q 1066 631 1291 507 
Q 1516 384 1775 384 
Q 2178 384 2440 643 
Q 2703 903 2703 1303 
Q 2703 1709 2433 1975 
Q 2163 2241 1756 2241 
Q 1359 2241 1098 1978 
Q 838 1716 838 1322 
z
" transform="scale(0.015625)"/>
       </defs>
       <use xlink:href="#ArialMT-38"/>
      </g>
     </g>
    </g>
    <g id="text_26">
     <!-- Variance -->
     <g style="fill: #262626" transform="translate(384.671562 141.537375)rotate(-90)scale(0.1 -0.1)">
      <defs>
       <path id="ArialMT-56" d="M 1803 0 
L 28 4581 
L 684 4581 
L 1875 1253 
Q 2019 853 2116 503 
Q 2222 878 2363 1253 
L 3600 4581 
L 4219 4581 
L 2425 0 
L 1803 0 
z
" transform="scale(0.015625)"/>
      </defs>
      <use xlink:href="#ArialMT-56"/>
      <use xlink:href="#ArialMT-61" x="59.324219"/>
      <use xlink:href="#ArialMT-72" x="114.939453"/>
      <use xlink:href="#ArialMT-69" x="148.240234"/>
      <use xlink:href="#ArialMT-61" x="170.457031"/>
      <use xlink:href="#ArialMT-6e" x="226.072266"/>
      <use xlink:href="#ArialMT-63" x="281.6875"/>
      <use xlink:href="#ArialMT-65" x="331.6875"/>
     </g>
    </g>
    <g id="text_27">
     <!-- 1e14 -->
     <g style="fill: #262626" transform="translate(403.22 18.72)scale(0.1 -0.1)">
      <use xlink:href="#ArialMT-31"/>
      <use xlink:href="#ArialMT-65" x="55.615234"/>
      <use xlink:href="#ArialMT-31" x="111.230469"/>
      <use xlink:href="#ArialMT-34" x="166.845703"/>
     </g>
    </g>
   </g>
   <g id="PolyCollection_4">
    <defs>
     <path id="mde3bb33ce3" d="M 417.128182 -290.505494 
L 417.128182 -290.505494 
L 417.128182 -290.505494 
L 417.128182 -290.505494 
z
" style="stroke: #1f77b4; stroke-opacity: 0.2"/>
    </defs>
    <g clip-path="url(#pe19711111c)">
     <use xlink:href="#mde3bb33ce3" x="0" y="504" style="fill: #1f77b4; fill-opacity: 0.2; stroke: #1f77b4; stroke-opacity: 0.2"/>
    </g>
   </g>
   <g id="PolyCollection_5">
    <defs>
     <path id="m9dbf955f40" d="M 417.128182 -290.505494 
L 417.128182 -290.505494 
L 417.128182 -290.505494 
L 417.128182 -290.505494 
z
" style="stroke: #ff7f0e; stroke-opacity: 0.2"/>
    </defs>
    <g clip-path="url(#pe19711111c)">
     <use xlink:href="#m9dbf955f40" x="0" y="504" style="fill: #ff7f0e; fill-opacity: 0.2; stroke: #ff7f0e; stroke-opacity: 0.2"/>
    </g>
   </g>
   <g id="PolyCollection_6">
    <defs>
     <path id="m1baf48ccf4" d="M 417.128182 -290.505494 
L 417.128182 -290.505494 
L 417.128182 -290.505494 
L 417.128182 -290.505494 
z
" style="stroke: #2ca02c; stroke-opacity: 0.2"/>
    </defs>
    <g clip-path="url(#pe19711111c)">
     <use xlink:href="#m1baf48ccf4" x="0" y="504" style="fill: #2ca02c; fill-opacity: 0.2; stroke: #2ca02c; stroke-opacity: 0.2"/>
    </g>
   </g>
   <g id="line2d_10">
    <path d="M 417.128182 213.494506 
L 423.490356 213.494506 
L 428.00439 213.494506 
L 434.366563 213.494506 
L 438.880598 213.494506 
L 445.242771 213.494506 
L 449.756805 213.494506 
L 454.753679 213.494506 
L 459.088385 213.494506 
L 464.13437 213.494506 
L 468.843327 213.494506 
L 473.573793 213.494506 
L 478.354235 213.494506 
L 483.104229 213.494506 
L 487.821857 213.494506 
L 492.508322 213.494506 
L 497.245834 213.494506 
L 501.972391 213.494506 
L 506.704784 213.494506 
L 511.412777 213.494506 
L 516.123161 213.494506 
L 520.846389 213.494506 
L 525.557302 213.494506 
L 530.279296 213.494506 
L 534.991899 213.494505 
L 539.706257 213.494505 
L 544.42227 213.494505 
L 549.137845 213.494504 
L 553.852154 213.494503 
L 558.566697 213.494501 
L 563.281381 213.494496 
L 567.996149 213.49449 
L 572.711096 213.494479 
L 577.425608 213.49445 
L 582.140495 213.494413 
L 586.855047 213.494344 
L 591.56975 213.494196 
L 596.284364 213.49391 
L 600.999031 213.493471 
L 605.713656 213.492632 
L 610.428335 213.490985 
L 615.142948 213.488614 
L 619.857599 213.483099 
L 624.572243 213.47205 
L 629.286883 213.457147 
L 634.001524 213.430044 
L 638.71616 213.369023 
L 643.430798 213.254295 
L 648.145437 213.106095 
L 652.860075 212.71228 
L 657.574715 212.100345 
L 662.289352 210.823843 
L 667.00399 208.788941 
L 671.718628 204.650794 
L 676.433266 197.667926 
L 681.147904 185.410024 
L 685.862542 159.482103 
L 690.57718 117.20537 
L 695.291818 30.852119 
" clip-path="url(#pe19711111c)" style="fill: none; stroke: #1f77b4; stroke-width: 1.5; stroke-linecap: round"/>
   </g>
   <g id="line2d_11">
    <path d="M 417.128182 213.494506 
L 423.490356 213.494506 
L 428.00439 213.494506 
L 434.366563 213.494506 
L 438.880598 213.494506 
L 445.242771 213.494506 
L 449.756805 213.494506 
L 454.753679 213.494506 
L 459.088385 213.494506 
L 464.13437 213.494506 
L 468.843327 213.494506 
L 473.573793 213.494506 
L 478.354235 213.494506 
L 483.104229 213.494506 
L 487.821857 213.494506 
L 492.508322 213.494506 
L 497.245834 213.494506 
L 501.972391 213.494506 
L 506.704784 213.494506 
L 511.412777 213.494506 
L 516.123161 213.494506 
L 520.846389 213.494506 
L 525.557302 213.494506 
L 530.279296 213.494506 
L 534.991899 213.494505 
L 539.706257 213.494505 
L 544.42227 213.494505 
L 549.137845 213.494504 
L 553.852154 213.494503 
L 558.566697 213.494501 
L 563.281381 213.494497 
L 567.996149 213.49449 
L 572.711096 213.494477 
L 577.425608 213.494454 
L 582.140495 213.494411 
L 586.855047 213.494333 
L 591.56975 213.494191 
L 596.284364 213.493932 
L 600.999031 213.49346 
L 605.713656 213.492598 
L 610.428335 213.491026 
L 615.142948 213.488159 
L 619.857599 213.482931 
L 624.572243 213.473395 
L 629.286883 213.456003 
L 634.001524 213.424284 
L 638.71616 213.366435 
L 643.430798 213.260927 
L 648.145437 213.0685 
L 652.860075 212.717548 
L 657.574715 212.077474 
L 662.289352 210.910094 
L 667.00399 208.781003 
L 671.718628 204.897924 
L 676.433266 197.815885 
L 681.147904 184.89952 
L 685.862542 161.342392 
L 690.57718 118.378423 
L 695.291818 40.019866 
" clip-path="url(#pe19711111c)" style="fill: none; stroke: #ff7f0e; stroke-width: 1.5; stroke-linecap: round"/>
   </g>
   <g id="line2d_12">
    <path d="M 417.128182 213.494506 
L 423.490356 213.494506 
L 428.00439 213.494506 
L 434.366563 213.494506 
L 438.880598 213.494506 
L 445.242771 213.494506 
L 449.756805 213.494506 
L 454.753679 213.494506 
L 459.088385 213.494506 
L 464.13437 213.494506 
L 468.843327 213.494506 
L 473.573793 213.494506 
L 478.354235 213.494506 
L 483.104229 213.494506 
L 487.821857 213.494506 
L 492.508322 213.494506 
L 497.245834 213.494506 
L 501.972391 213.494506 
L 506.704784 213.494506 
L 511.412777 213.494506 
L 516.123161 213.494506 
L 520.846389 213.494506 
L 525.557302 213.494506 
L 530.279296 213.494506 
L 534.991899 213.494505 
L 539.706257 213.494505 
L 544.42227 213.494505 
L 549.137845 213.494504 
L 553.852154 213.494503 
L 558.566697 213.494501 
L 563.281381 213.494497 
L 567.996149 213.494489 
L 572.711096 213.494479 
L 577.425608 213.494457 
L 582.140495 213.494408 
L 586.855047 213.494347 
L 591.56975 213.494162 
L 596.284364 213.493951 
L 600.999031 213.493399 
L 605.713656 213.492513 
L 610.428335 213.490997 
L 615.142948 213.488245 
L 619.857599 213.483325 
L 624.572243 213.473281 
L 629.286883 213.455916 
L 634.001524 213.420688 
L 638.71616 213.363314 
L 643.430798 213.258423 
L 648.145437 213.085853 
L 652.860075 212.676987 
L 657.574715 212.13782 
L 662.289352 211.107173 
L 667.00399 208.986146 
L 671.718628 205.104538 
L 676.433266 197.548021 
L 681.147904 184.622874 
L 685.862542 161.737029 
L 690.57718 115.553152 
L 695.291818 36.401998 
" clip-path="url(#pe19711111c)" style="fill: none; stroke: #2ca02c; stroke-width: 1.5; stroke-linecap: round"/>
   </g>
   <g id="line2d_13"/>
   <g id="line2d_14"/>
   <g id="line2d_15"/>
   <g id="patch_9">
    <path d="M 403.22 222.626625 
L 403.22 21.72 
" style="fill: none; stroke: #262626; stroke-width: 0.8; stroke-linejoin: miter; stroke-linecap: square"/>
   </g>
   <g id="patch_10">
    <path d="M 709.2 222.626625 
L 709.2 21.72 
" style="fill: none; stroke: #262626; stroke-width: 0.8; stroke-linejoin: miter; stroke-linecap: square"/>
   </g>
   <g id="patch_11">
    <path d="M 403.22 222.626625 
L 709.2 222.626625 
" style="fill: none; stroke: #262626; stroke-width: 0.8; stroke-linejoin: miter; stroke-linecap: square"/>
   </g>
   <g id="patch_12">
    <path d="M 403.22 21.72 
L 709.2 21.72 
" style="fill: none; stroke: #262626; stroke-width: 0.8; stroke-linejoin: miter; stroke-linecap: square"/>
   </g>
   <g id="legend_2">
    <g id="patch_13">
     <path d="M 410.22 86.30125 
L 536.696563 86.30125 
Q 538.696563 86.30125 538.696563 84.30125 
L 538.696563 28.72 
Q 538.696563 26.72 536.696563 26.72 
L 410.22 26.72 
Q 408.22 26.72 408.22 28.72 
L 408.22 84.30125 
Q 408.22 86.30125 410.22 86.30125 
z
" style="fill: #ffffff; opacity: 0.8; stroke: #cccccc; stroke-linejoin: miter"/>
    </g>
    <g id="text_28">
     <!-- metric -->
     <g style="fill: #262626" transform="translate(459.848125 37.877813)scale(0.1 -0.1)">
      <use xlink:href="#ArialMT-6d"/>
      <use xlink:href="#ArialMT-65" x="83.300781"/>
      <use xlink:href="#ArialMT-74" x="138.916016"/>
      <use xlink:href="#ArialMT-72" x="166.699219"/>
      <use xlink:href="#ArialMT-69" x="200"/>
      <use xlink:href="#ArialMT-63" x="222.216797"/>
     </g>
    </g>
    <g id="line2d_16">
     <path d="M 412.22 48.523125 
L 422.22 48.523125 
L 432.22 48.523125 
" style="fill: none; stroke: #1f77b4; stroke-width: 1.5; stroke-linecap: round"/>
    </g>
    <g id="text_29">
     <!-- HarmonicMeanRank -->
     <g style="fill: #262626" transform="translate(440.22 52.023125)scale(0.1 -0.1)">
      <use xlink:href="#ArialMT-48"/>
      <use xlink:href="#ArialMT-61" x="72.216797"/>
      <use xlink:href="#ArialMT-72" x="127.832031"/>
      <use xlink:href="#ArialMT-6d" x="161.132812"/>
      <use xlink:href="#ArialMT-6f" x="244.433594"/>
      <use xlink:href="#ArialMT-6e" x="300.048828"/>
      <use xlink:href="#ArialMT-69" x="355.664062"/>
      <use xlink:href="#ArialMT-63" x="377.880859"/>
      <use xlink:href="#ArialMT-4d" x="427.880859"/>
      <use xlink:href="#ArialMT-65" x="511.181641"/>
      <use xlink:href="#ArialMT-61" x="566.796875"/>
      <use xlink:href="#ArialMT-6e" x="622.412109"/>
      <use xlink:href="#ArialMT-52" x="678.027344"/>
      <use xlink:href="#ArialMT-61" x="750.244141"/>
      <use xlink:href="#ArialMT-6e" x="805.859375"/>
      <use xlink:href="#ArialMT-6b" x="861.474609"/>
     </g>
    </g>
    <g id="line2d_17">
     <path d="M 412.22 62.668437 
L 422.22 62.668437 
L 432.22 62.668437 
" style="fill: none; stroke: #ff7f0e; stroke-width: 1.5; stroke-linecap: round"/>
    </g>
    <g id="text_30">
     <!-- ArithmeticMeanRank -->
     <g style="fill: #262626" transform="translate(440.22 66.168437)scale(0.1 -0.1)">
      <use xlink:href="#ArialMT-41"/>
      <use xlink:href="#ArialMT-72" x="66.699219"/>
      <use xlink:href="#ArialMT-69" x="100"/>
      <use xlink:href="#ArialMT-74" x="122.216797"/>
      <use xlink:href="#ArialMT-68" x="150"/>
      <use xlink:href="#ArialMT-6d" x="205.615234"/>
      <use xlink:href="#ArialMT-65" x="288.916016"/>
      <use xlink:href="#ArialMT-74" x="344.53125"/>
      <use xlink:href="#ArialMT-69" x="372.314453"/>
      <use xlink:href="#ArialMT-63" x="394.53125"/>
      <use xlink:href="#ArialMT-4d" x="444.53125"/>
      <use xlink:href="#ArialMT-65" x="527.832031"/>
      <use xlink:href="#ArialMT-61" x="583.447266"/>
      <use xlink:href="#ArialMT-6e" x="639.0625"/>
      <use xlink:href="#ArialMT-52" x="694.677734"/>
      <use xlink:href="#ArialMT-61" x="766.894531"/>
      <use xlink:href="#ArialMT-6e" x="822.509766"/>
      <use xlink:href="#ArialMT-6b" x="878.125"/>
     </g>
    </g>
    <g id="line2d_18">
     <path d="M 412.22 76.81375 
L 422.22 76.81375 
L 432.22 76.81375 
" style="fill: none; stroke: #2ca02c; stroke-width: 1.5; stroke-linecap: round"/>
    </g>
    <g id="text_31">
     <!-- GeometricMeanRank -->
     <g style="fill: #262626" transform="translate(440.22 80.31375)scale(0.1 -0.1)">
      <use xlink:href="#ArialMT-47"/>
      <use xlink:href="#ArialMT-65" x="77.783203"/>
      <use xlink:href="#ArialMT-6f" x="133.398438"/>
      <use xlink:href="#ArialMT-6d" x="189.013672"/>
      <use xlink:href="#ArialMT-65" x="272.314453"/>
      <use xlink:href="#ArialMT-74" x="327.929688"/>
      <use xlink:href="#ArialMT-72" x="355.712891"/>
      <use xlink:href="#ArialMT-69" x="389.013672"/>
      <use xlink:href="#ArialMT-63" x="411.230469"/>
      <use xlink:href="#ArialMT-4d" x="461.230469"/>
      <use xlink:href="#ArialMT-65" x="544.53125"/>
      <use xlink:href="#ArialMT-61" x="600.146484"/>
      <use xlink:href="#ArialMT-6e" x="655.761719"/>
      <use xlink:href="#ArialMT-52" x="711.376953"/>
      <use xlink:href="#ArialMT-61" x="783.59375"/>
      <use xlink:href="#ArialMT-6e" x="839.208984"/>
      <use xlink:href="#ArialMT-6b" x="894.824219"/>
     </g>
    </g>
   </g>
  </g>
  <g id="axes_3">
   <g id="patch_14">
    <path d="M 45.83 456.726625 
L 351.81 456.726625 
L 351.81 255.82 
L 45.83 255.82 
z
" style="fill: #ffffff"/>
   </g>
   <g id="matplotlib.axis_5">
    <g id="xtick_9">
     <g id="text_32">
      <!-- $\mathdefault{10^{1}}$ -->
      <g style="fill: #262626" transform="translate(77.141954 474.039125)scale(0.1 -0.1)">
       <use xlink:href="#ArialMT-31" transform="translate(0 0.99375)"/>
       <use xlink:href="#ArialMT-30" transform="translate(55.615234 0.99375)"/>
       <use xlink:href="#ArialMT-31" transform="translate(112.972813 70.6875)scale(0.7)"/>
      </g>
     </g>
    </g>
    <g id="xtick_10">
     <g id="text_33">
      <!-- $\mathdefault{10^{3}}$ -->
      <g style="fill: #262626" transform="translate(149.401916 474.039125)scale(0.1 -0.1)">
       <use xlink:href="#ArialMT-31" transform="translate(0 0.99375)"/>
       <use xlink:href="#ArialMT-30" transform="translate(55.615234 0.99375)"/>
       <use xlink:href="#ArialMT-33" transform="translate(112.972813 70.6875)scale(0.7)"/>
      </g>
     </g>
    </g>
    <g id="xtick_11">
     <g id="text_34">
      <!-- $\mathdefault{10^{5}}$ -->
      <g style="fill: #262626" transform="translate(221.661877 473.939125)scale(0.1 -0.1)">
       <use xlink:href="#ArialMT-31" transform="translate(0 0.879688)"/>
       <use xlink:href="#ArialMT-30" transform="translate(55.615234 0.879688)"/>
       <use xlink:href="#ArialMT-35" transform="translate(112.972813 70.573438)scale(0.7)"/>
      </g>
     </g>
    </g>
    <g id="xtick_12">
     <g id="text_35">
      <!-- $\mathdefault{10^{7}}$ -->
      <g style="fill: #262626" transform="translate(293.921838 473.939125)scale(0.1 -0.1)">
       <use xlink:href="#ArialMT-31" transform="translate(0 0.846875)"/>
       <use xlink:href="#ArialMT-30" transform="translate(55.615234 0.846875)"/>
       <use xlink:href="#ArialMT-37" transform="translate(112.972813 70.540625)scale(0.7)"/>
      </g>
     </g>
    </g>
    <g id="text_36">
     <!-- Number of Candidates -->
     <g style="fill: #262626" transform="translate(148.796562 487.184438)scale(0.1 -0.1)">
      <defs>
       <path id="ArialMT-4e" d="M 488 0 
L 488 4581 
L 1109 4581 
L 3516 984 
L 3516 4581 
L 4097 4581 
L 4097 0 
L 3475 0 
L 1069 3600 
L 1069 0 
L 488 0 
z
" transform="scale(0.015625)"/>
       <path id="ArialMT-75" d="M 2597 0 
L 2597 488 
Q 2209 -75 1544 -75 
Q 1250 -75 995 37 
Q 741 150 617 320 
Q 494 491 444 738 
Q 409 903 409 1263 
L 409 3319 
L 972 3319 
L 972 1478 
Q 972 1038 1006 884 
Q 1059 663 1231 536 
Q 1403 409 1656 409 
Q 1909 409 2131 539 
Q 2353 669 2445 892 
Q 2538 1116 2538 1541 
L 2538 3319 
L 3100 3319 
L 3100 0 
L 2597 0 
z
" transform="scale(0.015625)"/>
       <path id="ArialMT-62" d="M 941 0 
L 419 0 
L 419 4581 
L 981 4581 
L 981 2947 
Q 1338 3394 1891 3394 
Q 2197 3394 2470 3270 
Q 2744 3147 2920 2923 
Q 3097 2700 3197 2384 
Q 3297 2069 3297 1709 
Q 3297 856 2875 390 
Q 2453 -75 1863 -75 
Q 1275 -75 941 416 
L 941 0 
z
M 934 1684 
Q 934 1088 1097 822 
Q 1363 388 1816 388 
Q 2184 388 2453 708 
Q 2722 1028 2722 1663 
Q 2722 2313 2464 2622 
Q 2206 2931 1841 2931 
Q 1472 2931 1203 2611 
Q 934 2291 934 1684 
z
" transform="scale(0.015625)"/>
       <path id="ArialMT-20" transform="scale(0.015625)"/>
       <path id="ArialMT-66" d="M 556 0 
L 556 2881 
L 59 2881 
L 59 3319 
L 556 3319 
L 556 3672 
Q 556 4006 616 4169 
Q 697 4388 901 4523 
Q 1106 4659 1475 4659 
Q 1713 4659 2000 4603 
L 1916 4113 
Q 1741 4144 1584 4144 
Q 1328 4144 1222 4034 
Q 1116 3925 1116 3625 
L 1116 3319 
L 1763 3319 
L 1763 2881 
L 1116 2881 
L 1116 0 
L 556 0 
z
" transform="scale(0.015625)"/>
       <path id="ArialMT-43" d="M 3763 1606 
L 4369 1453 
Q 4178 706 3683 314 
Q 3188 -78 2472 -78 
Q 1731 -78 1267 223 
Q 803 525 561 1097 
Q 319 1669 319 2325 
Q 319 3041 592 3573 
Q 866 4106 1370 4382 
Q 1875 4659 2481 4659 
Q 3169 4659 3637 4309 
Q 4106 3959 4291 3325 
L 3694 3184 
Q 3534 3684 3231 3912 
Q 2928 4141 2469 4141 
Q 1941 4141 1586 3887 
Q 1231 3634 1087 3207 
Q 944 2781 944 2328 
Q 944 1744 1114 1308 
Q 1284 872 1643 656 
Q 2003 441 2422 441 
Q 2931 441 3284 734 
Q 3638 1028 3763 1606 
z
" transform="scale(0.015625)"/>
       <path id="ArialMT-64" d="M 2575 0 
L 2575 419 
Q 2259 -75 1647 -75 
Q 1250 -75 917 144 
Q 584 363 401 755 
Q 219 1147 219 1656 
Q 219 2153 384 2558 
Q 550 2963 881 3178 
Q 1213 3394 1622 3394 
Q 1922 3394 2156 3267 
Q 2391 3141 2538 2938 
L 2538 4581 
L 3097 4581 
L 3097 0 
L 2575 0 
z
M 797 1656 
Q 797 1019 1065 703 
Q 1334 388 1700 388 
Q 2069 388 2326 689 
Q 2584 991 2584 1609 
Q 2584 2291 2321 2609 
Q 2059 2928 1675 2928 
Q 1300 2928 1048 2622 
Q 797 2316 797 1656 
z
" transform="scale(0.015625)"/>
       <path id="ArialMT-73" d="M 197 991 
L 753 1078 
Q 800 744 1014 566 
Q 1228 388 1613 388 
Q 2000 388 2187 545 
Q 2375 703 2375 916 
Q 2375 1106 2209 1216 
Q 2094 1291 1634 1406 
Q 1016 1563 777 1677 
Q 538 1791 414 1992 
Q 291 2194 291 2438 
Q 291 2659 392 2848 
Q 494 3038 669 3163 
Q 800 3259 1026 3326 
Q 1253 3394 1513 3394 
Q 1903 3394 2198 3281 
Q 2494 3169 2634 2976 
Q 2775 2784 2828 2463 
L 2278 2388 
Q 2241 2644 2061 2787 
Q 1881 2931 1553 2931 
Q 1166 2931 1000 2803 
Q 834 2675 834 2503 
Q 834 2394 903 2306 
Q 972 2216 1119 2156 
Q 1203 2125 1616 2013 
Q 2213 1853 2448 1751 
Q 2684 1650 2818 1456 
Q 2953 1263 2953 975 
Q 2953 694 2789 445 
Q 2625 197 2315 61 
Q 2006 -75 1616 -75 
Q 969 -75 630 194 
Q 291 463 197 991 
z
" transform="scale(0.015625)"/>
      </defs>
      <use xlink:href="#ArialMT-4e"/>
      <use xlink:href="#ArialMT-75" x="72.216797"/>
      <use xlink:href="#ArialMT-6d" x="127.832031"/>
      <use xlink:href="#ArialMT-62" x="211.132812"/>
      <use xlink:href="#ArialMT-65" x="266.748047"/>
      <use xlink:href="#ArialMT-72" x="322.363281"/>
      <use xlink:href="#ArialMT-20" x="355.664062"/>
      <use xlink:href="#ArialMT-6f" x="383.447266"/>
      <use xlink:href="#ArialMT-66" x="439.0625"/>
      <use xlink:href="#ArialMT-20" x="466.845703"/>
      <use xlink:href="#ArialMT-43" x="494.628906"/>
      <use xlink:href="#ArialMT-61" x="566.845703"/>
      <use xlink:href="#ArialMT-6e" x="622.460938"/>
      <use xlink:href="#ArialMT-64" x="678.076172"/>
      <use xlink:href="#ArialMT-69" x="733.691406"/>
      <use xlink:href="#ArialMT-64" x="755.908203"/>
      <use xlink:href="#ArialMT-61" x="811.523438"/>
      <use xlink:href="#ArialMT-74" x="867.138672"/>
      <use xlink:href="#ArialMT-65" x="894.921875"/>
      <use xlink:href="#ArialMT-73" x="950.537109"/>
     </g>
    </g>
   </g>
   <g id="matplotlib.axis_6">
    <g id="ytick_12">
     <g id="text_37">
      <!-- 0.0 -->
      <g style="fill: #262626" transform="translate(24.93 451.173421)scale(0.1 -0.1)">
       <defs>
        <path id="ArialMT-2e" d="M 581 0 
L 581 641 
L 1222 641 
L 1222 0 
L 581 0 
z
" transform="scale(0.015625)"/>
       </defs>
       <use xlink:href="#ArialMT-30"/>
       <use xlink:href="#ArialMT-2e" x="55.615234"/>
       <use xlink:href="#ArialMT-30" x="83.398438"/>
      </g>
     </g>
    </g>
    <g id="ytick_13">
     <g id="text_38">
      <!-- 0.2 -->
      <g style="fill: #262626" transform="translate(24.93 414.644942)scale(0.1 -0.1)">
       <use xlink:href="#ArialMT-30"/>
       <use xlink:href="#ArialMT-2e" x="55.615234"/>
       <use xlink:href="#ArialMT-32" x="83.398438"/>
      </g>
     </g>
    </g>
    <g id="ytick_14">
     <g id="text_39">
      <!-- 0.4 -->
      <g style="fill: #262626" transform="translate(24.93 378.116463)scale(0.1 -0.1)">
       <use xlink:href="#ArialMT-30"/>
       <use xlink:href="#ArialMT-2e" x="55.615234"/>
       <use xlink:href="#ArialMT-34" x="83.398438"/>
      </g>
     </g>
    </g>
    <g id="ytick_15">
     <g id="text_40">
      <!-- 0.6 -->
      <g style="fill: #262626" transform="translate(24.93 341.587984)scale(0.1 -0.1)">
       <use xlink:href="#ArialMT-30"/>
       <use xlink:href="#ArialMT-2e" x="55.615234"/>
       <use xlink:href="#ArialMT-36" x="83.398438"/>
      </g>
     </g>
    </g>
    <g id="ytick_16">
     <g id="text_41">
      <!-- 0.8 -->
      <g style="fill: #262626" transform="translate(24.93 305.059505)scale(0.1 -0.1)">
       <use xlink:href="#ArialMT-30"/>
       <use xlink:href="#ArialMT-2e" x="55.615234"/>
       <use xlink:href="#ArialMT-38" x="83.398438"/>
      </g>
     </g>
    </g>
    <g id="ytick_17">
     <g id="text_42">
      <!-- 1.0 -->
      <g style="fill: #262626" transform="translate(24.93 268.531026)scale(0.1 -0.1)">
       <use xlink:href="#ArialMT-31"/>
       <use xlink:href="#ArialMT-2e" x="55.615234"/>
       <use xlink:href="#ArialMT-30" x="83.398438"/>
      </g>
     </g>
    </g>
    <g id="text_43">
     <!-- Expectation -->
     <g style="fill: #262626" transform="translate(18.9425 382.399875)rotate(-90)scale(0.1 -0.1)">
      <use xlink:href="#ArialMT-45"/>
      <use xlink:href="#ArialMT-78" x="66.699219"/>
      <use xlink:href="#ArialMT-70" x="116.699219"/>
      <use xlink:href="#ArialMT-65" x="172.314453"/>
      <use xlink:href="#ArialMT-63" x="227.929688"/>
      <use xlink:href="#ArialMT-74" x="277.929688"/>
      <use xlink:href="#ArialMT-61" x="305.712891"/>
      <use xlink:href="#ArialMT-74" x="361.328125"/>
      <use xlink:href="#ArialMT-69" x="389.111328"/>
      <use xlink:href="#ArialMT-6f" x="411.328125"/>
      <use xlink:href="#ArialMT-6e" x="466.943359"/>
     </g>
    </g>
   </g>
   <g id="PolyCollection_7">
    <defs>
     <path id="m0a82d2d1ff" d="M 59.738182 -193.387282 
L 59.738182 -193.387282 
L 59.738182 -193.387282 
L 59.738182 -193.387282 
z
" style="stroke: #1f77b4; stroke-opacity: 0.2"/>
    </defs>
    <g clip-path="url(#p446b9b8580)">
     <use xlink:href="#m0a82d2d1ff" x="0" y="504" style="fill: #1f77b4; fill-opacity: 0.2; stroke: #1f77b4; stroke-opacity: 0.2"/>
    </g>
   </g>
   <g id="PolyCollection_8">
    <defs>
     <path id="md91fab80e5" d="M 59.738182 -196.126918 
L 59.738182 -189.917076 
L 59.738182 -196.126918 
L 59.738182 -196.126918 
z
" style="stroke: #ff7f0e; stroke-opacity: 0.2"/>
    </defs>
    <g clip-path="url(#p446b9b8580)">
     <use xlink:href="#md91fab80e5" x="0" y="504" style="fill: #ff7f0e; fill-opacity: 0.2; stroke: #ff7f0e; stroke-opacity: 0.2"/>
    </g>
   </g>
   <g id="PolyCollection_9">
    <defs>
     <path id="m4d1f1bf95b" d="M 59.738182 -193.204639 
L 59.738182 -188.821222 
L 59.738182 -193.204639 
L 59.738182 -193.204639 
z
" style="stroke: #2ca02c; stroke-opacity: 0.2"/>
    </defs>
    <g clip-path="url(#p446b9b8580)">
     <use xlink:href="#m4d1f1bf95b" x="0" y="504" style="fill: #2ca02c; fill-opacity: 0.2; stroke: #2ca02c; stroke-opacity: 0.2"/>
    </g>
   </g>
   <g id="PolyCollection_10">
    <defs>
     <path id="mcdc4c25b8e" d="M 59.738182 -239.047881 
L 59.738182 -239.047881 
L 59.738182 -239.047881 
L 59.738182 -239.047881 
z
" style="stroke: #d62728; stroke-opacity: 0.2"/>
    </defs>
    <g clip-path="url(#p446b9b8580)">
     <use xlink:href="#mcdc4c25b8e" x="0" y="504" style="fill: #d62728; fill-opacity: 0.2; stroke: #d62728; stroke-opacity: 0.2"/>
    </g>
   </g>
   <g id="line2d_19">
    <path d="M 59.738182 310.612718 
L 66.100356 335.979718 
L 70.61439 352.468267 
L 76.976563 373.015537 
L 81.490598 385.545023 
L 87.852771 400.363029 
L 92.366805 409.002987 
L 97.363679 416.953653 
L 101.698385 422.643965 
L 106.74437 428.058431 
L 111.453327 432.11919 
L 116.183793 435.398735 
L 120.964235 438.042913 
L 125.714229 440.126919 
L 130.431857 441.763608 
L 135.118322 443.046097 
L 139.855834 444.064634 
L 144.582391 444.859525 
L 149.314784 445.480358 
L 154.022777 445.961102 
L 158.733161 446.334826 
L 163.456389 446.625253 
L 168.167302 446.849292 
L 172.889296 447.022671 
L 177.601899 447.156032 
L 182.316257 447.258718 
L 187.03227 447.337661 
L 191.747845 447.398242 
L 196.462154 447.444668 
L 201.176697 447.480218 
L 205.891381 447.507409 
L 210.606149 447.528185 
L 215.321096 447.544044 
L 220.035608 447.556139 
L 224.750495 447.565356 
L 229.465047 447.572373 
L 234.17975 447.577712 
L 238.894364 447.581771 
L 243.609031 447.584855 
L 248.323656 447.587196 
L 253.038335 447.588973 
L 257.752948 447.590321 
L 262.467599 447.591342 
L 267.182243 447.592116 
L 271.896883 447.592702 
L 276.611524 447.593145 
L 281.32616 447.59348 
L 286.040798 447.593734 
L 290.755437 447.593926 
L 295.470075 447.59407 
L 300.184715 447.59418 
L 304.899352 447.594262 
L 309.61399 447.594324 
L 314.328628 447.594371 
L 319.043266 447.594407 
L 323.757904 447.594434 
L 328.472542 447.594454 
L 333.18718 447.594469 
L 337.901818 447.59448 
" clip-path="url(#p446b9b8580)" style="fill: none; stroke: #1f77b4; stroke-width: 1.5; stroke-linecap: round"/>
   </g>
   <g id="line2d_20">
    <path d="M 59.738182 310.978003 
L 66.100356 334.904157 
L 70.61439 354.081608 
L 76.976563 374.549733 
L 81.490598 382.603828 
L 87.852771 393.902671 
L 92.366805 408.924683 
L 97.363679 419.642007 
L 101.698385 421.928934 
L 106.74437 428.37758 
L 111.453327 430.61663 
L 116.183793 434.703245 
L 120.964235 437.657002 
L 125.714229 440.33512 
L 130.431857 441.271719 
L 135.118322 442.56699 
L 139.855834 443.26292 
L 144.582391 445.247323 
L 149.314784 445.247097 
L 154.022777 445.467432 
L 158.733161 445.467915 
L 163.456389 446.171235 
L 168.167302 446.295818 
L 172.889296 446.978382 
L 177.601899 447.168999 
L 182.316257 447.31718 
L 187.03227 447.465723 
L 191.747845 447.266753 
L 196.462154 447.13052 
L 201.176697 447.538625 
L 205.891381 447.536144 
L 210.606149 447.555276 
L 215.321096 447.523554 
L 220.035608 447.571727 
L 224.750495 447.581845 
L 229.465047 447.576386 
L 234.17975 447.572802 
L 238.894364 447.578826 
L 243.609031 447.540908 
L 248.323656 447.591609 
L 253.038335 447.592111 
L 257.752948 447.591172 
L 262.467599 447.593118 
L 267.182243 447.59301 
L 271.896883 447.593788 
L 276.611524 447.59393 
L 281.32616 447.593713 
L 286.040798 447.594212 
L 290.755437 447.594157 
L 295.470075 447.594181 
L 300.184715 447.594336 
L 304.899352 447.594389 
L 309.61399 447.59439 
L 314.328628 447.594471 
L 319.043266 447.594463 
L 323.757904 447.594469 
L 328.472542 447.594492 
L 333.18718 447.5945 
L 337.901818 447.594505 
" clip-path="url(#p446b9b8580)" style="fill: none; stroke: #ff7f0e; stroke-width: 1.5; stroke-linecap: round"/>
   </g>
   <g id="line2d_21">
    <path d="M 59.738182 312.987069 
L 66.100356 333.260375 
L 70.61439 344.249359 
L 76.976563 374.30621 
L 81.490598 386.28929 
L 87.852771 401.053609 
L 92.366805 408.948551 
L 97.363679 418.668538 
L 101.698385 423.741616 
L 106.74437 426.827201 
L 111.453327 429.767106 
L 116.183793 434.953066 
L 120.964235 436.858479 
L 125.714229 440.317596 
L 130.431857 441.947188 
L 135.118322 441.801135 
L 139.855834 444.519135 
L 144.582391 445.310824 
L 149.314784 444.533771 
L 154.022777 446.270009 
L 158.733161 445.622644 
L 163.456389 446.736401 
L 168.167302 446.783309 
L 172.889296 446.688331 
L 177.601899 447.051933 
L 182.316257 447.360821 
L 187.03227 447.362358 
L 191.747845 447.081438 
L 196.462154 447.440323 
L 201.176697 447.478113 
L 205.891381 447.495934 
L 210.606149 447.290741 
L 215.321096 447.552656 
L 220.035608 447.577353 
L 224.750495 447.577177 
L 229.465047 447.565364 
L 234.17975 447.584529 
L 238.894364 447.583952 
L 243.609031 447.582816 
L 248.323656 447.591351 
L 253.038335 447.590561 
L 257.752948 447.593018 
L 262.467599 447.593296 
L 267.182243 447.59347 
L 271.896883 447.590912 
L 276.611524 447.589388 
L 281.32616 447.594062 
L 286.040798 447.594169 
L 290.755437 447.594254 
L 295.470075 447.59438 
L 300.184715 447.594308 
L 304.899352 447.594401 
L 309.61399 447.594431 
L 314.328628 447.594462 
L 319.043266 447.594469 
L 323.757904 447.594479 
L 328.472542 447.594487 
L 333.18718 447.594493 
L 337.901818 447.594506 
" clip-path="url(#p446b9b8580)" style="fill: none; stroke: #2ca02c; stroke-width: 1.5; stroke-linecap: round"/>
   </g>
   <g id="line2d_22">
    <path d="M 59.738182 264.952119 
L 66.100356 264.952119 
L 70.61439 264.952119 
L 76.976563 264.952119 
L 81.490598 264.952119 
L 87.852771 295.392519 
L 92.366805 333.443018 
L 97.363679 364.575244 
L 101.698385 384.614379 
L 106.74437 401.933916 
L 111.453327 413.771849 
L 116.183793 422.575009 
L 120.964235 429.145788 
L 125.714229 433.964485 
L 130.431857 437.503775 
L 135.118322 440.109171 
L 139.855834 442.059897 
L 144.582391 443.499394 
L 149.314784 444.56562 
L 154.022777 445.350751 
L 158.733161 445.932619 
L 163.456389 446.3646 
L 168.167302 446.68358 
L 172.889296 446.920309 
L 177.601899 447.095219 
L 182.316257 447.224794 
L 187.03227 447.32077 
L 191.747845 447.391827 
L 196.462154 447.444427 
L 201.176697 447.483378 
L 205.891381 447.512221 
L 210.606149 447.533579 
L 215.321096 447.549395 
L 220.035608 447.561104 
L 224.750495 447.569776 
L 229.465047 447.576196 
L 234.17975 447.58095 
L 238.894364 447.584471 
L 243.609031 447.587078 
L 248.323656 447.589008 
L 253.038335 447.590437 
L 257.752948 447.591495 
L 262.467599 447.592279 
L 267.182243 447.592859 
L 271.896883 447.593289 
L 276.611524 447.593607 
L 281.32616 447.593843 
L 286.040798 447.594017 
L 290.755437 447.594146 
L 295.470075 447.594242 
L 300.184715 447.594313 
L 304.899352 447.594365 
L 309.61399 447.594404 
L 314.328628 447.594433 
L 319.043266 447.594454 
L 323.757904 447.59447 
L 328.472542 447.594482 
L 333.18718 447.59449 
L 337.901818 447.594497 
" clip-path="url(#p446b9b8580)" style="fill: none; stroke: #d62728; stroke-width: 1.5; stroke-linecap: round"/>
   </g>
   <g id="line2d_23"/>
   <g id="line2d_24"/>
   <g id="line2d_25"/>
   <g id="line2d_26"/>
   <g id="patch_15">
    <path d="M 45.83 456.726625 
L 45.83 255.82 
" style="fill: none; stroke: #262626; stroke-width: 0.8; stroke-linejoin: miter; stroke-linecap: square"/>
   </g>
   <g id="patch_16">
    <path d="M 351.81 456.726625 
L 351.81 255.82 
" style="fill: none; stroke: #262626; stroke-width: 0.8; stroke-linejoin: miter; stroke-linecap: square"/>
   </g>
   <g id="patch_17">
    <path d="M 45.83 456.726625 
L 351.81 456.726625 
" style="fill: none; stroke: #262626; stroke-width: 0.8; stroke-linejoin: miter; stroke-linecap: square"/>
   </g>
   <g id="patch_18">
    <path d="M 45.83 255.82 
L 351.81 255.82 
" style="fill: none; stroke: #262626; stroke-width: 0.8; stroke-linejoin: miter; stroke-linecap: square"/>
   </g>
   <g id="legend_3">
    <g id="patch_19">
     <path d="M 185.542813 334.546562 
L 344.81 334.546562 
Q 346.81 334.546562 346.81 332.546562 
L 346.81 262.82 
Q 346.81 260.82 344.81 260.82 
L 185.542813 260.82 
Q 183.542813 260.82 183.542813 262.82 
L 183.542813 332.546562 
Q 183.542813 334.546562 185.542813 334.546562 
z
" style="fill: #ffffff; opacity: 0.8; stroke: #cccccc; stroke-linejoin: miter"/>
    </g>
    <g id="text_44">
     <!-- metric -->
     <g style="fill: #262626" transform="translate(251.56625 271.977813)scale(0.1 -0.1)">
      <use xlink:href="#ArialMT-6d"/>
      <use xlink:href="#ArialMT-65" x="83.300781"/>
      <use xlink:href="#ArialMT-74" x="138.916016"/>
      <use xlink:href="#ArialMT-72" x="166.699219"/>
      <use xlink:href="#ArialMT-69" x="200"/>
      <use xlink:href="#ArialMT-63" x="222.216797"/>
     </g>
    </g>
    <g id="line2d_27">
     <path d="M 187.542813 282.623125 
L 197.542813 282.623125 
L 207.542813 282.623125 
" style="fill: none; stroke: #1f77b4; stroke-width: 1.5; stroke-linecap: round"/>
    </g>
    <g id="text_45">
     <!-- InverseHarmonicMeanRank -->
     <g style="fill: #262626" transform="translate(215.542813 286.123125)scale(0.1 -0.1)">
      <defs>
       <path id="ArialMT-49" d="M 597 0 
L 597 4581 
L 1203 4581 
L 1203 0 
L 597 0 
z
" transform="scale(0.015625)"/>
       <path id="ArialMT-76" d="M 1344 0 
L 81 3319 
L 675 3319 
L 1388 1331 
Q 1503 1009 1600 663 
Q 1675 925 1809 1294 
L 2547 3319 
L 3125 3319 
L 1869 0 
L 1344 0 
z
" transform="scale(0.015625)"/>
      </defs>
      <use xlink:href="#ArialMT-49"/>
      <use xlink:href="#ArialMT-6e" x="27.783203"/>
      <use xlink:href="#ArialMT-76" x="83.398438"/>
      <use xlink:href="#ArialMT-65" x="133.398438"/>
      <use xlink:href="#ArialMT-72" x="189.013672"/>
      <use xlink:href="#ArialMT-73" x="222.314453"/>
      <use xlink:href="#ArialMT-65" x="272.314453"/>
      <use xlink:href="#ArialMT-48" x="327.929688"/>
      <use xlink:href="#ArialMT-61" x="400.146484"/>
      <use xlink:href="#ArialMT-72" x="455.761719"/>
      <use xlink:href="#ArialMT-6d" x="489.0625"/>
      <use xlink:href="#ArialMT-6f" x="572.363281"/>
      <use xlink:href="#ArialMT-6e" x="627.978516"/>
      <use xlink:href="#ArialMT-69" x="683.59375"/>
      <use xlink:href="#ArialMT-63" x="705.810547"/>
      <use xlink:href="#ArialMT-4d" x="755.810547"/>
      <use xlink:href="#ArialMT-65" x="839.111328"/>
      <use xlink:href="#ArialMT-61" x="894.726562"/>
      <use xlink:href="#ArialMT-6e" x="950.341797"/>
      <use xlink:href="#ArialMT-52" x="1005.957031"/>
      <use xlink:href="#ArialMT-61" x="1078.173828"/>
      <use xlink:href="#ArialMT-6e" x="1133.789062"/>
      <use xlink:href="#ArialMT-6b" x="1189.404297"/>
     </g>
    </g>
    <g id="line2d_28">
     <path d="M 187.542813 296.768438 
L 197.542813 296.768438 
L 207.542813 296.768438 
" style="fill: none; stroke: #ff7f0e; stroke-width: 1.5; stroke-linecap: round"/>
    </g>
    <g id="text_46">
     <!-- InverseArithmeticMeanRank -->
     <g style="fill: #262626" transform="translate(215.542813 300.268438)scale(0.1 -0.1)">
      <use xlink:href="#ArialMT-49"/>
      <use xlink:href="#ArialMT-6e" x="27.783203"/>
      <use xlink:href="#ArialMT-76" x="83.398438"/>
      <use xlink:href="#ArialMT-65" x="133.398438"/>
      <use xlink:href="#ArialMT-72" x="189.013672"/>
      <use xlink:href="#ArialMT-73" x="222.314453"/>
      <use xlink:href="#ArialMT-65" x="272.314453"/>
      <use xlink:href="#ArialMT-41" x="327.929688"/>
      <use xlink:href="#ArialMT-72" x="394.628906"/>
      <use xlink:href="#ArialMT-69" x="427.929688"/>
      <use xlink:href="#ArialMT-74" x="450.146484"/>
      <use xlink:href="#ArialMT-68" x="477.929688"/>
      <use xlink:href="#ArialMT-6d" x="533.544922"/>
      <use xlink:href="#ArialMT-65" x="616.845703"/>
      <use xlink:href="#ArialMT-74" x="672.460938"/>
      <use xlink:href="#ArialMT-69" x="700.244141"/>
      <use xlink:href="#ArialMT-63" x="722.460938"/>
      <use xlink:href="#ArialMT-4d" x="772.460938"/>
      <use xlink:href="#ArialMT-65" x="855.761719"/>
      <use xlink:href="#ArialMT-61" x="911.376953"/>
      <use xlink:href="#ArialMT-6e" x="966.992188"/>
      <use xlink:href="#ArialMT-52" x="1022.607422"/>
      <use xlink:href="#ArialMT-61" x="1094.824219"/>
      <use xlink:href="#ArialMT-6e" x="1150.439453"/>
      <use xlink:href="#ArialMT-6b" x="1206.054688"/>
     </g>
    </g>
    <g id="line2d_29">
     <path d="M 187.542813 310.91375 
L 197.542813 310.91375 
L 207.542813 310.91375 
" style="fill: none; stroke: #2ca02c; stroke-width: 1.5; stroke-linecap: round"/>
    </g>
    <g id="text_47">
     <!-- InverseGeometricMeanRank -->
     <g style="fill: #262626" transform="translate(215.542813 314.41375)scale(0.1 -0.1)">
      <use xlink:href="#ArialMT-49"/>
      <use xlink:href="#ArialMT-6e" x="27.783203"/>
      <use xlink:href="#ArialMT-76" x="83.398438"/>
      <use xlink:href="#ArialMT-65" x="133.398438"/>
      <use xlink:href="#ArialMT-72" x="189.013672"/>
      <use xlink:href="#ArialMT-73" x="222.314453"/>
      <use xlink:href="#ArialMT-65" x="272.314453"/>
      <use xlink:href="#ArialMT-47" x="327.929688"/>
      <use xlink:href="#ArialMT-65" x="405.712891"/>
      <use xlink:href="#ArialMT-6f" x="461.328125"/>
      <use xlink:href="#ArialMT-6d" x="516.943359"/>
      <use xlink:href="#ArialMT-65" x="600.244141"/>
      <use xlink:href="#ArialMT-74" x="655.859375"/>
      <use xlink:href="#ArialMT-72" x="683.642578"/>
      <use xlink:href="#ArialMT-69" x="716.943359"/>
      <use xlink:href="#ArialMT-63" x="739.160156"/>
      <use xlink:href="#ArialMT-4d" x="789.160156"/>
      <use xlink:href="#ArialMT-65" x="872.460938"/>
      <use xlink:href="#ArialMT-61" x="928.076172"/>
      <use xlink:href="#ArialMT-6e" x="983.691406"/>
      <use xlink:href="#ArialMT-52" x="1039.306641"/>
      <use xlink:href="#ArialMT-61" x="1111.523438"/>
      <use xlink:href="#ArialMT-6e" x="1167.138672"/>
      <use xlink:href="#ArialMT-6b" x="1222.753906"/>
     </g>
    </g>
    <g id="line2d_30">
     <path d="M 187.542813 325.059062 
L 197.542813 325.059062 
L 207.542813 325.059062 
" style="fill: none; stroke: #d62728; stroke-width: 1.5; stroke-linecap: round"/>
    </g>
    <g id="text_48">
     <!-- HitsAtK -->
     <g style="fill: #262626" transform="translate(215.542813 328.559062)scale(0.1 -0.1)">
      <defs>
       <path id="ArialMT-4b" d="M 469 0 
L 469 4581 
L 1075 4581 
L 1075 2309 
L 3350 4581 
L 4172 4581 
L 2250 2725 
L 4256 0 
L 3456 0 
L 1825 2319 
L 1075 1588 
L 1075 0 
L 469 0 
z
" transform="scale(0.015625)"/>
      </defs>
      <use xlink:href="#ArialMT-48"/>
      <use xlink:href="#ArialMT-69" x="72.216797"/>
      <use xlink:href="#ArialMT-74" x="94.433594"/>
      <use xlink:href="#ArialMT-73" x="122.216797"/>
      <use xlink:href="#ArialMT-41" x="172.216797"/>
      <use xlink:href="#ArialMT-74" x="238.916016"/>
      <use xlink:href="#ArialMT-4b" x="266.699219"/>
     </g>
    </g>
   </g>
  </g>
  <g id="axes_4">
   <g id="patch_20">
    <path d="M 403.22 456.726625 
L 709.2 456.726625 
L 709.2 255.82 
L 403.22 255.82 
z
" style="fill: #ffffff"/>
   </g>
   <g id="matplotlib.axis_7">
    <g id="xtick_13">
     <g id="text_49">
      <!-- $\mathdefault{10^{1}}$ -->
      <g style="fill: #262626" transform="translate(434.531954 474.039125)scale(0.1 -0.1)">
       <use xlink:href="#ArialMT-31" transform="translate(0 0.99375)"/>
       <use xlink:href="#ArialMT-30" transform="translate(55.615234 0.99375)"/>
       <use xlink:href="#ArialMT-31" transform="translate(112.972813 70.6875)scale(0.7)"/>
      </g>
     </g>
    </g>
    <g id="xtick_14">
     <g id="text_50">
      <!-- $\mathdefault{10^{3}}$ -->
      <g style="fill: #262626" transform="translate(506.791916 474.039125)scale(0.1 -0.1)">
       <use xlink:href="#ArialMT-31" transform="translate(0 0.99375)"/>
       <use xlink:href="#ArialMT-30" transform="translate(55.615234 0.99375)"/>
       <use xlink:href="#ArialMT-33" transform="translate(112.972813 70.6875)scale(0.7)"/>
      </g>
     </g>
    </g>
    <g id="xtick_15">
     <g id="text_51">
      <!-- $\mathdefault{10^{5}}$ -->
      <g style="fill: #262626" transform="translate(579.051877 473.939125)scale(0.1 -0.1)">
       <use xlink:href="#ArialMT-31" transform="translate(0 0.879688)"/>
       <use xlink:href="#ArialMT-30" transform="translate(55.615234 0.879688)"/>
       <use xlink:href="#ArialMT-35" transform="translate(112.972813 70.573438)scale(0.7)"/>
      </g>
     </g>
    </g>
    <g id="xtick_16">
     <g id="text_52">
      <!-- $\mathdefault{10^{7}}$ -->
      <g style="fill: #262626" transform="translate(651.311838 473.939125)scale(0.1 -0.1)">
       <use xlink:href="#ArialMT-31" transform="translate(0 0.846875)"/>
       <use xlink:href="#ArialMT-30" transform="translate(55.615234 0.846875)"/>
       <use xlink:href="#ArialMT-37" transform="translate(112.972813 70.540625)scale(0.7)"/>
      </g>
     </g>
    </g>
    <g id="text_53">
     <!-- Number of Candidates -->
     <g style="fill: #262626" transform="translate(506.186563 487.184438)scale(0.1 -0.1)">
      <use xlink:href="#ArialMT-4e"/>
      <use xlink:href="#ArialMT-75" x="72.216797"/>
      <use xlink:href="#ArialMT-6d" x="127.832031"/>
      <use xlink:href="#ArialMT-62" x="211.132812"/>
      <use xlink:href="#ArialMT-65" x="266.748047"/>
      <use xlink:href="#ArialMT-72" x="322.363281"/>
      <use xlink:href="#ArialMT-20" x="355.664062"/>
      <use xlink:href="#ArialMT-6f" x="383.447266"/>
      <use xlink:href="#ArialMT-66" x="439.0625"/>
      <use xlink:href="#ArialMT-20" x="466.845703"/>
      <use xlink:href="#ArialMT-43" x="494.628906"/>
      <use xlink:href="#ArialMT-61" x="566.845703"/>
      <use xlink:href="#ArialMT-6e" x="622.460938"/>
      <use xlink:href="#ArialMT-64" x="678.076172"/>
      <use xlink:href="#ArialMT-69" x="733.691406"/>
      <use xlink:href="#ArialMT-64" x="755.908203"/>
      <use xlink:href="#ArialMT-61" x="811.523438"/>
      <use xlink:href="#ArialMT-74" x="867.138672"/>
      <use xlink:href="#ArialMT-65" x="894.921875"/>
      <use xlink:href="#ArialMT-73" x="950.537109"/>
     </g>
    </g>
   </g>
   <g id="matplotlib.axis_8">
    <g id="ytick_18">
     <g id="text_54">
      <!-- 0.00 -->
      <g style="fill: #262626" transform="translate(376.759063 451.173412)scale(0.1 -0.1)">
       <use xlink:href="#ArialMT-30"/>
       <use xlink:href="#ArialMT-2e" x="55.615234"/>
       <use xlink:href="#ArialMT-30" x="83.398438"/>
       <use xlink:href="#ArialMT-30" x="139.013672"/>
      </g>
     </g>
    </g>
    <g id="ytick_19">
     <g id="text_55">
      <!-- 0.05 -->
      <g style="fill: #262626" transform="translate(376.759063 414.340531)scale(0.1 -0.1)">
       <use xlink:href="#ArialMT-30"/>
       <use xlink:href="#ArialMT-2e" x="55.615234"/>
       <use xlink:href="#ArialMT-30" x="83.398438"/>
       <use xlink:href="#ArialMT-35" x="139.013672"/>
      </g>
     </g>
    </g>
    <g id="ytick_20">
     <g id="text_56">
      <!-- 0.10 -->
      <g style="fill: #262626" transform="translate(376.759063 377.507649)scale(0.1 -0.1)">
       <use xlink:href="#ArialMT-30"/>
       <use xlink:href="#ArialMT-2e" x="55.615234"/>
       <use xlink:href="#ArialMT-31" x="83.398438"/>
       <use xlink:href="#ArialMT-30" x="139.013672"/>
      </g>
     </g>
    </g>
    <g id="ytick_21">
     <g id="text_57">
      <!-- 0.15 -->
      <g style="fill: #262626" transform="translate(376.759063 340.674768)scale(0.1 -0.1)">
       <use xlink:href="#ArialMT-30"/>
       <use xlink:href="#ArialMT-2e" x="55.615234"/>
       <use xlink:href="#ArialMT-31" x="83.398438"/>
       <use xlink:href="#ArialMT-35" x="139.013672"/>
      </g>
     </g>
    </g>
    <g id="ytick_22">
     <g id="text_58">
      <!-- 0.20 -->
      <g style="fill: #262626" transform="translate(376.759063 303.841887)scale(0.1 -0.1)">
       <use xlink:href="#ArialMT-30"/>
       <use xlink:href="#ArialMT-2e" x="55.615234"/>
       <use xlink:href="#ArialMT-32" x="83.398438"/>
       <use xlink:href="#ArialMT-30" x="139.013672"/>
      </g>
     </g>
    </g>
    <g id="ytick_23">
     <g id="text_59">
      <!-- 0.25 -->
      <g style="fill: #262626" transform="translate(376.759063 267.009006)scale(0.1 -0.1)">
       <use xlink:href="#ArialMT-30"/>
       <use xlink:href="#ArialMT-2e" x="55.615234"/>
       <use xlink:href="#ArialMT-32" x="83.398438"/>
       <use xlink:href="#ArialMT-35" x="139.013672"/>
      </g>
     </g>
    </g>
    <g id="text_60">
     <!-- Variance -->
     <g style="fill: #262626" transform="translate(370.771563 375.637375)rotate(-90)scale(0.1 -0.1)">
      <use xlink:href="#ArialMT-56"/>
      <use xlink:href="#ArialMT-61" x="59.324219"/>
      <use xlink:href="#ArialMT-72" x="114.939453"/>
      <use xlink:href="#ArialMT-69" x="148.240234"/>
      <use xlink:href="#ArialMT-61" x="170.457031"/>
      <use xlink:href="#ArialMT-6e" x="226.072266"/>
      <use xlink:href="#ArialMT-63" x="281.6875"/>
      <use xlink:href="#ArialMT-65" x="331.6875"/>
     </g>
    </g>
   </g>
   <g id="PolyCollection_11">
    <defs>
     <path id="m7318b9c81f" d="M 417.128182 -102.446596 
L 417.128182 -102.446596 
L 417.128182 -102.446596 
L 417.128182 -102.446596 
z
" style="stroke: #1f77b4; stroke-opacity: 0.2"/>
    </defs>
    <g clip-path="url(#pedb315d968)">
     <use xlink:href="#m7318b9c81f" x="0" y="504" style="fill: #1f77b4; fill-opacity: 0.2; stroke: #1f77b4; stroke-opacity: 0.2"/>
    </g>
   </g>
   <g id="PolyCollection_12">
    <defs>
     <path id="m30e005f4ac" d="M 417.128182 -102.432571 
L 417.128182 -102.414118 
L 417.128182 -102.432571 
L 417.128182 -102.432571 
z
" style="stroke: #ff7f0e; stroke-opacity: 0.2"/>
    </defs>
    <g clip-path="url(#pedb315d968)">
     <use xlink:href="#m30e005f4ac" x="0" y="504" style="fill: #ff7f0e; fill-opacity: 0.2; stroke: #ff7f0e; stroke-opacity: 0.2"/>
    </g>
   </g>
   <g id="PolyCollection_13">
    <defs>
     <path id="m34271d9913" d="M 417.128182 -102.538863 
L 417.128182 -102.538124 
L 417.128182 -102.538863 
L 417.128182 -102.538863 
z
" style="stroke: #2ca02c; stroke-opacity: 0.2"/>
    </defs>
    <g clip-path="url(#pedb315d968)">
     <use xlink:href="#m34271d9913" x="0" y="504" style="fill: #2ca02c; fill-opacity: 0.2; stroke: #2ca02c; stroke-opacity: 0.2"/>
    </g>
   </g>
   <g id="PolyCollection_14">
    <defs>
     <path id="me78b5f4fa7" d="M 417.128182 -56.405494 
L 417.128182 -56.405494 
L 417.128182 -56.405494 
L 417.128182 -56.405494 
z
" style="stroke: #d62728; stroke-opacity: 0.2"/>
    </defs>
    <g clip-path="url(#pedb315d968)">
     <use xlink:href="#me78b5f4fa7" x="0" y="504" style="fill: #d62728; fill-opacity: 0.2; stroke: #d62728; stroke-opacity: 0.2"/>
    </g>
   </g>
   <g id="line2d_31">
    <path d="M 417.128182 401.553404 
L 423.490356 388.480005 
L 428.00439 385.247181 
L 434.366563 387.314767 
L 438.880598 391.969615 
L 445.242771 400.787059 
L 449.756805 407.538126 
L 454.753679 414.735877 
L 459.088385 420.418382 
L 464.13437 426.183631 
L 468.843327 430.693549 
L 473.573793 434.417033 
L 478.354235 437.444079 
L 483.104229 439.823915 
L 487.821857 441.672978 
L 492.508322 443.097512 
L 497.245834 444.204439 
L 501.972391 445.046456 
L 506.704784 445.685694 
L 511.412777 446.165895 
L 516.123161 446.527561 
L 520.846389 446.799591 
L 525.557302 447.002587 
L 530.279296 447.154521 
L 534.991899 447.267545 
L 539.706257 447.351732 
L 544.42227 447.414361 
L 549.137845 447.460891 
L 553.852154 447.495429 
L 558.566697 447.521062 
L 563.281381 447.540076 
L 567.996149 447.554176 
L 572.711096 447.564627 
L 577.425608 447.572372 
L 582.140495 447.578111 
L 586.855047 447.582363 
L 591.56975 447.585512 
L 596.284364 447.587845 
L 600.999031 447.589573 
L 605.713656 447.590853 
L 610.428335 447.591801 
L 615.142948 447.592503 
L 619.857599 447.593022 
L 624.572243 447.593407 
L 629.286883 447.593692 
L 634.001524 447.593903 
L 638.71616 447.59406 
L 643.430798 447.594175 
L 648.145437 447.594261 
L 652.860075 447.594325 
L 657.574715 447.594372 
L 662.289352 447.594406 
L 667.00399 447.594432 
L 671.718628 447.594451 
L 676.433266 447.594465 
L 681.147904 447.594476 
L 685.862542 447.594484 
L 690.57718 447.594489 
L 695.291818 447.594494 
" clip-path="url(#pedb315d968)" style="fill: none; stroke: #1f77b4; stroke-width: 1.5; stroke-linecap: round"/>
   </g>
   <g id="line2d_32">
    <path d="M 417.128182 401.576655 
L 423.490356 387.848718 
L 428.00439 388.734971 
L 434.366563 391.436085 
L 438.880598 387.657216 
L 445.242771 389.880646 
L 449.756805 402.975409 
L 454.753679 417.792686 
L 459.088385 422.110882 
L 464.13437 413.930391 
L 468.843327 423.956386 
L 473.573793 434.221813 
L 478.354235 442.846425 
L 483.104229 439.019651 
L 487.821857 445.141254 
L 492.508322 446.607206 
L 497.245834 443.11973 
L 501.972391 443.939766 
L 506.704784 445.164216 
L 511.412777 445.562956 
L 516.123161 444.724332 
L 520.846389 447.51388 
L 525.557302 447.563031 
L 530.279296 447.314282 
L 534.991899 447.224423 
L 539.706257 447.567013 
L 544.42227 446.65466 
L 549.137845 447.56935 
L 553.852154 447.221384 
L 558.566697 447.593938 
L 563.281381 447.575565 
L 567.996149 447.593876 
L 572.711096 447.593601 
L 577.425608 447.594326 
L 582.140495 447.594456 
L 586.855047 447.594416 
L 591.56975 447.594403 
L 596.284364 447.594501 
L 600.999031 447.594499 
L 605.713656 447.594491 
L 610.428335 447.594167 
L 615.142948 447.594505 
L 619.857599 447.594505 
L 624.572243 447.594503 
L 629.286883 447.594498 
L 634.001524 447.594505 
L 638.71616 447.594506 
L 643.430798 447.594505 
L 648.145437 447.594506 
L 652.860075 447.594506 
L 657.574715 447.594506 
L 662.289352 447.594506 
L 667.00399 447.594506 
L 671.718628 447.594506 
L 676.433266 447.594506 
L 681.147904 447.594506 
L 685.862542 447.594506 
L 690.57718 447.594506 
L 695.291818 447.594506 
" clip-path="url(#pedb315d968)" style="fill: none; stroke: #ff7f0e; stroke-width: 1.5; stroke-linecap: round"/>
   </g>
   <g id="line2d_33">
    <path d="M 417.128182 401.461506 
L 423.490356 388.319156 
L 428.00439 388.149733 
L 434.366563 383.257546 
L 438.880598 383.654293 
L 445.242771 409.418331 
L 449.756805 403.627942 
L 454.753679 407.045808 
L 459.088385 421.551416 
L 464.13437 428.482016 
L 468.843327 433.651433 
L 473.573793 432.023224 
L 478.354235 431.241684 
L 483.104229 440.065651 
L 487.821857 439.705084 
L 492.508322 442.811238 
L 497.245834 444.702497 
L 501.972391 444.904547 
L 506.704784 445.642879 
L 511.412777 447.360566 
L 516.123161 447.402685 
L 520.846389 443.997496 
L 525.557302 447.440423 
L 530.279296 447.525169 
L 534.991899 447.563532 
L 539.706257 447.576926 
L 544.42227 447.590433 
L 549.137845 447.592676 
L 553.852154 447.222046 
L 558.566697 447.591575 
L 563.281381 447.594001 
L 567.996149 447.559639 
L 572.711096 447.592064 
L 577.425608 447.593973 
L 582.140495 447.594106 
L 586.855047 447.594404 
L 591.56975 447.594291 
L 596.284364 447.594473 
L 600.999031 447.594396 
L 605.713656 447.594413 
L 610.428335 447.594489 
L 615.142948 447.594095 
L 619.857599 447.594505 
L 624.572243 447.594504 
L 629.286883 447.594505 
L 634.001524 447.594505 
L 638.71616 447.594506 
L 643.430798 447.594506 
L 648.145437 447.594506 
L 652.860075 447.594506 
L 657.574715 447.594506 
L 662.289352 447.594506 
L 667.00399 447.594506 
L 671.718628 447.594506 
L 676.433266 447.594506 
L 681.147904 447.594506 
L 685.862542 447.594506 
L 690.57718 447.594506 
L 695.291818 447.594506 
" clip-path="url(#pedb315d968)" style="fill: none; stroke: #2ca02c; stroke-width: 1.5; stroke-linecap: round"/>
   </g>
   <g id="line2d_34">
    <path d="M 417.128182 447.594506 
L 423.490356 447.594506 
L 428.00439 447.594506 
L 434.366563 447.594506 
L 438.880598 447.594506 
L 445.242771 345.280947 
L 449.756805 274.940375 
L 454.753679 264.952119 
L 459.088385 281.167694 
L 464.13437 309.471201 
L 468.843327 336.439034 
L 473.573793 360.506064 
L 478.354235 380.700792 
L 483.104229 396.722627 
L 487.821857 409.14377 
L 492.508322 418.640951 
L 497.245834 425.948001 
L 501.972391 431.447855 
L 506.704784 435.580557 
L 511.412777 438.655835 
L 516.123161 440.952516 
L 520.846389 442.667253 
L 525.557302 443.938728 
L 530.279296 444.885246 
L 534.991899 445.586185 
L 539.706257 446.106315 
L 544.42227 446.492057 
L 549.137845 446.777904 
L 553.852154 446.989647 
L 558.566697 447.146526 
L 563.281381 447.262738 
L 567.996149 447.348814 
L 572.711096 447.412566 
L 577.425608 447.459774 
L 582.140495 447.494738 
L 586.855047 447.520627 
L 591.56975 447.539799 
L 596.284364 447.553996 
L 600.999031 447.564509 
L 605.713656 447.572294 
L 610.428335 447.578058 
L 615.142948 447.582327 
L 619.857599 447.585488 
L 624.572243 447.587828 
L 629.286883 447.589561 
L 634.001524 447.590844 
L 638.71616 447.591795 
L 643.430798 447.592498 
L 648.145437 447.593019 
L 652.860075 447.593405 
L 657.574715 447.593691 
L 662.289352 447.593902 
L 667.00399 447.594059 
L 671.718628 447.594175 
L 676.433266 447.594261 
L 681.147904 447.594324 
L 685.862542 447.594371 
L 690.57718 447.594406 
L 695.291818 447.594432 
" clip-path="url(#pedb315d968)" style="fill: none; stroke: #d62728; stroke-width: 1.5; stroke-linecap: round"/>
   </g>
   <g id="line2d_35"/>
   <g id="line2d_36"/>
   <g id="line2d_37"/>
   <g id="line2d_38"/>
   <g id="patch_21">
    <path d="M 403.22 456.726625 
L 403.22 255.82 
" style="fill: none; stroke: #262626; stroke-width: 0.8; stroke-linejoin: miter; stroke-linecap: square"/>
   </g>
   <g id="patch_22">
    <path d="M 709.2 456.726625 
L 709.2 255.82 
" style="fill: none; stroke: #262626; stroke-width: 0.8; stroke-linejoin: miter; stroke-linecap: square"/>
   </g>
   <g id="patch_23">
    <path d="M 403.22 456.726625 
L 709.2 456.726625 
" style="fill: none; stroke: #262626; stroke-width: 0.8; stroke-linejoin: miter; stroke-linecap: square"/>
   </g>
   <g id="patch_24">
    <path d="M 403.22 255.82 
L 709.2 255.82 
" style="fill: none; stroke: #262626; stroke-width: 0.8; stroke-linejoin: miter; stroke-linecap: square"/>
   </g>
   <g id="legend_4">
    <g id="patch_25">
     <path d="M 542.932813 334.546562 
L 702.2 334.546562 
Q 704.2 334.546562 704.2 332.546562 
L 704.2 262.82 
Q 704.2 260.82 702.2 260.82 
L 542.932813 260.82 
Q 540.932813 260.82 540.932813 262.82 
L 540.932813 332.546562 
Q 540.932813 334.546562 542.932813 334.546562 
z
" style="fill: #ffffff; opacity: 0.8; stroke: #cccccc; stroke-linejoin: miter"/>
    </g>
    <g id="text_61">
     <!-- metric -->
     <g style="fill: #262626" transform="translate(608.95625 271.977813)scale(0.1 -0.1)">
      <use xlink:href="#ArialMT-6d"/>
      <use xlink:href="#ArialMT-65" x="83.300781"/>
      <use xlink:href="#ArialMT-74" x="138.916016"/>
      <use xlink:href="#ArialMT-72" x="166.699219"/>
      <use xlink:href="#ArialMT-69" x="200"/>
      <use xlink:href="#ArialMT-63" x="222.216797"/>
     </g>
    </g>
    <g id="line2d_39">
     <path d="M 544.932813 282.623125 
L 554.932813 282.623125 
L 564.932813 282.623125 
" style="fill: none; stroke: #1f77b4; stroke-width: 1.5; stroke-linecap: round"/>
    </g>
    <g id="text_62">
     <!-- InverseHarmonicMeanRank -->
     <g style="fill: #262626" transform="translate(572.932813 286.123125)scale(0.1 -0.1)">
      <use xlink:href="#ArialMT-49"/>
      <use xlink:href="#ArialMT-6e" x="27.783203"/>
      <use xlink:href="#ArialMT-76" x="83.398438"/>
      <use xlink:href="#ArialMT-65" x="133.398438"/>
      <use xlink:href="#ArialMT-72" x="189.013672"/>
      <use xlink:href="#ArialMT-73" x="222.314453"/>
      <use xlink:href="#ArialMT-65" x="272.314453"/>
      <use xlink:href="#ArialMT-48" x="327.929688"/>
      <use xlink:href="#ArialMT-61" x="400.146484"/>
      <use xlink:href="#ArialMT-72" x="455.761719"/>
      <use xlink:href="#ArialMT-6d" x="489.0625"/>
      <use xlink:href="#ArialMT-6f" x="572.363281"/>
      <use xlink:href="#ArialMT-6e" x="627.978516"/>
      <use xlink:href="#ArialMT-69" x="683.59375"/>
      <use xlink:href="#ArialMT-63" x="705.810547"/>
      <use xlink:href="#ArialMT-4d" x="755.810547"/>
      <use xlink:href="#ArialMT-65" x="839.111328"/>
      <use xlink:href="#ArialMT-61" x="894.726562"/>
      <use xlink:href="#ArialMT-6e" x="950.341797"/>
      <use xlink:href="#ArialMT-52" x="1005.957031"/>
      <use xlink:href="#ArialMT-61" x="1078.173828"/>
      <use xlink:href="#ArialMT-6e" x="1133.789062"/>
      <use xlink:href="#ArialMT-6b" x="1189.404297"/>
     </g>
    </g>
    <g id="line2d_40">
     <path d="M 544.932813 296.768438 
L 554.932813 296.768438 
L 564.932813 296.768438 
" style="fill: none; stroke: #ff7f0e; stroke-width: 1.5; stroke-linecap: round"/>
    </g>
    <g id="text_63">
     <!-- InverseArithmeticMeanRank -->
     <g style="fill: #262626" transform="translate(572.932813 300.268438)scale(0.1 -0.1)">
      <use xlink:href="#ArialMT-49"/>
      <use xlink:href="#ArialMT-6e" x="27.783203"/>
      <use xlink:href="#ArialMT-76" x="83.398438"/>
      <use xlink:href="#ArialMT-65" x="133.398438"/>
      <use xlink:href="#ArialMT-72" x="189.013672"/>
      <use xlink:href="#ArialMT-73" x="222.314453"/>
      <use xlink:href="#ArialMT-65" x="272.314453"/>
      <use xlink:href="#ArialMT-41" x="327.929688"/>
      <use xlink:href="#ArialMT-72" x="394.628906"/>
      <use xlink:href="#ArialMT-69" x="427.929688"/>
      <use xlink:href="#ArialMT-74" x="450.146484"/>
      <use xlink:href="#ArialMT-68" x="477.929688"/>
      <use xlink:href="#ArialMT-6d" x="533.544922"/>
      <use xlink:href="#ArialMT-65" x="616.845703"/>
      <use xlink:href="#ArialMT-74" x="672.460938"/>
      <use xlink:href="#ArialMT-69" x="700.244141"/>
      <use xlink:href="#ArialMT-63" x="722.460938"/>
      <use xlink:href="#ArialMT-4d" x="772.460938"/>
      <use xlink:href="#ArialMT-65" x="855.761719"/>
      <use xlink:href="#ArialMT-61" x="911.376953"/>
      <use xlink:href="#ArialMT-6e" x="966.992188"/>
      <use xlink:href="#ArialMT-52" x="1022.607422"/>
      <use xlink:href="#ArialMT-61" x="1094.824219"/>
      <use xlink:href="#ArialMT-6e" x="1150.439453"/>
      <use xlink:href="#ArialMT-6b" x="1206.054688"/>
     </g>
    </g>
    <g id="line2d_41">
     <path d="M 544.932813 310.91375 
L 554.932813 310.91375 
L 564.932813 310.91375 
" style="fill: none; stroke: #2ca02c; stroke-width: 1.5; stroke-linecap: round"/>
    </g>
    <g id="text_64">
     <!-- InverseGeometricMeanRank -->
     <g style="fill: #262626" transform="translate(572.932813 314.41375)scale(0.1 -0.1)">
      <use xlink:href="#ArialMT-49"/>
      <use xlink:href="#ArialMT-6e" x="27.783203"/>
      <use xlink:href="#ArialMT-76" x="83.398438"/>
      <use xlink:href="#ArialMT-65" x="133.398438"/>
      <use xlink:href="#ArialMT-72" x="189.013672"/>
      <use xlink:href="#ArialMT-73" x="222.314453"/>
      <use xlink:href="#ArialMT-65" x="272.314453"/>
      <use xlink:href="#ArialMT-47" x="327.929688"/>
      <use xlink:href="#ArialMT-65" x="405.712891"/>
      <use xlink:href="#ArialMT-6f" x="461.328125"/>
      <use xlink:href="#ArialMT-6d" x="516.943359"/>
      <use xlink:href="#ArialMT-65" x="600.244141"/>
      <use xlink:href="#ArialMT-74" x="655.859375"/>
      <use xlink:href="#ArialMT-72" x="683.642578"/>
      <use xlink:href="#ArialMT-69" x="716.943359"/>
      <use xlink:href="#ArialMT-63" x="739.160156"/>
      <use xlink:href="#ArialMT-4d" x="789.160156"/>
      <use xlink:href="#ArialMT-65" x="872.460938"/>
      <use xlink:href="#ArialMT-61" x="928.076172"/>
      <use xlink:href="#ArialMT-6e" x="983.691406"/>
      <use xlink:href="#ArialMT-52" x="1039.306641"/>
      <use xlink:href="#ArialMT-61" x="1111.523438"/>
      <use xlink:href="#ArialMT-6e" x="1167.138672"/>
      <use xlink:href="#ArialMT-6b" x="1222.753906"/>
     </g>
    </g>
    <g id="line2d_42">
     <path d="M 544.932813 325.059062 
L 554.932813 325.059062 
L 564.932813 325.059062 
" style="fill: none; stroke: #d62728; stroke-width: 1.5; stroke-linecap: round"/>
    </g>
    <g id="text_65">
     <!-- HitsAtK -->
     <g style="fill: #262626" transform="translate(572.932813 328.559062)scale(0.1 -0.1)">
      <use xlink:href="#ArialMT-48"/>
      <use xlink:href="#ArialMT-69" x="72.216797"/>
      <use xlink:href="#ArialMT-74" x="94.433594"/>
      <use xlink:href="#ArialMT-73" x="122.216797"/>
      <use xlink:href="#ArialMT-41" x="172.216797"/>
      <use xlink:href="#ArialMT-74" x="238.916016"/>
      <use xlink:href="#ArialMT-4b" x="266.699219"/>
     </g>
    </g>
   </g>
  </g>
 </g>
 <defs>
  <clipPath id="p8951f19339">
   <rect x="45.83" y="21.72" width="305.98" height="200.906625"/>
  </clipPath>
  <clipPath id="pe19711111c">
   <rect x="403.22" y="21.72" width="305.98" height="200.906625"/>
  </clipPath>
  <clipPath id="p446b9b8580">
   <rect x="45.83" y="255.82" width="305.98" height="200.906625"/>
  </clipPath>
  <clipPath id="pedb315d968">
   <rect x="403.22" y="255.82" width="305.98" height="200.906625"/>
  </clipPath>
 </defs>
</svg>
