<?xml version="1.0" encoding="utf-8" standalone="no"?>
<!DOCTYPE svg PUBLIC "-//W3C//DTD SVG 1.1//EN"
  "http://www.w3.org/Graphics/SVG/1.1/DTD/svg11.dtd">
<svg xmlns:xlink="http://www.w3.org/1999/xlink" width="720pt" height="504pt" viewBox="0 0 720 504" xmlns="http://www.w3.org/2000/svg" version="1.1">
 <metadata>
  <rdf:RDF xmlns:dc="http://purl.org/dc/elements/1.1/" xmlns:cc="http://creativecommons.org/ns#" xmlns:rdf="http://www.w3.org/1999/02/22-rdf-syntax-ns#">
   <cc:Work>
    <dc:type rdf:resource="http://purl.org/dc/dcmitype/StillImage"/>
    <dc:date>2022-03-25T20:32:50.093192</dc:date>
    <dc:format>image/svg+xml</dc:format>
    <dc:creator>
     <cc:Agent>
      <dc:title>Matplotlib v3.5.1, https://matplotlib.org/</dc:title>
     </cc:Agent>
    </dc:creator>
   </cc:Work>
  </rdf:RDF>
 </metadata>
 <defs>
  <style type="text/css">*{stroke-linejoin: round; stroke-linecap: butt}</style>
 </defs>
 <g id="figure_1">
  <g id="patch_1">
   <path d="M 0 504 
L 720 504 
L 720 0 
L 0 0 
z
" style="fill: #ffffff"/>
  </g>
  <g id="axes_1">
   <g id="patch_2">
    <path d="M 45.11 224.570625 
L 351.8325 224.570625 
L 351.8325 21 
L 45.11 21 
z
" style="fill: #ffffff"/>
   </g>
   <g id="matplotlib.axis_1">
    <g id="xtick_1">
     <g id="text_1">
      <!-- $\mathdefault{10^{1}}$ -->
      <g style="fill: #262626" transform="translate(73.606865 241.883125)scale(0.1 -0.1)">
       <defs>
        <path id="ArialMT-31" d="M 2384 0 
L 1822 0 
L 1822 3584 
Q 1619 3391 1289 3197 
Q 959 3003 697 2906 
L 697 3450 
Q 1169 3672 1522 3987 
Q 1875 4303 2022 4600 
L 2384 4600 
L 2384 0 
z
" transform="scale(0.015625)"/>
        <path id="ArialMT-30" d="M 266 2259 
Q 266 3072 433 3567 
Q 600 4063 929 4331 
Q 1259 4600 1759 4600 
Q 2128 4600 2406 4451 
Q 2684 4303 2865 4023 
Q 3047 3744 3150 3342 
Q 3253 2941 3253 2259 
Q 3253 1453 3087 958 
Q 2922 463 2592 192 
Q 2263 -78 1759 -78 
Q 1097 -78 719 397 
Q 266 969 266 2259 
z
M 844 2259 
Q 844 1131 1108 757 
Q 1372 384 1759 384 
Q 2147 384 2411 759 
Q 2675 1134 2675 2259 
Q 2675 3391 2411 3762 
Q 2147 4134 1753 4134 
Q 1366 4134 1134 3806 
Q 844 3388 844 2259 
z
" transform="scale(0.015625)"/>
       </defs>
       <use xlink:href="#ArialMT-31" transform="translate(0 0.99375)"/>
       <use xlink:href="#ArialMT-30" transform="translate(55.615234 0.99375)"/>
       <use xlink:href="#ArialMT-31" transform="translate(112.972813 70.6875)scale(0.7)"/>
      </g>
     </g>
    </g>
    <g id="xtick_2">
     <g id="text_2">
      <!-- $\mathdefault{10^{3}}$ -->
      <g style="fill: #262626" transform="translate(137.715291 241.883125)scale(0.1 -0.1)">
       <defs>
        <path id="ArialMT-33" d="M 269 1209 
L 831 1284 
Q 928 806 1161 595 
Q 1394 384 1728 384 
Q 2125 384 2398 659 
Q 2672 934 2672 1341 
Q 2672 1728 2419 1979 
Q 2166 2231 1775 2231 
Q 1616 2231 1378 2169 
L 1441 2663 
Q 1497 2656 1531 2656 
Q 1891 2656 2178 2843 
Q 2466 3031 2466 3422 
Q 2466 3731 2256 3934 
Q 2047 4138 1716 4138 
Q 1388 4138 1169 3931 
Q 950 3725 888 3313 
L 325 3413 
Q 428 3978 793 4289 
Q 1159 4600 1703 4600 
Q 2078 4600 2393 4439 
Q 2709 4278 2876 4000 
Q 3044 3722 3044 3409 
Q 3044 3113 2884 2869 
Q 2725 2625 2413 2481 
Q 2819 2388 3044 2092 
Q 3269 1797 3269 1353 
Q 3269 753 2831 336 
Q 2394 -81 1725 -81 
Q 1122 -81 723 278 
Q 325 638 269 1209 
z
" transform="scale(0.015625)"/>
       </defs>
       <use xlink:href="#ArialMT-31" transform="translate(0 0.99375)"/>
       <use xlink:href="#ArialMT-30" transform="translate(55.615234 0.99375)"/>
       <use xlink:href="#ArialMT-33" transform="translate(112.972813 70.6875)scale(0.7)"/>
      </g>
     </g>
    </g>
    <g id="xtick_3">
     <g id="text_3">
      <!-- $\mathdefault{10^{5}}$ -->
      <g style="fill: #262626" transform="translate(201.823717 241.783125)scale(0.1 -0.1)">
       <defs>
        <path id="ArialMT-35" d="M 266 1200 
L 856 1250 
Q 922 819 1161 601 
Q 1400 384 1738 384 
Q 2144 384 2425 690 
Q 2706 997 2706 1503 
Q 2706 1984 2436 2262 
Q 2166 2541 1728 2541 
Q 1456 2541 1237 2417 
Q 1019 2294 894 2097 
L 366 2166 
L 809 4519 
L 3088 4519 
L 3088 3981 
L 1259 3981 
L 1013 2750 
Q 1425 3038 1878 3038 
Q 2478 3038 2890 2622 
Q 3303 2206 3303 1553 
Q 3303 931 2941 478 
Q 2500 -78 1738 -78 
Q 1113 -78 717 272 
Q 322 622 266 1200 
z
" transform="scale(0.015625)"/>
       </defs>
       <use xlink:href="#ArialMT-31" transform="translate(0 0.879688)"/>
       <use xlink:href="#ArialMT-30" transform="translate(55.615234 0.879688)"/>
       <use xlink:href="#ArialMT-35" transform="translate(112.972813 70.573438)scale(0.7)"/>
      </g>
     </g>
    </g>
    <g id="xtick_4">
     <g id="text_4">
      <!-- $\mathdefault{10^{7}}$ -->
      <g style="fill: #262626" transform="translate(265.932142 241.783125)scale(0.1 -0.1)">
       <defs>
        <path id="ArialMT-37" d="M 303 3981 
L 303 4522 
L 3269 4522 
L 3269 4084 
Q 2831 3619 2401 2847 
Q 1972 2075 1738 1259 
Q 1569 684 1522 0 
L 944 0 
Q 953 541 1156 1306 
Q 1359 2072 1739 2783 
Q 2119 3494 2547 3981 
L 303 3981 
z
" transform="scale(0.015625)"/>
       </defs>
       <use xlink:href="#ArialMT-31" transform="translate(0 0.846875)"/>
       <use xlink:href="#ArialMT-30" transform="translate(55.615234 0.846875)"/>
       <use xlink:href="#ArialMT-37" transform="translate(112.972813 70.540625)scale(0.7)"/>
      </g>
     </g>
    </g>
    <g id="xtick_5">
     <g id="text_5">
      <!-- $\mathdefault{10^{9}}$ -->
      <g style="fill: #262626" transform="translate(330.040568 241.883125)scale(0.1 -0.1)">
       <defs>
        <path id="ArialMT-39" d="M 350 1059 
L 891 1109 
Q 959 728 1153 556 
Q 1347 384 1650 384 
Q 1909 384 2104 503 
Q 2300 622 2425 820 
Q 2550 1019 2634 1356 
Q 2719 1694 2719 2044 
Q 2719 2081 2716 2156 
Q 2547 1888 2255 1720 
Q 1963 1553 1622 1553 
Q 1053 1553 659 1965 
Q 266 2378 266 3053 
Q 266 3750 677 4175 
Q 1088 4600 1706 4600 
Q 2153 4600 2523 4359 
Q 2894 4119 3086 3673 
Q 3278 3228 3278 2384 
Q 3278 1506 3087 986 
Q 2897 466 2520 194 
Q 2144 -78 1638 -78 
Q 1100 -78 759 220 
Q 419 519 350 1059 
z
M 2653 3081 
Q 2653 3566 2395 3850 
Q 2138 4134 1775 4134 
Q 1400 4134 1122 3828 
Q 844 3522 844 3034 
Q 844 2597 1108 2323 
Q 1372 2050 1759 2050 
Q 2150 2050 2401 2323 
Q 2653 2597 2653 3081 
z
" transform="scale(0.015625)"/>
       </defs>
       <use xlink:href="#ArialMT-31" transform="translate(0 0.99375)"/>
       <use xlink:href="#ArialMT-30" transform="translate(55.615234 0.99375)"/>
       <use xlink:href="#ArialMT-39" transform="translate(112.972813 70.6875)scale(0.7)"/>
      </g>
     </g>
    </g>
   </g>
   <g id="matplotlib.axis_2">
    <g id="ytick_1">
     <g id="text_6">
      <!-- 0 -->
      <g style="fill: #262626" transform="translate(32.549062 218.896322)scale(0.1 -0.1)">
       <use xlink:href="#ArialMT-30"/>
      </g>
     </g>
    </g>
    <g id="ytick_2">
     <g id="text_7">
      <!-- 1 -->
      <g style="fill: #262626" transform="translate(32.549062 182.050046)scale(0.1 -0.1)">
       <use xlink:href="#ArialMT-31"/>
      </g>
     </g>
    </g>
    <g id="ytick_3">
     <g id="text_8">
      <!-- 2 -->
      <g style="fill: #262626" transform="translate(32.549062 145.203771)scale(0.1 -0.1)">
       <defs>
        <path id="ArialMT-32" d="M 3222 541 
L 3222 0 
L 194 0 
Q 188 203 259 391 
Q 375 700 629 1000 
Q 884 1300 1366 1694 
Q 2113 2306 2375 2664 
Q 2638 3022 2638 3341 
Q 2638 3675 2398 3904 
Q 2159 4134 1775 4134 
Q 1369 4134 1125 3890 
Q 881 3647 878 3216 
L 300 3275 
Q 359 3922 746 4261 
Q 1134 4600 1788 4600 
Q 2447 4600 2831 4234 
Q 3216 3869 3216 3328 
Q 3216 3053 3103 2787 
Q 2991 2522 2730 2228 
Q 2469 1934 1863 1422 
Q 1356 997 1212 845 
Q 1069 694 975 541 
L 3222 541 
z
" transform="scale(0.015625)"/>
       </defs>
       <use xlink:href="#ArialMT-32"/>
      </g>
     </g>
    </g>
    <g id="ytick_4">
     <g id="text_9">
      <!-- 3 -->
      <g style="fill: #262626" transform="translate(32.549062 108.357495)scale(0.1 -0.1)">
       <use xlink:href="#ArialMT-33"/>
      </g>
     </g>
    </g>
    <g id="ytick_5">
     <g id="text_10">
      <!-- 4 -->
      <g style="fill: #262626" transform="translate(32.549062 71.51122)scale(0.1 -0.1)">
       <defs>
        <path id="ArialMT-34" d="M 2069 0 
L 2069 1097 
L 81 1097 
L 81 1613 
L 2172 4581 
L 2631 4581 
L 2631 1613 
L 3250 1613 
L 3250 1097 
L 2631 1097 
L 2631 0 
L 2069 0 
z
M 2069 1613 
L 2069 3678 
L 634 1613 
L 2069 1613 
z
" transform="scale(0.015625)"/>
       </defs>
       <use xlink:href="#ArialMT-34"/>
      </g>
     </g>
    </g>
    <g id="ytick_6">
     <g id="text_11">
      <!-- 5 -->
      <g style="fill: #262626" transform="translate(32.549062 34.664944)scale(0.1 -0.1)">
       <use xlink:href="#ArialMT-35"/>
      </g>
     </g>
    </g>
    <g id="text_12">
     <!-- Expectation -->
     <g style="fill: #262626" transform="translate(26.561562 148.911875)rotate(-90)scale(0.1 -0.1)">
      <defs>
       <path id="ArialMT-45" d="M 506 0 
L 506 4581 
L 3819 4581 
L 3819 4041 
L 1113 4041 
L 1113 2638 
L 3647 2638 
L 3647 2100 
L 1113 2100 
L 1113 541 
L 3925 541 
L 3925 0 
L 506 0 
z
" transform="scale(0.015625)"/>
       <path id="ArialMT-78" d="M 47 0 
L 1259 1725 
L 138 3319 
L 841 3319 
L 1350 2541 
Q 1494 2319 1581 2169 
Q 1719 2375 1834 2534 
L 2394 3319 
L 3066 3319 
L 1919 1756 
L 3153 0 
L 2463 0 
L 1781 1031 
L 1600 1309 
L 728 0 
L 47 0 
z
" transform="scale(0.015625)"/>
       <path id="ArialMT-70" d="M 422 -1272 
L 422 3319 
L 934 3319 
L 934 2888 
Q 1116 3141 1344 3267 
Q 1572 3394 1897 3394 
Q 2322 3394 2647 3175 
Q 2972 2956 3137 2557 
Q 3303 2159 3303 1684 
Q 3303 1175 3120 767 
Q 2938 359 2589 142 
Q 2241 -75 1856 -75 
Q 1575 -75 1351 44 
Q 1128 163 984 344 
L 984 -1272 
L 422 -1272 
z
M 931 1641 
Q 931 1000 1190 694 
Q 1450 388 1819 388 
Q 2194 388 2461 705 
Q 2728 1022 2728 1688 
Q 2728 2322 2467 2637 
Q 2206 2953 1844 2953 
Q 1484 2953 1207 2617 
Q 931 2281 931 1641 
z
" transform="scale(0.015625)"/>
       <path id="ArialMT-65" d="M 2694 1069 
L 3275 997 
Q 3138 488 2766 206 
Q 2394 -75 1816 -75 
Q 1088 -75 661 373 
Q 234 822 234 1631 
Q 234 2469 665 2931 
Q 1097 3394 1784 3394 
Q 2450 3394 2872 2941 
Q 3294 2488 3294 1666 
Q 3294 1616 3291 1516 
L 816 1516 
Q 847 969 1125 678 
Q 1403 388 1819 388 
Q 2128 388 2347 550 
Q 2566 713 2694 1069 
z
M 847 1978 
L 2700 1978 
Q 2663 2397 2488 2606 
Q 2219 2931 1791 2931 
Q 1403 2931 1139 2672 
Q 875 2413 847 1978 
z
" transform="scale(0.015625)"/>
       <path id="ArialMT-63" d="M 2588 1216 
L 3141 1144 
Q 3050 572 2676 248 
Q 2303 -75 1759 -75 
Q 1078 -75 664 370 
Q 250 816 250 1647 
Q 250 2184 428 2587 
Q 606 2991 970 3192 
Q 1334 3394 1763 3394 
Q 2303 3394 2647 3120 
Q 2991 2847 3088 2344 
L 2541 2259 
Q 2463 2594 2264 2762 
Q 2066 2931 1784 2931 
Q 1359 2931 1093 2626 
Q 828 2322 828 1663 
Q 828 994 1084 691 
Q 1341 388 1753 388 
Q 2084 388 2306 591 
Q 2528 794 2588 1216 
z
" transform="scale(0.015625)"/>
       <path id="ArialMT-74" d="M 1650 503 
L 1731 6 
Q 1494 -44 1306 -44 
Q 1000 -44 831 53 
Q 663 150 594 308 
Q 525 466 525 972 
L 525 2881 
L 113 2881 
L 113 3319 
L 525 3319 
L 525 4141 
L 1084 4478 
L 1084 3319 
L 1650 3319 
L 1650 2881 
L 1084 2881 
L 1084 941 
Q 1084 700 1114 631 
Q 1144 563 1211 522 
Q 1278 481 1403 481 
Q 1497 481 1650 503 
z
" transform="scale(0.015625)"/>
       <path id="ArialMT-61" d="M 2588 409 
Q 2275 144 1986 34 
Q 1697 -75 1366 -75 
Q 819 -75 525 192 
Q 231 459 231 875 
Q 231 1119 342 1320 
Q 453 1522 633 1644 
Q 813 1766 1038 1828 
Q 1203 1872 1538 1913 
Q 2219 1994 2541 2106 
Q 2544 2222 2544 2253 
Q 2544 2597 2384 2738 
Q 2169 2928 1744 2928 
Q 1347 2928 1158 2789 
Q 969 2650 878 2297 
L 328 2372 
Q 403 2725 575 2942 
Q 747 3159 1072 3276 
Q 1397 3394 1825 3394 
Q 2250 3394 2515 3294 
Q 2781 3194 2906 3042 
Q 3031 2891 3081 2659 
Q 3109 2516 3109 2141 
L 3109 1391 
Q 3109 606 3145 398 
Q 3181 191 3288 0 
L 2700 0 
Q 2613 175 2588 409 
z
M 2541 1666 
Q 2234 1541 1622 1453 
Q 1275 1403 1131 1340 
Q 988 1278 909 1158 
Q 831 1038 831 891 
Q 831 666 1001 516 
Q 1172 366 1500 366 
Q 1825 366 2078 508 
Q 2331 650 2450 897 
Q 2541 1088 2541 1459 
L 2541 1666 
z
" transform="scale(0.015625)"/>
       <path id="ArialMT-69" d="M 425 3934 
L 425 4581 
L 988 4581 
L 988 3934 
L 425 3934 
z
M 425 0 
L 425 3319 
L 988 3319 
L 988 0 
L 425 0 
z
" transform="scale(0.015625)"/>
       <path id="ArialMT-6f" d="M 213 1659 
Q 213 2581 725 3025 
Q 1153 3394 1769 3394 
Q 2453 3394 2887 2945 
Q 3322 2497 3322 1706 
Q 3322 1066 3130 698 
Q 2938 331 2570 128 
Q 2203 -75 1769 -75 
Q 1072 -75 642 372 
Q 213 819 213 1659 
z
M 791 1659 
Q 791 1022 1069 705 
Q 1347 388 1769 388 
Q 2188 388 2466 706 
Q 2744 1025 2744 1678 
Q 2744 2294 2464 2611 
Q 2184 2928 1769 2928 
Q 1347 2928 1069 2612 
Q 791 2297 791 1659 
z
" transform="scale(0.015625)"/>
       <path id="ArialMT-6e" d="M 422 0 
L 422 3319 
L 928 3319 
L 928 2847 
Q 1294 3394 1984 3394 
Q 2284 3394 2536 3286 
Q 2788 3178 2913 3003 
Q 3038 2828 3088 2588 
Q 3119 2431 3119 2041 
L 3119 0 
L 2556 0 
L 2556 2019 
Q 2556 2363 2490 2533 
Q 2425 2703 2258 2804 
Q 2091 2906 1866 2906 
Q 1506 2906 1245 2678 
Q 984 2450 984 1813 
L 984 0 
L 422 0 
z
" transform="scale(0.015625)"/>
      </defs>
      <use xlink:href="#ArialMT-45"/>
      <use xlink:href="#ArialMT-78" x="66.699219"/>
      <use xlink:href="#ArialMT-70" x="116.699219"/>
      <use xlink:href="#ArialMT-65" x="172.314453"/>
      <use xlink:href="#ArialMT-63" x="227.929688"/>
      <use xlink:href="#ArialMT-74" x="277.929688"/>
      <use xlink:href="#ArialMT-61" x="305.712891"/>
      <use xlink:href="#ArialMT-74" x="361.328125"/>
      <use xlink:href="#ArialMT-69" x="389.111328"/>
      <use xlink:href="#ArialMT-6f" x="411.328125"/>
      <use xlink:href="#ArialMT-6e" x="466.943359"/>
     </g>
    </g>
    <g id="text_13">
     <!-- 1e8 -->
     <g style="fill: #262626" transform="translate(45.11 18)scale(0.1 -0.1)">
      <defs>
       <path id="ArialMT-38" d="M 1131 2484 
Q 781 2613 612 2850 
Q 444 3088 444 3419 
Q 444 3919 803 4259 
Q 1163 4600 1759 4600 
Q 2359 4600 2725 4251 
Q 3091 3903 3091 3403 
Q 3091 3084 2923 2848 
Q 2756 2613 2416 2484 
Q 2838 2347 3058 2040 
Q 3278 1734 3278 1309 
Q 3278 722 2862 322 
Q 2447 -78 1769 -78 
Q 1091 -78 675 323 
Q 259 725 259 1325 
Q 259 1772 486 2073 
Q 713 2375 1131 2484 
z
M 1019 3438 
Q 1019 3113 1228 2906 
Q 1438 2700 1772 2700 
Q 2097 2700 2305 2904 
Q 2513 3109 2513 3406 
Q 2513 3716 2298 3927 
Q 2084 4138 1766 4138 
Q 1444 4138 1231 3931 
Q 1019 3725 1019 3438 
z
M 838 1322 
Q 838 1081 952 856 
Q 1066 631 1291 507 
Q 1516 384 1775 384 
Q 2178 384 2440 643 
Q 2703 903 2703 1303 
Q 2703 1709 2433 1975 
Q 2163 2241 1756 2241 
Q 1359 2241 1098 1978 
Q 838 1716 838 1322 
z
" transform="scale(0.015625)"/>
      </defs>
      <use xlink:href="#ArialMT-31"/>
      <use xlink:href="#ArialMT-65" x="55.615234"/>
      <use xlink:href="#ArialMT-38" x="111.230469"/>
     </g>
    </g>
   </g>
   <g id="PolyCollection_1">
    <defs>
     <path id="m51d5eac360" d="M 59.051932 -288.682585 
L 59.051932 -288.682585 
L 59.051932 -288.682585 
L 59.051932 -288.682585 
z
" style="stroke: #1f77b4; stroke-opacity: 0.2"/>
    </defs>
    <g clip-path="url(#p01dd64bc9e)">
     <use xlink:href="#m51d5eac360" x="0" y="504" style="fill: #1f77b4; fill-opacity: 0.2; stroke: #1f77b4; stroke-opacity: 0.2"/>
    </g>
   </g>
   <g id="PolyCollection_2">
    <defs>
     <path id="m21498c4769" d="M 59.051932 -288.682585 
L 59.051932 -288.682585 
L 59.051932 -288.682585 
L 59.051932 -288.682585 
z
" style="stroke: #ff7f0e; stroke-opacity: 0.2"/>
    </defs>
    <g clip-path="url(#p01dd64bc9e)">
     <use xlink:href="#m21498c4769" x="0" y="504" style="fill: #ff7f0e; fill-opacity: 0.2; stroke: #ff7f0e; stroke-opacity: 0.2"/>
    </g>
   </g>
   <g id="PolyCollection_3">
    <defs>
     <path id="mc121c1e75c" d="M 59.051932 -288.682585 
L 59.051932 -288.682585 
L 59.051932 -288.682585 
L 59.051932 -288.682585 
z
" style="stroke: #2ca02c; stroke-opacity: 0.2"/>
    </defs>
    <g clip-path="url(#p01dd64bc9e)">
     <use xlink:href="#mc121c1e75c" x="0" y="504" style="fill: #2ca02c; fill-opacity: 0.2; stroke: #2ca02c; stroke-opacity: 0.2"/>
    </g>
   </g>
   <g id="line2d_1">
    <path d="M 59.051932 215.317415 
L 64.696399 215.317415 
L 71.807586 215.317414 
L 76.491605 215.317414 
L 81.456865 215.317413 
L 87.101332 215.317412 
L 91.785351 215.317411 
L 96.750611 215.317409 
L 101.434631 215.317408 
L 106.16592 215.317404 
L 110.91719 215.3174 
L 115.696722 215.317392 
L 120.482355 215.317385 
L 125.166374 215.317373 
L 129.919096 215.317355 
L 134.664172 215.31733 
L 139.374277 215.317303 
L 144.11403 215.317251 
L 148.837722 215.317177 
L 153.568825 215.317077 
L 158.298653 215.316955 
L 163.024837 215.316766 
L 167.751345 215.31651 
L 172.476113 215.316147 
L 177.202656 215.315595 
L 181.929641 215.314808 
L 186.655476 215.313744 
L 191.381931 215.312261 
L 196.108066 215.310667 
L 200.834283 215.307432 
L 205.560269 215.303714 
L 210.286341 215.297873 
L 215.012488 215.291312 
L 219.738537 215.277656 
L 224.464668 215.264739 
L 229.190747 215.242919 
L 233.916824 215.21068 
L 238.642908 215.169823 
L 243.368994 215.107095 
L 248.095074 215.040415 
L 252.821151 214.920179 
L 257.547229 214.747165 
L 262.273308 214.512877 
L 266.999388 214.148502 
L 271.725467 213.706976 
L 276.451546 213.091404 
L 281.177625 212.184919 
L 285.903703 210.960526 
L 290.629782 209.189638 
L 295.355861 206.588273 
L 300.081939 203.358611 
L 304.808018 198.29918 
L 309.534097 190.049043 
L 314.260175 182.018208 
L 318.986254 167.194862 
L 323.712332 149.382668 
L 328.438411 124.728809 
L 333.16449 81.030251 
L 337.890568 30.25321 
" clip-path="url(#p01dd64bc9e)" style="fill: none; stroke: #1f77b4; stroke-width: 1.5; stroke-linecap: round"/>
   </g>
   <g id="line2d_2">
    <path d="M 59.051932 215.317415 
L 64.696399 215.317415 
L 71.807586 215.317414 
L 76.491605 215.317414 
L 81.456865 215.317413 
L 87.101332 215.317412 
L 91.785351 215.317411 
L 96.750611 215.31741 
L 101.434631 215.317407 
L 106.16592 215.317404 
L 110.91719 215.3174 
L 115.696722 215.317394 
L 120.482355 215.317385 
L 125.166374 215.317373 
L 129.919096 215.317355 
L 134.664172 215.317331 
L 139.374277 215.317297 
L 144.11403 215.317249 
L 148.837722 215.317182 
L 153.568825 215.317088 
L 158.298653 215.316955 
L 163.024837 215.316769 
L 167.751345 215.316508 
L 172.476113 215.316142 
L 177.202656 215.315627 
L 181.929641 215.314904 
L 186.655476 215.313889 
L 191.381931 215.312464 
L 196.108066 215.310462 
L 200.834283 215.307652 
L 205.560269 215.303705 
L 210.286341 215.298163 
L 215.012488 215.290381 
L 219.738537 215.279452 
L 224.464668 215.264106 
L 229.190747 215.242557 
L 233.916824 215.212297 
L 238.642908 215.169804 
L 243.368994 215.110134 
L 248.095074 215.026343 
L 252.821151 214.908681 
L 257.547229 214.743456 
L 262.273308 214.511442 
L 266.999388 214.185638 
L 271.725467 213.728132 
L 276.451546 213.085687 
L 281.177625 212.183541 
L 285.903703 210.916716 
L 290.629782 209.137793 
L 295.355861 206.639766 
L 300.081939 203.131946 
L 304.808018 198.206139 
L 309.534097 191.289141 
L 314.260175 181.576042 
L 318.986254 167.936557 
L 323.712332 148.783498 
L 328.438411 121.88808 
L 333.16449 84.120559 
L 337.890568 31.086038 
" clip-path="url(#p01dd64bc9e)" style="fill: none; stroke: #ff7f0e; stroke-width: 1.5; stroke-linecap: round"/>
   </g>
   <g id="line2d_3">
    <path d="M 59.051932 215.317415 
L 64.696399 215.317415 
L 71.807586 215.317414 
L 76.491605 215.317414 
L 81.456865 215.317413 
L 87.101332 215.317412 
L 91.785351 215.317411 
L 96.750611 215.31741 
L 101.434631 215.317407 
L 106.16592 215.317404 
L 110.91719 215.3174 
L 115.696722 215.317394 
L 120.482355 215.317385 
L 125.166374 215.317373 
L 129.919096 215.317355 
L 134.664172 215.317331 
L 139.374277 215.317297 
L 144.11403 215.317249 
L 148.837722 215.317182 
L 153.568825 215.317088 
L 158.298653 215.316955 
L 163.024837 215.316769 
L 167.751345 215.316508 
L 172.476113 215.316142 
L 177.202656 215.315627 
L 181.929641 215.314904 
L 186.655476 215.313889 
L 191.381931 215.312464 
L 196.108066 215.310462 
L 200.834283 215.307652 
L 205.560269 215.303705 
L 210.286341 215.298163 
L 215.012488 215.290381 
L 219.738537 215.279452 
L 224.464668 215.264106 
L 229.190747 215.242557 
L 233.916824 215.212297 
L 238.642908 215.169804 
L 243.368994 215.110134 
L 248.095074 215.026343 
L 252.821151 214.908681 
L 257.547229 214.743456 
L 262.273308 214.511442 
L 266.999388 214.185638 
L 271.725467 213.728132 
L 276.451546 213.085687 
L 281.177625 212.183541 
L 285.903703 210.916716 
L 290.629782 209.137793 
L 295.355861 206.639766 
L 300.081939 203.131946 
L 304.808018 198.206139 
L 309.534097 191.289141 
L 314.260175 181.576042 
L 318.986254 167.936557 
L 323.712332 148.783498 
L 328.438411 121.88808 
L 333.16449 84.120559 
L 337.890568 31.086038 
" clip-path="url(#p01dd64bc9e)" style="fill: none; stroke: #2ca02c; stroke-width: 1.5; stroke-linecap: round"/>
   </g>
   <g id="line2d_4"/>
   <g id="line2d_5"/>
   <g id="line2d_6"/>
   <g id="patch_3">
    <path d="M 45.11 224.570625 
L 45.11 21 
" style="fill: none; stroke: #262626; stroke-width: 0.8; stroke-linejoin: miter; stroke-linecap: square"/>
   </g>
   <g id="patch_4">
    <path d="M 351.8325 224.570625 
L 351.8325 21 
" style="fill: none; stroke: #262626; stroke-width: 0.8; stroke-linejoin: miter; stroke-linecap: square"/>
   </g>
   <g id="patch_5">
    <path d="M 45.11 224.570625 
L 351.8325 224.570625 
" style="fill: none; stroke: #262626; stroke-width: 0.8; stroke-linejoin: miter; stroke-linecap: square"/>
   </g>
   <g id="patch_6">
    <path d="M 45.11 21 
L 351.8325 21 
" style="fill: none; stroke: #262626; stroke-width: 0.8; stroke-linejoin: miter; stroke-linecap: square"/>
   </g>
   <g id="legend_1">
    <g id="patch_7">
     <path d="M 52.11 85.58125 
L 178.586563 85.58125 
Q 180.586563 85.58125 180.586563 83.58125 
L 180.586563 28 
Q 180.586563 26 178.586563 26 
L 52.11 26 
Q 50.11 26 50.11 28 
L 50.11 83.58125 
Q 50.11 85.58125 52.11 85.58125 
z
" style="fill: #ffffff; opacity: 0.8; stroke: #cccccc; stroke-linejoin: miter"/>
    </g>
    <g id="text_14">
     <!-- metric -->
     <g style="fill: #262626" transform="translate(101.738125 37.157812)scale(0.1 -0.1)">
      <defs>
       <path id="ArialMT-6d" d="M 422 0 
L 422 3319 
L 925 3319 
L 925 2853 
Q 1081 3097 1340 3245 
Q 1600 3394 1931 3394 
Q 2300 3394 2536 3241 
Q 2772 3088 2869 2813 
Q 3263 3394 3894 3394 
Q 4388 3394 4653 3120 
Q 4919 2847 4919 2278 
L 4919 0 
L 4359 0 
L 4359 2091 
Q 4359 2428 4304 2576 
Q 4250 2725 4106 2815 
Q 3963 2906 3769 2906 
Q 3419 2906 3187 2673 
Q 2956 2441 2956 1928 
L 2956 0 
L 2394 0 
L 2394 2156 
Q 2394 2531 2256 2718 
Q 2119 2906 1806 2906 
Q 1569 2906 1367 2781 
Q 1166 2656 1075 2415 
Q 984 2175 984 1722 
L 984 0 
L 422 0 
z
" transform="scale(0.015625)"/>
       <path id="ArialMT-72" d="M 416 0 
L 416 3319 
L 922 3319 
L 922 2816 
Q 1116 3169 1280 3281 
Q 1444 3394 1641 3394 
Q 1925 3394 2219 3213 
L 2025 2691 
Q 1819 2813 1613 2813 
Q 1428 2813 1281 2702 
Q 1134 2591 1072 2394 
Q 978 2094 978 1738 
L 978 0 
L 416 0 
z
" transform="scale(0.015625)"/>
      </defs>
      <use xlink:href="#ArialMT-6d"/>
      <use xlink:href="#ArialMT-65" x="83.300781"/>
      <use xlink:href="#ArialMT-74" x="138.916016"/>
      <use xlink:href="#ArialMT-72" x="166.699219"/>
      <use xlink:href="#ArialMT-69" x="200"/>
      <use xlink:href="#ArialMT-63" x="222.216797"/>
     </g>
    </g>
    <g id="line2d_7">
     <path d="M 54.11 47.803125 
L 64.11 47.803125 
L 74.11 47.803125 
" style="fill: none; stroke: #1f77b4; stroke-width: 1.5; stroke-linecap: round"/>
    </g>
    <g id="text_15">
     <!-- HarmonicMeanRank -->
     <g style="fill: #262626" transform="translate(82.11 51.303125)scale(0.1 -0.1)">
      <defs>
       <path id="ArialMT-48" d="M 513 0 
L 513 4581 
L 1119 4581 
L 1119 2700 
L 3500 2700 
L 3500 4581 
L 4106 4581 
L 4106 0 
L 3500 0 
L 3500 2159 
L 1119 2159 
L 1119 0 
L 513 0 
z
" transform="scale(0.015625)"/>
       <path id="ArialMT-4d" d="M 475 0 
L 475 4581 
L 1388 4581 
L 2472 1338 
Q 2622 884 2691 659 
Q 2769 909 2934 1394 
L 4031 4581 
L 4847 4581 
L 4847 0 
L 4263 0 
L 4263 3834 
L 2931 0 
L 2384 0 
L 1059 3900 
L 1059 0 
L 475 0 
z
" transform="scale(0.015625)"/>
       <path id="ArialMT-52" d="M 503 0 
L 503 4581 
L 2534 4581 
Q 3147 4581 3465 4457 
Q 3784 4334 3975 4021 
Q 4166 3709 4166 3331 
Q 4166 2844 3850 2509 
Q 3534 2175 2875 2084 
Q 3116 1969 3241 1856 
Q 3506 1613 3744 1247 
L 4541 0 
L 3778 0 
L 3172 953 
Q 2906 1366 2734 1584 
Q 2563 1803 2427 1890 
Q 2291 1978 2150 2013 
Q 2047 2034 1813 2034 
L 1109 2034 
L 1109 0 
L 503 0 
z
M 1109 2559 
L 2413 2559 
Q 2828 2559 3062 2645 
Q 3297 2731 3419 2920 
Q 3541 3109 3541 3331 
Q 3541 3656 3305 3865 
Q 3069 4075 2559 4075 
L 1109 4075 
L 1109 2559 
z
" transform="scale(0.015625)"/>
       <path id="ArialMT-6b" d="M 425 0 
L 425 4581 
L 988 4581 
L 988 1969 
L 2319 3319 
L 3047 3319 
L 1778 2088 
L 3175 0 
L 2481 0 
L 1384 1697 
L 988 1316 
L 988 0 
L 425 0 
z
" transform="scale(0.015625)"/>
      </defs>
      <use xlink:href="#ArialMT-48"/>
      <use xlink:href="#ArialMT-61" x="72.216797"/>
      <use xlink:href="#ArialMT-72" x="127.832031"/>
      <use xlink:href="#ArialMT-6d" x="161.132812"/>
      <use xlink:href="#ArialMT-6f" x="244.433594"/>
      <use xlink:href="#ArialMT-6e" x="300.048828"/>
      <use xlink:href="#ArialMT-69" x="355.664062"/>
      <use xlink:href="#ArialMT-63" x="377.880859"/>
      <use xlink:href="#ArialMT-4d" x="427.880859"/>
      <use xlink:href="#ArialMT-65" x="511.181641"/>
      <use xlink:href="#ArialMT-61" x="566.796875"/>
      <use xlink:href="#ArialMT-6e" x="622.412109"/>
      <use xlink:href="#ArialMT-52" x="678.027344"/>
      <use xlink:href="#ArialMT-61" x="750.244141"/>
      <use xlink:href="#ArialMT-6e" x="805.859375"/>
      <use xlink:href="#ArialMT-6b" x="861.474609"/>
     </g>
    </g>
    <g id="line2d_8">
     <path d="M 54.11 61.948437 
L 64.11 61.948437 
L 74.11 61.948437 
" style="fill: none; stroke: #ff7f0e; stroke-width: 1.5; stroke-linecap: round"/>
    </g>
    <g id="text_16">
     <!-- ArithmeticMeanRank -->
     <g style="fill: #262626" transform="translate(82.11 65.448437)scale(0.1 -0.1)">
      <defs>
       <path id="ArialMT-41" d="M -9 0 
L 1750 4581 
L 2403 4581 
L 4278 0 
L 3588 0 
L 3053 1388 
L 1138 1388 
L 634 0 
L -9 0 
z
M 1313 1881 
L 2866 1881 
L 2388 3150 
Q 2169 3728 2063 4100 
Q 1975 3659 1816 3225 
L 1313 1881 
z
" transform="scale(0.015625)"/>
       <path id="ArialMT-68" d="M 422 0 
L 422 4581 
L 984 4581 
L 984 2938 
Q 1378 3394 1978 3394 
Q 2347 3394 2619 3248 
Q 2891 3103 3008 2847 
Q 3125 2591 3125 2103 
L 3125 0 
L 2563 0 
L 2563 2103 
Q 2563 2525 2380 2717 
Q 2197 2909 1863 2909 
Q 1613 2909 1392 2779 
Q 1172 2650 1078 2428 
Q 984 2206 984 1816 
L 984 0 
L 422 0 
z
" transform="scale(0.015625)"/>
      </defs>
      <use xlink:href="#ArialMT-41"/>
      <use xlink:href="#ArialMT-72" x="66.699219"/>
      <use xlink:href="#ArialMT-69" x="100"/>
      <use xlink:href="#ArialMT-74" x="122.216797"/>
      <use xlink:href="#ArialMT-68" x="150"/>
      <use xlink:href="#ArialMT-6d" x="205.615234"/>
      <use xlink:href="#ArialMT-65" x="288.916016"/>
      <use xlink:href="#ArialMT-74" x="344.53125"/>
      <use xlink:href="#ArialMT-69" x="372.314453"/>
      <use xlink:href="#ArialMT-63" x="394.53125"/>
      <use xlink:href="#ArialMT-4d" x="444.53125"/>
      <use xlink:href="#ArialMT-65" x="527.832031"/>
      <use xlink:href="#ArialMT-61" x="583.447266"/>
      <use xlink:href="#ArialMT-6e" x="639.0625"/>
      <use xlink:href="#ArialMT-52" x="694.677734"/>
      <use xlink:href="#ArialMT-61" x="766.894531"/>
      <use xlink:href="#ArialMT-6e" x="822.509766"/>
      <use xlink:href="#ArialMT-6b" x="878.125"/>
     </g>
    </g>
    <g id="line2d_9">
     <path d="M 54.11 76.09375 
L 64.11 76.09375 
L 74.11 76.09375 
" style="fill: none; stroke: #2ca02c; stroke-width: 1.5; stroke-linecap: round"/>
    </g>
    <g id="text_17">
     <!-- GeometricMeanRank -->
     <g style="fill: #262626" transform="translate(82.11 79.59375)scale(0.1 -0.1)">
      <defs>
       <path id="ArialMT-47" d="M 2638 1797 
L 2638 2334 
L 4578 2338 
L 4578 638 
Q 4131 281 3656 101 
Q 3181 -78 2681 -78 
Q 2006 -78 1454 211 
Q 903 500 622 1047 
Q 341 1594 341 2269 
Q 341 2938 620 3517 
Q 900 4097 1425 4378 
Q 1950 4659 2634 4659 
Q 3131 4659 3532 4498 
Q 3934 4338 4162 4050 
Q 4391 3763 4509 3300 
L 3963 3150 
Q 3859 3500 3706 3700 
Q 3553 3900 3268 4020 
Q 2984 4141 2638 4141 
Q 2222 4141 1919 4014 
Q 1616 3888 1430 3681 
Q 1244 3475 1141 3228 
Q 966 2803 966 2306 
Q 966 1694 1177 1281 
Q 1388 869 1791 669 
Q 2194 469 2647 469 
Q 3041 469 3416 620 
Q 3791 772 3984 944 
L 3984 1797 
L 2638 1797 
z
" transform="scale(0.015625)"/>
      </defs>
      <use xlink:href="#ArialMT-47"/>
      <use xlink:href="#ArialMT-65" x="77.783203"/>
      <use xlink:href="#ArialMT-6f" x="133.398438"/>
      <use xlink:href="#ArialMT-6d" x="189.013672"/>
      <use xlink:href="#ArialMT-65" x="272.314453"/>
      <use xlink:href="#ArialMT-74" x="327.929688"/>
      <use xlink:href="#ArialMT-72" x="355.712891"/>
      <use xlink:href="#ArialMT-69" x="389.013672"/>
      <use xlink:href="#ArialMT-63" x="411.230469"/>
      <use xlink:href="#ArialMT-4d" x="461.230469"/>
      <use xlink:href="#ArialMT-65" x="544.53125"/>
      <use xlink:href="#ArialMT-61" x="600.146484"/>
      <use xlink:href="#ArialMT-6e" x="655.761719"/>
      <use xlink:href="#ArialMT-52" x="711.376953"/>
      <use xlink:href="#ArialMT-61" x="783.59375"/>
      <use xlink:href="#ArialMT-6e" x="839.208984"/>
      <use xlink:href="#ArialMT-6b" x="894.824219"/>
     </g>
    </g>
   </g>
  </g>
  <g id="axes_2">
   <g id="patch_8">
    <path d="M 402.4775 224.570625 
L 709.2 224.570625 
L 709.2 21 
L 402.4775 21 
z
" style="fill: #ffffff"/>
   </g>
   <g id="matplotlib.axis_3">
    <g id="xtick_6">
     <g id="text_18">
      <!-- $\mathdefault{10^{1}}$ -->
      <g style="fill: #262626" transform="translate(430.974365 241.883125)scale(0.1 -0.1)">
       <use xlink:href="#ArialMT-31" transform="translate(0 0.99375)"/>
       <use xlink:href="#ArialMT-30" transform="translate(55.615234 0.99375)"/>
       <use xlink:href="#ArialMT-31" transform="translate(112.972813 70.6875)scale(0.7)"/>
      </g>
     </g>
    </g>
    <g id="xtick_7">
     <g id="text_19">
      <!-- $\mathdefault{10^{3}}$ -->
      <g style="fill: #262626" transform="translate(495.082791 241.883125)scale(0.1 -0.1)">
       <use xlink:href="#ArialMT-31" transform="translate(0 0.99375)"/>
       <use xlink:href="#ArialMT-30" transform="translate(55.615234 0.99375)"/>
       <use xlink:href="#ArialMT-33" transform="translate(112.972813 70.6875)scale(0.7)"/>
      </g>
     </g>
    </g>
    <g id="xtick_8">
     <g id="text_20">
      <!-- $\mathdefault{10^{5}}$ -->
      <g style="fill: #262626" transform="translate(559.191217 241.783125)scale(0.1 -0.1)">
       <use xlink:href="#ArialMT-31" transform="translate(0 0.879688)"/>
       <use xlink:href="#ArialMT-30" transform="translate(55.615234 0.879688)"/>
       <use xlink:href="#ArialMT-35" transform="translate(112.972813 70.573438)scale(0.7)"/>
      </g>
     </g>
    </g>
    <g id="xtick_9">
     <g id="text_21">
      <!-- $\mathdefault{10^{7}}$ -->
      <g style="fill: #262626" transform="translate(623.299642 241.783125)scale(0.1 -0.1)">
       <use xlink:href="#ArialMT-31" transform="translate(0 0.846875)"/>
       <use xlink:href="#ArialMT-30" transform="translate(55.615234 0.846875)"/>
       <use xlink:href="#ArialMT-37" transform="translate(112.972813 70.540625)scale(0.7)"/>
      </g>
     </g>
    </g>
    <g id="xtick_10">
     <g id="text_22">
      <!-- $\mathdefault{10^{9}}$ -->
      <g style="fill: #262626" transform="translate(687.408068 241.883125)scale(0.1 -0.1)">
       <use xlink:href="#ArialMT-31" transform="translate(0 0.99375)"/>
       <use xlink:href="#ArialMT-30" transform="translate(55.615234 0.99375)"/>
       <use xlink:href="#ArialMT-39" transform="translate(112.972813 70.6875)scale(0.7)"/>
      </g>
     </g>
    </g>
   </g>
   <g id="matplotlib.axis_4">
    <g id="ytick_7">
     <g id="text_23">
      <!-- 0 -->
      <g style="fill: #262626" transform="translate(389.916562 218.896321)scale(0.1 -0.1)">
       <use xlink:href="#ArialMT-30"/>
      </g>
     </g>
    </g>
    <g id="ytick_8">
     <g id="text_24">
      <!-- 2 -->
      <g style="fill: #262626" transform="translate(389.916562 176.454344)scale(0.1 -0.1)">
       <use xlink:href="#ArialMT-32"/>
      </g>
     </g>
    </g>
    <g id="ytick_9">
     <g id="text_25">
      <!-- 4 -->
      <g style="fill: #262626" transform="translate(389.916562 134.012366)scale(0.1 -0.1)">
       <use xlink:href="#ArialMT-34"/>
      </g>
     </g>
    </g>
    <g id="ytick_10">
     <g id="text_26">
      <!-- 6 -->
      <g style="fill: #262626" transform="translate(389.916562 91.570389)scale(0.1 -0.1)">
       <defs>
        <path id="ArialMT-36" d="M 3184 3459 
L 2625 3416 
Q 2550 3747 2413 3897 
Q 2184 4138 1850 4138 
Q 1581 4138 1378 3988 
Q 1113 3794 959 3422 
Q 806 3050 800 2363 
Q 1003 2672 1297 2822 
Q 1591 2972 1913 2972 
Q 2475 2972 2870 2558 
Q 3266 2144 3266 1488 
Q 3266 1056 3080 686 
Q 2894 316 2569 119 
Q 2244 -78 1831 -78 
Q 1128 -78 684 439 
Q 241 956 241 2144 
Q 241 3472 731 4075 
Q 1159 4600 1884 4600 
Q 2425 4600 2770 4297 
Q 3116 3994 3184 3459 
z
M 888 1484 
Q 888 1194 1011 928 
Q 1134 663 1356 523 
Q 1578 384 1822 384 
Q 2178 384 2434 671 
Q 2691 959 2691 1453 
Q 2691 1928 2437 2201 
Q 2184 2475 1800 2475 
Q 1419 2475 1153 2201 
Q 888 1928 888 1484 
z
" transform="scale(0.015625)"/>
       </defs>
       <use xlink:href="#ArialMT-36"/>
      </g>
     </g>
    </g>
    <g id="ytick_11">
     <g id="text_27">
      <!-- 8 -->
      <g style="fill: #262626" transform="translate(389.916562 49.128412)scale(0.1 -0.1)">
       <use xlink:href="#ArialMT-38"/>
      </g>
     </g>
    </g>
    <g id="text_28">
     <!-- Variance -->
     <g style="fill: #262626" transform="translate(383.929062 142.149375)rotate(-90)scale(0.1 -0.1)">
      <defs>
       <path id="ArialMT-56" d="M 1803 0 
L 28 4581 
L 684 4581 
L 1875 1253 
Q 2019 853 2116 503 
Q 2222 878 2363 1253 
L 3600 4581 
L 4219 4581 
L 2425 0 
L 1803 0 
z
" transform="scale(0.015625)"/>
      </defs>
      <use xlink:href="#ArialMT-56"/>
      <use xlink:href="#ArialMT-61" x="59.324219"/>
      <use xlink:href="#ArialMT-72" x="114.939453"/>
      <use xlink:href="#ArialMT-69" x="148.240234"/>
      <use xlink:href="#ArialMT-61" x="170.457031"/>
      <use xlink:href="#ArialMT-6e" x="226.072266"/>
      <use xlink:href="#ArialMT-63" x="281.6875"/>
      <use xlink:href="#ArialMT-65" x="331.6875"/>
     </g>
    </g>
    <g id="text_29">
     <!-- 1e16 -->
     <g style="fill: #262626" transform="translate(402.4775 18)scale(0.1 -0.1)">
      <use xlink:href="#ArialMT-31"/>
      <use xlink:href="#ArialMT-65" x="55.615234"/>
      <use xlink:href="#ArialMT-31" x="111.230469"/>
      <use xlink:href="#ArialMT-36" x="166.845703"/>
     </g>
    </g>
   </g>
   <g id="PolyCollection_4">
    <defs>
     <path id="mb880ef887b" d="M 416.419432 -288.682585 
L 416.419432 -288.682585 
L 416.419432 -288.682585 
L 416.419432 -288.682585 
z
" style="stroke: #1f77b4; stroke-opacity: 0.2"/>
    </defs>
    <g clip-path="url(#p65b16c1d08)">
     <use xlink:href="#mb880ef887b" x="0" y="504" style="fill: #1f77b4; fill-opacity: 0.2; stroke: #1f77b4; stroke-opacity: 0.2"/>
    </g>
   </g>
   <g id="PolyCollection_5">
    <defs>
     <path id="mac58847795" d="M 416.419432 -288.682585 
L 416.419432 -288.682585 
L 416.419432 -288.682585 
L 416.419432 -288.682585 
z
" style="stroke: #ff7f0e; stroke-opacity: 0.2"/>
    </defs>
    <g clip-path="url(#p65b16c1d08)">
     <use xlink:href="#mac58847795" x="0" y="504" style="fill: #ff7f0e; fill-opacity: 0.2; stroke: #ff7f0e; stroke-opacity: 0.2"/>
    </g>
   </g>
   <g id="PolyCollection_6">
    <defs>
     <path id="mc54a95dc5a" d="M 416.419432 -288.682585 
L 416.419432 -288.682585 
L 416.419432 -288.682585 
L 416.419432 -288.682585 
z
" style="stroke: #2ca02c; stroke-opacity: 0.2"/>
    </defs>
    <g clip-path="url(#p65b16c1d08)">
     <use xlink:href="#mc54a95dc5a" x="0" y="504" style="fill: #2ca02c; fill-opacity: 0.2; stroke: #2ca02c; stroke-opacity: 0.2"/>
    </g>
   </g>
   <g id="line2d_10">
    <path d="M 416.419432 215.317415 
L 422.063899 215.317415 
L 429.175086 215.317415 
L 433.859105 215.317415 
L 438.824365 215.317415 
L 444.468832 215.317415 
L 449.152851 215.317415 
L 454.118111 215.317415 
L 458.802131 215.317415 
L 463.53342 215.317415 
L 468.28469 215.317415 
L 473.064222 215.317415 
L 477.849855 215.317415 
L 482.533874 215.317415 
L 487.286596 215.317415 
L 492.031672 215.317415 
L 496.741777 215.317415 
L 501.48153 215.317415 
L 506.205222 215.317415 
L 510.936325 215.317415 
L 515.666153 215.317415 
L 520.392337 215.317415 
L 525.118845 215.317415 
L 529.843613 215.317415 
L 534.570156 215.317415 
L 539.297141 215.317415 
L 544.022976 215.317415 
L 548.749431 215.317415 
L 553.475566 215.317415 
L 558.201783 215.317414 
L 562.927769 215.317414 
L 567.653841 215.317413 
L 572.379988 215.317411 
L 577.106037 215.317407 
L 581.832168 215.3174 
L 586.558247 215.317387 
L 591.284324 215.317358 
L 596.010408 215.317306 
L 600.736494 215.317187 
L 605.462574 215.316942 
L 610.188651 215.316539 
L 614.914729 215.315681 
L 619.640808 215.313895 
L 624.366888 215.310549 
L 629.092967 215.303411 
L 633.819046 215.29174 
L 638.545125 215.264007 
L 643.271203 215.213973 
L 647.997282 215.114511 
L 652.723361 214.929974 
L 657.449439 214.499713 
L 662.175518 213.83205 
L 666.901597 212.348493 
L 671.627675 209.742874 
L 676.353754 203.561484 
L 681.079832 192.138733 
L 685.805911 168.49554 
L 690.53199 128.838946 
L 695.258068 30.25321 
" clip-path="url(#p65b16c1d08)" style="fill: none; stroke: #1f77b4; stroke-width: 1.5; stroke-linecap: round"/>
   </g>
   <g id="line2d_11">
    <path d="M 416.419432 215.317415 
L 422.063899 215.317415 
L 429.175086 215.317415 
L 433.859105 215.317415 
L 438.824365 215.317415 
L 444.468832 215.317415 
L 449.152851 215.317415 
L 454.118111 215.317415 
L 458.802131 215.317415 
L 463.53342 215.317415 
L 468.28469 215.317415 
L 473.064222 215.317415 
L 477.849855 215.317415 
L 482.533874 215.317415 
L 487.286596 215.317415 
L 492.031672 215.317415 
L 496.741777 215.317415 
L 501.48153 215.317415 
L 506.205222 215.317415 
L 510.936325 215.317415 
L 515.666153 215.317415 
L 520.392337 215.317415 
L 525.118845 215.317415 
L 529.843613 215.317415 
L 534.570156 215.317415 
L 539.297141 215.317415 
L 544.022976 215.317415 
L 548.749431 215.317415 
L 553.475566 215.317415 
L 558.201783 215.317414 
L 562.927769 215.317414 
L 567.653841 215.317413 
L 572.379988 215.317411 
L 577.106037 215.317407 
L 581.832168 215.3174 
L 586.558247 215.317386 
L 591.284324 215.317357 
L 596.010408 215.317301 
L 600.736494 215.317191 
L 605.462574 215.316973 
L 610.188651 215.316544 
L 614.914729 215.315698 
L 619.640808 215.31403 
L 624.366888 215.310741 
L 629.092967 215.304255 
L 633.819046 215.291465 
L 638.545125 215.266244 
L 643.271203 215.216513 
L 647.997282 215.118448 
L 652.723361 214.925076 
L 657.449439 214.54377 
L 662.175518 213.79188 
L 666.901597 212.309245 
L 671.627675 209.385667 
L 676.353754 203.620724 
L 681.079832 192.252952 
L 685.805911 169.837076 
L 690.53199 125.635674 
L 695.258068 38.475843 
" clip-path="url(#p65b16c1d08)" style="fill: none; stroke: #ff7f0e; stroke-width: 1.5; stroke-linecap: round"/>
   </g>
   <g id="line2d_12">
    <path d="M 416.419432 215.317415 
L 422.063899 215.317415 
L 429.175086 215.317415 
L 433.859105 215.317415 
L 438.824365 215.317415 
L 444.468832 215.317415 
L 449.152851 215.317415 
L 454.118111 215.317415 
L 458.802131 215.317415 
L 463.53342 215.317415 
L 468.28469 215.317415 
L 473.064222 215.317415 
L 477.849855 215.317415 
L 482.533874 215.317415 
L 487.286596 215.317415 
L 492.031672 215.317415 
L 496.741777 215.317415 
L 501.48153 215.317415 
L 506.205222 215.317415 
L 510.936325 215.317415 
L 515.666153 215.317415 
L 520.392337 215.317415 
L 525.118845 215.317415 
L 529.843613 215.317415 
L 534.570156 215.317415 
L 539.297141 215.317415 
L 544.022976 215.317415 
L 548.749431 215.317415 
L 553.475566 215.317415 
L 558.201783 215.317414 
L 562.927769 215.317414 
L 567.653841 215.317413 
L 572.379988 215.317411 
L 577.106037 215.317407 
L 581.832168 215.317401 
L 586.558247 215.317385 
L 591.284324 215.317355 
L 596.010408 215.317305 
L 600.736494 215.317194 
L 605.462574 215.316981 
L 610.188651 215.316556 
L 614.914729 215.31574 
L 619.640808 215.313962 
L 624.366888 215.310385 
L 629.092967 215.303858 
L 633.819046 215.290828 
L 638.545125 215.261577 
L 643.271203 215.220208 
L 647.997282 215.130582 
L 652.723361 214.919762 
L 657.449439 214.532922 
L 662.175518 213.786277 
L 666.901597 212.255854 
L 671.627675 209.115385 
L 676.353754 203.286221 
L 681.079832 192.601627 
L 685.805911 169.093138 
L 690.53199 130.104626 
L 695.258068 33.685853 
" clip-path="url(#p65b16c1d08)" style="fill: none; stroke: #2ca02c; stroke-width: 1.5; stroke-linecap: round"/>
   </g>
   <g id="line2d_13"/>
   <g id="line2d_14"/>
   <g id="line2d_15"/>
   <g id="patch_9">
    <path d="M 402.4775 224.570625 
L 402.4775 21 
" style="fill: none; stroke: #262626; stroke-width: 0.8; stroke-linejoin: miter; stroke-linecap: square"/>
   </g>
   <g id="patch_10">
    <path d="M 709.2 224.570625 
L 709.2 21 
" style="fill: none; stroke: #262626; stroke-width: 0.8; stroke-linejoin: miter; stroke-linecap: square"/>
   </g>
   <g id="patch_11">
    <path d="M 402.4775 224.570625 
L 709.2 224.570625 
" style="fill: none; stroke: #262626; stroke-width: 0.8; stroke-linejoin: miter; stroke-linecap: square"/>
   </g>
   <g id="patch_12">
    <path d="M 402.4775 21 
L 709.2 21 
" style="fill: none; stroke: #262626; stroke-width: 0.8; stroke-linejoin: miter; stroke-linecap: square"/>
   </g>
   <g id="legend_2">
    <g id="patch_13">
     <path d="M 409.4775 85.58125 
L 535.954062 85.58125 
Q 537.954062 85.58125 537.954062 83.58125 
L 537.954062 28 
Q 537.954062 26 535.954062 26 
L 409.4775 26 
Q 407.4775 26 407.4775 28 
L 407.4775 83.58125 
Q 407.4775 85.58125 409.4775 85.58125 
z
" style="fill: #ffffff; opacity: 0.8; stroke: #cccccc; stroke-linejoin: miter"/>
    </g>
    <g id="text_30">
     <!-- metric -->
     <g style="fill: #262626" transform="translate(459.105625 37.157812)scale(0.1 -0.1)">
      <use xlink:href="#ArialMT-6d"/>
      <use xlink:href="#ArialMT-65" x="83.300781"/>
      <use xlink:href="#ArialMT-74" x="138.916016"/>
      <use xlink:href="#ArialMT-72" x="166.699219"/>
      <use xlink:href="#ArialMT-69" x="200"/>
      <use xlink:href="#ArialMT-63" x="222.216797"/>
     </g>
    </g>
    <g id="line2d_16">
     <path d="M 411.4775 47.803125 
L 421.4775 47.803125 
L 431.4775 47.803125 
" style="fill: none; stroke: #1f77b4; stroke-width: 1.5; stroke-linecap: round"/>
    </g>
    <g id="text_31">
     <!-- HarmonicMeanRank -->
     <g style="fill: #262626" transform="translate(439.4775 51.303125)scale(0.1 -0.1)">
      <use xlink:href="#ArialMT-48"/>
      <use xlink:href="#ArialMT-61" x="72.216797"/>
      <use xlink:href="#ArialMT-72" x="127.832031"/>
      <use xlink:href="#ArialMT-6d" x="161.132812"/>
      <use xlink:href="#ArialMT-6f" x="244.433594"/>
      <use xlink:href="#ArialMT-6e" x="300.048828"/>
      <use xlink:href="#ArialMT-69" x="355.664062"/>
      <use xlink:href="#ArialMT-63" x="377.880859"/>
      <use xlink:href="#ArialMT-4d" x="427.880859"/>
      <use xlink:href="#ArialMT-65" x="511.181641"/>
      <use xlink:href="#ArialMT-61" x="566.796875"/>
      <use xlink:href="#ArialMT-6e" x="622.412109"/>
      <use xlink:href="#ArialMT-52" x="678.027344"/>
      <use xlink:href="#ArialMT-61" x="750.244141"/>
      <use xlink:href="#ArialMT-6e" x="805.859375"/>
      <use xlink:href="#ArialMT-6b" x="861.474609"/>
     </g>
    </g>
    <g id="line2d_17">
     <path d="M 411.4775 61.948437 
L 421.4775 61.948437 
L 431.4775 61.948437 
" style="fill: none; stroke: #ff7f0e; stroke-width: 1.5; stroke-linecap: round"/>
    </g>
    <g id="text_32">
     <!-- ArithmeticMeanRank -->
     <g style="fill: #262626" transform="translate(439.4775 65.448437)scale(0.1 -0.1)">
      <use xlink:href="#ArialMT-41"/>
      <use xlink:href="#ArialMT-72" x="66.699219"/>
      <use xlink:href="#ArialMT-69" x="100"/>
      <use xlink:href="#ArialMT-74" x="122.216797"/>
      <use xlink:href="#ArialMT-68" x="150"/>
      <use xlink:href="#ArialMT-6d" x="205.615234"/>
      <use xlink:href="#ArialMT-65" x="288.916016"/>
      <use xlink:href="#ArialMT-74" x="344.53125"/>
      <use xlink:href="#ArialMT-69" x="372.314453"/>
      <use xlink:href="#ArialMT-63" x="394.53125"/>
      <use xlink:href="#ArialMT-4d" x="444.53125"/>
      <use xlink:href="#ArialMT-65" x="527.832031"/>
      <use xlink:href="#ArialMT-61" x="583.447266"/>
      <use xlink:href="#ArialMT-6e" x="639.0625"/>
      <use xlink:href="#ArialMT-52" x="694.677734"/>
      <use xlink:href="#ArialMT-61" x="766.894531"/>
      <use xlink:href="#ArialMT-6e" x="822.509766"/>
      <use xlink:href="#ArialMT-6b" x="878.125"/>
     </g>
    </g>
    <g id="line2d_18">
     <path d="M 411.4775 76.09375 
L 421.4775 76.09375 
L 431.4775 76.09375 
" style="fill: none; stroke: #2ca02c; stroke-width: 1.5; stroke-linecap: round"/>
    </g>
    <g id="text_33">
     <!-- GeometricMeanRank -->
     <g style="fill: #262626" transform="translate(439.4775 79.59375)scale(0.1 -0.1)">
      <use xlink:href="#ArialMT-47"/>
      <use xlink:href="#ArialMT-65" x="77.783203"/>
      <use xlink:href="#ArialMT-6f" x="133.398438"/>
      <use xlink:href="#ArialMT-6d" x="189.013672"/>
      <use xlink:href="#ArialMT-65" x="272.314453"/>
      <use xlink:href="#ArialMT-74" x="327.929688"/>
      <use xlink:href="#ArialMT-72" x="355.712891"/>
      <use xlink:href="#ArialMT-69" x="389.013672"/>
      <use xlink:href="#ArialMT-63" x="411.230469"/>
      <use xlink:href="#ArialMT-4d" x="461.230469"/>
      <use xlink:href="#ArialMT-65" x="544.53125"/>
      <use xlink:href="#ArialMT-61" x="600.146484"/>
      <use xlink:href="#ArialMT-6e" x="655.761719"/>
      <use xlink:href="#ArialMT-52" x="711.376953"/>
      <use xlink:href="#ArialMT-61" x="783.59375"/>
      <use xlink:href="#ArialMT-6e" x="839.208984"/>
      <use xlink:href="#ArialMT-6b" x="894.824219"/>
     </g>
    </g>
   </g>
  </g>
  <g id="axes_3">
   <g id="patch_14">
    <path d="M 45.11 459.390625 
L 351.8325 459.390625 
L 351.8325 255.82 
L 45.11 255.82 
z
" style="fill: #ffffff"/>
   </g>
   <g id="matplotlib.axis_5">
    <g id="xtick_11">
     <g id="text_34">
      <!-- $\mathdefault{10^{1}}$ -->
      <g style="fill: #262626" transform="translate(73.606865 476.703125)scale(0.1 -0.1)">
       <use xlink:href="#ArialMT-31" transform="translate(0 0.99375)"/>
       <use xlink:href="#ArialMT-30" transform="translate(55.615234 0.99375)"/>
       <use xlink:href="#ArialMT-31" transform="translate(112.972813 70.6875)scale(0.7)"/>
      </g>
     </g>
    </g>
    <g id="xtick_12">
     <g id="text_35">
      <!-- $\mathdefault{10^{3}}$ -->
      <g style="fill: #262626" transform="translate(137.715291 476.703125)scale(0.1 -0.1)">
       <use xlink:href="#ArialMT-31" transform="translate(0 0.99375)"/>
       <use xlink:href="#ArialMT-30" transform="translate(55.615234 0.99375)"/>
       <use xlink:href="#ArialMT-33" transform="translate(112.972813 70.6875)scale(0.7)"/>
      </g>
     </g>
    </g>
    <g id="xtick_13">
     <g id="text_36">
      <!-- $\mathdefault{10^{5}}$ -->
      <g style="fill: #262626" transform="translate(201.823717 476.603125)scale(0.1 -0.1)">
       <use xlink:href="#ArialMT-31" transform="translate(0 0.879688)"/>
       <use xlink:href="#ArialMT-30" transform="translate(55.615234 0.879688)"/>
       <use xlink:href="#ArialMT-35" transform="translate(112.972813 70.573438)scale(0.7)"/>
      </g>
     </g>
    </g>
    <g id="xtick_14">
     <g id="text_37">
      <!-- $\mathdefault{10^{7}}$ -->
      <g style="fill: #262626" transform="translate(265.932142 476.603125)scale(0.1 -0.1)">
       <use xlink:href="#ArialMT-31" transform="translate(0 0.846875)"/>
       <use xlink:href="#ArialMT-30" transform="translate(55.615234 0.846875)"/>
       <use xlink:href="#ArialMT-37" transform="translate(112.972813 70.540625)scale(0.7)"/>
      </g>
     </g>
    </g>
    <g id="xtick_15">
     <g id="text_38">
      <!-- $\mathdefault{10^{9}}$ -->
      <g style="fill: #262626" transform="translate(330.040568 476.703125)scale(0.1 -0.1)">
       <use xlink:href="#ArialMT-31" transform="translate(0 0.99375)"/>
       <use xlink:href="#ArialMT-30" transform="translate(55.615234 0.99375)"/>
       <use xlink:href="#ArialMT-39" transform="translate(112.972813 70.6875)scale(0.7)"/>
      </g>
     </g>
    </g>
    <g id="text_39">
     <!-- Number of Candidates -->
     <g style="fill: #262626" transform="translate(148.447812 489.848438)scale(0.1 -0.1)">
      <defs>
       <path id="ArialMT-4e" d="M 488 0 
L 488 4581 
L 1109 4581 
L 3516 984 
L 3516 4581 
L 4097 4581 
L 4097 0 
L 3475 0 
L 1069 3600 
L 1069 0 
L 488 0 
z
" transform="scale(0.015625)"/>
       <path id="ArialMT-75" d="M 2597 0 
L 2597 488 
Q 2209 -75 1544 -75 
Q 1250 -75 995 37 
Q 741 150 617 320 
Q 494 491 444 738 
Q 409 903 409 1263 
L 409 3319 
L 972 3319 
L 972 1478 
Q 972 1038 1006 884 
Q 1059 663 1231 536 
Q 1403 409 1656 409 
Q 1909 409 2131 539 
Q 2353 669 2445 892 
Q 2538 1116 2538 1541 
L 2538 3319 
L 3100 3319 
L 3100 0 
L 2597 0 
z
" transform="scale(0.015625)"/>
       <path id="ArialMT-62" d="M 941 0 
L 419 0 
L 419 4581 
L 981 4581 
L 981 2947 
Q 1338 3394 1891 3394 
Q 2197 3394 2470 3270 
Q 2744 3147 2920 2923 
Q 3097 2700 3197 2384 
Q 3297 2069 3297 1709 
Q 3297 856 2875 390 
Q 2453 -75 1863 -75 
Q 1275 -75 941 416 
L 941 0 
z
M 934 1684 
Q 934 1088 1097 822 
Q 1363 388 1816 388 
Q 2184 388 2453 708 
Q 2722 1028 2722 1663 
Q 2722 2313 2464 2622 
Q 2206 2931 1841 2931 
Q 1472 2931 1203 2611 
Q 934 2291 934 1684 
z
" transform="scale(0.015625)"/>
       <path id="ArialMT-20" transform="scale(0.015625)"/>
       <path id="ArialMT-66" d="M 556 0 
L 556 2881 
L 59 2881 
L 59 3319 
L 556 3319 
L 556 3672 
Q 556 4006 616 4169 
Q 697 4388 901 4523 
Q 1106 4659 1475 4659 
Q 1713 4659 2000 4603 
L 1916 4113 
Q 1741 4144 1584 4144 
Q 1328 4144 1222 4034 
Q 1116 3925 1116 3625 
L 1116 3319 
L 1763 3319 
L 1763 2881 
L 1116 2881 
L 1116 0 
L 556 0 
z
" transform="scale(0.015625)"/>
       <path id="ArialMT-43" d="M 3763 1606 
L 4369 1453 
Q 4178 706 3683 314 
Q 3188 -78 2472 -78 
Q 1731 -78 1267 223 
Q 803 525 561 1097 
Q 319 1669 319 2325 
Q 319 3041 592 3573 
Q 866 4106 1370 4382 
Q 1875 4659 2481 4659 
Q 3169 4659 3637 4309 
Q 4106 3959 4291 3325 
L 3694 3184 
Q 3534 3684 3231 3912 
Q 2928 4141 2469 4141 
Q 1941 4141 1586 3887 
Q 1231 3634 1087 3207 
Q 944 2781 944 2328 
Q 944 1744 1114 1308 
Q 1284 872 1643 656 
Q 2003 441 2422 441 
Q 2931 441 3284 734 
Q 3638 1028 3763 1606 
z
" transform="scale(0.015625)"/>
       <path id="ArialMT-64" d="M 2575 0 
L 2575 419 
Q 2259 -75 1647 -75 
Q 1250 -75 917 144 
Q 584 363 401 755 
Q 219 1147 219 1656 
Q 219 2153 384 2558 
Q 550 2963 881 3178 
Q 1213 3394 1622 3394 
Q 1922 3394 2156 3267 
Q 2391 3141 2538 2938 
L 2538 4581 
L 3097 4581 
L 3097 0 
L 2575 0 
z
M 797 1656 
Q 797 1019 1065 703 
Q 1334 388 1700 388 
Q 2069 388 2326 689 
Q 2584 991 2584 1609 
Q 2584 2291 2321 2609 
Q 2059 2928 1675 2928 
Q 1300 2928 1048 2622 
Q 797 2316 797 1656 
z
" transform="scale(0.015625)"/>
       <path id="ArialMT-73" d="M 197 991 
L 753 1078 
Q 800 744 1014 566 
Q 1228 388 1613 388 
Q 2000 388 2187 545 
Q 2375 703 2375 916 
Q 2375 1106 2209 1216 
Q 2094 1291 1634 1406 
Q 1016 1563 777 1677 
Q 538 1791 414 1992 
Q 291 2194 291 2438 
Q 291 2659 392 2848 
Q 494 3038 669 3163 
Q 800 3259 1026 3326 
Q 1253 3394 1513 3394 
Q 1903 3394 2198 3281 
Q 2494 3169 2634 2976 
Q 2775 2784 2828 2463 
L 2278 2388 
Q 2241 2644 2061 2787 
Q 1881 2931 1553 2931 
Q 1166 2931 1000 2803 
Q 834 2675 834 2503 
Q 834 2394 903 2306 
Q 972 2216 1119 2156 
Q 1203 2125 1616 2013 
Q 2213 1853 2448 1751 
Q 2684 1650 2818 1456 
Q 2953 1263 2953 975 
Q 2953 694 2789 445 
Q 2625 197 2315 61 
Q 2006 -75 1616 -75 
Q 969 -75 630 194 
Q 291 463 197 991 
z
" transform="scale(0.015625)"/>
      </defs>
      <use xlink:href="#ArialMT-4e"/>
      <use xlink:href="#ArialMT-75" x="72.216797"/>
      <use xlink:href="#ArialMT-6d" x="127.832031"/>
      <use xlink:href="#ArialMT-62" x="211.132812"/>
      <use xlink:href="#ArialMT-65" x="266.748047"/>
      <use xlink:href="#ArialMT-72" x="322.363281"/>
      <use xlink:href="#ArialMT-20" x="355.664062"/>
      <use xlink:href="#ArialMT-6f" x="383.447266"/>
      <use xlink:href="#ArialMT-66" x="439.0625"/>
      <use xlink:href="#ArialMT-20" x="466.845703"/>
      <use xlink:href="#ArialMT-43" x="494.628906"/>
      <use xlink:href="#ArialMT-61" x="566.845703"/>
      <use xlink:href="#ArialMT-6e" x="622.460938"/>
      <use xlink:href="#ArialMT-64" x="678.076172"/>
      <use xlink:href="#ArialMT-69" x="733.691406"/>
      <use xlink:href="#ArialMT-64" x="755.908203"/>
      <use xlink:href="#ArialMT-61" x="811.523438"/>
      <use xlink:href="#ArialMT-74" x="867.138672"/>
      <use xlink:href="#ArialMT-65" x="894.921875"/>
      <use xlink:href="#ArialMT-73" x="950.537109"/>
     </g>
    </g>
   </g>
   <g id="matplotlib.axis_6">
    <g id="ytick_12">
     <g id="text_40">
      <!-- 0.0 -->
      <g style="fill: #262626" transform="translate(24.21 453.716322)scale(0.1 -0.1)">
       <defs>
        <path id="ArialMT-2e" d="M 581 0 
L 581 641 
L 1222 641 
L 1222 0 
L 581 0 
z
" transform="scale(0.015625)"/>
       </defs>
       <use xlink:href="#ArialMT-30"/>
       <use xlink:href="#ArialMT-2e" x="55.615234"/>
       <use xlink:href="#ArialMT-30" x="83.398438"/>
      </g>
     </g>
    </g>
    <g id="ytick_13">
     <g id="text_41">
      <!-- 0.2 -->
      <g style="fill: #262626" transform="translate(24.21 416.703481)scale(0.1 -0.1)">
       <use xlink:href="#ArialMT-30"/>
       <use xlink:href="#ArialMT-2e" x="55.615234"/>
       <use xlink:href="#ArialMT-32" x="83.398438"/>
      </g>
     </g>
    </g>
    <g id="ytick_14">
     <g id="text_42">
      <!-- 0.4 -->
      <g style="fill: #262626" transform="translate(24.21 379.69064)scale(0.1 -0.1)">
       <use xlink:href="#ArialMT-30"/>
       <use xlink:href="#ArialMT-2e" x="55.615234"/>
       <use xlink:href="#ArialMT-34" x="83.398438"/>
      </g>
     </g>
    </g>
    <g id="ytick_15">
     <g id="text_43">
      <!-- 0.6 -->
      <g style="fill: #262626" transform="translate(24.21 342.677799)scale(0.1 -0.1)">
       <use xlink:href="#ArialMT-30"/>
       <use xlink:href="#ArialMT-2e" x="55.615234"/>
       <use xlink:href="#ArialMT-36" x="83.398438"/>
      </g>
     </g>
    </g>
    <g id="ytick_16">
     <g id="text_44">
      <!-- 0.8 -->
      <g style="fill: #262626" transform="translate(24.21 305.664958)scale(0.1 -0.1)">
       <use xlink:href="#ArialMT-30"/>
       <use xlink:href="#ArialMT-2e" x="55.615234"/>
       <use xlink:href="#ArialMT-38" x="83.398438"/>
      </g>
     </g>
    </g>
    <g id="ytick_17">
     <g id="text_45">
      <!-- 1.0 -->
      <g style="fill: #262626" transform="translate(24.21 268.652116)scale(0.1 -0.1)">
       <use xlink:href="#ArialMT-31"/>
       <use xlink:href="#ArialMT-2e" x="55.615234"/>
       <use xlink:href="#ArialMT-30" x="83.398438"/>
      </g>
     </g>
    </g>
    <g id="text_46">
     <!-- Expectation -->
     <g style="fill: #262626" transform="translate(18.2225 383.731875)rotate(-90)scale(0.1 -0.1)">
      <use xlink:href="#ArialMT-45"/>
      <use xlink:href="#ArialMT-78" x="66.699219"/>
      <use xlink:href="#ArialMT-70" x="116.699219"/>
      <use xlink:href="#ArialMT-65" x="172.314453"/>
      <use xlink:href="#ArialMT-63" x="227.929688"/>
      <use xlink:href="#ArialMT-74" x="277.929688"/>
      <use xlink:href="#ArialMT-61" x="305.712891"/>
      <use xlink:href="#ArialMT-74" x="361.328125"/>
      <use xlink:href="#ArialMT-69" x="389.111328"/>
      <use xlink:href="#ArialMT-6f" x="411.328125"/>
      <use xlink:href="#ArialMT-6e" x="466.943359"/>
     </g>
    </g>
   </g>
   <g id="PolyCollection_7">
    <defs>
     <path id="m1097a65acc" d="M 59.051932 -192.660738 
L 59.051932 -192.660738 
L 59.051932 -192.660738 
L 59.051932 -192.660738 
z
" style="stroke: #1f77b4; stroke-opacity: 0.2"/>
    </defs>
    <g clip-path="url(#pa27b5fefe7)">
     <use xlink:href="#m1097a65acc" x="0" y="504" style="fill: #1f77b4; fill-opacity: 0.2; stroke: #1f77b4; stroke-opacity: 0.2"/>
    </g>
   </g>
   <g id="PolyCollection_8">
    <defs>
     <path id="m704068012c" d="M 59.051932 -194.881509 
L 59.051932 -193.771124 
L 59.051932 -194.881509 
L 59.051932 -194.881509 
z
" style="stroke: #ff7f0e; stroke-opacity: 0.2"/>
    </defs>
    <g clip-path="url(#pa27b5fefe7)">
     <use xlink:href="#m704068012c" x="0" y="504" style="fill: #ff7f0e; fill-opacity: 0.2; stroke: #ff7f0e; stroke-opacity: 0.2"/>
    </g>
   </g>
   <g id="PolyCollection_9">
    <defs>
     <path id="md8e2e02cfe" d="M 59.051932 -192.475674 
L 59.051932 -191.550353 
L 59.051932 -192.475674 
L 59.051932 -192.475674 
z
" style="stroke: #2ca02c; stroke-opacity: 0.2"/>
    </defs>
    <g clip-path="url(#pa27b5fefe7)">
     <use xlink:href="#md8e2e02cfe" x="0" y="504" style="fill: #2ca02c; fill-opacity: 0.2; stroke: #2ca02c; stroke-opacity: 0.2"/>
    </g>
   </g>
   <g id="PolyCollection_10">
    <defs>
     <path id="m3973e0d4c1" d="M 59.051932 -238.92679 
L 59.051932 -238.92679 
L 59.051932 -238.92679 
L 59.051932 -238.92679 
z
" style="stroke: #d62728; stroke-opacity: 0.2"/>
    </defs>
    <g clip-path="url(#pa27b5fefe7)">
     <use xlink:href="#m3973e0d4c1" x="0" y="504" style="fill: #d62728; fill-opacity: 0.2; stroke: #d62728; stroke-opacity: 0.2"/>
    </g>
   </g>
   <g id="line2d_19">
    <path d="M 59.051932 311.339262 
L 64.696399 337.042623 
L 71.807586 365.624762 
L 76.491605 381.588123 
L 81.456865 395.932697 
L 87.101332 409.198388 
L 91.785351 418.012396 
L 96.750611 425.493112 
L 101.434631 431.072529 
L 106.16592 435.510431 
L 110.91719 438.984358 
L 115.696722 441.685111 
L 120.482355 443.75978 
L 125.166374 445.313091 
L 129.919096 446.514383 
L 134.664172 447.423009 
L 139.374277 448.104589 
L 144.11403 448.621311 
L 148.837722 449.007948 
L 153.568825 449.297995 
L 158.298653 449.514614 
L 163.024837 449.67598 
L 167.751345 449.796059 
L 172.476113 449.885214 
L 177.202656 449.951347 
L 181.929641 450.000309 
L 186.655476 450.036493 
L 191.381931 450.06321 
L 196.108066 450.082907 
L 200.834283 450.097413 
L 205.560269 450.108084 
L 210.286341 450.115926 
L 215.012488 450.121684 
L 219.738537 450.125908 
L 224.464668 450.129004 
L 229.190747 450.131271 
L 233.916824 450.132929 
L 238.642908 450.134142 
L 243.368994 450.135029 
L 248.095074 450.135676 
L 252.821151 450.136149 
L 257.547229 450.136493 
L 262.273308 450.136744 
L 266.999388 450.136927 
L 271.725467 450.137061 
L 276.451546 450.137158 
L 281.177625 450.137228 
L 285.903703 450.137279 
L 290.629782 450.137317 
L 295.355861 450.137344 
L 300.081939 450.137364 
L 304.808018 450.137378 
L 309.534097 450.137388 
L 314.260175 450.137396 
L 318.986254 450.137401 
L 323.712332 450.137405 
L 328.438411 450.137408 
L 333.16449 450.13741 
L 337.890568 450.137412 
" clip-path="url(#pa27b5fefe7)" style="fill: none; stroke: #1f77b4; stroke-width: 1.5; stroke-linecap: round"/>
   </g>
   <g id="line2d_20">
    <path d="M 59.051932 309.673684 
L 64.696399 334.348911 
L 71.807586 359.838421 
L 76.491605 384.043057 
L 81.456865 393.020286 
L 87.101332 414.637657 
L 91.785351 415.731607 
L 96.750611 428.114849 
L 101.434631 430.952208 
L 106.16592 436.278388 
L 110.91719 438.464315 
L 115.696722 441.3855 
L 120.482355 443.704285 
L 125.166374 445.16896 
L 129.919096 445.046098 
L 134.664172 447.132154 
L 139.374277 447.89335 
L 144.11403 448.869662 
L 148.837722 449.112365 
L 153.568825 449.285597 
L 158.298653 449.624769 
L 163.024837 449.832907 
L 167.751345 449.480911 
L 172.476113 449.893252 
L 177.202656 450.021431 
L 181.929641 450.045441 
L 186.655476 450.083402 
L 191.381931 450.076944 
L 196.108066 450.090294 
L 200.834283 450.114653 
L 205.560269 450.113808 
L 210.286341 450.123322 
L 215.012488 450.121966 
L 219.738537 450.130094 
L 224.464668 450.131086 
L 229.190747 450.131106 
L 233.916824 450.135302 
L 238.642908 450.13555 
L 243.368994 450.136259 
L 248.095074 450.136833 
L 252.821151 450.136671 
L 257.547229 450.136943 
L 262.273308 450.137147 
L 266.999388 450.13716 
L 271.725467 450.137269 
L 276.451546 450.137289 
L 281.177625 450.137262 
L 285.903703 450.137328 
L 290.629782 450.137109 
L 295.355861 450.137392 
L 300.081939 450.136141 
L 304.808018 450.137381 
L 309.534097 450.137402 
L 314.260175 450.137409 
L 318.986254 450.137409 
L 323.712332 450.137412 
L 328.438411 450.13741 
L 333.16449 450.137413 
L 337.890568 450.137414 
" clip-path="url(#pa27b5fefe7)" style="fill: none; stroke: #ff7f0e; stroke-width: 1.5; stroke-linecap: round"/>
   </g>
   <g id="line2d_21">
    <path d="M 59.051932 311.986986 
L 64.696399 335.952801 
L 71.807586 363.66925 
L 76.491605 379.579484 
L 81.456865 394.910291 
L 87.101332 411.532209 
L 91.785351 419.286811 
L 96.750611 424.170152 
L 101.434631 427.614492 
L 106.16592 434.767145 
L 110.91719 437.285993 
L 115.696722 441.733255 
L 120.482355 443.051884 
L 125.166374 445.424066 
L 129.919096 446.091742 
L 134.664172 447.906131 
L 139.374277 447.945707 
L 144.11403 449.013165 
L 148.837722 449.078822 
L 153.568825 449.290646 
L 158.298653 449.753384 
L 163.024837 449.704671 
L 167.751345 449.520367 
L 172.476113 449.995977 
L 177.202656 450.014671 
L 181.929641 450.045327 
L 186.655476 449.961374 
L 191.381931 450.069609 
L 196.108066 450.083001 
L 200.834283 450.110894 
L 205.560269 450.116644 
L 210.286341 450.118454 
L 215.012488 450.125745 
L 219.738537 450.106557 
L 224.464668 450.130924 
L 229.190747 450.133856 
L 233.916824 450.133958 
L 238.642908 450.13594 
L 243.368994 450.129831 
L 248.095074 450.136654 
L 252.821151 450.136979 
L 257.547229 450.136965 
L 262.273308 450.13668 
L 266.999388 450.137275 
L 271.725467 450.137012 
L 276.451546 450.137205 
L 281.177625 450.13729 
L 285.903703 450.137264 
L 290.629782 450.137383 
L 295.355861 450.137389 
L 300.081939 450.137395 
L 304.808018 450.137404 
L 309.534097 450.137397 
L 314.260175 450.137409 
L 318.986254 450.13741 
L 323.712332 450.137411 
L 328.438411 450.137411 
L 333.16449 450.137414 
L 337.890568 450.137415 
" clip-path="url(#pa27b5fefe7)" style="fill: none; stroke: #2ca02c; stroke-width: 1.5; stroke-linecap: round"/>
   </g>
   <g id="line2d_22">
    <path d="M 59.051932 265.07321 
L 64.696399 265.07321 
L 71.807586 265.07321 
L 76.491605 265.07321 
L 81.456865 265.07321 
L 87.101332 326.761279 
L 91.785351 362.011604 
L 96.750611 388.449347 
L 101.434631 406.07451 
L 106.16592 418.770601 
L 110.91719 427.840523 
L 115.696722 434.319962 
L 120.482355 438.921403 
L 125.166374 442.125978 
L 129.919096 444.443132 
L 134.664172 446.087871 
L 139.374277 447.250298 
L 144.11403 448.083429 
L 148.837722 448.674457 
L 153.568825 449.095974 
L 158.298653 449.395972 
L 163.024837 449.609415 
L 167.751345 449.761422 
L 172.476113 449.869633 
L 177.202656 449.946726 
L 181.929641 450.001629 
L 186.655476 450.040716 
L 191.381931 450.068554 
L 196.108066 450.088378 
L 200.834283 450.102495 
L 205.560269 450.112547 
L 210.286341 450.119706 
L 215.012488 450.124804 
L 219.738537 450.128435 
L 224.464668 450.13102 
L 229.190747 450.132861 
L 233.916824 450.134172 
L 238.642908 450.135106 
L 243.368994 450.135771 
L 248.095074 450.136244 
L 252.821151 450.136581 
L 257.547229 450.136822 
L 262.273308 450.136993 
L 266.999388 450.137114 
L 271.725467 450.137201 
L 276.451546 450.137263 
L 281.177625 450.137307 
L 285.903703 450.137338 
L 290.629782 450.13736 
L 295.355861 450.137376 
L 300.081939 450.137388 
L 304.808018 450.137396 
L 309.534097 450.137401 
L 314.260175 450.137405 
L 318.986254 450.137408 
L 323.712332 450.13741 
L 328.438411 450.137412 
L 333.16449 450.137413 
L 337.890568 450.137414 
" clip-path="url(#pa27b5fefe7)" style="fill: none; stroke: #d62728; stroke-width: 1.5; stroke-linecap: round"/>
   </g>
   <g id="line2d_23"/>
   <g id="line2d_24"/>
   <g id="line2d_25"/>
   <g id="line2d_26"/>
   <g id="patch_15">
    <path d="M 45.11 459.390625 
L 45.11 255.82 
" style="fill: none; stroke: #262626; stroke-width: 0.8; stroke-linejoin: miter; stroke-linecap: square"/>
   </g>
   <g id="patch_16">
    <path d="M 351.8325 459.390625 
L 351.8325 255.82 
" style="fill: none; stroke: #262626; stroke-width: 0.8; stroke-linejoin: miter; stroke-linecap: square"/>
   </g>
   <g id="patch_17">
    <path d="M 45.11 459.390625 
L 351.8325 459.390625 
" style="fill: none; stroke: #262626; stroke-width: 0.8; stroke-linejoin: miter; stroke-linecap: square"/>
   </g>
   <g id="patch_18">
    <path d="M 45.11 255.82 
L 351.8325 255.82 
" style="fill: none; stroke: #262626; stroke-width: 0.8; stroke-linejoin: miter; stroke-linecap: square"/>
   </g>
   <g id="legend_3">
    <g id="patch_19">
     <path d="M 185.565313 334.546562 
L 344.8325 334.546562 
Q 346.8325 334.546562 346.8325 332.546562 
L 346.8325 262.82 
Q 346.8325 260.82 344.8325 260.82 
L 185.565313 260.82 
Q 183.565313 260.82 183.565313 262.82 
L 183.565313 332.546562 
Q 183.565313 334.546562 185.565313 334.546562 
z
" style="fill: #ffffff; opacity: 0.8; stroke: #cccccc; stroke-linejoin: miter"/>
    </g>
    <g id="text_47">
     <!-- metric -->
     <g style="fill: #262626" transform="translate(251.58875 271.977813)scale(0.1 -0.1)">
      <use xlink:href="#ArialMT-6d"/>
      <use xlink:href="#ArialMT-65" x="83.300781"/>
      <use xlink:href="#ArialMT-74" x="138.916016"/>
      <use xlink:href="#ArialMT-72" x="166.699219"/>
      <use xlink:href="#ArialMT-69" x="200"/>
      <use xlink:href="#ArialMT-63" x="222.216797"/>
     </g>
    </g>
    <g id="line2d_27">
     <path d="M 187.565313 282.623125 
L 197.565313 282.623125 
L 207.565313 282.623125 
" style="fill: none; stroke: #1f77b4; stroke-width: 1.5; stroke-linecap: round"/>
    </g>
    <g id="text_48">
     <!-- InverseHarmonicMeanRank -->
     <g style="fill: #262626" transform="translate(215.565313 286.123125)scale(0.1 -0.1)">
      <defs>
       <path id="ArialMT-49" d="M 597 0 
L 597 4581 
L 1203 4581 
L 1203 0 
L 597 0 
z
" transform="scale(0.015625)"/>
       <path id="ArialMT-76" d="M 1344 0 
L 81 3319 
L 675 3319 
L 1388 1331 
Q 1503 1009 1600 663 
Q 1675 925 1809 1294 
L 2547 3319 
L 3125 3319 
L 1869 0 
L 1344 0 
z
" transform="scale(0.015625)"/>
      </defs>
      <use xlink:href="#ArialMT-49"/>
      <use xlink:href="#ArialMT-6e" x="27.783203"/>
      <use xlink:href="#ArialMT-76" x="83.398438"/>
      <use xlink:href="#ArialMT-65" x="133.398438"/>
      <use xlink:href="#ArialMT-72" x="189.013672"/>
      <use xlink:href="#ArialMT-73" x="222.314453"/>
      <use xlink:href="#ArialMT-65" x="272.314453"/>
      <use xlink:href="#ArialMT-48" x="327.929688"/>
      <use xlink:href="#ArialMT-61" x="400.146484"/>
      <use xlink:href="#ArialMT-72" x="455.761719"/>
      <use xlink:href="#ArialMT-6d" x="489.0625"/>
      <use xlink:href="#ArialMT-6f" x="572.363281"/>
      <use xlink:href="#ArialMT-6e" x="627.978516"/>
      <use xlink:href="#ArialMT-69" x="683.59375"/>
      <use xlink:href="#ArialMT-63" x="705.810547"/>
      <use xlink:href="#ArialMT-4d" x="755.810547"/>
      <use xlink:href="#ArialMT-65" x="839.111328"/>
      <use xlink:href="#ArialMT-61" x="894.726562"/>
      <use xlink:href="#ArialMT-6e" x="950.341797"/>
      <use xlink:href="#ArialMT-52" x="1005.957031"/>
      <use xlink:href="#ArialMT-61" x="1078.173828"/>
      <use xlink:href="#ArialMT-6e" x="1133.789062"/>
      <use xlink:href="#ArialMT-6b" x="1189.404297"/>
     </g>
    </g>
    <g id="line2d_28">
     <path d="M 187.565313 296.768438 
L 197.565313 296.768438 
L 207.565313 296.768438 
" style="fill: none; stroke: #ff7f0e; stroke-width: 1.5; stroke-linecap: round"/>
    </g>
    <g id="text_49">
     <!-- InverseArithmeticMeanRank -->
     <g style="fill: #262626" transform="translate(215.565313 300.268438)scale(0.1 -0.1)">
      <use xlink:href="#ArialMT-49"/>
      <use xlink:href="#ArialMT-6e" x="27.783203"/>
      <use xlink:href="#ArialMT-76" x="83.398438"/>
      <use xlink:href="#ArialMT-65" x="133.398438"/>
      <use xlink:href="#ArialMT-72" x="189.013672"/>
      <use xlink:href="#ArialMT-73" x="222.314453"/>
      <use xlink:href="#ArialMT-65" x="272.314453"/>
      <use xlink:href="#ArialMT-41" x="327.929688"/>
      <use xlink:href="#ArialMT-72" x="394.628906"/>
      <use xlink:href="#ArialMT-69" x="427.929688"/>
      <use xlink:href="#ArialMT-74" x="450.146484"/>
      <use xlink:href="#ArialMT-68" x="477.929688"/>
      <use xlink:href="#ArialMT-6d" x="533.544922"/>
      <use xlink:href="#ArialMT-65" x="616.845703"/>
      <use xlink:href="#ArialMT-74" x="672.460938"/>
      <use xlink:href="#ArialMT-69" x="700.244141"/>
      <use xlink:href="#ArialMT-63" x="722.460938"/>
      <use xlink:href="#ArialMT-4d" x="772.460938"/>
      <use xlink:href="#ArialMT-65" x="855.761719"/>
      <use xlink:href="#ArialMT-61" x="911.376953"/>
      <use xlink:href="#ArialMT-6e" x="966.992188"/>
      <use xlink:href="#ArialMT-52" x="1022.607422"/>
      <use xlink:href="#ArialMT-61" x="1094.824219"/>
      <use xlink:href="#ArialMT-6e" x="1150.439453"/>
      <use xlink:href="#ArialMT-6b" x="1206.054688"/>
     </g>
    </g>
    <g id="line2d_29">
     <path d="M 187.565313 310.91375 
L 197.565313 310.91375 
L 207.565313 310.91375 
" style="fill: none; stroke: #2ca02c; stroke-width: 1.5; stroke-linecap: round"/>
    </g>
    <g id="text_50">
     <!-- InverseGeometricMeanRank -->
     <g style="fill: #262626" transform="translate(215.565313 314.41375)scale(0.1 -0.1)">
      <use xlink:href="#ArialMT-49"/>
      <use xlink:href="#ArialMT-6e" x="27.783203"/>
      <use xlink:href="#ArialMT-76" x="83.398438"/>
      <use xlink:href="#ArialMT-65" x="133.398438"/>
      <use xlink:href="#ArialMT-72" x="189.013672"/>
      <use xlink:href="#ArialMT-73" x="222.314453"/>
      <use xlink:href="#ArialMT-65" x="272.314453"/>
      <use xlink:href="#ArialMT-47" x="327.929688"/>
      <use xlink:href="#ArialMT-65" x="405.712891"/>
      <use xlink:href="#ArialMT-6f" x="461.328125"/>
      <use xlink:href="#ArialMT-6d" x="516.943359"/>
      <use xlink:href="#ArialMT-65" x="600.244141"/>
      <use xlink:href="#ArialMT-74" x="655.859375"/>
      <use xlink:href="#ArialMT-72" x="683.642578"/>
      <use xlink:href="#ArialMT-69" x="716.943359"/>
      <use xlink:href="#ArialMT-63" x="739.160156"/>
      <use xlink:href="#ArialMT-4d" x="789.160156"/>
      <use xlink:href="#ArialMT-65" x="872.460938"/>
      <use xlink:href="#ArialMT-61" x="928.076172"/>
      <use xlink:href="#ArialMT-6e" x="983.691406"/>
      <use xlink:href="#ArialMT-52" x="1039.306641"/>
      <use xlink:href="#ArialMT-61" x="1111.523438"/>
      <use xlink:href="#ArialMT-6e" x="1167.138672"/>
      <use xlink:href="#ArialMT-6b" x="1222.753906"/>
     </g>
    </g>
    <g id="line2d_30">
     <path d="M 187.565313 325.059062 
L 197.565313 325.059062 
L 207.565313 325.059062 
" style="fill: none; stroke: #d62728; stroke-width: 1.5; stroke-linecap: round"/>
    </g>
    <g id="text_51">
     <!-- HitsAtK -->
     <g style="fill: #262626" transform="translate(215.565313 328.559062)scale(0.1 -0.1)">
      <defs>
       <path id="ArialMT-4b" d="M 469 0 
L 469 4581 
L 1075 4581 
L 1075 2309 
L 3350 4581 
L 4172 4581 
L 2250 2725 
L 4256 0 
L 3456 0 
L 1825 2319 
L 1075 1588 
L 1075 0 
L 469 0 
z
" transform="scale(0.015625)"/>
      </defs>
      <use xlink:href="#ArialMT-48"/>
      <use xlink:href="#ArialMT-69" x="72.216797"/>
      <use xlink:href="#ArialMT-74" x="94.433594"/>
      <use xlink:href="#ArialMT-73" x="122.216797"/>
      <use xlink:href="#ArialMT-41" x="172.216797"/>
      <use xlink:href="#ArialMT-74" x="238.916016"/>
      <use xlink:href="#ArialMT-4b" x="266.699219"/>
     </g>
    </g>
   </g>
  </g>
  <g id="axes_4">
   <g id="patch_20">
    <path d="M 402.4775 459.390625 
L 709.2 459.390625 
L 709.2 255.82 
L 402.4775 255.82 
z
" style="fill: #ffffff"/>
   </g>
   <g id="matplotlib.axis_7">
    <g id="xtick_16">
     <g id="text_52">
      <!-- $\mathdefault{10^{1}}$ -->
      <g style="fill: #262626" transform="translate(430.974365 476.703125)scale(0.1 -0.1)">
       <use xlink:href="#ArialMT-31" transform="translate(0 0.99375)"/>
       <use xlink:href="#ArialMT-30" transform="translate(55.615234 0.99375)"/>
       <use xlink:href="#ArialMT-31" transform="translate(112.972813 70.6875)scale(0.7)"/>
      </g>
     </g>
    </g>
    <g id="xtick_17">
     <g id="text_53">
      <!-- $\mathdefault{10^{3}}$ -->
      <g style="fill: #262626" transform="translate(495.082791 476.703125)scale(0.1 -0.1)">
       <use xlink:href="#ArialMT-31" transform="translate(0 0.99375)"/>
       <use xlink:href="#ArialMT-30" transform="translate(55.615234 0.99375)"/>
       <use xlink:href="#ArialMT-33" transform="translate(112.972813 70.6875)scale(0.7)"/>
      </g>
     </g>
    </g>
    <g id="xtick_18">
     <g id="text_54">
      <!-- $\mathdefault{10^{5}}$ -->
      <g style="fill: #262626" transform="translate(559.191217 476.603125)scale(0.1 -0.1)">
       <use xlink:href="#ArialMT-31" transform="translate(0 0.879688)"/>
       <use xlink:href="#ArialMT-30" transform="translate(55.615234 0.879688)"/>
       <use xlink:href="#ArialMT-35" transform="translate(112.972813 70.573438)scale(0.7)"/>
      </g>
     </g>
    </g>
    <g id="xtick_19">
     <g id="text_55">
      <!-- $\mathdefault{10^{7}}$ -->
      <g style="fill: #262626" transform="translate(623.299642 476.603125)scale(0.1 -0.1)">
       <use xlink:href="#ArialMT-31" transform="translate(0 0.846875)"/>
       <use xlink:href="#ArialMT-30" transform="translate(55.615234 0.846875)"/>
       <use xlink:href="#ArialMT-37" transform="translate(112.972813 70.540625)scale(0.7)"/>
      </g>
     </g>
    </g>
    <g id="xtick_20">
     <g id="text_56">
      <!-- $\mathdefault{10^{9}}$ -->
      <g style="fill: #262626" transform="translate(687.408068 476.703125)scale(0.1 -0.1)">
       <use xlink:href="#ArialMT-31" transform="translate(0 0.99375)"/>
       <use xlink:href="#ArialMT-30" transform="translate(55.615234 0.99375)"/>
       <use xlink:href="#ArialMT-39" transform="translate(112.972813 70.6875)scale(0.7)"/>
      </g>
     </g>
    </g>
    <g id="text_57">
     <!-- Number of Candidates -->
     <g style="fill: #262626" transform="translate(505.815313 489.848438)scale(0.1 -0.1)">
      <use xlink:href="#ArialMT-4e"/>
      <use xlink:href="#ArialMT-75" x="72.216797"/>
      <use xlink:href="#ArialMT-6d" x="127.832031"/>
      <use xlink:href="#ArialMT-62" x="211.132812"/>
      <use xlink:href="#ArialMT-65" x="266.748047"/>
      <use xlink:href="#ArialMT-72" x="322.363281"/>
      <use xlink:href="#ArialMT-20" x="355.664062"/>
      <use xlink:href="#ArialMT-6f" x="383.447266"/>
      <use xlink:href="#ArialMT-66" x="439.0625"/>
      <use xlink:href="#ArialMT-20" x="466.845703"/>
      <use xlink:href="#ArialMT-43" x="494.628906"/>
      <use xlink:href="#ArialMT-61" x="566.845703"/>
      <use xlink:href="#ArialMT-6e" x="622.460938"/>
      <use xlink:href="#ArialMT-64" x="678.076172"/>
      <use xlink:href="#ArialMT-69" x="733.691406"/>
      <use xlink:href="#ArialMT-64" x="755.908203"/>
      <use xlink:href="#ArialMT-61" x="811.523438"/>
      <use xlink:href="#ArialMT-74" x="867.138672"/>
      <use xlink:href="#ArialMT-65" x="894.921875"/>
      <use xlink:href="#ArialMT-73" x="950.537109"/>
     </g>
    </g>
   </g>
   <g id="matplotlib.axis_8">
    <g id="ytick_18">
     <g id="text_58">
      <!-- 0.00 -->
      <g style="fill: #262626" transform="translate(376.016562 453.716321)scale(0.1 -0.1)">
       <use xlink:href="#ArialMT-30"/>
       <use xlink:href="#ArialMT-2e" x="55.615234"/>
       <use xlink:href="#ArialMT-30" x="83.398438"/>
       <use xlink:href="#ArialMT-30" x="139.013672"/>
      </g>
     </g>
    </g>
    <g id="ytick_19">
     <g id="text_59">
      <!-- 0.05 -->
      <g style="fill: #262626" transform="translate(376.016562 416.61936)scale(0.1 -0.1)">
       <use xlink:href="#ArialMT-30"/>
       <use xlink:href="#ArialMT-2e" x="55.615234"/>
       <use xlink:href="#ArialMT-30" x="83.398438"/>
       <use xlink:href="#ArialMT-35" x="139.013672"/>
      </g>
     </g>
    </g>
    <g id="ytick_20">
     <g id="text_60">
      <!-- 0.10 -->
      <g style="fill: #262626" transform="translate(376.016562 379.522399)scale(0.1 -0.1)">
       <use xlink:href="#ArialMT-30"/>
       <use xlink:href="#ArialMT-2e" x="55.615234"/>
       <use xlink:href="#ArialMT-31" x="83.398438"/>
       <use xlink:href="#ArialMT-30" x="139.013672"/>
      </g>
     </g>
    </g>
    <g id="ytick_21">
     <g id="text_61">
      <!-- 0.15 -->
      <g style="fill: #262626" transform="translate(376.016562 342.425438)scale(0.1 -0.1)">
       <use xlink:href="#ArialMT-30"/>
       <use xlink:href="#ArialMT-2e" x="55.615234"/>
       <use xlink:href="#ArialMT-31" x="83.398438"/>
       <use xlink:href="#ArialMT-35" x="139.013672"/>
      </g>
     </g>
    </g>
    <g id="ytick_22">
     <g id="text_62">
      <!-- 0.20 -->
      <g style="fill: #262626" transform="translate(376.016562 305.328477)scale(0.1 -0.1)">
       <use xlink:href="#ArialMT-30"/>
       <use xlink:href="#ArialMT-2e" x="55.615234"/>
       <use xlink:href="#ArialMT-32" x="83.398438"/>
       <use xlink:href="#ArialMT-30" x="139.013672"/>
      </g>
     </g>
    </g>
    <g id="ytick_23">
     <g id="text_63">
      <!-- 0.25 -->
      <g style="fill: #262626" transform="translate(376.016562 268.231516)scale(0.1 -0.1)">
       <use xlink:href="#ArialMT-30"/>
       <use xlink:href="#ArialMT-2e" x="55.615234"/>
       <use xlink:href="#ArialMT-32" x="83.398438"/>
       <use xlink:href="#ArialMT-35" x="139.013672"/>
      </g>
     </g>
    </g>
    <g id="text_64">
     <!-- Variance -->
     <g style="fill: #262626" transform="translate(370.029062 376.969375)rotate(-90)scale(0.1 -0.1)">
      <use xlink:href="#ArialMT-56"/>
      <use xlink:href="#ArialMT-61" x="59.324219"/>
      <use xlink:href="#ArialMT-72" x="114.939453"/>
      <use xlink:href="#ArialMT-69" x="148.240234"/>
      <use xlink:href="#ArialMT-61" x="170.457031"/>
      <use xlink:href="#ArialMT-6e" x="226.072266"/>
      <use xlink:href="#ArialMT-63" x="281.6875"/>
      <use xlink:href="#ArialMT-65" x="331.6875"/>
     </g>
    </g>
   </g>
   <g id="PolyCollection_11">
    <defs>
     <path id="m995383a224" d="M 416.419432 -100.233786 
L 416.419432 -100.233786 
L 416.419432 -100.233786 
L 416.419432 -100.233786 
z
" style="stroke: #1f77b4; stroke-opacity: 0.2"/>
    </defs>
    <g clip-path="url(#pf420e1a308)">
     <use xlink:href="#m995383a224" x="0" y="504" style="fill: #1f77b4; fill-opacity: 0.2; stroke: #1f77b4; stroke-opacity: 0.2"/>
    </g>
   </g>
   <g id="PolyCollection_12">
    <defs>
     <path id="mec34c8bf1d" d="M 416.419432 -100.326715 
L 416.419432 -100.323741 
L 416.419432 -100.326715 
L 416.419432 -100.326715 
z
" style="stroke: #ff7f0e; stroke-opacity: 0.2"/>
    </defs>
    <g clip-path="url(#pf420e1a308)">
     <use xlink:href="#mec34c8bf1d" x="0" y="504" style="fill: #ff7f0e; fill-opacity: 0.2; stroke: #ff7f0e; stroke-opacity: 0.2"/>
    </g>
   </g>
   <g id="PolyCollection_13">
    <defs>
     <path id="m8a758b5df3" d="M 416.419432 -100.308129 
L 416.419432 -100.252372 
L 416.419432 -100.308129 
L 416.419432 -100.308129 
z
" style="stroke: #2ca02c; stroke-opacity: 0.2"/>
    </defs>
    <g clip-path="url(#pf420e1a308)">
     <use xlink:href="#m8a758b5df3" x="0" y="504" style="fill: #2ca02c; fill-opacity: 0.2; stroke: #2ca02c; stroke-opacity: 0.2"/>
    </g>
   </g>
   <g id="PolyCollection_14">
    <defs>
     <path id="m5b82d059c8" d="M 416.419432 -53.862585 
L 416.419432 -53.862585 
L 416.419432 -53.862585 
L 416.419432 -53.862585 
z
" style="stroke: #d62728; stroke-opacity: 0.2"/>
    </defs>
    <g clip-path="url(#pf420e1a308)">
     <use xlink:href="#m5b82d059c8" x="0" y="504" style="fill: #d62728; fill-opacity: 0.2; stroke: #d62728; stroke-opacity: 0.2"/>
    </g>
   </g>
   <g id="line2d_31">
    <path d="M 416.419432 403.766214 
L 422.063899 390.599082 
L 429.175086 387.68262 
L 433.859105 391.695753 
L 438.824365 398.803959 
L 444.468832 408.272388 
L 449.152851 416.020985 
L 454.118111 423.423826 
L 458.802131 429.368863 
L 463.53342 434.298138 
L 468.28469 438.235064 
L 473.064222 441.307917 
L 477.849855 443.649108 
L 482.533874 445.372187 
L 487.286596 446.673584 
L 492.031672 447.630029 
L 496.741777 448.324776 
L 501.48153 448.833582 
L 506.205222 449.200738 
L 510.936325 449.466116 
L 515.666153 449.656978 
L 520.392337 449.793888 
L 525.118845 449.892013 
L 529.843613 449.962214 
L 534.570156 450.012419 
L 539.297141 450.048279 
L 544.022976 450.073867 
L 548.749431 450.092123 
L 553.475566 450.105141 
L 558.201783 450.11442 
L 562.927769 450.121034 
L 567.653841 450.125746 
L 572.379988 450.129103 
L 577.106037 450.131495 
L 581.832168 450.133199 
L 586.558247 450.134412 
L 591.284324 450.135276 
L 596.010408 450.135892 
L 600.736494 450.13633 
L 605.462574 450.136642 
L 610.188651 450.136865 
L 614.914729 450.137023 
L 619.640808 450.137136 
L 624.366888 450.137216 
L 629.092967 450.137273 
L 633.819046 450.137314 
L 638.545125 450.137343 
L 643.271203 450.137364 
L 647.997282 450.137378 
L 652.723361 450.137389 
L 657.449439 450.137396 
L 662.175518 450.137402 
L 666.901597 450.137405 
L 671.627675 450.137408 
L 676.353754 450.13741 
L 681.079832 450.137411 
L 685.805911 450.137412 
L 690.53199 450.137413 
L 695.258068 450.137414 
" clip-path="url(#pf420e1a308)" style="fill: none; stroke: #1f77b4; stroke-width: 1.5; stroke-linecap: round"/>
   </g>
   <g id="line2d_32">
    <path d="M 416.419432 403.674772 
L 422.063899 387.784535 
L 429.175086 396.018096 
L 433.859105 390.713847 
L 438.824365 400.735329 
L 444.468832 395.242392 
L 449.152851 404.937883 
L 454.118111 424.483017 
L 458.802131 433.372997 
L 463.53342 439.705737 
L 468.28469 435.336032 
L 473.064222 443.257801 
L 477.849855 444.854698 
L 482.533874 445.652533 
L 487.286596 446.147835 
L 492.031672 449.368101 
L 496.741777 449.994542 
L 501.48153 447.717099 
L 506.205222 450.024903 
L 510.936325 449.92926 
L 515.666153 448.639614 
L 520.392337 450.095133 
L 525.118845 450.106272 
L 529.843613 450.067083 
L 534.570156 450.113246 
L 539.297141 450.093961 
L 544.022976 450.134118 
L 548.749431 450.133162 
L 553.475566 450.137038 
L 558.201783 450.136413 
L 562.927769 450.137136 
L 567.653841 450.137371 
L 572.379988 450.13705 
L 577.106037 450.137412 
L 581.832168 450.137412 
L 586.558247 450.136978 
L 591.284324 450.137414 
L 596.010408 450.137412 
L 600.736494 450.13741 
L 605.462574 450.137414 
L 610.188651 450.137415 
L 614.914729 450.137415 
L 619.640808 450.137415 
L 624.366888 450.137415 
L 629.092967 450.137415 
L 633.819046 450.137415 
L 638.545125 450.137415 
L 643.271203 450.137415 
L 647.997282 450.137415 
L 652.723361 450.137415 
L 657.449439 450.137415 
L 662.175518 450.137415 
L 666.901597 450.137415 
L 671.627675 450.137415 
L 676.353754 450.137415 
L 681.079832 450.137415 
L 685.805911 450.137415 
L 690.53199 450.137415 
L 695.258068 450.137415 
" clip-path="url(#pf420e1a308)" style="fill: none; stroke: #ff7f0e; stroke-width: 1.5; stroke-linecap: round"/>
   </g>
   <g id="line2d_33">
    <path d="M 416.419432 403.719749 
L 422.063899 394.390785 
L 429.175086 385.631264 
L 433.859105 389.157833 
L 438.824365 400.373446 
L 444.468832 414.381009 
L 449.152851 418.643259 
L 454.118111 423.597567 
L 458.802131 433.766214 
L 463.53342 429.615995 
L 468.28469 433.317511 
L 473.064222 438.745655 
L 477.849855 441.751786 
L 482.533874 444.791458 
L 487.286596 447.1416 
L 492.031672 445.757131 
L 496.741777 449.520763 
L 501.48153 450.057126 
L 506.205222 449.4985 
L 510.936325 449.989552 
L 515.666153 449.654976 
L 520.392337 450.129029 
L 525.118845 450.114561 
L 529.843613 450.101761 
L 534.570156 450.127848 
L 539.297141 450.076487 
L 544.022976 450.134796 
L 548.749431 450.133849 
L 553.475566 450.135177 
L 558.201783 450.136486 
L 562.927769 450.114077 
L 567.653841 450.137366 
L 572.379988 450.137282 
L 577.106037 450.137338 
L 581.832168 450.137048 
L 586.558247 450.137399 
L 591.284324 450.137381 
L 596.010408 450.137414 
L 600.736494 450.137414 
L 605.462574 450.137414 
L 610.188651 450.137415 
L 614.914729 450.137413 
L 619.640808 450.137357 
L 624.366888 450.137415 
L 629.092967 450.137415 
L 633.819046 450.137415 
L 638.545125 450.137415 
L 643.271203 450.137415 
L 647.997282 450.137415 
L 652.723361 450.137415 
L 657.449439 450.137415 
L 662.175518 450.137415 
L 666.901597 450.137415 
L 671.627675 450.137415 
L 676.353754 450.137415 
L 681.079832 450.137415 
L 685.805911 450.137415 
L 690.53199 450.137415 
L 695.258068 450.137415 
" clip-path="url(#pf420e1a308)" style="fill: none; stroke: #2ca02c; stroke-width: 1.5; stroke-linecap: round"/>
   </g>
   <g id="line2d_34">
    <path d="M 416.419432 450.137415 
L 422.063899 450.137415 
L 429.175086 450.137415 
L 433.859105 450.137415 
L 438.824365 450.137415 
L 444.468832 285.262033 
L 449.152851 265.07321 
L 454.118111 285.262033 
L 458.802131 315.545266 
L 463.53342 345.698972 
L 468.28469 371.517059 
L 473.064222 392.143773 
L 477.849855 407.896614 
L 482.533874 419.409249 
L 487.286596 428.010943 
L 492.031672 434.257672 
L 496.741777 438.743273 
L 501.48153 441.994189 
L 506.205222 444.318647 
L 510.936325 445.985676 
L 515.666153 447.176811 
L 520.392337 448.026652 
L 525.118845 448.633084 
L 529.843613 449.065405 
L 534.570156 449.373711 
L 539.297141 449.593431 
L 544.022976 449.749939 
L 548.749431 449.861447 
L 553.475566 449.940869 
L 558.201783 449.997439 
L 562.927769 450.037728 
L 567.653841 450.066422 
L 572.379988 450.086857 
L 577.106037 450.101411 
L 581.832168 450.111775 
L 586.558247 450.119156 
L 591.284324 450.124412 
L 596.010408 450.128155 
L 600.736494 450.13082 
L 605.462574 450.132719 
L 610.188651 450.134071 
L 614.914729 450.135033 
L 619.640808 450.135719 
L 624.366888 450.136207 
L 629.092967 450.136555 
L 633.819046 450.136802 
L 638.545125 450.136979 
L 643.271203 450.137104 
L 647.997282 450.137194 
L 652.723361 450.137257 
L 657.449439 450.137303 
L 662.175518 450.137335 
L 666.901597 450.137358 
L 671.627675 450.137374 
L 676.353754 450.137386 
L 681.079832 450.137394 
L 685.805911 450.1374 
L 690.53199 450.137404 
L 695.258068 450.137407 
" clip-path="url(#pf420e1a308)" style="fill: none; stroke: #d62728; stroke-width: 1.5; stroke-linecap: round"/>
   </g>
   <g id="line2d_35"/>
   <g id="line2d_36"/>
   <g id="line2d_37"/>
   <g id="line2d_38"/>
   <g id="patch_21">
    <path d="M 402.4775 459.390625 
L 402.4775 255.82 
" style="fill: none; stroke: #262626; stroke-width: 0.8; stroke-linejoin: miter; stroke-linecap: square"/>
   </g>
   <g id="patch_22">
    <path d="M 709.2 459.390625 
L 709.2 255.82 
" style="fill: none; stroke: #262626; stroke-width: 0.8; stroke-linejoin: miter; stroke-linecap: square"/>
   </g>
   <g id="patch_23">
    <path d="M 402.4775 459.390625 
L 709.2 459.390625 
" style="fill: none; stroke: #262626; stroke-width: 0.8; stroke-linejoin: miter; stroke-linecap: square"/>
   </g>
   <g id="patch_24">
    <path d="M 402.4775 255.82 
L 709.2 255.82 
" style="fill: none; stroke: #262626; stroke-width: 0.8; stroke-linejoin: miter; stroke-linecap: square"/>
   </g>
   <g id="legend_4">
    <g id="patch_25">
     <path d="M 542.932813 334.546562 
L 702.2 334.546562 
Q 704.2 334.546562 704.2 332.546562 
L 704.2 262.82 
Q 704.2 260.82 702.2 260.82 
L 542.932813 260.82 
Q 540.932813 260.82 540.932813 262.82 
L 540.932813 332.546562 
Q 540.932813 334.546562 542.932813 334.546562 
z
" style="fill: #ffffff; opacity: 0.8; stroke: #cccccc; stroke-linejoin: miter"/>
    </g>
    <g id="text_65">
     <!-- metric -->
     <g style="fill: #262626" transform="translate(608.95625 271.977813)scale(0.1 -0.1)">
      <use xlink:href="#ArialMT-6d"/>
      <use xlink:href="#ArialMT-65" x="83.300781"/>
      <use xlink:href="#ArialMT-74" x="138.916016"/>
      <use xlink:href="#ArialMT-72" x="166.699219"/>
      <use xlink:href="#ArialMT-69" x="200"/>
      <use xlink:href="#ArialMT-63" x="222.216797"/>
     </g>
    </g>
    <g id="line2d_39">
     <path d="M 544.932813 282.623125 
L 554.932813 282.623125 
L 564.932813 282.623125 
" style="fill: none; stroke: #1f77b4; stroke-width: 1.5; stroke-linecap: round"/>
    </g>
    <g id="text_66">
     <!-- InverseHarmonicMeanRank -->
     <g style="fill: #262626" transform="translate(572.932813 286.123125)scale(0.1 -0.1)">
      <use xlink:href="#ArialMT-49"/>
      <use xlink:href="#ArialMT-6e" x="27.783203"/>
      <use xlink:href="#ArialMT-76" x="83.398438"/>
      <use xlink:href="#ArialMT-65" x="133.398438"/>
      <use xlink:href="#ArialMT-72" x="189.013672"/>
      <use xlink:href="#ArialMT-73" x="222.314453"/>
      <use xlink:href="#ArialMT-65" x="272.314453"/>
      <use xlink:href="#ArialMT-48" x="327.929688"/>
      <use xlink:href="#ArialMT-61" x="400.146484"/>
      <use xlink:href="#ArialMT-72" x="455.761719"/>
      <use xlink:href="#ArialMT-6d" x="489.0625"/>
      <use xlink:href="#ArialMT-6f" x="572.363281"/>
      <use xlink:href="#ArialMT-6e" x="627.978516"/>
      <use xlink:href="#ArialMT-69" x="683.59375"/>
      <use xlink:href="#ArialMT-63" x="705.810547"/>
      <use xlink:href="#ArialMT-4d" x="755.810547"/>
      <use xlink:href="#ArialMT-65" x="839.111328"/>
      <use xlink:href="#ArialMT-61" x="894.726562"/>
      <use xlink:href="#ArialMT-6e" x="950.341797"/>
      <use xlink:href="#ArialMT-52" x="1005.957031"/>
      <use xlink:href="#ArialMT-61" x="1078.173828"/>
      <use xlink:href="#ArialMT-6e" x="1133.789062"/>
      <use xlink:href="#ArialMT-6b" x="1189.404297"/>
     </g>
    </g>
    <g id="line2d_40">
     <path d="M 544.932813 296.768438 
L 554.932813 296.768438 
L 564.932813 296.768438 
" style="fill: none; stroke: #ff7f0e; stroke-width: 1.5; stroke-linecap: round"/>
    </g>
    <g id="text_67">
     <!-- InverseArithmeticMeanRank -->
     <g style="fill: #262626" transform="translate(572.932813 300.268438)scale(0.1 -0.1)">
      <use xlink:href="#ArialMT-49"/>
      <use xlink:href="#ArialMT-6e" x="27.783203"/>
      <use xlink:href="#ArialMT-76" x="83.398438"/>
      <use xlink:href="#ArialMT-65" x="133.398438"/>
      <use xlink:href="#ArialMT-72" x="189.013672"/>
      <use xlink:href="#ArialMT-73" x="222.314453"/>
      <use xlink:href="#ArialMT-65" x="272.314453"/>
      <use xlink:href="#ArialMT-41" x="327.929688"/>
      <use xlink:href="#ArialMT-72" x="394.628906"/>
      <use xlink:href="#ArialMT-69" x="427.929688"/>
      <use xlink:href="#ArialMT-74" x="450.146484"/>
      <use xlink:href="#ArialMT-68" x="477.929688"/>
      <use xlink:href="#ArialMT-6d" x="533.544922"/>
      <use xlink:href="#ArialMT-65" x="616.845703"/>
      <use xlink:href="#ArialMT-74" x="672.460938"/>
      <use xlink:href="#ArialMT-69" x="700.244141"/>
      <use xlink:href="#ArialMT-63" x="722.460938"/>
      <use xlink:href="#ArialMT-4d" x="772.460938"/>
      <use xlink:href="#ArialMT-65" x="855.761719"/>
      <use xlink:href="#ArialMT-61" x="911.376953"/>
      <use xlink:href="#ArialMT-6e" x="966.992188"/>
      <use xlink:href="#ArialMT-52" x="1022.607422"/>
      <use xlink:href="#ArialMT-61" x="1094.824219"/>
      <use xlink:href="#ArialMT-6e" x="1150.439453"/>
      <use xlink:href="#ArialMT-6b" x="1206.054688"/>
     </g>
    </g>
    <g id="line2d_41">
     <path d="M 544.932813 310.91375 
L 554.932813 310.91375 
L 564.932813 310.91375 
" style="fill: none; stroke: #2ca02c; stroke-width: 1.5; stroke-linecap: round"/>
    </g>
    <g id="text_68">
     <!-- InverseGeometricMeanRank -->
     <g style="fill: #262626" transform="translate(572.932813 314.41375)scale(0.1 -0.1)">
      <use xlink:href="#ArialMT-49"/>
      <use xlink:href="#ArialMT-6e" x="27.783203"/>
      <use xlink:href="#ArialMT-76" x="83.398438"/>
      <use xlink:href="#ArialMT-65" x="133.398438"/>
      <use xlink:href="#ArialMT-72" x="189.013672"/>
      <use xlink:href="#ArialMT-73" x="222.314453"/>
      <use xlink:href="#ArialMT-65" x="272.314453"/>
      <use xlink:href="#ArialMT-47" x="327.929688"/>
      <use xlink:href="#ArialMT-65" x="405.712891"/>
      <use xlink:href="#ArialMT-6f" x="461.328125"/>
      <use xlink:href="#ArialMT-6d" x="516.943359"/>
      <use xlink:href="#ArialMT-65" x="600.244141"/>
      <use xlink:href="#ArialMT-74" x="655.859375"/>
      <use xlink:href="#ArialMT-72" x="683.642578"/>
      <use xlink:href="#ArialMT-69" x="716.943359"/>
      <use xlink:href="#ArialMT-63" x="739.160156"/>
      <use xlink:href="#ArialMT-4d" x="789.160156"/>
      <use xlink:href="#ArialMT-65" x="872.460938"/>
      <use xlink:href="#ArialMT-61" x="928.076172"/>
      <use xlink:href="#ArialMT-6e" x="983.691406"/>
      <use xlink:href="#ArialMT-52" x="1039.306641"/>
      <use xlink:href="#ArialMT-61" x="1111.523438"/>
      <use xlink:href="#ArialMT-6e" x="1167.138672"/>
      <use xlink:href="#ArialMT-6b" x="1222.753906"/>
     </g>
    </g>
    <g id="line2d_42">
     <path d="M 544.932813 325.059062 
L 554.932813 325.059062 
L 564.932813 325.059062 
" style="fill: none; stroke: #d62728; stroke-width: 1.5; stroke-linecap: round"/>
    </g>
    <g id="text_69">
     <!-- HitsAtK -->
     <g style="fill: #262626" transform="translate(572.932813 328.559062)scale(0.1 -0.1)">
      <use xlink:href="#ArialMT-48"/>
      <use xlink:href="#ArialMT-69" x="72.216797"/>
      <use xlink:href="#ArialMT-74" x="94.433594"/>
      <use xlink:href="#ArialMT-73" x="122.216797"/>
      <use xlink:href="#ArialMT-41" x="172.216797"/>
      <use xlink:href="#ArialMT-74" x="238.916016"/>
      <use xlink:href="#ArialMT-4b" x="266.699219"/>
     </g>
    </g>
   </g>
  </g>
 </g>
 <defs>
  <clipPath id="p01dd64bc9e">
   <rect x="45.11" y="21" width="306.7225" height="203.570625"/>
  </clipPath>
  <clipPath id="p65b16c1d08">
   <rect x="402.4775" y="21" width="306.7225" height="203.570625"/>
  </clipPath>
  <clipPath id="pa27b5fefe7">
   <rect x="45.11" y="255.82" width="306.7225" height="203.570625"/>
  </clipPath>
  <clipPath id="pf420e1a308">
   <rect x="402.4775" y="255.82" width="306.7225" height="203.570625"/>
  </clipPath>
 </defs>
</svg>
