<?xml version="1.0" encoding="utf-8" standalone="no"?>
<!DOCTYPE svg PUBLIC "-//W3C//DTD SVG 1.1//EN"
  "http://www.w3.org/Graphics/SVG/1.1/DTD/svg11.dtd">
<svg xmlns:xlink="http://www.w3.org/1999/xlink" width="515.034321pt" height="387.482187pt" viewBox="0 0 515.034321 387.482187" xmlns="http://www.w3.org/2000/svg" version="1.1">
 <metadata>
  <rdf:RDF xmlns:dc="http://purl.org/dc/elements/1.1/" xmlns:cc="http://creativecommons.org/ns#" xmlns:rdf="http://www.w3.org/1999/02/22-rdf-syntax-ns#">
   <cc:Work>
    <dc:type rdf:resource="http://purl.org/dc/dcmitype/StillImage"/>
    <dc:date>2022-04-04T13:02:25.550611</dc:date>
    <dc:format>image/svg+xml</dc:format>
    <dc:creator>
     <cc:Agent>
      <dc:title>Matplotlib v3.5.1, https://matplotlib.org/</dc:title>
     </cc:Agent>
    </dc:creator>
   </cc:Work>
  </rdf:RDF>
 </metadata>
 <defs>
  <style type="text/css">*{stroke-linejoin: round; stroke-linecap: butt}</style>
 </defs>
 <g id="figure_1">
  <g id="patch_1">
   <path d="M 0 387.482187 
L 515.034321 387.482187 
L 515.034321 0 
L 0 0 
z
" style="fill: #ffffff"/>
  </g>
  <g id="axes_1">
   <g id="patch_2">
    <path d="M 51.378125 137.336187 
L 249.433741 137.336187 
L 249.433741 20.842187 
L 51.378125 20.842187 
z
" style="fill: #ffffff"/>
   </g>
   <g id="PolyCollection_1">
    <defs>
     <path id="m74fd7dea55" d="M 60.380653 -255.441182 
L 60.380653 -255.441182 
L 69.41409 -258.162433 
L 69.41409 -258.259772 
L 69.41409 -258.259772 
L 60.380653 -255.441182 
z
" style="stroke: #1f77b4; stroke-opacity: 0.2"/>
    </defs>
    <g clip-path="url(#pf0d1e4ebc6)">
     <use xlink:href="#m74fd7dea55" x="0" y="387.482187" style="fill: #1f77b4; fill-opacity: 0.2; stroke: #1f77b4; stroke-opacity: 0.2"/>
    </g>
   </g>
   <g id="PolyCollection_2">
    <defs>
     <path id="mf0b163f4ef" d="M 60.380653 -255.441182 
L 60.380653 -255.441182 
L 69.41409 -258.713475 
L 69.41409 -258.713475 
L 69.41409 -258.713475 
L 60.380653 -255.441182 
z
" style="stroke: #ff7f0e; stroke-opacity: 0.2"/>
    </defs>
    <g clip-path="url(#pf0d1e4ebc6)">
     <use xlink:href="#mf0b163f4ef" x="0" y="387.482187" style="fill: #ff7f0e; fill-opacity: 0.2; stroke: #ff7f0e; stroke-opacity: 0.2"/>
    </g>
   </g>
   <g id="PolyCollection_3">
    <defs>
     <path id="m8b94de4035" d="M 60.380653 -255.441182 
L 60.380653 -255.441182 
L 69.41409 -258.479333 
L 69.41409 -258.479333 
L 69.41409 -258.479333 
L 60.380653 -255.441182 
z
" style="stroke: #2ca02c; stroke-opacity: 0.2"/>
    </defs>
    <g clip-path="url(#pf0d1e4ebc6)">
     <use xlink:href="#m8b94de4035" x="0" y="387.482187" style="fill: #2ca02c; fill-opacity: 0.2; stroke: #2ca02c; stroke-opacity: 0.2"/>
    </g>
   </g>
   <g id="matplotlib.axis_1">
    <g id="xtick_1">
     <g id="line2d_1">
      <defs>
       <path id="meee6422a5d" d="M 0 0 
L 0 3.5 
" style="stroke: #000000; stroke-width: 0.8"/>
      </defs>
      <g>
       <use xlink:href="#meee6422a5d" x="90.38908" y="137.336187" style="stroke: #000000; stroke-width: 0.8"/>
      </g>
     </g>
    </g>
    <g id="xtick_2">
     <g id="line2d_2">
      <g>
       <use xlink:href="#meee6422a5d" x="150.405933" y="137.336187" style="stroke: #000000; stroke-width: 0.8"/>
      </g>
     </g>
    </g>
    <g id="xtick_3">
     <g id="line2d_3">
      <g>
       <use xlink:href="#meee6422a5d" x="210.422787" y="137.336187" style="stroke: #000000; stroke-width: 0.8"/>
      </g>
     </g>
    </g>
   </g>
   <g id="matplotlib.axis_2">
    <g id="ytick_1">
     <g id="line2d_4">
      <defs>
       <path id="mde73080c52" d="M 0 0 
L -3.5 0 
" style="stroke: #000000; stroke-width: 0.8"/>
      </defs>
      <g>
       <use xlink:href="#mde73080c52" x="51.378125" y="113.458064" style="stroke: #000000; stroke-width: 0.8"/>
      </g>
     </g>
     <g id="text_1">
      <!-- $\mathdefault{10^{1}}$ -->
      <g transform="translate(26.778125 117.257283)scale(0.1 -0.1)">
       <defs>
        <path id="DejaVuSans-31" d="M 794 531 
L 1825 531 
L 1825 4091 
L 703 3866 
L 703 4441 
L 1819 4666 
L 2450 4666 
L 2450 531 
L 3481 531 
L 3481 0 
L 794 0 
L 794 531 
z
" transform="scale(0.015625)"/>
        <path id="DejaVuSans-30" d="M 2034 4250 
Q 1547 4250 1301 3770 
Q 1056 3291 1056 2328 
Q 1056 1369 1301 889 
Q 1547 409 2034 409 
Q 2525 409 2770 889 
Q 3016 1369 3016 2328 
Q 3016 3291 2770 3770 
Q 2525 4250 2034 4250 
z
M 2034 4750 
Q 2819 4750 3233 4129 
Q 3647 3509 3647 2328 
Q 3647 1150 3233 529 
Q 2819 -91 2034 -91 
Q 1250 -91 836 529 
Q 422 1150 422 2328 
Q 422 3509 836 4129 
Q 1250 4750 2034 4750 
z
" transform="scale(0.015625)"/>
       </defs>
       <use xlink:href="#DejaVuSans-31" transform="translate(0 0.684375)"/>
       <use xlink:href="#DejaVuSans-30" transform="translate(63.623047 0.684375)"/>
       <use xlink:href="#DejaVuSans-31" transform="translate(128.203125 38.965625)scale(0.7)"/>
      </g>
     </g>
    </g>
    <g id="ytick_2">
     <g id="line2d_5">
      <g>
       <use xlink:href="#mde73080c52" x="51.378125" y="76.29218" style="stroke: #000000; stroke-width: 0.8"/>
      </g>
     </g>
     <g id="text_2">
      <!-- $\mathdefault{10^{3}}$ -->
      <g transform="translate(26.778125 80.091399)scale(0.1 -0.1)">
       <defs>
        <path id="DejaVuSans-33" d="M 2597 2516 
Q 3050 2419 3304 2112 
Q 3559 1806 3559 1356 
Q 3559 666 3084 287 
Q 2609 -91 1734 -91 
Q 1441 -91 1130 -33 
Q 819 25 488 141 
L 488 750 
Q 750 597 1062 519 
Q 1375 441 1716 441 
Q 2309 441 2620 675 
Q 2931 909 2931 1356 
Q 2931 1769 2642 2001 
Q 2353 2234 1838 2234 
L 1294 2234 
L 1294 2753 
L 1863 2753 
Q 2328 2753 2575 2939 
Q 2822 3125 2822 3475 
Q 2822 3834 2567 4026 
Q 2313 4219 1838 4219 
Q 1578 4219 1281 4162 
Q 984 4106 628 3988 
L 628 4550 
Q 988 4650 1302 4700 
Q 1616 4750 1894 4750 
Q 2613 4750 3031 4423 
Q 3450 4097 3450 3541 
Q 3450 3153 3228 2886 
Q 3006 2619 2597 2516 
z
" transform="scale(0.015625)"/>
       </defs>
       <use xlink:href="#DejaVuSans-31" transform="translate(0 0.765625)"/>
       <use xlink:href="#DejaVuSans-30" transform="translate(63.623047 0.765625)"/>
       <use xlink:href="#DejaVuSans-33" transform="translate(128.203125 39.046875)scale(0.7)"/>
      </g>
     </g>
    </g>
    <g id="ytick_3">
     <g id="line2d_6">
      <g>
       <use xlink:href="#mde73080c52" x="51.378125" y="39.126296" style="stroke: #000000; stroke-width: 0.8"/>
      </g>
     </g>
     <g id="text_3">
      <!-- $\mathdefault{10^{5}}$ -->
      <g transform="translate(26.778125 42.925515)scale(0.1 -0.1)">
       <defs>
        <path id="DejaVuSans-35" d="M 691 4666 
L 3169 4666 
L 3169 4134 
L 1269 4134 
L 1269 2991 
Q 1406 3038 1543 3061 
Q 1681 3084 1819 3084 
Q 2600 3084 3056 2656 
Q 3513 2228 3513 1497 
Q 3513 744 3044 326 
Q 2575 -91 1722 -91 
Q 1428 -91 1123 -41 
Q 819 9 494 109 
L 494 744 
Q 775 591 1075 516 
Q 1375 441 1709 441 
Q 2250 441 2565 725 
Q 2881 1009 2881 1497 
Q 2881 1984 2565 2268 
Q 2250 2553 1709 2553 
Q 1456 2553 1204 2497 
Q 953 2441 691 2322 
L 691 4666 
z
" transform="scale(0.015625)"/>
       </defs>
       <use xlink:href="#DejaVuSans-31" transform="translate(0 0.684375)"/>
       <use xlink:href="#DejaVuSans-30" transform="translate(63.623047 0.684375)"/>
       <use xlink:href="#DejaVuSans-35" transform="translate(128.203125 38.965625)scale(0.7)"/>
      </g>
     </g>
    </g>
    <g id="text_4">
     <!-- Value -->
     <g transform="translate(20.698438 92.820437)rotate(-90)scale(0.1 -0.1)">
      <defs>
       <path id="DejaVuSans-56" d="M 1831 0 
L 50 4666 
L 709 4666 
L 2188 738 
L 3669 4666 
L 4325 4666 
L 2547 0 
L 1831 0 
z
" transform="scale(0.015625)"/>
       <path id="DejaVuSans-61" d="M 2194 1759 
Q 1497 1759 1228 1600 
Q 959 1441 959 1056 
Q 959 750 1161 570 
Q 1363 391 1709 391 
Q 2188 391 2477 730 
Q 2766 1069 2766 1631 
L 2766 1759 
L 2194 1759 
z
M 3341 1997 
L 3341 0 
L 2766 0 
L 2766 531 
Q 2569 213 2275 61 
Q 1981 -91 1556 -91 
Q 1019 -91 701 211 
Q 384 513 384 1019 
Q 384 1609 779 1909 
Q 1175 2209 1959 2209 
L 2766 2209 
L 2766 2266 
Q 2766 2663 2505 2880 
Q 2244 3097 1772 3097 
Q 1472 3097 1187 3025 
Q 903 2953 641 2809 
L 641 3341 
Q 956 3463 1253 3523 
Q 1550 3584 1831 3584 
Q 2591 3584 2966 3190 
Q 3341 2797 3341 1997 
z
" transform="scale(0.015625)"/>
       <path id="DejaVuSans-6c" d="M 603 4863 
L 1178 4863 
L 1178 0 
L 603 0 
L 603 4863 
z
" transform="scale(0.015625)"/>
       <path id="DejaVuSans-75" d="M 544 1381 
L 544 3500 
L 1119 3500 
L 1119 1403 
Q 1119 906 1312 657 
Q 1506 409 1894 409 
Q 2359 409 2629 706 
Q 2900 1003 2900 1516 
L 2900 3500 
L 3475 3500 
L 3475 0 
L 2900 0 
L 2900 538 
Q 2691 219 2414 64 
Q 2138 -91 1772 -91 
Q 1169 -91 856 284 
Q 544 659 544 1381 
z
M 1991 3584 
L 1991 3584 
z
" transform="scale(0.015625)"/>
       <path id="DejaVuSans-65" d="M 3597 1894 
L 3597 1613 
L 953 1613 
Q 991 1019 1311 708 
Q 1631 397 2203 397 
Q 2534 397 2845 478 
Q 3156 559 3463 722 
L 3463 178 
Q 3153 47 2828 -22 
Q 2503 -91 2169 -91 
Q 1331 -91 842 396 
Q 353 884 353 1716 
Q 353 2575 817 3079 
Q 1281 3584 2069 3584 
Q 2775 3584 3186 3129 
Q 3597 2675 3597 1894 
z
M 3022 2063 
Q 3016 2534 2758 2815 
Q 2500 3097 2075 3097 
Q 1594 3097 1305 2825 
Q 1016 2553 972 2059 
L 3022 2063 
z
" transform="scale(0.015625)"/>
      </defs>
      <use xlink:href="#DejaVuSans-56"/>
      <use xlink:href="#DejaVuSans-61" x="60.658203"/>
      <use xlink:href="#DejaVuSans-6c" x="121.9375"/>
      <use xlink:href="#DejaVuSans-75" x="149.720703"/>
      <use xlink:href="#DejaVuSans-65" x="213.099609"/>
     </g>
    </g>
   </g>
   <g id="line2d_7">
    <path d="M 60.380653 132.041006 
L 69.41409 129.270938 
L 78.447526 126.106152 
L 81.355643 125.133242 
L 87.480963 122.782957 
L 91.631209 121.036135 
L 97.304489 118.576395 
L 101.798621 116.590218 
L 106.337926 114.510668 
L 111.100778 112.258793 
L 115.749142 110.07298 
L 120.397506 107.765945 
L 124.96744 105.512292 
L 129.624979 103.118229 
L 134.228326 100.80736 
L 138.849604 98.486806 
L 143.463127 95.951127 
L 148.087046 93.508361 
L 152.705792 91.120165 
L 157.329007 88.656483 
L 161.945152 86.090179 
L 166.563912 83.600941 
L 171.178661 81.010545 
L 175.797608 78.543782 
L 180.41436 75.995006 
L 185.031016 73.452156 
L 189.647609 70.877404 
L 194.264105 68.269956 
L 198.881001 65.666493 
L 203.497729 63.046377 
L 208.114327 60.468981 
L 212.731055 57.856104 
L 217.347775 55.192332 
L 221.964478 52.582523 
L 226.581143 49.887863 
L 231.197844 47.317196 
L 235.814517 44.657937 
L 240.431213 42.011962 
" clip-path="url(#pf0d1e4ebc6)" style="fill: none; stroke: #1f77b4; stroke-width: 1.5; stroke-linecap: square"/>
   </g>
   <g id="line2d_8">
    <path d="M 60.380653 132.041006 
L 69.41409 128.768712 
L 78.447526 124.64611 
L 81.355643 123.174689 
L 87.480963 119.902396 
L 91.631209 117.580666 
L 97.304489 114.308373 
L 101.798621 111.657191 
L 106.337926 108.941702 
L 111.100778 106.063168 
L 115.749142 103.233202 
L 120.397506 100.388841 
L 124.96744 97.582544 
L 129.624979 94.715305 
L 134.228326 91.87643 
L 138.849604 89.022981 
L 143.463127 86.171851 
L 148.087046 83.312555 
L 152.705792 80.455236 
L 157.329007 77.594295 
L 161.945152 74.737127 
L 166.563912 71.877919 
L 171.178661 69.020897 
L 175.797608 66.161069 
L 180.41436 63.302454 
L 185.031016 60.443796 
L 189.647609 57.585106 
L 194.264105 54.726424 
L 198.881001 51.867461 
L 203.497729 49.008575 
L 208.114327 46.149754 
L 212.731055 43.290839 
L 217.347775 40.431921 
L 221.964478 37.573007 
L 226.581143 34.714113 
L 231.197844 31.855194 
L 235.814517 28.99629 
L 240.431213 26.137369 
" clip-path="url(#pf0d1e4ebc6)" style="fill: none; stroke: #ff7f0e; stroke-width: 1.5; stroke-linecap: square"/>
   </g>
   <g id="line2d_9">
    <path d="M 60.380653 132.041006 
L 69.41409 129.002855 
L 78.447526 125.361516 
L 81.355643 124.058823 
L 87.480963 121.129411 
L 91.631209 119.018427 
L 97.304489 115.995831 
L 101.798621 113.508906 
L 106.337926 110.930408 
L 111.100778 108.167463 
L 115.749142 105.426388 
L 120.397506 102.651286 
L 124.96744 99.897544 
L 129.624979 97.071254 
L 134.228326 94.263042 
L 138.849604 91.43279 
L 143.463127 88.599009 
L 148.087046 85.752677 
L 152.705792 82.904973 
L 157.329007 80.051153 
L 161.945152 77.19923 
L 166.563912 74.343884 
L 171.178661 71.489695 
L 175.797608 68.631945 
L 180.41436 65.774848 
L 185.031016 62.917298 
L 189.647609 60.059415 
L 194.264105 57.201322 
L 198.881001 54.342785 
L 203.497729 51.48421 
L 208.114327 48.625613 
L 212.731055 45.766862 
L 217.347775 42.908062 
L 221.964478 40.049233 
L 226.581143 37.190401 
L 231.197844 34.331526 
L 235.814517 31.472654 
L 240.431213 28.613756 
" clip-path="url(#pf0d1e4ebc6)" style="fill: none; stroke: #2ca02c; stroke-width: 1.5; stroke-linecap: square"/>
   </g>
   <g id="line2d_10"/>
   <g id="line2d_11"/>
   <g id="line2d_12"/>
   <g id="line2d_13"/>
   <g id="line2d_14"/>
   <g id="line2d_15"/>
   <g id="patch_3">
    <path d="M 51.378125 137.336187 
L 51.378125 20.842187 
" style="fill: none; stroke: #000000; stroke-width: 0.8; stroke-linejoin: miter; stroke-linecap: square"/>
   </g>
   <g id="patch_4">
    <path d="M 51.378125 137.336187 
L 249.433741 137.336187 
" style="fill: none; stroke: #000000; stroke-width: 0.8; stroke-linejoin: miter; stroke-linecap: square"/>
   </g>
   <g id="text_5">
    <!-- inverted = False | variable = expectation -->
    <g transform="translate(47.671558 14.842188)scale(0.1 -0.1)">
     <defs>
      <path id="DejaVuSans-69" d="M 603 3500 
L 1178 3500 
L 1178 0 
L 603 0 
L 603 3500 
z
M 603 4863 
L 1178 4863 
L 1178 4134 
L 603 4134 
L 603 4863 
z
" transform="scale(0.015625)"/>
      <path id="DejaVuSans-6e" d="M 3513 2113 
L 3513 0 
L 2938 0 
L 2938 2094 
Q 2938 2591 2744 2837 
Q 2550 3084 2163 3084 
Q 1697 3084 1428 2787 
Q 1159 2491 1159 1978 
L 1159 0 
L 581 0 
L 581 3500 
L 1159 3500 
L 1159 2956 
Q 1366 3272 1645 3428 
Q 1925 3584 2291 3584 
Q 2894 3584 3203 3211 
Q 3513 2838 3513 2113 
z
" transform="scale(0.015625)"/>
      <path id="DejaVuSans-76" d="M 191 3500 
L 800 3500 
L 1894 563 
L 2988 3500 
L 3597 3500 
L 2284 0 
L 1503 0 
L 191 3500 
z
" transform="scale(0.015625)"/>
      <path id="DejaVuSans-72" d="M 2631 2963 
Q 2534 3019 2420 3045 
Q 2306 3072 2169 3072 
Q 1681 3072 1420 2755 
Q 1159 2438 1159 1844 
L 1159 0 
L 581 0 
L 581 3500 
L 1159 3500 
L 1159 2956 
Q 1341 3275 1631 3429 
Q 1922 3584 2338 3584 
Q 2397 3584 2469 3576 
Q 2541 3569 2628 3553 
L 2631 2963 
z
" transform="scale(0.015625)"/>
      <path id="DejaVuSans-74" d="M 1172 4494 
L 1172 3500 
L 2356 3500 
L 2356 3053 
L 1172 3053 
L 1172 1153 
Q 1172 725 1289 603 
Q 1406 481 1766 481 
L 2356 481 
L 2356 0 
L 1766 0 
Q 1100 0 847 248 
Q 594 497 594 1153 
L 594 3053 
L 172 3053 
L 172 3500 
L 594 3500 
L 594 4494 
L 1172 4494 
z
" transform="scale(0.015625)"/>
      <path id="DejaVuSans-64" d="M 2906 2969 
L 2906 4863 
L 3481 4863 
L 3481 0 
L 2906 0 
L 2906 525 
Q 2725 213 2448 61 
Q 2172 -91 1784 -91 
Q 1150 -91 751 415 
Q 353 922 353 1747 
Q 353 2572 751 3078 
Q 1150 3584 1784 3584 
Q 2172 3584 2448 3432 
Q 2725 3281 2906 2969 
z
M 947 1747 
Q 947 1113 1208 752 
Q 1469 391 1925 391 
Q 2381 391 2643 752 
Q 2906 1113 2906 1747 
Q 2906 2381 2643 2742 
Q 2381 3103 1925 3103 
Q 1469 3103 1208 2742 
Q 947 2381 947 1747 
z
" transform="scale(0.015625)"/>
      <path id="DejaVuSans-20" transform="scale(0.015625)"/>
      <path id="DejaVuSans-3d" d="M 678 2906 
L 4684 2906 
L 4684 2381 
L 678 2381 
L 678 2906 
z
M 678 1631 
L 4684 1631 
L 4684 1100 
L 678 1100 
L 678 1631 
z
" transform="scale(0.015625)"/>
      <path id="DejaVuSans-46" d="M 628 4666 
L 3309 4666 
L 3309 4134 
L 1259 4134 
L 1259 2759 
L 3109 2759 
L 3109 2228 
L 1259 2228 
L 1259 0 
L 628 0 
L 628 4666 
z
" transform="scale(0.015625)"/>
      <path id="DejaVuSans-73" d="M 2834 3397 
L 2834 2853 
Q 2591 2978 2328 3040 
Q 2066 3103 1784 3103 
Q 1356 3103 1142 2972 
Q 928 2841 928 2578 
Q 928 2378 1081 2264 
Q 1234 2150 1697 2047 
L 1894 2003 
Q 2506 1872 2764 1633 
Q 3022 1394 3022 966 
Q 3022 478 2636 193 
Q 2250 -91 1575 -91 
Q 1294 -91 989 -36 
Q 684 19 347 128 
L 347 722 
Q 666 556 975 473 
Q 1284 391 1588 391 
Q 1994 391 2212 530 
Q 2431 669 2431 922 
Q 2431 1156 2273 1281 
Q 2116 1406 1581 1522 
L 1381 1569 
Q 847 1681 609 1914 
Q 372 2147 372 2553 
Q 372 3047 722 3315 
Q 1072 3584 1716 3584 
Q 2034 3584 2315 3537 
Q 2597 3491 2834 3397 
z
" transform="scale(0.015625)"/>
      <path id="DejaVuSans-7c" d="M 1344 4891 
L 1344 -1509 
L 813 -1509 
L 813 4891 
L 1344 4891 
z
" transform="scale(0.015625)"/>
      <path id="DejaVuSans-62" d="M 3116 1747 
Q 3116 2381 2855 2742 
Q 2594 3103 2138 3103 
Q 1681 3103 1420 2742 
Q 1159 2381 1159 1747 
Q 1159 1113 1420 752 
Q 1681 391 2138 391 
Q 2594 391 2855 752 
Q 3116 1113 3116 1747 
z
M 1159 2969 
Q 1341 3281 1617 3432 
Q 1894 3584 2278 3584 
Q 2916 3584 3314 3078 
Q 3713 2572 3713 1747 
Q 3713 922 3314 415 
Q 2916 -91 2278 -91 
Q 1894 -91 1617 61 
Q 1341 213 1159 525 
L 1159 0 
L 581 0 
L 581 4863 
L 1159 4863 
L 1159 2969 
z
" transform="scale(0.015625)"/>
      <path id="DejaVuSans-78" d="M 3513 3500 
L 2247 1797 
L 3578 0 
L 2900 0 
L 1881 1375 
L 863 0 
L 184 0 
L 1544 1831 
L 300 3500 
L 978 3500 
L 1906 2253 
L 2834 3500 
L 3513 3500 
z
" transform="scale(0.015625)"/>
      <path id="DejaVuSans-70" d="M 1159 525 
L 1159 -1331 
L 581 -1331 
L 581 3500 
L 1159 3500 
L 1159 2969 
Q 1341 3281 1617 3432 
Q 1894 3584 2278 3584 
Q 2916 3584 3314 3078 
Q 3713 2572 3713 1747 
Q 3713 922 3314 415 
Q 2916 -91 2278 -91 
Q 1894 -91 1617 61 
Q 1341 213 1159 525 
z
M 3116 1747 
Q 3116 2381 2855 2742 
Q 2594 3103 2138 3103 
Q 1681 3103 1420 2742 
Q 1159 2381 1159 1747 
Q 1159 1113 1420 752 
Q 1681 391 2138 391 
Q 2594 391 2855 752 
Q 3116 1113 3116 1747 
z
" transform="scale(0.015625)"/>
      <path id="DejaVuSans-63" d="M 3122 3366 
L 3122 2828 
Q 2878 2963 2633 3030 
Q 2388 3097 2138 3097 
Q 1578 3097 1268 2742 
Q 959 2388 959 1747 
Q 959 1106 1268 751 
Q 1578 397 2138 397 
Q 2388 397 2633 464 
Q 2878 531 3122 666 
L 3122 134 
Q 2881 22 2623 -34 
Q 2366 -91 2075 -91 
Q 1284 -91 818 406 
Q 353 903 353 1747 
Q 353 2603 823 3093 
Q 1294 3584 2113 3584 
Q 2378 3584 2631 3529 
Q 2884 3475 3122 3366 
z
" transform="scale(0.015625)"/>
      <path id="DejaVuSans-6f" d="M 1959 3097 
Q 1497 3097 1228 2736 
Q 959 2375 959 1747 
Q 959 1119 1226 758 
Q 1494 397 1959 397 
Q 2419 397 2687 759 
Q 2956 1122 2956 1747 
Q 2956 2369 2687 2733 
Q 2419 3097 1959 3097 
z
M 1959 3584 
Q 2709 3584 3137 3096 
Q 3566 2609 3566 1747 
Q 3566 888 3137 398 
Q 2709 -91 1959 -91 
Q 1206 -91 779 398 
Q 353 888 353 1747 
Q 353 2609 779 3096 
Q 1206 3584 1959 3584 
z
" transform="scale(0.015625)"/>
     </defs>
     <use xlink:href="#DejaVuSans-69"/>
     <use xlink:href="#DejaVuSans-6e" x="27.783203"/>
     <use xlink:href="#DejaVuSans-76" x="91.162109"/>
     <use xlink:href="#DejaVuSans-65" x="150.341797"/>
     <use xlink:href="#DejaVuSans-72" x="211.865234"/>
     <use xlink:href="#DejaVuSans-74" x="252.978516"/>
     <use xlink:href="#DejaVuSans-65" x="292.1875"/>
     <use xlink:href="#DejaVuSans-64" x="353.710938"/>
     <use xlink:href="#DejaVuSans-20" x="417.1875"/>
     <use xlink:href="#DejaVuSans-3d" x="448.974609"/>
     <use xlink:href="#DejaVuSans-20" x="532.763672"/>
     <use xlink:href="#DejaVuSans-46" x="564.550781"/>
     <use xlink:href="#DejaVuSans-61" x="612.945312"/>
     <use xlink:href="#DejaVuSans-6c" x="674.224609"/>
     <use xlink:href="#DejaVuSans-73" x="702.007812"/>
     <use xlink:href="#DejaVuSans-65" x="754.107422"/>
     <use xlink:href="#DejaVuSans-20" x="815.630859"/>
     <use xlink:href="#DejaVuSans-7c" x="847.417969"/>
     <use xlink:href="#DejaVuSans-20" x="881.109375"/>
     <use xlink:href="#DejaVuSans-76" x="912.896484"/>
     <use xlink:href="#DejaVuSans-61" x="972.076172"/>
     <use xlink:href="#DejaVuSans-72" x="1033.355469"/>
     <use xlink:href="#DejaVuSans-69" x="1074.46875"/>
     <use xlink:href="#DejaVuSans-61" x="1102.251953"/>
     <use xlink:href="#DejaVuSans-62" x="1163.53125"/>
     <use xlink:href="#DejaVuSans-6c" x="1227.007812"/>
     <use xlink:href="#DejaVuSans-65" x="1254.791016"/>
     <use xlink:href="#DejaVuSans-20" x="1316.314453"/>
     <use xlink:href="#DejaVuSans-3d" x="1348.101562"/>
     <use xlink:href="#DejaVuSans-20" x="1431.890625"/>
     <use xlink:href="#DejaVuSans-65" x="1463.677734"/>
     <use xlink:href="#DejaVuSans-78" x="1523.451172"/>
     <use xlink:href="#DejaVuSans-70" x="1582.630859"/>
     <use xlink:href="#DejaVuSans-65" x="1646.107422"/>
     <use xlink:href="#DejaVuSans-63" x="1707.630859"/>
     <use xlink:href="#DejaVuSans-74" x="1762.611328"/>
     <use xlink:href="#DejaVuSans-61" x="1801.820312"/>
     <use xlink:href="#DejaVuSans-74" x="1863.099609"/>
     <use xlink:href="#DejaVuSans-69" x="1902.308594"/>
     <use xlink:href="#DejaVuSans-6f" x="1930.091797"/>
     <use xlink:href="#DejaVuSans-6e" x="1991.273438"/>
    </g>
   </g>
  </g>
  <g id="axes_2">
   <g id="patch_5">
    <path d="M 309.778705 137.336187 
L 507.834321 137.336187 
L 507.834321 20.842187 
L 309.778705 20.842187 
z
" style="fill: #ffffff"/>
   </g>
   <g id="PolyCollection_4">
    <path d="M 318.781233 12596.29555 
L 318.781233 12596.29555 
L 327.814669 131.541836 
L 327.814669 131.359025 
L 327.814669 131.359025 
L 318.781233 12596.29555 
z
" clip-path="url(#pb29d8a940c)" style="fill: #1f77b4; fill-opacity: 0.2; stroke: #1f77b4; stroke-opacity: 0.2"/>
   </g>
   <g id="PolyCollection_5">
    <path d="M 318.781233 12596.29555 
L 318.781233 12596.29555 
L 327.814669 131.832032 
L 327.814669 131.832032 
L 327.814669 131.832032 
L 318.781233 12596.29555 
z
" clip-path="url(#pb29d8a940c)" style="fill: #ff7f0e; fill-opacity: 0.2; stroke: #ff7f0e; stroke-opacity: 0.2"/>
   </g>
   <g id="PolyCollection_6">
    <path d="M 318.781233 12596.29555 
L 318.781233 12596.29555 
L 327.814669 132.041006 
L 327.814669 131.496722 
L 327.814669 131.496722 
L 318.781233 12596.29555 
z
" clip-path="url(#pb29d8a940c)" style="fill: #2ca02c; fill-opacity: 0.2; stroke: #2ca02c; stroke-opacity: 0.2"/>
   </g>
   <g id="matplotlib.axis_3">
    <g id="xtick_4">
     <g id="line2d_16">
      <g>
       <use xlink:href="#meee6422a5d" x="348.78966" y="137.336187" style="stroke: #000000; stroke-width: 0.8"/>
      </g>
     </g>
    </g>
    <g id="xtick_5">
     <g id="line2d_17">
      <g>
       <use xlink:href="#meee6422a5d" x="408.806513" y="137.336187" style="stroke: #000000; stroke-width: 0.8"/>
      </g>
     </g>
    </g>
    <g id="xtick_6">
     <g id="line2d_18">
      <g>
       <use xlink:href="#meee6422a5d" x="468.823366" y="137.336187" style="stroke: #000000; stroke-width: 0.8"/>
      </g>
     </g>
    </g>
   </g>
   <g id="matplotlib.axis_4">
    <g id="ytick_4">
     <g id="line2d_19">
      <g>
       <use xlink:href="#mde73080c52" x="309.778705" y="120.565325" style="stroke: #000000; stroke-width: 0.8"/>
      </g>
     </g>
     <g id="text_6">
      <!-- $\mathdefault{10^{0}}$ -->
      <g transform="translate(285.178705 124.364544)scale(0.1 -0.1)">
       <use xlink:href="#DejaVuSans-31" transform="translate(0 0.765625)"/>
       <use xlink:href="#DejaVuSans-30" transform="translate(63.623047 0.765625)"/>
       <use xlink:href="#DejaVuSans-30" transform="translate(128.203125 39.046875)scale(0.7)"/>
      </g>
     </g>
    </g>
    <g id="ytick_5">
     <g id="line2d_20">
      <g>
       <use xlink:href="#mde73080c52" x="309.778705" y="95.613864" style="stroke: #000000; stroke-width: 0.8"/>
      </g>
     </g>
     <g id="text_7">
      <!-- $\mathdefault{10^{2}}$ -->
      <g transform="translate(285.178705 99.413083)scale(0.1 -0.1)">
       <defs>
        <path id="DejaVuSans-32" d="M 1228 531 
L 3431 531 
L 3431 0 
L 469 0 
L 469 531 
Q 828 903 1448 1529 
Q 2069 2156 2228 2338 
Q 2531 2678 2651 2914 
Q 2772 3150 2772 3378 
Q 2772 3750 2511 3984 
Q 2250 4219 1831 4219 
Q 1534 4219 1204 4116 
Q 875 4013 500 3803 
L 500 4441 
Q 881 4594 1212 4672 
Q 1544 4750 1819 4750 
Q 2544 4750 2975 4387 
Q 3406 4025 3406 3419 
Q 3406 3131 3298 2873 
Q 3191 2616 2906 2266 
Q 2828 2175 2409 1742 
Q 1991 1309 1228 531 
z
" transform="scale(0.015625)"/>
       </defs>
       <use xlink:href="#DejaVuSans-31" transform="translate(0 0.765625)"/>
       <use xlink:href="#DejaVuSans-30" transform="translate(63.623047 0.765625)"/>
       <use xlink:href="#DejaVuSans-32" transform="translate(128.203125 39.046875)scale(0.7)"/>
      </g>
     </g>
    </g>
    <g id="ytick_6">
     <g id="line2d_21">
      <g>
       <use xlink:href="#mde73080c52" x="309.778705" y="70.662404" style="stroke: #000000; stroke-width: 0.8"/>
      </g>
     </g>
     <g id="text_8">
      <!-- $\mathdefault{10^{4}}$ -->
      <g transform="translate(285.178705 74.461623)scale(0.1 -0.1)">
       <defs>
        <path id="DejaVuSans-34" d="M 2419 4116 
L 825 1625 
L 2419 1625 
L 2419 4116 
z
M 2253 4666 
L 3047 4666 
L 3047 1625 
L 3713 1625 
L 3713 1100 
L 3047 1100 
L 3047 0 
L 2419 0 
L 2419 1100 
L 313 1100 
L 313 1709 
L 2253 4666 
z
" transform="scale(0.015625)"/>
       </defs>
       <use xlink:href="#DejaVuSans-31" transform="translate(0 0.684375)"/>
       <use xlink:href="#DejaVuSans-30" transform="translate(63.623047 0.684375)"/>
       <use xlink:href="#DejaVuSans-34" transform="translate(128.203125 38.965625)scale(0.7)"/>
      </g>
     </g>
    </g>
    <g id="ytick_7">
     <g id="line2d_22">
      <g>
       <use xlink:href="#mde73080c52" x="309.778705" y="45.710943" style="stroke: #000000; stroke-width: 0.8"/>
      </g>
     </g>
     <g id="text_9">
      <!-- $\mathdefault{10^{6}}$ -->
      <g transform="translate(285.178705 49.510162)scale(0.1 -0.1)">
       <defs>
        <path id="DejaVuSans-36" d="M 2113 2584 
Q 1688 2584 1439 2293 
Q 1191 2003 1191 1497 
Q 1191 994 1439 701 
Q 1688 409 2113 409 
Q 2538 409 2786 701 
Q 3034 994 3034 1497 
Q 3034 2003 2786 2293 
Q 2538 2584 2113 2584 
z
M 3366 4563 
L 3366 3988 
Q 3128 4100 2886 4159 
Q 2644 4219 2406 4219 
Q 1781 4219 1451 3797 
Q 1122 3375 1075 2522 
Q 1259 2794 1537 2939 
Q 1816 3084 2150 3084 
Q 2853 3084 3261 2657 
Q 3669 2231 3669 1497 
Q 3669 778 3244 343 
Q 2819 -91 2113 -91 
Q 1303 -91 875 529 
Q 447 1150 447 2328 
Q 447 3434 972 4092 
Q 1497 4750 2381 4750 
Q 2619 4750 2861 4703 
Q 3103 4656 3366 4563 
z
" transform="scale(0.015625)"/>
       </defs>
       <use xlink:href="#DejaVuSans-31" transform="translate(0 0.765625)"/>
       <use xlink:href="#DejaVuSans-30" transform="translate(63.623047 0.765625)"/>
       <use xlink:href="#DejaVuSans-36" transform="translate(128.203125 39.046875)scale(0.7)"/>
      </g>
     </g>
    </g>
    <g id="text_10">
     <!-- Value -->
     <g transform="translate(279.099017 92.820437)rotate(-90)scale(0.1 -0.1)">
      <use xlink:href="#DejaVuSans-56"/>
      <use xlink:href="#DejaVuSans-61" x="60.658203"/>
      <use xlink:href="#DejaVuSans-6c" x="121.9375"/>
      <use xlink:href="#DejaVuSans-75" x="149.720703"/>
      <use xlink:href="#DejaVuSans-65" x="213.099609"/>
     </g>
    </g>
   </g>
   <g id="line2d_23">
    <path d="M 327.628395 388.482187 
L 327.814669 131.44966 
L 336.848106 126.163588 
L 339.756223 124.519325 
L 345.881543 121.085618 
L 350.031789 119.354057 
L 355.705069 116.106933 
L 360.199201 114.219449 
L 364.738506 111.36617 
L 369.501358 109.321396 
L 374.149722 106.512668 
L 378.798086 103.967457 
L 383.36802 101.535457 
L 388.025559 98.773623 
L 392.628905 96.550445 
L 397.250184 93.535227 
L 401.863706 90.935162 
L 406.487626 88.345057 
L 411.106372 85.074516 
L 415.729586 82.125801 
L 420.345732 79.312577 
L 424.964492 76.753686 
L 429.579241 73.549589 
L 434.198188 70.938023 
L 438.81494 67.52041 
L 443.431596 64.44291 
L 448.048189 61.595986 
L 452.664685 58.128551 
L 457.28158 55.324023 
L 461.898309 52.135983 
L 466.514907 49.006496 
L 471.131634 45.762369 
L 475.748355 42.541472 
L 480.365058 39.484401 
L 484.981722 35.955521 
L 489.598424 33.003055 
L 494.215097 29.557 
L 498.831793 26.137369 
" clip-path="url(#pb29d8a940c)" style="fill: none; stroke: #1f77b4; stroke-width: 1.5; stroke-linecap: square"/>
   </g>
   <g id="line2d_24">
    <path d="M 327.628666 388.482187 
L 327.814669 131.832032 
L 336.848106 126.86744 
L 339.756223 125.529917 
L 345.881543 122.847519 
L 350.031789 121.081729 
L 355.705069 118.69693 
L 360.199201 116.81917 
L 364.738506 114.92727 
L 369.501358 112.944726 
L 374.149722 111.011059 
L 378.798086 109.07798 
L 383.36802 107.177799 
L 388.025559 105.241332 
L 392.628905 103.327466 
L 397.250184 101.406179 
L 401.863706 99.488133 
L 406.487626 97.565772 
L 411.106372 95.645567 
L 415.729586 93.723505 
L 420.345732 91.804384 
L 424.964492 89.884176 
L 429.579241 87.965636 
L 434.198188 86.045351 
L 438.81494 84.125978 
L 443.431596 82.206645 
L 448.048189 80.287339 
L 452.664685 78.368072 
L 457.28158 76.44864 
L 461.898309 74.529277 
L 466.514907 72.609969 
L 471.131634 70.690606 
L 475.748355 68.771247 
L 480.365058 66.851894 
L 484.981722 64.932558 
L 489.598424 63.013207 
L 494.215097 61.093867 
L 498.831793 59.174518 
" clip-path="url(#pb29d8a940c)" style="fill: none; stroke: #ff7f0e; stroke-width: 1.5; stroke-linecap: square"/>
   </g>
   <g id="line2d_25">
    <path d="M 327.628616 388.482187 
L 327.814669 131.762032 
L 336.848106 126.426018 
L 339.756223 124.593787 
L 345.881543 121.839366 
L 350.031789 119.817597 
L 355.705069 117.438512 
L 360.199201 115.500753 
L 364.738506 113.315847 
L 369.501358 110.911278 
L 374.149722 108.910495 
L 378.798086 106.643841 
L 383.36802 104.749479 
L 388.025559 102.840624 
L 392.628905 101.314308 
L 397.250184 99.1745 
L 401.863706 96.901695 
L 406.487626 95.084304 
L 411.106372 93.088635 
L 415.729586 91.26154 
L 420.345732 89.145623 
L 424.964492 87.154655 
L 429.579241 85.248208 
L 434.198188 83.138622 
L 438.81494 81.589541 
L 443.431596 80.052298 
L 448.048189 78.254871 
L 452.664685 75.668948 
L 457.28158 73.479476 
L 461.898309 72.227432 
L 466.514907 70.189999 
L 471.131634 67.724536 
L 475.748355 65.916222 
L 480.365058 63.974357 
L 484.981722 62.16825 
L 489.598424 60.301891 
L 494.215097 58.948572 
L 498.831793 56.691735 
" clip-path="url(#pb29d8a940c)" style="fill: none; stroke: #2ca02c; stroke-width: 1.5; stroke-linecap: square"/>
   </g>
   <g id="patch_6">
    <path d="M 309.778705 137.336187 
L 309.778705 20.842187 
" style="fill: none; stroke: #000000; stroke-width: 0.8; stroke-linejoin: miter; stroke-linecap: square"/>
   </g>
   <g id="patch_7">
    <path d="M 309.778705 137.336187 
L 507.834321 137.336187 
" style="fill: none; stroke: #000000; stroke-width: 0.8; stroke-linejoin: miter; stroke-linecap: square"/>
   </g>
   <g id="text_11">
    <!-- inverted = False | variable = variance -->
    <g transform="translate(314.095575 14.842188)scale(0.1 -0.1)">
     <use xlink:href="#DejaVuSans-69"/>
     <use xlink:href="#DejaVuSans-6e" x="27.783203"/>
     <use xlink:href="#DejaVuSans-76" x="91.162109"/>
     <use xlink:href="#DejaVuSans-65" x="150.341797"/>
     <use xlink:href="#DejaVuSans-72" x="211.865234"/>
     <use xlink:href="#DejaVuSans-74" x="252.978516"/>
     <use xlink:href="#DejaVuSans-65" x="292.1875"/>
     <use xlink:href="#DejaVuSans-64" x="353.710938"/>
     <use xlink:href="#DejaVuSans-20" x="417.1875"/>
     <use xlink:href="#DejaVuSans-3d" x="448.974609"/>
     <use xlink:href="#DejaVuSans-20" x="532.763672"/>
     <use xlink:href="#DejaVuSans-46" x="564.550781"/>
     <use xlink:href="#DejaVuSans-61" x="612.945312"/>
     <use xlink:href="#DejaVuSans-6c" x="674.224609"/>
     <use xlink:href="#DejaVuSans-73" x="702.007812"/>
     <use xlink:href="#DejaVuSans-65" x="754.107422"/>
     <use xlink:href="#DejaVuSans-20" x="815.630859"/>
     <use xlink:href="#DejaVuSans-7c" x="847.417969"/>
     <use xlink:href="#DejaVuSans-20" x="881.109375"/>
     <use xlink:href="#DejaVuSans-76" x="912.896484"/>
     <use xlink:href="#DejaVuSans-61" x="972.076172"/>
     <use xlink:href="#DejaVuSans-72" x="1033.355469"/>
     <use xlink:href="#DejaVuSans-69" x="1074.46875"/>
     <use xlink:href="#DejaVuSans-61" x="1102.251953"/>
     <use xlink:href="#DejaVuSans-62" x="1163.53125"/>
     <use xlink:href="#DejaVuSans-6c" x="1227.007812"/>
     <use xlink:href="#DejaVuSans-65" x="1254.791016"/>
     <use xlink:href="#DejaVuSans-20" x="1316.314453"/>
     <use xlink:href="#DejaVuSans-3d" x="1348.101562"/>
     <use xlink:href="#DejaVuSans-20" x="1431.890625"/>
     <use xlink:href="#DejaVuSans-76" x="1463.677734"/>
     <use xlink:href="#DejaVuSans-61" x="1522.857422"/>
     <use xlink:href="#DejaVuSans-72" x="1584.136719"/>
     <use xlink:href="#DejaVuSans-69" x="1625.25"/>
     <use xlink:href="#DejaVuSans-61" x="1653.033203"/>
     <use xlink:href="#DejaVuSans-6e" x="1714.3125"/>
     <use xlink:href="#DejaVuSans-63" x="1777.691406"/>
     <use xlink:href="#DejaVuSans-65" x="1832.671875"/>
    </g>
   </g>
  </g>
  <g id="axes_3">
   <g id="patch_8">
    <path d="M 51.378125 282.050187 
L 249.433741 282.050187 
L 249.433741 165.556187 
L 51.378125 165.556187 
z
" style="fill: #ffffff"/>
   </g>
   <g id="PolyCollection_7">
    <defs>
     <path id="mca7ec567d1" d="M 60.380653 -216.630818 
L 60.380653 -216.630818 
L 69.41409 -214.425574 
L 69.41409 -214.425574 
L 69.41409 -214.425574 
L 60.380653 -216.630818 
z
" style="stroke: #1f77b4; stroke-opacity: 0.2"/>
    </defs>
    <g clip-path="url(#p16e629dcae)">
     <use xlink:href="#mca7ec567d1" x="0" y="387.482187" style="fill: #1f77b4; fill-opacity: 0.2; stroke: #1f77b4; stroke-opacity: 0.2"/>
    </g>
   </g>
   <g id="PolyCollection_8">
    <defs>
     <path id="m19505abc8e" d="M 60.380653 -216.630818 
L 60.380653 -216.630818 
L 69.41409 -213.891227 
L 69.41409 -214.085987 
L 69.41409 -214.085987 
L 60.380653 -216.630818 
z
" style="stroke: #ff7f0e; stroke-opacity: 0.2"/>
    </defs>
    <g clip-path="url(#p16e629dcae)">
     <use xlink:href="#m19505abc8e" x="0" y="387.482187" style="fill: #ff7f0e; fill-opacity: 0.2; stroke: #ff7f0e; stroke-opacity: 0.2"/>
    </g>
   </g>
   <g id="PolyCollection_9">
    <defs>
     <path id="me75c9652b1" d="M 60.380653 -216.630818 
L 60.380653 -216.630818 
L 69.41409 -214.14123 
L 69.41409 -214.220154 
L 69.41409 -214.220154 
L 60.380653 -216.630818 
z
" style="stroke: #2ca02c; stroke-opacity: 0.2"/>
    </defs>
    <g clip-path="url(#p16e629dcae)">
     <use xlink:href="#me75c9652b1" x="0" y="387.482187" style="fill: #2ca02c; fill-opacity: 0.2; stroke: #2ca02c; stroke-opacity: 0.2"/>
    </g>
   </g>
   <g id="PolyCollection_10">
    <defs>
     <path id="m2789664e7b" d="M 60.380653 -216.630818 
L 60.380653 -216.630818 
L 69.41409 -211.317456 
L 69.41409 -211.317456 
L 69.41409 -211.317456 
L 60.380653 -216.630818 
z
" style="stroke: #d62728; stroke-opacity: 0.2"/>
    </defs>
    <g clip-path="url(#p16e629dcae)">
     <use xlink:href="#m2789664e7b" x="0" y="387.482187" style="fill: #d62728; fill-opacity: 0.2; stroke: #d62728; stroke-opacity: 0.2"/>
    </g>
   </g>
   <g id="PolyCollection_11">
    <defs>
     <path id="mee4a3a473a" d="M 60.380653 -216.630818 
L 60.380653 -216.630818 
L 69.41409 -216.630818 
L 69.41409 -216.630818 
L 69.41409 -216.630818 
L 60.380653 -216.630818 
z
" style="stroke: #9467bd; stroke-opacity: 0.2"/>
    </defs>
    <g clip-path="url(#p16e629dcae)">
     <use xlink:href="#mee4a3a473a" x="0" y="387.482187" style="fill: #9467bd; fill-opacity: 0.2; stroke: #9467bd; stroke-opacity: 0.2"/>
    </g>
   </g>
   <g id="PolyCollection_12">
    <defs>
     <path id="m50cba31af2" d="M 60.380653 -216.630818 
L 60.380653 -216.630818 
L 69.41409 -216.630818 
L 69.41409 -216.630818 
L 69.41409 -216.630818 
L 60.380653 -216.630818 
z
" style="stroke: #8c564b; stroke-opacity: 0.2"/>
    </defs>
    <g clip-path="url(#p16e629dcae)">
     <use xlink:href="#m50cba31af2" x="0" y="387.482187" style="fill: #8c564b; fill-opacity: 0.2; stroke: #8c564b; stroke-opacity: 0.2"/>
    </g>
   </g>
   <g id="matplotlib.axis_5">
    <g id="xtick_7">
     <g id="line2d_26">
      <g>
       <use xlink:href="#meee6422a5d" x="90.38908" y="282.050187" style="stroke: #000000; stroke-width: 0.8"/>
      </g>
     </g>
     <g id="text_12">
      <!-- $\mathdefault{10^{1}}$ -->
      <g transform="translate(81.58908 296.648625)scale(0.1 -0.1)">
       <use xlink:href="#DejaVuSans-31" transform="translate(0 0.684375)"/>
       <use xlink:href="#DejaVuSans-30" transform="translate(63.623047 0.684375)"/>
       <use xlink:href="#DejaVuSans-31" transform="translate(128.203125 38.965625)scale(0.7)"/>
      </g>
     </g>
    </g>
    <g id="xtick_8">
     <g id="line2d_27">
      <g>
       <use xlink:href="#meee6422a5d" x="150.405933" y="282.050187" style="stroke: #000000; stroke-width: 0.8"/>
      </g>
     </g>
     <g id="text_13">
      <!-- $\mathdefault{10^{3}}$ -->
      <g transform="translate(141.605933 296.648625)scale(0.1 -0.1)">
       <use xlink:href="#DejaVuSans-31" transform="translate(0 0.765625)"/>
       <use xlink:href="#DejaVuSans-30" transform="translate(63.623047 0.765625)"/>
       <use xlink:href="#DejaVuSans-33" transform="translate(128.203125 39.046875)scale(0.7)"/>
      </g>
     </g>
    </g>
    <g id="xtick_9">
     <g id="line2d_28">
      <g>
       <use xlink:href="#meee6422a5d" x="210.422787" y="282.050187" style="stroke: #000000; stroke-width: 0.8"/>
      </g>
     </g>
     <g id="text_14">
      <!-- $\mathdefault{10^{5}}$ -->
      <g transform="translate(201.622787 296.648625)scale(0.1 -0.1)">
       <use xlink:href="#DejaVuSans-31" transform="translate(0 0.684375)"/>
       <use xlink:href="#DejaVuSans-30" transform="translate(63.623047 0.684375)"/>
       <use xlink:href="#DejaVuSans-35" transform="translate(128.203125 38.965625)scale(0.7)"/>
      </g>
     </g>
    </g>
    <g id="text_15">
     <!-- Number of Candidates -->
     <g transform="translate(94.155152 310.32675)scale(0.1 -0.1)">
      <defs>
       <path id="DejaVuSans-4e" d="M 628 4666 
L 1478 4666 
L 3547 763 
L 3547 4666 
L 4159 4666 
L 4159 0 
L 3309 0 
L 1241 3903 
L 1241 0 
L 628 0 
L 628 4666 
z
" transform="scale(0.015625)"/>
       <path id="DejaVuSans-6d" d="M 3328 2828 
Q 3544 3216 3844 3400 
Q 4144 3584 4550 3584 
Q 5097 3584 5394 3201 
Q 5691 2819 5691 2113 
L 5691 0 
L 5113 0 
L 5113 2094 
Q 5113 2597 4934 2840 
Q 4756 3084 4391 3084 
Q 3944 3084 3684 2787 
Q 3425 2491 3425 1978 
L 3425 0 
L 2847 0 
L 2847 2094 
Q 2847 2600 2669 2842 
Q 2491 3084 2119 3084 
Q 1678 3084 1418 2786 
Q 1159 2488 1159 1978 
L 1159 0 
L 581 0 
L 581 3500 
L 1159 3500 
L 1159 2956 
Q 1356 3278 1631 3431 
Q 1906 3584 2284 3584 
Q 2666 3584 2933 3390 
Q 3200 3197 3328 2828 
z
" transform="scale(0.015625)"/>
       <path id="DejaVuSans-66" d="M 2375 4863 
L 2375 4384 
L 1825 4384 
Q 1516 4384 1395 4259 
Q 1275 4134 1275 3809 
L 1275 3500 
L 2222 3500 
L 2222 3053 
L 1275 3053 
L 1275 0 
L 697 0 
L 697 3053 
L 147 3053 
L 147 3500 
L 697 3500 
L 697 3744 
Q 697 4328 969 4595 
Q 1241 4863 1831 4863 
L 2375 4863 
z
" transform="scale(0.015625)"/>
       <path id="DejaVuSans-43" d="M 4122 4306 
L 4122 3641 
Q 3803 3938 3442 4084 
Q 3081 4231 2675 4231 
Q 1875 4231 1450 3742 
Q 1025 3253 1025 2328 
Q 1025 1406 1450 917 
Q 1875 428 2675 428 
Q 3081 428 3442 575 
Q 3803 722 4122 1019 
L 4122 359 
Q 3791 134 3420 21 
Q 3050 -91 2638 -91 
Q 1578 -91 968 557 
Q 359 1206 359 2328 
Q 359 3453 968 4101 
Q 1578 4750 2638 4750 
Q 3056 4750 3426 4639 
Q 3797 4528 4122 4306 
z
" transform="scale(0.015625)"/>
      </defs>
      <use xlink:href="#DejaVuSans-4e"/>
      <use xlink:href="#DejaVuSans-75" x="74.804688"/>
      <use xlink:href="#DejaVuSans-6d" x="138.183594"/>
      <use xlink:href="#DejaVuSans-62" x="235.595703"/>
      <use xlink:href="#DejaVuSans-65" x="299.072266"/>
      <use xlink:href="#DejaVuSans-72" x="360.595703"/>
      <use xlink:href="#DejaVuSans-20" x="401.708984"/>
      <use xlink:href="#DejaVuSans-6f" x="433.496094"/>
      <use xlink:href="#DejaVuSans-66" x="494.677734"/>
      <use xlink:href="#DejaVuSans-20" x="529.882812"/>
      <use xlink:href="#DejaVuSans-43" x="561.669922"/>
      <use xlink:href="#DejaVuSans-61" x="631.494141"/>
      <use xlink:href="#DejaVuSans-6e" x="692.773438"/>
      <use xlink:href="#DejaVuSans-64" x="756.152344"/>
      <use xlink:href="#DejaVuSans-69" x="819.628906"/>
      <use xlink:href="#DejaVuSans-64" x="847.412109"/>
      <use xlink:href="#DejaVuSans-61" x="910.888672"/>
      <use xlink:href="#DejaVuSans-74" x="972.167969"/>
      <use xlink:href="#DejaVuSans-65" x="1011.376953"/>
      <use xlink:href="#DejaVuSans-73" x="1072.900391"/>
     </g>
    </g>
   </g>
   <g id="matplotlib.axis_6">
    <g id="ytick_8">
     <g id="line2d_29">
      <g>
       <use xlink:href="#mde73080c52" x="51.378125" y="259.1044" style="stroke: #000000; stroke-width: 0.8"/>
      </g>
     </g>
     <g id="text_16">
      <!-- $\mathdefault{10^{-5}}$ -->
      <g transform="translate(20.878125 262.903618)scale(0.1 -0.1)">
       <defs>
        <path id="DejaVuSans-2212" d="M 678 2272 
L 4684 2272 
L 4684 1741 
L 678 1741 
L 678 2272 
z
" transform="scale(0.015625)"/>
       </defs>
       <use xlink:href="#DejaVuSans-31" transform="translate(0 0.684375)"/>
       <use xlink:href="#DejaVuSans-30" transform="translate(63.623047 0.684375)"/>
       <use xlink:href="#DejaVuSans-2212" transform="translate(128.203125 38.965625)scale(0.7)"/>
       <use xlink:href="#DejaVuSans-35" transform="translate(186.855469 38.965625)scale(0.7)"/>
      </g>
     </g>
    </g>
    <g id="ytick_9">
     <g id="line2d_30">
      <g>
       <use xlink:href="#mde73080c52" x="51.378125" y="223.803187" style="stroke: #000000; stroke-width: 0.8"/>
      </g>
     </g>
     <g id="text_17">
      <!-- $\mathdefault{10^{-3}}$ -->
      <g transform="translate(20.878125 227.602406)scale(0.1 -0.1)">
       <use xlink:href="#DejaVuSans-31" transform="translate(0 0.765625)"/>
       <use xlink:href="#DejaVuSans-30" transform="translate(63.623047 0.765625)"/>
       <use xlink:href="#DejaVuSans-2212" transform="translate(128.203125 39.046875)scale(0.7)"/>
       <use xlink:href="#DejaVuSans-33" transform="translate(186.855469 39.046875)scale(0.7)"/>
      </g>
     </g>
    </g>
    <g id="ytick_10">
     <g id="line2d_31">
      <g>
       <use xlink:href="#mde73080c52" x="51.378125" y="188.501975" style="stroke: #000000; stroke-width: 0.8"/>
      </g>
     </g>
     <g id="text_18">
      <!-- $\mathdefault{10^{-1}}$ -->
      <g transform="translate(20.878125 192.301194)scale(0.1 -0.1)">
       <use xlink:href="#DejaVuSans-31" transform="translate(0 0.684375)"/>
       <use xlink:href="#DejaVuSans-30" transform="translate(63.623047 0.684375)"/>
       <use xlink:href="#DejaVuSans-2212" transform="translate(128.203125 38.965625)scale(0.7)"/>
       <use xlink:href="#DejaVuSans-31" transform="translate(186.855469 38.965625)scale(0.7)"/>
      </g>
     </g>
    </g>
    <g id="text_19">
     <!-- Value -->
     <g transform="translate(14.798438 237.534437)rotate(-90)scale(0.1 -0.1)">
      <use xlink:href="#DejaVuSans-56"/>
      <use xlink:href="#DejaVuSans-61" x="60.658203"/>
      <use xlink:href="#DejaVuSans-6c" x="121.9375"/>
      <use xlink:href="#DejaVuSans-75" x="149.720703"/>
      <use xlink:href="#DejaVuSans-65" x="213.099609"/>
     </g>
    </g>
   </g>
   <g id="line2d_32">
    <path d="M 60.380653 170.851369 
L 69.41409 173.056614 
L 78.447526 175.851808 
L 81.355643 176.859648 
L 87.480963 179.127092 
L 91.631209 180.760479 
L 97.304489 183.099954 
L 101.798621 185.028055 
L 106.337926 187.032923 
L 111.100778 189.190263 
L 115.749142 191.341886 
L 120.397506 193.533318 
L 124.96744 195.721927 
L 129.624979 197.98332 
L 134.228326 200.245622 
L 138.849604 202.541079 
L 143.463127 204.854558 
L 148.087046 207.193058 
L 152.705792 209.546902 
L 157.329007 211.919397 
L 161.945152 214.303212 
L 166.563912 216.702096 
L 171.178661 219.11152 
L 175.797608 221.534806 
L 180.41436 223.967753 
L 185.031016 226.410692 
L 189.647609 228.86295 
L 194.264105 231.32389 
L 198.881001 233.793217 
L 203.497729 236.27012 
L 208.114327 238.754155 
L 212.731055 241.24504 
L 217.347775 243.742317 
L 221.964478 246.245624 
L 226.581143 248.754626 
L 231.197844 251.269063 
L 235.814517 253.788623 
L 240.431213 256.313078 
" clip-path="url(#p16e629dcae)" style="fill: none; stroke: #1f77b4; stroke-width: 1.5; stroke-linecap: square"/>
   </g>
   <g id="line2d_33">
    <path d="M 60.380653 170.851369 
L 69.41409 173.492962 
L 78.447526 177.374926 
L 81.355643 178.954854 
L 87.480963 182.187881 
L 91.631209 184.35603 
L 97.304489 187.616815 
L 101.798621 190.091086 
L 106.337926 192.709035 
L 111.100778 195.494403 
L 115.749142 198.168495 
L 120.397506 200.856371 
L 124.96744 203.560733 
L 129.624979 206.28537 
L 134.228326 208.990933 
L 138.849604 211.699114 
L 143.463127 214.420651 
L 148.087046 217.129418 
L 152.705792 219.850725 
L 157.329007 222.564995 
L 161.945152 225.281069 
L 166.563912 227.997292 
L 171.178661 230.708848 
L 175.797608 233.427529 
L 180.41436 236.14156 
L 185.031016 238.858505 
L 189.647609 241.573716 
L 194.264105 244.287768 
L 198.881001 247.002459 
L 203.497729 249.717551 
L 208.114327 252.43301 
L 212.731055 255.148467 
L 217.347775 257.863931 
L 221.964478 260.579381 
L 226.581143 263.294723 
L 231.197844 266.010548 
L 235.814517 268.726517 
L 240.431213 271.441758 
" clip-path="url(#p16e629dcae)" style="fill: none; stroke: #ff7f0e; stroke-width: 1.5; stroke-linecap: square"/>
   </g>
   <g id="line2d_34">
    <path d="M 60.380653 170.851369 
L 69.41409 173.301394 
L 78.447526 176.78365 
L 81.355643 178.0464 
L 87.480963 180.673752 
L 91.631209 182.866889 
L 97.304489 185.795419 
L 101.798621 188.2125 
L 106.337926 190.721021 
L 111.100778 193.394006 
L 115.749142 196.014399 
L 120.397506 198.692112 
L 124.96744 201.3327 
L 129.624979 204.038517 
L 134.228326 206.716514 
L 138.849604 209.432877 
L 143.463127 212.116698 
L 148.087046 214.813589 
L 152.705792 217.515132 
L 157.329007 220.226531 
L 161.945152 222.94392 
L 166.563912 225.652667 
L 171.178661 228.359434 
L 175.797608 231.076478 
L 180.41436 233.7916 
L 185.031016 236.508175 
L 189.647609 239.223632 
L 194.264105 241.935174 
L 198.881001 244.648546 
L 203.497729 247.365439 
L 208.114327 250.082567 
L 212.731055 252.797152 
L 217.347775 255.512831 
L 221.964478 258.228315 
L 226.581143 260.943137 
L 231.197844 263.65816 
L 235.814517 266.374007 
L 240.431213 269.089176 
" clip-path="url(#p16e629dcae)" style="fill: none; stroke: #2ca02c; stroke-width: 1.5; stroke-linecap: square"/>
   </g>
   <g id="line2d_35">
    <path d="M 60.380653 170.851369 
L 69.41409 176.164731 
L 78.447526 181.478093 
L 81.355643 183.188614 
L 87.480963 186.791455 
L 91.631209 189.232581 
L 97.304489 192.569539 
L 101.798621 195.212934 
L 106.337926 197.8829 
L 111.100778 200.684354 
L 115.749142 203.418468 
L 120.397506 206.152581 
L 124.96744 208.840563 
L 129.624979 211.580073 
L 134.228326 214.287708 
L 138.849604 217.00589 
L 143.463127 219.71951 
L 148.087046 222.439245 
L 152.705792 225.155938 
L 157.329007 227.875258 
L 161.945152 230.590421 
L 166.563912 233.307122 
L 171.178661 236.021464 
L 175.797608 238.738274 
L 180.41436 241.453794 
L 185.031016 244.169257 
L 189.647609 246.884683 
L 194.264105 249.600052 
L 198.881001 252.315656 
L 203.497729 255.031162 
L 208.114327 257.746591 
L 212.731055 260.462096 
L 217.347775 263.177597 
L 221.964478 265.893088 
L 226.581143 268.608556 
L 231.197844 271.324046 
L 235.814517 274.039519 
L 240.431213 276.755006 
" clip-path="url(#p16e629dcae)" style="fill: none; stroke: #d62728; stroke-width: 1.5; stroke-linecap: square"/>
   </g>
   <g id="line2d_36">
    <path d="M 60.380653 170.851369 
L 69.41409 170.851369 
L 78.447526 170.851369 
L 81.355643 170.851369 
L 87.480963 170.851369 
L 91.631209 171.581975 
L 97.304489 174.918932 
L 101.798621 177.562328 
L 106.337926 180.232294 
L 111.100778 183.033748 
L 115.749142 185.767862 
L 120.397506 188.501975 
L 124.96744 191.189957 
L 129.624979 193.929467 
L 134.228326 196.637102 
L 138.849604 199.355284 
L 143.463127 202.068904 
L 148.087046 204.788639 
L 152.705792 207.505332 
L 157.329007 210.224652 
L 161.945152 212.939815 
L 166.563912 215.656516 
L 171.178661 218.370858 
L 175.797608 221.087668 
L 180.41436 223.803187 
L 185.031016 226.518651 
L 189.647609 229.234077 
L 194.264105 231.949446 
L 198.881001 234.66505 
L 203.497729 237.380556 
L 208.114327 240.095985 
L 212.731055 242.81149 
L 217.347775 245.526991 
L 221.964478 248.242482 
L 226.581143 250.95795 
L 231.197844 253.67344 
L 235.814517 256.388913 
L 240.431213 259.1044 
" clip-path="url(#p16e629dcae)" style="fill: none; stroke: #9467bd; stroke-width: 1.5; stroke-linecap: square"/>
   </g>
   <g id="line2d_37">
    <path d="M 60.380653 170.851369 
L 69.41409 170.851369 
L 78.447526 170.851369 
L 81.355643 170.851369 
L 87.480963 170.851369 
L 91.631209 170.851369 
L 97.304489 170.851369 
L 101.798621 170.851369 
L 106.337926 170.851369 
L 111.100778 170.851369 
L 115.749142 170.851369 
L 120.397506 170.851369 
L 124.96744 173.539351 
L 129.624979 176.278861 
L 134.228326 178.986496 
L 138.849604 181.704678 
L 143.463127 184.418298 
L 148.087046 187.138033 
L 152.705792 189.854726 
L 157.329007 192.574046 
L 161.945152 195.289209 
L 166.563912 198.00591 
L 171.178661 200.720252 
L 175.797608 203.437062 
L 180.41436 206.152581 
L 185.031016 208.868045 
L 189.647609 211.583471 
L 194.264105 214.29884 
L 198.881001 217.014444 
L 203.497729 219.72995 
L 208.114327 222.445379 
L 212.731055 225.160884 
L 217.347775 227.876385 
L 221.964478 230.591876 
L 226.581143 233.307344 
L 231.197844 236.022834 
L 235.814517 238.738307 
L 240.431213 241.453794 
" clip-path="url(#p16e629dcae)" style="fill: none; stroke: #8c564b; stroke-width: 1.5; stroke-linecap: square"/>
   </g>
   <g id="patch_9">
    <path d="M 51.378125 282.050187 
L 51.378125 165.556187 
" style="fill: none; stroke: #000000; stroke-width: 0.8; stroke-linejoin: miter; stroke-linecap: square"/>
   </g>
   <g id="patch_10">
    <path d="M 51.378125 282.050187 
L 249.433741 282.050187 
" style="fill: none; stroke: #000000; stroke-width: 0.8; stroke-linejoin: miter; stroke-linecap: square"/>
   </g>
   <g id="text_20">
    <!-- inverted = True | variable = expectation -->
    <g transform="translate(49.608277 159.556187)scale(0.1 -0.1)">
     <defs>
      <path id="DejaVuSans-54" d="M -19 4666 
L 3928 4666 
L 3928 4134 
L 2272 4134 
L 2272 0 
L 1638 0 
L 1638 4134 
L -19 4134 
L -19 4666 
z
" transform="scale(0.015625)"/>
     </defs>
     <use xlink:href="#DejaVuSans-69"/>
     <use xlink:href="#DejaVuSans-6e" x="27.783203"/>
     <use xlink:href="#DejaVuSans-76" x="91.162109"/>
     <use xlink:href="#DejaVuSans-65" x="150.341797"/>
     <use xlink:href="#DejaVuSans-72" x="211.865234"/>
     <use xlink:href="#DejaVuSans-74" x="252.978516"/>
     <use xlink:href="#DejaVuSans-65" x="292.1875"/>
     <use xlink:href="#DejaVuSans-64" x="353.710938"/>
     <use xlink:href="#DejaVuSans-20" x="417.1875"/>
     <use xlink:href="#DejaVuSans-3d" x="448.974609"/>
     <use xlink:href="#DejaVuSans-20" x="532.763672"/>
     <use xlink:href="#DejaVuSans-54" x="564.550781"/>
     <use xlink:href="#DejaVuSans-72" x="610.884766"/>
     <use xlink:href="#DejaVuSans-75" x="651.998047"/>
     <use xlink:href="#DejaVuSans-65" x="715.376953"/>
     <use xlink:href="#DejaVuSans-20" x="776.900391"/>
     <use xlink:href="#DejaVuSans-7c" x="808.6875"/>
     <use xlink:href="#DejaVuSans-20" x="842.378906"/>
     <use xlink:href="#DejaVuSans-76" x="874.166016"/>
     <use xlink:href="#DejaVuSans-61" x="933.345703"/>
     <use xlink:href="#DejaVuSans-72" x="994.625"/>
     <use xlink:href="#DejaVuSans-69" x="1035.738281"/>
     <use xlink:href="#DejaVuSans-61" x="1063.521484"/>
     <use xlink:href="#DejaVuSans-62" x="1124.800781"/>
     <use xlink:href="#DejaVuSans-6c" x="1188.277344"/>
     <use xlink:href="#DejaVuSans-65" x="1216.060547"/>
     <use xlink:href="#DejaVuSans-20" x="1277.583984"/>
     <use xlink:href="#DejaVuSans-3d" x="1309.371094"/>
     <use xlink:href="#DejaVuSans-20" x="1393.160156"/>
     <use xlink:href="#DejaVuSans-65" x="1424.947266"/>
     <use xlink:href="#DejaVuSans-78" x="1484.720703"/>
     <use xlink:href="#DejaVuSans-70" x="1543.900391"/>
     <use xlink:href="#DejaVuSans-65" x="1607.376953"/>
     <use xlink:href="#DejaVuSans-63" x="1668.900391"/>
     <use xlink:href="#DejaVuSans-74" x="1723.880859"/>
     <use xlink:href="#DejaVuSans-61" x="1763.089844"/>
     <use xlink:href="#DejaVuSans-74" x="1824.369141"/>
     <use xlink:href="#DejaVuSans-69" x="1863.578125"/>
     <use xlink:href="#DejaVuSans-6f" x="1891.361328"/>
     <use xlink:href="#DejaVuSans-6e" x="1952.542969"/>
    </g>
   </g>
  </g>
  <g id="axes_4">
   <g id="patch_11">
    <path d="M 309.778705 282.050187 
L 507.834321 282.050187 
L 507.834321 165.556187 
L 309.778705 165.556187 
z
" style="fill: #ffffff"/>
   </g>
   <g id="PolyCollection_13">
    <path d="M 318.781233 6415.393066 
L 318.781233 6415.393066 
L 327.814669 174.614356 
L 327.814669 174.614356 
L 327.814669 174.614356 
L 318.781233 6415.393066 
z
" clip-path="url(#p051986b3fd)" style="fill: #1f77b4; fill-opacity: 0.2; stroke: #1f77b4; stroke-opacity: 0.2"/>
   </g>
   <g id="PolyCollection_14">
    <path d="M 318.781233 6415.393066 
L 318.781233 6415.393066 
L 327.814669 174.517645 
L 327.814669 174.417737 
L 327.814669 174.417737 
L 318.781233 6415.393066 
z
" clip-path="url(#p051986b3fd)" style="fill: #ff7f0e; fill-opacity: 0.2; stroke: #ff7f0e; stroke-opacity: 0.2"/>
   </g>
   <g id="PolyCollection_15">
    <path d="M 318.781233 6415.393066 
L 318.781233 6415.393066 
L 327.814669 174.750388 
L 327.814669 174.55723 
L 327.814669 174.55723 
L 318.781233 6415.393066 
z
" clip-path="url(#p051986b3fd)" style="fill: #2ca02c; fill-opacity: 0.2; stroke: #2ca02c; stroke-opacity: 0.2"/>
   </g>
   <g id="PolyCollection_16">
    <path d="M 318.781233 6415.393066 
L 318.781233 6415.393066 
L 327.814669 170.851369 
L 327.814669 170.851369 
L 327.814669 170.851369 
L 318.781233 6415.393066 
z
" clip-path="url(#p051986b3fd)" style="fill: #d62728; fill-opacity: 0.2; stroke: #d62728; stroke-opacity: 0.2"/>
   </g>
   <g id="PolyCollection_17">
    <defs>
     <path id="mf6d95ba57c" d="M 318.781233 6027.910879 
L 318.781233 6027.910879 
L 327.814669 6027.910879 
L 327.814669 6027.910879 
L 327.814669 6027.910879 
L 318.781233 6027.910879 
z
" style="stroke: #9467bd; stroke-opacity: 0.2"/>
    </defs>
    <g clip-path="url(#p051986b3fd)">
     <use xlink:href="#mf6d95ba57c" x="0" y="387.482187" style="fill: #9467bd; fill-opacity: 0.2; stroke: #9467bd; stroke-opacity: 0.2"/>
    </g>
   </g>
   <g id="PolyCollection_18">
    <defs>
     <path id="m71b03d4ded" d="M 318.781233 6027.910879 
L 318.781233 6027.910879 
L 327.814669 6027.910879 
L 327.814669 6027.910879 
L 327.814669 6027.910879 
L 318.781233 6027.910879 
z
" style="stroke: #8c564b; stroke-opacity: 0.2"/>
    </defs>
    <g clip-path="url(#p051986b3fd)">
     <use xlink:href="#m71b03d4ded" x="0" y="387.482187" style="fill: #8c564b; fill-opacity: 0.2; stroke: #8c564b; stroke-opacity: 0.2"/>
    </g>
   </g>
   <g id="matplotlib.axis_7">
    <g id="xtick_10">
     <g id="line2d_38">
      <g>
       <use xlink:href="#meee6422a5d" x="348.78966" y="282.050187" style="stroke: #000000; stroke-width: 0.8"/>
      </g>
     </g>
     <g id="text_21">
      <!-- $\mathdefault{10^{1}}$ -->
      <g transform="translate(339.98966 296.648625)scale(0.1 -0.1)">
       <use xlink:href="#DejaVuSans-31" transform="translate(0 0.684375)"/>
       <use xlink:href="#DejaVuSans-30" transform="translate(63.623047 0.684375)"/>
       <use xlink:href="#DejaVuSans-31" transform="translate(128.203125 38.965625)scale(0.7)"/>
      </g>
     </g>
    </g>
    <g id="xtick_11">
     <g id="line2d_39">
      <g>
       <use xlink:href="#meee6422a5d" x="408.806513" y="282.050187" style="stroke: #000000; stroke-width: 0.8"/>
      </g>
     </g>
     <g id="text_22">
      <!-- $\mathdefault{10^{3}}$ -->
      <g transform="translate(400.006513 296.648625)scale(0.1 -0.1)">
       <use xlink:href="#DejaVuSans-31" transform="translate(0 0.765625)"/>
       <use xlink:href="#DejaVuSans-30" transform="translate(63.623047 0.765625)"/>
       <use xlink:href="#DejaVuSans-33" transform="translate(128.203125 39.046875)scale(0.7)"/>
      </g>
     </g>
    </g>
    <g id="xtick_12">
     <g id="line2d_40">
      <g>
       <use xlink:href="#meee6422a5d" x="468.823366" y="282.050187" style="stroke: #000000; stroke-width: 0.8"/>
      </g>
     </g>
     <g id="text_23">
      <!-- $\mathdefault{10^{5}}$ -->
      <g transform="translate(460.023366 296.648625)scale(0.1 -0.1)">
       <use xlink:href="#DejaVuSans-31" transform="translate(0 0.684375)"/>
       <use xlink:href="#DejaVuSans-30" transform="translate(63.623047 0.684375)"/>
       <use xlink:href="#DejaVuSans-35" transform="translate(128.203125 38.965625)scale(0.7)"/>
      </g>
     </g>
    </g>
    <g id="text_24">
     <!-- Number of Candidates -->
     <g transform="translate(352.555732 310.32675)scale(0.1 -0.1)">
      <use xlink:href="#DejaVuSans-4e"/>
      <use xlink:href="#DejaVuSans-75" x="74.804688"/>
      <use xlink:href="#DejaVuSans-6d" x="138.183594"/>
      <use xlink:href="#DejaVuSans-62" x="235.595703"/>
      <use xlink:href="#DejaVuSans-65" x="299.072266"/>
      <use xlink:href="#DejaVuSans-72" x="360.595703"/>
      <use xlink:href="#DejaVuSans-20" x="401.708984"/>
      <use xlink:href="#DejaVuSans-6f" x="433.496094"/>
      <use xlink:href="#DejaVuSans-66" x="494.677734"/>
      <use xlink:href="#DejaVuSans-20" x="529.882812"/>
      <use xlink:href="#DejaVuSans-43" x="561.669922"/>
      <use xlink:href="#DejaVuSans-61" x="631.494141"/>
      <use xlink:href="#DejaVuSans-6e" x="692.773438"/>
      <use xlink:href="#DejaVuSans-64" x="756.152344"/>
      <use xlink:href="#DejaVuSans-69" x="819.628906"/>
      <use xlink:href="#DejaVuSans-64" x="847.412109"/>
      <use xlink:href="#DejaVuSans-61" x="910.888672"/>
      <use xlink:href="#DejaVuSans-74" x="972.167969"/>
      <use xlink:href="#DejaVuSans-65" x="1011.376953"/>
      <use xlink:href="#DejaVuSans-73" x="1072.900391"/>
     </g>
    </g>
   </g>
   <g id="matplotlib.axis_8">
    <g id="ytick_11">
     <g id="line2d_41">
      <g>
       <use xlink:href="#mde73080c52" x="309.778705" y="258.959681" style="stroke: #000000; stroke-width: 0.8"/>
      </g>
     </g>
     <g id="text_25">
      <!-- $\mathdefault{10^{-15}}$ -->
      <g transform="translate(274.878705 262.7589)scale(0.1 -0.1)">
       <use xlink:href="#DejaVuSans-31" transform="translate(0 0.684375)"/>
       <use xlink:href="#DejaVuSans-30" transform="translate(63.623047 0.684375)"/>
       <use xlink:href="#DejaVuSans-2212" transform="translate(128.203125 38.965625)scale(0.7)"/>
       <use xlink:href="#DejaVuSans-31" transform="translate(186.855469 38.965625)scale(0.7)"/>
       <use xlink:href="#DejaVuSans-35" transform="translate(231.391602 38.965625)scale(0.7)"/>
      </g>
     </g>
    </g>
    <g id="ytick_12">
     <g id="line2d_42">
      <g>
       <use xlink:href="#mde73080c52" x="309.778705" y="233.958937" style="stroke: #000000; stroke-width: 0.8"/>
      </g>
     </g>
     <g id="text_26">
      <!-- $\mathdefault{10^{-11}}$ -->
      <g transform="translate(274.878705 237.758155)scale(0.1 -0.1)">
       <use xlink:href="#DejaVuSans-31" transform="translate(0 0.684375)"/>
       <use xlink:href="#DejaVuSans-30" transform="translate(63.623047 0.684375)"/>
       <use xlink:href="#DejaVuSans-2212" transform="translate(128.203125 38.965625)scale(0.7)"/>
       <use xlink:href="#DejaVuSans-31" transform="translate(186.855469 38.965625)scale(0.7)"/>
       <use xlink:href="#DejaVuSans-31" transform="translate(231.391602 38.965625)scale(0.7)"/>
      </g>
     </g>
    </g>
    <g id="ytick_13">
     <g id="line2d_43">
      <g>
       <use xlink:href="#mde73080c52" x="309.778705" y="208.958192" style="stroke: #000000; stroke-width: 0.8"/>
      </g>
     </g>
     <g id="text_27">
      <!-- $\mathdefault{10^{-7}}$ -->
      <g transform="translate(279.278705 212.757411)scale(0.1 -0.1)">
       <defs>
        <path id="DejaVuSans-37" d="M 525 4666 
L 3525 4666 
L 3525 4397 
L 1831 0 
L 1172 0 
L 2766 4134 
L 525 4134 
L 525 4666 
z
" transform="scale(0.015625)"/>
       </defs>
       <use xlink:href="#DejaVuSans-31" transform="translate(0 0.684375)"/>
       <use xlink:href="#DejaVuSans-30" transform="translate(63.623047 0.684375)"/>
       <use xlink:href="#DejaVuSans-2212" transform="translate(128.203125 38.965625)scale(0.7)"/>
       <use xlink:href="#DejaVuSans-37" transform="translate(186.855469 38.965625)scale(0.7)"/>
      </g>
     </g>
    </g>
    <g id="ytick_14">
     <g id="line2d_44">
      <g>
       <use xlink:href="#mde73080c52" x="309.778705" y="183.957447" style="stroke: #000000; stroke-width: 0.8"/>
      </g>
     </g>
     <g id="text_28">
      <!-- $\mathdefault{10^{-3}}$ -->
      <g transform="translate(279.278705 187.756666)scale(0.1 -0.1)">
       <use xlink:href="#DejaVuSans-31" transform="translate(0 0.765625)"/>
       <use xlink:href="#DejaVuSans-30" transform="translate(63.623047 0.765625)"/>
       <use xlink:href="#DejaVuSans-2212" transform="translate(128.203125 39.046875)scale(0.7)"/>
       <use xlink:href="#DejaVuSans-33" transform="translate(186.855469 39.046875)scale(0.7)"/>
      </g>
     </g>
    </g>
    <g id="text_29">
     <!-- Value -->
     <g transform="translate(268.799017 237.534437)rotate(-90)scale(0.1 -0.1)">
      <use xlink:href="#DejaVuSans-56"/>
      <use xlink:href="#DejaVuSans-61" x="60.658203"/>
      <use xlink:href="#DejaVuSans-6c" x="121.9375"/>
      <use xlink:href="#DejaVuSans-75" x="149.720703"/>
      <use xlink:href="#DejaVuSans-65" x="213.099609"/>
     </g>
    </g>
   </g>
   <g id="line2d_45">
    <path d="M 327.505099 388.482187 
L 327.814669 174.614356 
L 336.848106 175.672875 
L 339.756223 176.293297 
L 345.881543 177.864056 
L 350.031789 179.082767 
L 355.705069 180.898511 
L 360.199201 182.43291 
L 364.738506 184.050271 
L 369.501358 185.805731 
L 374.149722 187.565221 
L 378.798086 189.36125 
L 383.36802 191.155554 
L 388.025559 193.007613 
L 392.628905 194.85666 
L 397.250184 196.727686 
L 401.863706 198.607315 
L 406.487626 200.500506 
L 411.106372 202.398937 
L 415.729586 204.304991 
L 420.345732 206.212654 
L 424.964492 208.124927 
L 429.579241 210.038278 
L 434.198188 211.955491 
L 438.81494 213.87343 
L 443.431596 215.792587 
L 448.048189 217.712679 
L 452.664685 219.633466 
L 457.28158 221.554979 
L 461.898309 223.476848 
L 466.514907 225.398983 
L 471.131634 227.321414 
L 475.748355 229.244025 
L 480.365058 231.166766 
L 484.981722 233.089594 
L 489.598424 235.012514 
L 494.215097 236.93548 
L 498.831793 238.858498 
" clip-path="url(#p051986b3fd)" style="fill: none; stroke: #1f77b4; stroke-width: 1.5; stroke-linecap: square"/>
   </g>
   <g id="line2d_46">
    <path d="M 327.504893 388.482187 
L 327.814669 174.467231 
L 336.848106 177.003611 
L 339.756223 178.761928 
L 345.881543 181.525254 
L 350.031789 184.412682 
L 355.705069 187.713545 
L 360.199201 190.321339 
L 364.738506 193.303726 
L 369.501358 196.065017 
L 374.149722 199.099801 
L 378.798086 202.063952 
L 383.36802 204.913096 
L 388.025559 207.769674 
L 392.628905 210.789817 
L 397.250184 213.425569 
L 401.863706 216.490286 
L 406.487626 219.184748 
L 411.106372 222.229544 
L 415.729586 224.868815 
L 420.345732 228.017817 
L 424.964492 230.912213 
L 429.579241 233.704953 
L 434.198188 236.628789 
L 438.81494 239.300665 
L 443.431596 242.090418 
L 448.048189 245.113332 
L 452.664685 248.224803 
L 457.28158 251.016961 
L 461.898309 253.736922 
L 466.514907 256.612872 
L 471.131634 259.618371 
L 475.748355 262.573822 
L 480.365058 265.275757 
L 484.981722 268.035987 
L 489.598424 271.194918 
L 494.215097 274.226517 
L 498.831793 276.755006 
" clip-path="url(#p051986b3fd)" style="fill: none; stroke: #ff7f0e; stroke-width: 1.5; stroke-linecap: square"/>
   </g>
   <g id="line2d_47">
    <path d="M 327.505152 388.482187 
L 327.814669 174.652091 
L 336.848106 176.594631 
L 339.756223 177.459105 
L 345.881543 179.570399 
L 350.031789 181.828416 
L 355.705069 184.570848 
L 360.199201 187.17693 
L 364.738506 189.509446 
L 369.501358 192.485192 
L 374.149722 195.139359 
L 378.798086 197.867598 
L 383.36802 200.616634 
L 388.025559 203.233621 
L 392.628905 206.140981 
L 397.250184 208.940923 
L 401.863706 211.925897 
L 406.487626 214.837847 
L 411.106372 217.615966 
L 415.729586 220.366129 
L 420.345732 223.165313 
L 424.964492 226.050706 
L 429.579241 229.15126 
L 434.198188 232.023577 
L 438.81494 234.54559 
L 443.431596 237.780212 
L 448.048189 240.433415 
L 452.664685 243.445668 
L 457.28158 246.210523 
L 461.898309 249.171086 
L 466.514907 251.993 
L 471.131634 255.130357 
L 475.748355 257.794941 
L 480.365058 260.673375 
L 484.981722 263.604022 
L 489.598424 266.320721 
L 494.215097 269.599696 
L 498.831793 272.484724 
" clip-path="url(#p051986b3fd)" style="fill: none; stroke: #2ca02c; stroke-width: 1.5; stroke-linecap: square"/>
   </g>
   <g id="line2d_48">
    <path d="M 327.499842 388.482187 
L 327.814669 170.851369 
L 336.848106 173.513753 
L 339.756223 174.54998 
L 345.881543 176.85831 
L 350.031789 178.483397 
L 355.705069 180.752519 
L 360.199201 182.575568 
L 364.738506 184.431979 
L 369.501358 186.390939 
L 374.149722 188.310358 
L 378.798086 190.234914 
L 383.36802 192.130478 
L 388.025559 194.064853 
L 392.628905 195.978437 
L 397.250184 197.900674 
L 401.863706 199.820524 
L 406.487626 201.74529 
L 411.106372 203.668316 
L 415.729586 205.593492 
L 420.345732 207.515927 
L 424.964492 209.439593 
L 429.579241 211.361688 
L 434.198188 213.285601 
L 438.81494 215.20865 
L 443.431596 217.131693 
L 448.048189 219.054733 
L 452.664685 220.977751 
L 457.28158 222.900946 
L 461.898309 224.824081 
L 466.514907 226.747166 
L 471.131634 228.67031 
L 475.748355 230.593454 
L 480.365058 232.516593 
L 484.981722 234.439717 
L 489.598424 236.362857 
L 494.215097 238.285986 
L 498.831793 240.209126 
" clip-path="url(#p051986b3fd)" style="fill: none; stroke: #d62728; stroke-width: 1.5; stroke-linecap: square"/>
   </g>
   <g id="line2d_49">
    <path d="M 349.892049 388.482187 
L 350.031789 178.483397 
L 355.705069 176.746287 
L 360.199201 177.672921 
L 364.738506 179.04621 
L 369.501358 180.704373 
L 374.149722 182.439545 
L 378.798086 184.24344 
L 383.36802 186.059329 
L 388.025559 187.938383 
L 392.628905 189.81443 
L 397.250184 191.710588 
L 401.863706 193.61235 
L 406.487626 195.524485 
L 411.106372 197.438703 
L 415.729586 199.357714 
L 420.345732 201.275842 
L 424.964492 203.196489 
L 429.579241 205.11647 
L 434.198188 207.038899 
L 438.81494 208.960908 
L 443.431596 210.883221 
L 448.048189 212.80575 
L 452.664685 214.728409 
L 457.28158 216.651352 
L 461.898309 218.57431 
L 466.514907 220.497272 
L 471.131634 222.420329 
L 475.748355 224.343412 
L 480.365058 226.266507 
L 484.981722 228.189601 
L 489.598424 230.112721 
L 494.215097 232.035835 
L 498.831793 233.958964 
" clip-path="url(#p051986b3fd)" style="fill: none; stroke: #9467bd; stroke-width: 1.5; stroke-linecap: square"/>
   </g>
   <g id="line2d_50">
    <path d="M 383.217291 388.482187 
L 383.36802 182.917515 
L 388.025559 183.392749 
L 392.628905 184.621415 
L 397.250184 186.148369 
L 401.863706 187.822471 
L 406.487626 189.587046 
L 411.106372 191.403301 
L 415.729586 193.255984 
L 420.345732 195.128791 
L 424.964492 197.018159 
L 429.579241 198.916469 
L 434.198188 200.823804 
L 438.81494 202.735287 
L 443.431596 204.650244 
L 448.048189 206.567626 
L 452.664685 208.486679 
L 457.28158 210.407097 
L 461.898309 212.328284 
L 466.514907 214.250004 
L 471.131634 216.17219 
L 475.748355 218.094662 
L 480.365058 220.017329 
L 484.981722 221.940122 
L 489.598424 223.863031 
L 494.215097 225.785997 
L 498.831793 227.709022 
" clip-path="url(#p051986b3fd)" style="fill: none; stroke: #8c564b; stroke-width: 1.5; stroke-linecap: square"/>
   </g>
   <g id="patch_12">
    <path d="M 309.778705 282.050187 
L 309.778705 165.556187 
" style="fill: none; stroke: #000000; stroke-width: 0.8; stroke-linejoin: miter; stroke-linecap: square"/>
   </g>
   <g id="patch_13">
    <path d="M 309.778705 282.050187 
L 507.834321 282.050187 
" style="fill: none; stroke: #000000; stroke-width: 0.8; stroke-linejoin: miter; stroke-linecap: square"/>
   </g>
   <g id="text_30">
    <!-- inverted = True | variable = variance -->
    <g transform="translate(316.032294 159.556187)scale(0.1 -0.1)">
     <use xlink:href="#DejaVuSans-69"/>
     <use xlink:href="#DejaVuSans-6e" x="27.783203"/>
     <use xlink:href="#DejaVuSans-76" x="91.162109"/>
     <use xlink:href="#DejaVuSans-65" x="150.341797"/>
     <use xlink:href="#DejaVuSans-72" x="211.865234"/>
     <use xlink:href="#DejaVuSans-74" x="252.978516"/>
     <use xlink:href="#DejaVuSans-65" x="292.1875"/>
     <use xlink:href="#DejaVuSans-64" x="353.710938"/>
     <use xlink:href="#DejaVuSans-20" x="417.1875"/>
     <use xlink:href="#DejaVuSans-3d" x="448.974609"/>
     <use xlink:href="#DejaVuSans-20" x="532.763672"/>
     <use xlink:href="#DejaVuSans-54" x="564.550781"/>
     <use xlink:href="#DejaVuSans-72" x="610.884766"/>
     <use xlink:href="#DejaVuSans-75" x="651.998047"/>
     <use xlink:href="#DejaVuSans-65" x="715.376953"/>
     <use xlink:href="#DejaVuSans-20" x="776.900391"/>
     <use xlink:href="#DejaVuSans-7c" x="808.6875"/>
     <use xlink:href="#DejaVuSans-20" x="842.378906"/>
     <use xlink:href="#DejaVuSans-76" x="874.166016"/>
     <use xlink:href="#DejaVuSans-61" x="933.345703"/>
     <use xlink:href="#DejaVuSans-72" x="994.625"/>
     <use xlink:href="#DejaVuSans-69" x="1035.738281"/>
     <use xlink:href="#DejaVuSans-61" x="1063.521484"/>
     <use xlink:href="#DejaVuSans-62" x="1124.800781"/>
     <use xlink:href="#DejaVuSans-6c" x="1188.277344"/>
     <use xlink:href="#DejaVuSans-65" x="1216.060547"/>
     <use xlink:href="#DejaVuSans-20" x="1277.583984"/>
     <use xlink:href="#DejaVuSans-3d" x="1309.371094"/>
     <use xlink:href="#DejaVuSans-20" x="1393.160156"/>
     <use xlink:href="#DejaVuSans-76" x="1424.947266"/>
     <use xlink:href="#DejaVuSans-61" x="1484.126953"/>
     <use xlink:href="#DejaVuSans-72" x="1545.40625"/>
     <use xlink:href="#DejaVuSans-69" x="1586.519531"/>
     <use xlink:href="#DejaVuSans-61" x="1614.302734"/>
     <use xlink:href="#DejaVuSans-6e" x="1675.582031"/>
     <use xlink:href="#DejaVuSans-63" x="1738.960938"/>
     <use xlink:href="#DejaVuSans-65" x="1793.941406"/>
    </g>
   </g>
  </g>
  <g id="legend_1">
   <g id="patch_14">
    <path d="M 63.740602 380.282187 
L 468.66404 380.282187 
Q 470.66404 380.282187 470.66404 378.282187 
L 470.66404 335.247812 
Q 470.66404 333.247812 468.66404 333.247812 
L 63.740602 333.247812 
Q 61.740602 333.247812 61.740602 335.247812 
L 61.740602 378.282187 
Q 61.740602 380.282187 63.740602 380.282187 
z
" style="fill: #ffffff; opacity: 0.8; stroke: #cccccc; stroke-linejoin: miter"/>
   </g>
   <g id="text_31">
    <!-- Metric -->
    <g transform="translate(250.65779 344.84625)scale(0.1 -0.1)">
     <defs>
      <path id="DejaVuSans-4d" d="M 628 4666 
L 1569 4666 
L 2759 1491 
L 3956 4666 
L 4897 4666 
L 4897 0 
L 4281 0 
L 4281 4097 
L 3078 897 
L 2444 897 
L 1241 4097 
L 1241 0 
L 628 0 
L 628 4666 
z
" transform="scale(0.015625)"/>
     </defs>
     <use xlink:href="#DejaVuSans-4d"/>
     <use xlink:href="#DejaVuSans-65" x="86.279297"/>
     <use xlink:href="#DejaVuSans-74" x="147.802734"/>
     <use xlink:href="#DejaVuSans-72" x="187.011719"/>
     <use xlink:href="#DejaVuSans-69" x="228.125"/>
     <use xlink:href="#DejaVuSans-63" x="255.908203"/>
    </g>
   </g>
   <g id="line2d_51">
    <path d="M 65.740602 356.024375 
L 75.740602 356.024375 
L 85.740602 356.024375 
" style="fill: none; stroke: #1f77b4; stroke-width: 1.5; stroke-linecap: square"/>
   </g>
   <g id="text_32">
    <!-- Harmonic Mean Rank -->
    <g transform="translate(93.740602 359.524375)scale(0.1 -0.1)">
     <defs>
      <path id="DejaVuSans-48" d="M 628 4666 
L 1259 4666 
L 1259 2753 
L 3553 2753 
L 3553 4666 
L 4184 4666 
L 4184 0 
L 3553 0 
L 3553 2222 
L 1259 2222 
L 1259 0 
L 628 0 
L 628 4666 
z
" transform="scale(0.015625)"/>
      <path id="DejaVuSans-52" d="M 2841 2188 
Q 3044 2119 3236 1894 
Q 3428 1669 3622 1275 
L 4263 0 
L 3584 0 
L 2988 1197 
Q 2756 1666 2539 1819 
Q 2322 1972 1947 1972 
L 1259 1972 
L 1259 0 
L 628 0 
L 628 4666 
L 2053 4666 
Q 2853 4666 3247 4331 
Q 3641 3997 3641 3322 
Q 3641 2881 3436 2590 
Q 3231 2300 2841 2188 
z
M 1259 4147 
L 1259 2491 
L 2053 2491 
Q 2509 2491 2742 2702 
Q 2975 2913 2975 3322 
Q 2975 3731 2742 3939 
Q 2509 4147 2053 4147 
L 1259 4147 
z
" transform="scale(0.015625)"/>
      <path id="DejaVuSans-6b" d="M 581 4863 
L 1159 4863 
L 1159 1991 
L 2875 3500 
L 3609 3500 
L 1753 1863 
L 3688 0 
L 2938 0 
L 1159 1709 
L 1159 0 
L 581 0 
L 581 4863 
z
" transform="scale(0.015625)"/>
     </defs>
     <use xlink:href="#DejaVuSans-48"/>
     <use xlink:href="#DejaVuSans-61" x="75.195312"/>
     <use xlink:href="#DejaVuSans-72" x="136.474609"/>
     <use xlink:href="#DejaVuSans-6d" x="175.837891"/>
     <use xlink:href="#DejaVuSans-6f" x="273.25"/>
     <use xlink:href="#DejaVuSans-6e" x="334.431641"/>
     <use xlink:href="#DejaVuSans-69" x="397.810547"/>
     <use xlink:href="#DejaVuSans-63" x="425.59375"/>
     <use xlink:href="#DejaVuSans-20" x="480.574219"/>
     <use xlink:href="#DejaVuSans-4d" x="512.361328"/>
     <use xlink:href="#DejaVuSans-65" x="598.640625"/>
     <use xlink:href="#DejaVuSans-61" x="660.164062"/>
     <use xlink:href="#DejaVuSans-6e" x="721.443359"/>
     <use xlink:href="#DejaVuSans-20" x="784.822266"/>
     <use xlink:href="#DejaVuSans-52" x="816.609375"/>
     <use xlink:href="#DejaVuSans-61" x="883.841797"/>
     <use xlink:href="#DejaVuSans-6e" x="945.121094"/>
     <use xlink:href="#DejaVuSans-6b" x="1008.5"/>
    </g>
   </g>
   <g id="line2d_52">
    <path d="M 65.740602 370.7025 
L 75.740602 370.7025 
L 85.740602 370.7025 
" style="fill: none; stroke: #ff7f0e; stroke-width: 1.5; stroke-linecap: square"/>
   </g>
   <g id="text_33">
    <!-- Arithmetic Mean Rank -->
    <g transform="translate(93.740602 374.2025)scale(0.1 -0.1)">
     <defs>
      <path id="DejaVuSans-41" d="M 2188 4044 
L 1331 1722 
L 3047 1722 
L 2188 4044 
z
M 1831 4666 
L 2547 4666 
L 4325 0 
L 3669 0 
L 3244 1197 
L 1141 1197 
L 716 0 
L 50 0 
L 1831 4666 
z
" transform="scale(0.015625)"/>
      <path id="DejaVuSans-68" d="M 3513 2113 
L 3513 0 
L 2938 0 
L 2938 2094 
Q 2938 2591 2744 2837 
Q 2550 3084 2163 3084 
Q 1697 3084 1428 2787 
Q 1159 2491 1159 1978 
L 1159 0 
L 581 0 
L 581 4863 
L 1159 4863 
L 1159 2956 
Q 1366 3272 1645 3428 
Q 1925 3584 2291 3584 
Q 2894 3584 3203 3211 
Q 3513 2838 3513 2113 
z
" transform="scale(0.015625)"/>
     </defs>
     <use xlink:href="#DejaVuSans-41"/>
     <use xlink:href="#DejaVuSans-72" x="68.408203"/>
     <use xlink:href="#DejaVuSans-69" x="109.521484"/>
     <use xlink:href="#DejaVuSans-74" x="137.304688"/>
     <use xlink:href="#DejaVuSans-68" x="176.513672"/>
     <use xlink:href="#DejaVuSans-6d" x="239.892578"/>
     <use xlink:href="#DejaVuSans-65" x="337.304688"/>
     <use xlink:href="#DejaVuSans-74" x="398.828125"/>
     <use xlink:href="#DejaVuSans-69" x="438.037109"/>
     <use xlink:href="#DejaVuSans-63" x="465.820312"/>
     <use xlink:href="#DejaVuSans-20" x="520.800781"/>
     <use xlink:href="#DejaVuSans-4d" x="552.587891"/>
     <use xlink:href="#DejaVuSans-65" x="638.867188"/>
     <use xlink:href="#DejaVuSans-61" x="700.390625"/>
     <use xlink:href="#DejaVuSans-6e" x="761.669922"/>
     <use xlink:href="#DejaVuSans-20" x="825.048828"/>
     <use xlink:href="#DejaVuSans-52" x="856.835938"/>
     <use xlink:href="#DejaVuSans-61" x="924.068359"/>
     <use xlink:href="#DejaVuSans-6e" x="985.347656"/>
     <use xlink:href="#DejaVuSans-6b" x="1048.726562"/>
    </g>
   </g>
   <g id="line2d_53">
    <path d="M 224.40154 356.024375 
L 234.40154 356.024375 
L 244.40154 356.024375 
" style="fill: none; stroke: #2ca02c; stroke-width: 1.5; stroke-linecap: square"/>
   </g>
   <g id="text_34">
    <!-- Geometric Mean Rank -->
    <g transform="translate(252.40154 359.524375)scale(0.1 -0.1)">
     <defs>
      <path id="DejaVuSans-47" d="M 3809 666 
L 3809 1919 
L 2778 1919 
L 2778 2438 
L 4434 2438 
L 4434 434 
Q 4069 175 3628 42 
Q 3188 -91 2688 -91 
Q 1594 -91 976 548 
Q 359 1188 359 2328 
Q 359 3472 976 4111 
Q 1594 4750 2688 4750 
Q 3144 4750 3555 4637 
Q 3966 4525 4313 4306 
L 4313 3634 
Q 3963 3931 3569 4081 
Q 3175 4231 2741 4231 
Q 1884 4231 1454 3753 
Q 1025 3275 1025 2328 
Q 1025 1384 1454 906 
Q 1884 428 2741 428 
Q 3075 428 3337 486 
Q 3600 544 3809 666 
z
" transform="scale(0.015625)"/>
     </defs>
     <use xlink:href="#DejaVuSans-47"/>
     <use xlink:href="#DejaVuSans-65" x="77.490234"/>
     <use xlink:href="#DejaVuSans-6f" x="139.013672"/>
     <use xlink:href="#DejaVuSans-6d" x="200.195312"/>
     <use xlink:href="#DejaVuSans-65" x="297.607422"/>
     <use xlink:href="#DejaVuSans-74" x="359.130859"/>
     <use xlink:href="#DejaVuSans-72" x="398.339844"/>
     <use xlink:href="#DejaVuSans-69" x="439.453125"/>
     <use xlink:href="#DejaVuSans-63" x="467.236328"/>
     <use xlink:href="#DejaVuSans-20" x="522.216797"/>
     <use xlink:href="#DejaVuSans-4d" x="554.003906"/>
     <use xlink:href="#DejaVuSans-65" x="640.283203"/>
     <use xlink:href="#DejaVuSans-61" x="701.806641"/>
     <use xlink:href="#DejaVuSans-6e" x="763.085938"/>
     <use xlink:href="#DejaVuSans-20" x="826.464844"/>
     <use xlink:href="#DejaVuSans-52" x="858.251953"/>
     <use xlink:href="#DejaVuSans-61" x="925.484375"/>
     <use xlink:href="#DejaVuSans-6e" x="986.763672"/>
     <use xlink:href="#DejaVuSans-6b" x="1050.142578"/>
    </g>
   </g>
   <g id="line2d_54">
    <path d="M 224.40154 370.7025 
L 234.40154 370.7025 
L 244.40154 370.7025 
" style="fill: none; stroke: #d62728; stroke-width: 1.5; stroke-linecap: square"/>
   </g>
   <g id="text_35">
    <!-- Hits At 1 -->
    <g transform="translate(252.40154 374.2025)scale(0.1 -0.1)">
     <use xlink:href="#DejaVuSans-48"/>
     <use xlink:href="#DejaVuSans-69" x="75.195312"/>
     <use xlink:href="#DejaVuSans-74" x="102.978516"/>
     <use xlink:href="#DejaVuSans-73" x="142.1875"/>
     <use xlink:href="#DejaVuSans-20" x="194.287109"/>
     <use xlink:href="#DejaVuSans-41" x="226.074219"/>
     <use xlink:href="#DejaVuSans-74" x="292.732422"/>
     <use xlink:href="#DejaVuSans-20" x="331.941406"/>
     <use xlink:href="#DejaVuSans-31" x="363.728516"/>
    </g>
   </g>
   <g id="line2d_55">
    <path d="M 383.206227 356.024375 
L 393.206227 356.024375 
L 403.206227 356.024375 
" style="fill: none; stroke: #9467bd; stroke-width: 1.5; stroke-linecap: square"/>
   </g>
   <g id="text_36">
    <!-- Hits At 10 -->
    <g transform="translate(411.206227 359.524375)scale(0.1 -0.1)">
     <use xlink:href="#DejaVuSans-48"/>
     <use xlink:href="#DejaVuSans-69" x="75.195312"/>
     <use xlink:href="#DejaVuSans-74" x="102.978516"/>
     <use xlink:href="#DejaVuSans-73" x="142.1875"/>
     <use xlink:href="#DejaVuSans-20" x="194.287109"/>
     <use xlink:href="#DejaVuSans-41" x="226.074219"/>
     <use xlink:href="#DejaVuSans-74" x="292.732422"/>
     <use xlink:href="#DejaVuSans-20" x="331.941406"/>
     <use xlink:href="#DejaVuSans-31" x="363.728516"/>
     <use xlink:href="#DejaVuSans-30" x="427.351562"/>
    </g>
   </g>
   <g id="line2d_56">
    <path d="M 383.206227 370.7025 
L 393.206227 370.7025 
L 403.206227 370.7025 
" style="fill: none; stroke: #8c564b; stroke-width: 1.5; stroke-linecap: square"/>
   </g>
   <g id="text_37">
    <!-- Hits At 100 -->
    <g transform="translate(411.206227 374.2025)scale(0.1 -0.1)">
     <use xlink:href="#DejaVuSans-48"/>
     <use xlink:href="#DejaVuSans-69" x="75.195312"/>
     <use xlink:href="#DejaVuSans-74" x="102.978516"/>
     <use xlink:href="#DejaVuSans-73" x="142.1875"/>
     <use xlink:href="#DejaVuSans-20" x="194.287109"/>
     <use xlink:href="#DejaVuSans-41" x="226.074219"/>
     <use xlink:href="#DejaVuSans-74" x="292.732422"/>
     <use xlink:href="#DejaVuSans-20" x="331.941406"/>
     <use xlink:href="#DejaVuSans-31" x="363.728516"/>
     <use xlink:href="#DejaVuSans-30" x="427.351562"/>
     <use xlink:href="#DejaVuSans-30" x="490.974609"/>
    </g>
   </g>
  </g>
 </g>
 <defs>
  <clipPath id="pf0d1e4ebc6">
   <rect x="51.378125" y="20.842187" width="198.055616" height="116.494"/>
  </clipPath>
  <clipPath id="pb29d8a940c">
   <rect x="309.778705" y="20.842187" width="198.055616" height="116.494"/>
  </clipPath>
  <clipPath id="p16e629dcae">
   <rect x="51.378125" y="165.556187" width="198.055616" height="116.494"/>
  </clipPath>
  <clipPath id="p051986b3fd">
   <rect x="309.778705" y="165.556187" width="198.055616" height="116.494"/>
  </clipPath>
 </defs>
</svg>
