<?xml version="1.0" encoding="utf-8" standalone="no"?>
<!DOCTYPE svg PUBLIC "-//W3C//DTD SVG 1.1//EN"
  "http://www.w3.org/Graphics/SVG/1.1/DTD/svg11.dtd">
<svg xmlns:xlink="http://www.w3.org/1999/xlink" width="676.414196pt" height="319.606437pt" viewBox="0 0 676.414196 319.606437" xmlns="http://www.w3.org/2000/svg" version="1.1">
 <metadata>
  <rdf:RDF xmlns:dc="http://purl.org/dc/elements/1.1/" xmlns:cc="http://creativecommons.org/ns#" xmlns:rdf="http://www.w3.org/1999/02/22-rdf-syntax-ns#">
   <cc:Work>
    <dc:type rdf:resource="http://purl.org/dc/dcmitype/StillImage"/>
    <dc:date>2022-04-04T11:53:02.292446</dc:date>
    <dc:format>image/svg+xml</dc:format>
    <dc:creator>
     <cc:Agent>
      <dc:title>Matplotlib v3.5.1, https://matplotlib.org/</dc:title>
     </cc:Agent>
    </dc:creator>
   </cc:Work>
  </rdf:RDF>
 </metadata>
 <defs>
  <style type="text/css">*{stroke-linejoin: round; stroke-linecap: butt}</style>
 </defs>
 <g id="figure_1">
  <g id="patch_1">
   <path d="M 0 319.606437 
L 676.414196 319.606437 
L 676.414196 0 
L 0 0 
z
" style="fill: #ffffff"/>
  </g>
  <g id="axes_1">
   <g id="patch_2">
    <path d="M 37.7 137.336187 
L 249.827966 137.336187 
L 249.827966 20.842187 
L 37.7 20.842187 
z
" style="fill: #ffffff"/>
   </g>
   <g id="PolyCollection_1">
    <defs>
     <path id="m858f7eb46a" d="M 47.34218 -187.565432 
L 47.34218 -187.565432 
L 57.017465 -190.286683 
L 57.017465 -190.384022 
L 57.017465 -190.384022 
L 47.34218 -187.565432 
z
" style="stroke: #1f77b4; stroke-opacity: 0.2"/>
    </defs>
    <g clip-path="url(#p6b80178829)">
     <use xlink:href="#m858f7eb46a" x="0" y="319.606437" style="fill: #1f77b4; fill-opacity: 0.2; stroke: #1f77b4; stroke-opacity: 0.2"/>
    </g>
   </g>
   <g id="PolyCollection_2">
    <defs>
     <path id="m5277b70ebd" d="M 47.34218 -187.565432 
L 47.34218 -187.565432 
L 57.017465 -190.837725 
L 57.017465 -190.837725 
L 57.017465 -190.837725 
L 47.34218 -187.565432 
z
" style="stroke: #ff7f0e; stroke-opacity: 0.2"/>
    </defs>
    <g clip-path="url(#p6b80178829)">
     <use xlink:href="#m5277b70ebd" x="0" y="319.606437" style="fill: #ff7f0e; fill-opacity: 0.2; stroke: #ff7f0e; stroke-opacity: 0.2"/>
    </g>
   </g>
   <g id="PolyCollection_3">
    <defs>
     <path id="ma935b6b243" d="M 47.34218 -187.565432 
L 47.34218 -187.565432 
L 57.017465 -190.603583 
L 57.017465 -190.603583 
L 57.017465 -190.603583 
L 47.34218 -187.565432 
z
" style="stroke: #2ca02c; stroke-opacity: 0.2"/>
    </defs>
    <g clip-path="url(#p6b80178829)">
     <use xlink:href="#ma935b6b243" x="0" y="319.606437" style="fill: #2ca02c; fill-opacity: 0.2; stroke: #2ca02c; stroke-opacity: 0.2"/>
    </g>
   </g>
   <g id="matplotlib.axis_1">
    <g id="xtick_1">
     <g id="line2d_1">
      <defs>
       <path id="m3d6d8d6d64" d="M 0 0 
L 0 3.5 
" style="stroke: #000000; stroke-width: 0.8"/>
      </defs>
      <g>
       <use xlink:href="#m3d6d8d6d64" x="79.482781" y="137.336187" style="stroke: #000000; stroke-width: 0.8"/>
      </g>
     </g>
    </g>
    <g id="xtick_2">
     <g id="line2d_2">
      <g>
       <use xlink:href="#m3d6d8d6d64" x="143.763983" y="137.336187" style="stroke: #000000; stroke-width: 0.8"/>
      </g>
     </g>
    </g>
    <g id="xtick_3">
     <g id="line2d_3">
      <g>
       <use xlink:href="#m3d6d8d6d64" x="208.045185" y="137.336187" style="stroke: #000000; stroke-width: 0.8"/>
      </g>
     </g>
    </g>
   </g>
   <g id="matplotlib.axis_2">
    <g id="ytick_1">
     <g id="line2d_4">
      <defs>
       <path id="ma87778d236" d="M 0 0 
L -3.5 0 
" style="stroke: #000000; stroke-width: 0.8"/>
      </defs>
      <g>
       <use xlink:href="#ma87778d236" x="37.7" y="113.458064" style="stroke: #000000; stroke-width: 0.8"/>
      </g>
     </g>
     <g id="text_1">
      <!-- $\mathdefault{10^{1}}$ -->
      <g transform="translate(13.1 117.257283)scale(0.1 -0.1)">
       <defs>
        <path id="DejaVuSans-31" d="M 794 531 
L 1825 531 
L 1825 4091 
L 703 3866 
L 703 4441 
L 1819 4666 
L 2450 4666 
L 2450 531 
L 3481 531 
L 3481 0 
L 794 0 
L 794 531 
z
" transform="scale(0.015625)"/>
        <path id="DejaVuSans-30" d="M 2034 4250 
Q 1547 4250 1301 3770 
Q 1056 3291 1056 2328 
Q 1056 1369 1301 889 
Q 1547 409 2034 409 
Q 2525 409 2770 889 
Q 3016 1369 3016 2328 
Q 3016 3291 2770 3770 
Q 2525 4250 2034 4250 
z
M 2034 4750 
Q 2819 4750 3233 4129 
Q 3647 3509 3647 2328 
Q 3647 1150 3233 529 
Q 2819 -91 2034 -91 
Q 1250 -91 836 529 
Q 422 1150 422 2328 
Q 422 3509 836 4129 
Q 1250 4750 2034 4750 
z
" transform="scale(0.015625)"/>
       </defs>
       <use xlink:href="#DejaVuSans-31" transform="translate(0 0.684375)"/>
       <use xlink:href="#DejaVuSans-30" transform="translate(63.623047 0.684375)"/>
       <use xlink:href="#DejaVuSans-31" transform="translate(128.203125 38.965625)scale(0.7)"/>
      </g>
     </g>
    </g>
    <g id="ytick_2">
     <g id="line2d_5">
      <g>
       <use xlink:href="#ma87778d236" x="37.7" y="76.29218" style="stroke: #000000; stroke-width: 0.8"/>
      </g>
     </g>
     <g id="text_2">
      <!-- $\mathdefault{10^{3}}$ -->
      <g transform="translate(13.1 80.091399)scale(0.1 -0.1)">
       <defs>
        <path id="DejaVuSans-33" d="M 2597 2516 
Q 3050 2419 3304 2112 
Q 3559 1806 3559 1356 
Q 3559 666 3084 287 
Q 2609 -91 1734 -91 
Q 1441 -91 1130 -33 
Q 819 25 488 141 
L 488 750 
Q 750 597 1062 519 
Q 1375 441 1716 441 
Q 2309 441 2620 675 
Q 2931 909 2931 1356 
Q 2931 1769 2642 2001 
Q 2353 2234 1838 2234 
L 1294 2234 
L 1294 2753 
L 1863 2753 
Q 2328 2753 2575 2939 
Q 2822 3125 2822 3475 
Q 2822 3834 2567 4026 
Q 2313 4219 1838 4219 
Q 1578 4219 1281 4162 
Q 984 4106 628 3988 
L 628 4550 
Q 988 4650 1302 4700 
Q 1616 4750 1894 4750 
Q 2613 4750 3031 4423 
Q 3450 4097 3450 3541 
Q 3450 3153 3228 2886 
Q 3006 2619 2597 2516 
z
" transform="scale(0.015625)"/>
       </defs>
       <use xlink:href="#DejaVuSans-31" transform="translate(0 0.765625)"/>
       <use xlink:href="#DejaVuSans-30" transform="translate(63.623047 0.765625)"/>
       <use xlink:href="#DejaVuSans-33" transform="translate(128.203125 39.046875)scale(0.7)"/>
      </g>
     </g>
    </g>
    <g id="ytick_3">
     <g id="line2d_6">
      <g>
       <use xlink:href="#ma87778d236" x="37.7" y="39.126296" style="stroke: #000000; stroke-width: 0.8"/>
      </g>
     </g>
     <g id="text_3">
      <!-- $\mathdefault{10^{5}}$ -->
      <g transform="translate(13.1 42.925515)scale(0.1 -0.1)">
       <defs>
        <path id="DejaVuSans-35" d="M 691 4666 
L 3169 4666 
L 3169 4134 
L 1269 4134 
L 1269 2991 
Q 1406 3038 1543 3061 
Q 1681 3084 1819 3084 
Q 2600 3084 3056 2656 
Q 3513 2228 3513 1497 
Q 3513 744 3044 326 
Q 2575 -91 1722 -91 
Q 1428 -91 1123 -41 
Q 819 9 494 109 
L 494 744 
Q 775 591 1075 516 
Q 1375 441 1709 441 
Q 2250 441 2565 725 
Q 2881 1009 2881 1497 
Q 2881 1984 2565 2268 
Q 2250 2553 1709 2553 
Q 1456 2553 1204 2497 
Q 953 2441 691 2322 
L 691 4666 
z
" transform="scale(0.015625)"/>
       </defs>
       <use xlink:href="#DejaVuSans-31" transform="translate(0 0.684375)"/>
       <use xlink:href="#DejaVuSans-30" transform="translate(63.623047 0.684375)"/>
       <use xlink:href="#DejaVuSans-35" transform="translate(128.203125 38.965625)scale(0.7)"/>
      </g>
     </g>
    </g>
   </g>
   <g id="line2d_7">
    <path d="M 47.34218 132.041006 
L 57.017465 129.270938 
L 66.69275 126.106152 
L 69.807496 125.133242 
L 76.368035 122.782957 
L 80.813167 121.036135 
L 86.889548 118.576395 
L 91.702999 116.590218 
L 96.564833 114.510668 
L 101.666098 112.258793 
L 106.64474 110.07298 
L 111.623382 107.765945 
L 116.518021 105.512292 
L 121.50649 103.118229 
L 126.436916 100.80736 
L 131.386548 98.486806 
L 136.327873 95.951127 
L 141.280333 93.508361 
L 146.227253 91.120165 
L 151.178958 88.656483 
L 156.123092 86.090179 
L 161.070027 83.600941 
L 166.012666 81.010545 
L 170.9598 78.543782 
L 175.904584 75.995006 
L 180.849266 73.452156 
L 185.793879 70.877404 
L 190.738389 68.269956 
L 195.683326 65.666493 
L 200.628085 63.046377 
L 205.572704 60.468981 
L 210.517461 57.856104 
L 215.462212 55.192332 
L 220.406943 52.582523 
L 225.351633 49.887863 
L 230.296363 47.317196 
L 235.241062 44.657937 
L 240.185786 42.011962 
" clip-path="url(#p6b80178829)" style="fill: none; stroke: #1f77b4; stroke-width: 1.5; stroke-linecap: square"/>
   </g>
   <g id="line2d_8">
    <path d="M 47.34218 132.041006 
L 57.017465 128.768712 
L 66.69275 124.64611 
L 69.807496 123.174689 
L 76.368035 119.902396 
L 80.813167 117.580666 
L 86.889548 114.308373 
L 91.702999 111.657191 
L 96.564833 108.941702 
L 101.666098 106.063168 
L 106.64474 103.233202 
L 111.623382 100.388841 
L 116.518021 97.582544 
L 121.50649 94.715305 
L 126.436916 91.87643 
L 131.386548 89.022981 
L 136.327873 86.171851 
L 141.280333 83.312555 
L 146.227253 80.455236 
L 151.178958 77.594295 
L 156.123092 74.737127 
L 161.070027 71.877919 
L 166.012666 69.020897 
L 170.9598 66.161069 
L 175.904584 63.302454 
L 180.849266 60.443796 
L 185.793879 57.585106 
L 190.738389 54.726424 
L 195.683326 51.867461 
L 200.628085 49.008575 
L 205.572704 46.149754 
L 210.517461 43.290839 
L 215.462212 40.431921 
L 220.406943 37.573007 
L 225.351633 34.714113 
L 230.296363 31.855194 
L 235.241062 28.99629 
L 240.185786 26.137369 
" clip-path="url(#p6b80178829)" style="fill: none; stroke: #ff7f0e; stroke-width: 1.5; stroke-linecap: square"/>
   </g>
   <g id="line2d_9">
    <path d="M 47.34218 132.041006 
L 57.017465 129.002855 
L 66.69275 125.361516 
L 69.807496 124.058823 
L 76.368035 121.129411 
L 80.813167 119.018427 
L 86.889548 115.995831 
L 91.702999 113.508906 
L 96.564833 110.930408 
L 101.666098 108.167463 
L 106.64474 105.426388 
L 111.623382 102.651286 
L 116.518021 99.897544 
L 121.50649 97.071254 
L 126.436916 94.263042 
L 131.386548 91.43279 
L 136.327873 88.599009 
L 141.280333 85.752677 
L 146.227253 82.904973 
L 151.178958 80.051153 
L 156.123092 77.19923 
L 161.070027 74.343884 
L 166.012666 71.489695 
L 170.9598 68.631945 
L 175.904584 65.774848 
L 180.849266 62.917298 
L 185.793879 60.059415 
L 190.738389 57.201322 
L 195.683326 54.342785 
L 200.628085 51.48421 
L 205.572704 48.625613 
L 210.517461 45.766862 
L 215.462212 42.908062 
L 220.406943 40.049233 
L 225.351633 37.190401 
L 230.296363 34.331526 
L 235.241062 31.472654 
L 240.185786 28.613756 
" clip-path="url(#p6b80178829)" style="fill: none; stroke: #2ca02c; stroke-width: 1.5; stroke-linecap: square"/>
   </g>
   <g id="line2d_10"/>
   <g id="line2d_11"/>
   <g id="line2d_12"/>
   <g id="line2d_13"/>
   <g id="line2d_14"/>
   <g id="line2d_15"/>
   <g id="patch_3">
    <path d="M 37.7 137.336187 
L 37.7 20.842187 
" style="fill: none; stroke: #000000; stroke-width: 0.8; stroke-linejoin: miter; stroke-linecap: square"/>
   </g>
   <g id="patch_4">
    <path d="M 37.7 137.336187 
L 249.827966 137.336187 
" style="fill: none; stroke: #000000; stroke-width: 0.8; stroke-linejoin: miter; stroke-linecap: square"/>
   </g>
   <g id="text_4">
    <!-- inverted = False | variable = expectation -->
    <g transform="translate(41.029608 14.842187)scale(0.1 -0.1)">
     <defs>
      <path id="DejaVuSans-69" d="M 603 3500 
L 1178 3500 
L 1178 0 
L 603 0 
L 603 3500 
z
M 603 4863 
L 1178 4863 
L 1178 4134 
L 603 4134 
L 603 4863 
z
" transform="scale(0.015625)"/>
      <path id="DejaVuSans-6e" d="M 3513 2113 
L 3513 0 
L 2938 0 
L 2938 2094 
Q 2938 2591 2744 2837 
Q 2550 3084 2163 3084 
Q 1697 3084 1428 2787 
Q 1159 2491 1159 1978 
L 1159 0 
L 581 0 
L 581 3500 
L 1159 3500 
L 1159 2956 
Q 1366 3272 1645 3428 
Q 1925 3584 2291 3584 
Q 2894 3584 3203 3211 
Q 3513 2838 3513 2113 
z
" transform="scale(0.015625)"/>
      <path id="DejaVuSans-76" d="M 191 3500 
L 800 3500 
L 1894 563 
L 2988 3500 
L 3597 3500 
L 2284 0 
L 1503 0 
L 191 3500 
z
" transform="scale(0.015625)"/>
      <path id="DejaVuSans-65" d="M 3597 1894 
L 3597 1613 
L 953 1613 
Q 991 1019 1311 708 
Q 1631 397 2203 397 
Q 2534 397 2845 478 
Q 3156 559 3463 722 
L 3463 178 
Q 3153 47 2828 -22 
Q 2503 -91 2169 -91 
Q 1331 -91 842 396 
Q 353 884 353 1716 
Q 353 2575 817 3079 
Q 1281 3584 2069 3584 
Q 2775 3584 3186 3129 
Q 3597 2675 3597 1894 
z
M 3022 2063 
Q 3016 2534 2758 2815 
Q 2500 3097 2075 3097 
Q 1594 3097 1305 2825 
Q 1016 2553 972 2059 
L 3022 2063 
z
" transform="scale(0.015625)"/>
      <path id="DejaVuSans-72" d="M 2631 2963 
Q 2534 3019 2420 3045 
Q 2306 3072 2169 3072 
Q 1681 3072 1420 2755 
Q 1159 2438 1159 1844 
L 1159 0 
L 581 0 
L 581 3500 
L 1159 3500 
L 1159 2956 
Q 1341 3275 1631 3429 
Q 1922 3584 2338 3584 
Q 2397 3584 2469 3576 
Q 2541 3569 2628 3553 
L 2631 2963 
z
" transform="scale(0.015625)"/>
      <path id="DejaVuSans-74" d="M 1172 4494 
L 1172 3500 
L 2356 3500 
L 2356 3053 
L 1172 3053 
L 1172 1153 
Q 1172 725 1289 603 
Q 1406 481 1766 481 
L 2356 481 
L 2356 0 
L 1766 0 
Q 1100 0 847 248 
Q 594 497 594 1153 
L 594 3053 
L 172 3053 
L 172 3500 
L 594 3500 
L 594 4494 
L 1172 4494 
z
" transform="scale(0.015625)"/>
      <path id="DejaVuSans-64" d="M 2906 2969 
L 2906 4863 
L 3481 4863 
L 3481 0 
L 2906 0 
L 2906 525 
Q 2725 213 2448 61 
Q 2172 -91 1784 -91 
Q 1150 -91 751 415 
Q 353 922 353 1747 
Q 353 2572 751 3078 
Q 1150 3584 1784 3584 
Q 2172 3584 2448 3432 
Q 2725 3281 2906 2969 
z
M 947 1747 
Q 947 1113 1208 752 
Q 1469 391 1925 391 
Q 2381 391 2643 752 
Q 2906 1113 2906 1747 
Q 2906 2381 2643 2742 
Q 2381 3103 1925 3103 
Q 1469 3103 1208 2742 
Q 947 2381 947 1747 
z
" transform="scale(0.015625)"/>
      <path id="DejaVuSans-20" transform="scale(0.015625)"/>
      <path id="DejaVuSans-3d" d="M 678 2906 
L 4684 2906 
L 4684 2381 
L 678 2381 
L 678 2906 
z
M 678 1631 
L 4684 1631 
L 4684 1100 
L 678 1100 
L 678 1631 
z
" transform="scale(0.015625)"/>
      <path id="DejaVuSans-46" d="M 628 4666 
L 3309 4666 
L 3309 4134 
L 1259 4134 
L 1259 2759 
L 3109 2759 
L 3109 2228 
L 1259 2228 
L 1259 0 
L 628 0 
L 628 4666 
z
" transform="scale(0.015625)"/>
      <path id="DejaVuSans-61" d="M 2194 1759 
Q 1497 1759 1228 1600 
Q 959 1441 959 1056 
Q 959 750 1161 570 
Q 1363 391 1709 391 
Q 2188 391 2477 730 
Q 2766 1069 2766 1631 
L 2766 1759 
L 2194 1759 
z
M 3341 1997 
L 3341 0 
L 2766 0 
L 2766 531 
Q 2569 213 2275 61 
Q 1981 -91 1556 -91 
Q 1019 -91 701 211 
Q 384 513 384 1019 
Q 384 1609 779 1909 
Q 1175 2209 1959 2209 
L 2766 2209 
L 2766 2266 
Q 2766 2663 2505 2880 
Q 2244 3097 1772 3097 
Q 1472 3097 1187 3025 
Q 903 2953 641 2809 
L 641 3341 
Q 956 3463 1253 3523 
Q 1550 3584 1831 3584 
Q 2591 3584 2966 3190 
Q 3341 2797 3341 1997 
z
" transform="scale(0.015625)"/>
      <path id="DejaVuSans-6c" d="M 603 4863 
L 1178 4863 
L 1178 0 
L 603 0 
L 603 4863 
z
" transform="scale(0.015625)"/>
      <path id="DejaVuSans-73" d="M 2834 3397 
L 2834 2853 
Q 2591 2978 2328 3040 
Q 2066 3103 1784 3103 
Q 1356 3103 1142 2972 
Q 928 2841 928 2578 
Q 928 2378 1081 2264 
Q 1234 2150 1697 2047 
L 1894 2003 
Q 2506 1872 2764 1633 
Q 3022 1394 3022 966 
Q 3022 478 2636 193 
Q 2250 -91 1575 -91 
Q 1294 -91 989 -36 
Q 684 19 347 128 
L 347 722 
Q 666 556 975 473 
Q 1284 391 1588 391 
Q 1994 391 2212 530 
Q 2431 669 2431 922 
Q 2431 1156 2273 1281 
Q 2116 1406 1581 1522 
L 1381 1569 
Q 847 1681 609 1914 
Q 372 2147 372 2553 
Q 372 3047 722 3315 
Q 1072 3584 1716 3584 
Q 2034 3584 2315 3537 
Q 2597 3491 2834 3397 
z
" transform="scale(0.015625)"/>
      <path id="DejaVuSans-7c" d="M 1344 4891 
L 1344 -1509 
L 813 -1509 
L 813 4891 
L 1344 4891 
z
" transform="scale(0.015625)"/>
      <path id="DejaVuSans-62" d="M 3116 1747 
Q 3116 2381 2855 2742 
Q 2594 3103 2138 3103 
Q 1681 3103 1420 2742 
Q 1159 2381 1159 1747 
Q 1159 1113 1420 752 
Q 1681 391 2138 391 
Q 2594 391 2855 752 
Q 3116 1113 3116 1747 
z
M 1159 2969 
Q 1341 3281 1617 3432 
Q 1894 3584 2278 3584 
Q 2916 3584 3314 3078 
Q 3713 2572 3713 1747 
Q 3713 922 3314 415 
Q 2916 -91 2278 -91 
Q 1894 -91 1617 61 
Q 1341 213 1159 525 
L 1159 0 
L 581 0 
L 581 4863 
L 1159 4863 
L 1159 2969 
z
" transform="scale(0.015625)"/>
      <path id="DejaVuSans-78" d="M 3513 3500 
L 2247 1797 
L 3578 0 
L 2900 0 
L 1881 1375 
L 863 0 
L 184 0 
L 1544 1831 
L 300 3500 
L 978 3500 
L 1906 2253 
L 2834 3500 
L 3513 3500 
z
" transform="scale(0.015625)"/>
      <path id="DejaVuSans-70" d="M 1159 525 
L 1159 -1331 
L 581 -1331 
L 581 3500 
L 1159 3500 
L 1159 2969 
Q 1341 3281 1617 3432 
Q 1894 3584 2278 3584 
Q 2916 3584 3314 3078 
Q 3713 2572 3713 1747 
Q 3713 922 3314 415 
Q 2916 -91 2278 -91 
Q 1894 -91 1617 61 
Q 1341 213 1159 525 
z
M 3116 1747 
Q 3116 2381 2855 2742 
Q 2594 3103 2138 3103 
Q 1681 3103 1420 2742 
Q 1159 2381 1159 1747 
Q 1159 1113 1420 752 
Q 1681 391 2138 391 
Q 2594 391 2855 752 
Q 3116 1113 3116 1747 
z
" transform="scale(0.015625)"/>
      <path id="DejaVuSans-63" d="M 3122 3366 
L 3122 2828 
Q 2878 2963 2633 3030 
Q 2388 3097 2138 3097 
Q 1578 3097 1268 2742 
Q 959 2388 959 1747 
Q 959 1106 1268 751 
Q 1578 397 2138 397 
Q 2388 397 2633 464 
Q 2878 531 3122 666 
L 3122 134 
Q 2881 22 2623 -34 
Q 2366 -91 2075 -91 
Q 1284 -91 818 406 
Q 353 903 353 1747 
Q 353 2603 823 3093 
Q 1294 3584 2113 3584 
Q 2378 3584 2631 3529 
Q 2884 3475 3122 3366 
z
" transform="scale(0.015625)"/>
      <path id="DejaVuSans-6f" d="M 1959 3097 
Q 1497 3097 1228 2736 
Q 959 2375 959 1747 
Q 959 1119 1226 758 
Q 1494 397 1959 397 
Q 2419 397 2687 759 
Q 2956 1122 2956 1747 
Q 2956 2369 2687 2733 
Q 2419 3097 1959 3097 
z
M 1959 3584 
Q 2709 3584 3137 3096 
Q 3566 2609 3566 1747 
Q 3566 888 3137 398 
Q 2709 -91 1959 -91 
Q 1206 -91 779 398 
Q 353 888 353 1747 
Q 353 2609 779 3096 
Q 1206 3584 1959 3584 
z
" transform="scale(0.015625)"/>
     </defs>
     <use xlink:href="#DejaVuSans-69"/>
     <use xlink:href="#DejaVuSans-6e" x="27.783203"/>
     <use xlink:href="#DejaVuSans-76" x="91.162109"/>
     <use xlink:href="#DejaVuSans-65" x="150.341797"/>
     <use xlink:href="#DejaVuSans-72" x="211.865234"/>
     <use xlink:href="#DejaVuSans-74" x="252.978516"/>
     <use xlink:href="#DejaVuSans-65" x="292.1875"/>
     <use xlink:href="#DejaVuSans-64" x="353.710938"/>
     <use xlink:href="#DejaVuSans-20" x="417.1875"/>
     <use xlink:href="#DejaVuSans-3d" x="448.974609"/>
     <use xlink:href="#DejaVuSans-20" x="532.763672"/>
     <use xlink:href="#DejaVuSans-46" x="564.550781"/>
     <use xlink:href="#DejaVuSans-61" x="612.945312"/>
     <use xlink:href="#DejaVuSans-6c" x="674.224609"/>
     <use xlink:href="#DejaVuSans-73" x="702.007812"/>
     <use xlink:href="#DejaVuSans-65" x="754.107422"/>
     <use xlink:href="#DejaVuSans-20" x="815.630859"/>
     <use xlink:href="#DejaVuSans-7c" x="847.417969"/>
     <use xlink:href="#DejaVuSans-20" x="881.109375"/>
     <use xlink:href="#DejaVuSans-76" x="912.896484"/>
     <use xlink:href="#DejaVuSans-61" x="972.076172"/>
     <use xlink:href="#DejaVuSans-72" x="1033.355469"/>
     <use xlink:href="#DejaVuSans-69" x="1074.46875"/>
     <use xlink:href="#DejaVuSans-61" x="1102.251953"/>
     <use xlink:href="#DejaVuSans-62" x="1163.53125"/>
     <use xlink:href="#DejaVuSans-6c" x="1227.007812"/>
     <use xlink:href="#DejaVuSans-65" x="1254.791016"/>
     <use xlink:href="#DejaVuSans-20" x="1316.314453"/>
     <use xlink:href="#DejaVuSans-3d" x="1348.101562"/>
     <use xlink:href="#DejaVuSans-20" x="1431.890625"/>
     <use xlink:href="#DejaVuSans-65" x="1463.677734"/>
     <use xlink:href="#DejaVuSans-78" x="1523.451172"/>
     <use xlink:href="#DejaVuSans-70" x="1582.630859"/>
     <use xlink:href="#DejaVuSans-65" x="1646.107422"/>
     <use xlink:href="#DejaVuSans-63" x="1707.630859"/>
     <use xlink:href="#DejaVuSans-74" x="1762.611328"/>
     <use xlink:href="#DejaVuSans-61" x="1801.820312"/>
     <use xlink:href="#DejaVuSans-74" x="1863.099609"/>
     <use xlink:href="#DejaVuSans-69" x="1902.308594"/>
     <use xlink:href="#DejaVuSans-6f" x="1930.091797"/>
     <use xlink:href="#DejaVuSans-6e" x="1991.273438"/>
    </g>
   </g>
  </g>
  <g id="axes_2">
   <g id="patch_5">
    <path d="M 296.09293 137.336187 
L 508.220896 137.336187 
L 508.220896 20.842187 
L 296.09293 20.842187 
z
" style="fill: #ffffff"/>
   </g>
   <g id="PolyCollection_4">
    <path d="M 305.73511 12596.29555 
L 305.73511 12596.29555 
L 315.410395 131.541836 
L 315.410395 131.359025 
L 315.410395 131.359025 
L 305.73511 12596.29555 
z
" clip-path="url(#p394985a0e8)" style="fill: #1f77b4; fill-opacity: 0.2; stroke: #1f77b4; stroke-opacity: 0.2"/>
   </g>
   <g id="PolyCollection_5">
    <path d="M 305.73511 12596.29555 
L 305.73511 12596.29555 
L 315.410395 131.832032 
L 315.410395 131.832032 
L 315.410395 131.832032 
L 305.73511 12596.29555 
z
" clip-path="url(#p394985a0e8)" style="fill: #ff7f0e; fill-opacity: 0.2; stroke: #ff7f0e; stroke-opacity: 0.2"/>
   </g>
   <g id="PolyCollection_6">
    <path d="M 305.73511 12596.29555 
L 305.73511 12596.29555 
L 315.410395 132.041006 
L 315.410395 131.496722 
L 315.410395 131.496722 
L 305.73511 12596.29555 
z
" clip-path="url(#p394985a0e8)" style="fill: #2ca02c; fill-opacity: 0.2; stroke: #2ca02c; stroke-opacity: 0.2"/>
   </g>
   <g id="matplotlib.axis_3">
    <g id="xtick_4">
     <g id="line2d_16">
      <g>
       <use xlink:href="#m3d6d8d6d64" x="337.875711" y="137.336187" style="stroke: #000000; stroke-width: 0.8"/>
      </g>
     </g>
    </g>
    <g id="xtick_5">
     <g id="line2d_17">
      <g>
       <use xlink:href="#m3d6d8d6d64" x="402.156913" y="137.336187" style="stroke: #000000; stroke-width: 0.8"/>
      </g>
     </g>
    </g>
    <g id="xtick_6">
     <g id="line2d_18">
      <g>
       <use xlink:href="#m3d6d8d6d64" x="466.438115" y="137.336187" style="stroke: #000000; stroke-width: 0.8"/>
      </g>
     </g>
    </g>
   </g>
   <g id="matplotlib.axis_4">
    <g id="ytick_4">
     <g id="line2d_19">
      <g>
       <use xlink:href="#ma87778d236" x="296.09293" y="120.565325" style="stroke: #000000; stroke-width: 0.8"/>
      </g>
     </g>
     <g id="text_5">
      <!-- $\mathdefault{10^{0}}$ -->
      <g transform="translate(271.49293 124.364544)scale(0.1 -0.1)">
       <use xlink:href="#DejaVuSans-31" transform="translate(0 0.765625)"/>
       <use xlink:href="#DejaVuSans-30" transform="translate(63.623047 0.765625)"/>
       <use xlink:href="#DejaVuSans-30" transform="translate(128.203125 39.046875)scale(0.7)"/>
      </g>
     </g>
    </g>
    <g id="ytick_5">
     <g id="line2d_20">
      <g>
       <use xlink:href="#ma87778d236" x="296.09293" y="95.613864" style="stroke: #000000; stroke-width: 0.8"/>
      </g>
     </g>
     <g id="text_6">
      <!-- $\mathdefault{10^{2}}$ -->
      <g transform="translate(271.49293 99.413083)scale(0.1 -0.1)">
       <defs>
        <path id="DejaVuSans-32" d="M 1228 531 
L 3431 531 
L 3431 0 
L 469 0 
L 469 531 
Q 828 903 1448 1529 
Q 2069 2156 2228 2338 
Q 2531 2678 2651 2914 
Q 2772 3150 2772 3378 
Q 2772 3750 2511 3984 
Q 2250 4219 1831 4219 
Q 1534 4219 1204 4116 
Q 875 4013 500 3803 
L 500 4441 
Q 881 4594 1212 4672 
Q 1544 4750 1819 4750 
Q 2544 4750 2975 4387 
Q 3406 4025 3406 3419 
Q 3406 3131 3298 2873 
Q 3191 2616 2906 2266 
Q 2828 2175 2409 1742 
Q 1991 1309 1228 531 
z
" transform="scale(0.015625)"/>
       </defs>
       <use xlink:href="#DejaVuSans-31" transform="translate(0 0.765625)"/>
       <use xlink:href="#DejaVuSans-30" transform="translate(63.623047 0.765625)"/>
       <use xlink:href="#DejaVuSans-32" transform="translate(128.203125 39.046875)scale(0.7)"/>
      </g>
     </g>
    </g>
    <g id="ytick_6">
     <g id="line2d_21">
      <g>
       <use xlink:href="#ma87778d236" x="296.09293" y="70.662404" style="stroke: #000000; stroke-width: 0.8"/>
      </g>
     </g>
     <g id="text_7">
      <!-- $\mathdefault{10^{4}}$ -->
      <g transform="translate(271.49293 74.461623)scale(0.1 -0.1)">
       <defs>
        <path id="DejaVuSans-34" d="M 2419 4116 
L 825 1625 
L 2419 1625 
L 2419 4116 
z
M 2253 4666 
L 3047 4666 
L 3047 1625 
L 3713 1625 
L 3713 1100 
L 3047 1100 
L 3047 0 
L 2419 0 
L 2419 1100 
L 313 1100 
L 313 1709 
L 2253 4666 
z
" transform="scale(0.015625)"/>
       </defs>
       <use xlink:href="#DejaVuSans-31" transform="translate(0 0.684375)"/>
       <use xlink:href="#DejaVuSans-30" transform="translate(63.623047 0.684375)"/>
       <use xlink:href="#DejaVuSans-34" transform="translate(128.203125 38.965625)scale(0.7)"/>
      </g>
     </g>
    </g>
    <g id="ytick_7">
     <g id="line2d_22">
      <g>
       <use xlink:href="#ma87778d236" x="296.09293" y="45.710943" style="stroke: #000000; stroke-width: 0.8"/>
      </g>
     </g>
     <g id="text_8">
      <!-- $\mathdefault{10^{6}}$ -->
      <g transform="translate(271.49293 49.510162)scale(0.1 -0.1)">
       <defs>
        <path id="DejaVuSans-36" d="M 2113 2584 
Q 1688 2584 1439 2293 
Q 1191 2003 1191 1497 
Q 1191 994 1439 701 
Q 1688 409 2113 409 
Q 2538 409 2786 701 
Q 3034 994 3034 1497 
Q 3034 2003 2786 2293 
Q 2538 2584 2113 2584 
z
M 3366 4563 
L 3366 3988 
Q 3128 4100 2886 4159 
Q 2644 4219 2406 4219 
Q 1781 4219 1451 3797 
Q 1122 3375 1075 2522 
Q 1259 2794 1537 2939 
Q 1816 3084 2150 3084 
Q 2853 3084 3261 2657 
Q 3669 2231 3669 1497 
Q 3669 778 3244 343 
Q 2819 -91 2113 -91 
Q 1303 -91 875 529 
Q 447 1150 447 2328 
Q 447 3434 972 4092 
Q 1497 4750 2381 4750 
Q 2619 4750 2861 4703 
Q 3103 4656 3366 4563 
z
" transform="scale(0.015625)"/>
       </defs>
       <use xlink:href="#DejaVuSans-31" transform="translate(0 0.765625)"/>
       <use xlink:href="#DejaVuSans-30" transform="translate(63.623047 0.765625)"/>
       <use xlink:href="#DejaVuSans-36" transform="translate(128.203125 39.046875)scale(0.7)"/>
      </g>
     </g>
    </g>
   </g>
   <g id="line2d_23">
    <path d="M 315.263571 320.606437 
L 315.410395 131.44966 
L 325.08568 126.163588 
L 328.200426 124.519325 
L 334.760965 121.085618 
L 339.206097 119.354057 
L 345.282478 116.106933 
L 350.095929 114.219449 
L 354.957763 111.36617 
L 360.059028 109.321396 
L 365.03767 106.512668 
L 370.016312 103.967457 
L 374.910951 101.535457 
L 379.899419 98.773623 
L 384.829846 96.550445 
L 389.779478 93.535227 
L 394.720803 90.935162 
L 399.673263 88.345057 
L 404.620183 85.074516 
L 409.571888 82.125801 
L 414.516022 79.312577 
L 419.462957 76.753686 
L 424.405596 73.549589 
L 429.35273 70.938023 
L 434.297514 67.52041 
L 439.242196 64.44291 
L 444.186808 61.595986 
L 449.131319 58.128551 
L 454.076256 55.324023 
L 459.021015 52.135983 
L 463.965634 49.006496 
L 468.910391 45.762369 
L 473.855142 42.541472 
L 478.799873 39.484401 
L 483.744563 35.955521 
L 488.689293 33.003055 
L 493.633991 29.557 
L 498.578716 26.137369 
" clip-path="url(#p394985a0e8)" style="fill: none; stroke: #1f77b4; stroke-width: 1.5; stroke-linecap: square"/>
   </g>
   <g id="line2d_24">
    <path d="M 315.263863 320.606437 
L 315.410395 131.832032 
L 325.08568 126.86744 
L 328.200426 125.529917 
L 334.760965 122.847519 
L 339.206097 121.081729 
L 345.282478 118.69693 
L 350.095929 116.81917 
L 354.957763 114.92727 
L 360.059028 112.944726 
L 365.03767 111.011059 
L 370.016312 109.07798 
L 374.910951 107.177799 
L 379.899419 105.241332 
L 384.829846 103.327466 
L 389.779478 101.406179 
L 394.720803 99.488133 
L 399.673263 97.565772 
L 404.620183 95.645567 
L 409.571888 93.723505 
L 414.516022 91.804384 
L 419.462957 89.884176 
L 424.405596 87.965636 
L 429.35273 86.045351 
L 434.297514 84.125978 
L 439.242196 82.206645 
L 444.186808 80.287339 
L 449.131319 78.368072 
L 454.076256 76.44864 
L 459.021015 74.529277 
L 463.965634 72.609969 
L 468.910391 70.690606 
L 473.855142 68.771247 
L 478.799873 66.851894 
L 483.744563 64.932558 
L 488.689293 63.013207 
L 493.633991 61.093867 
L 498.578716 59.174518 
" clip-path="url(#p394985a0e8)" style="fill: none; stroke: #ff7f0e; stroke-width: 1.5; stroke-linecap: square"/>
   </g>
   <g id="line2d_25">
    <path d="M 315.263809 320.606437 
L 315.410395 131.762032 
L 325.08568 126.426018 
L 328.200426 124.593787 
L 334.760965 121.839366 
L 339.206097 119.817597 
L 345.282478 117.438512 
L 350.095929 115.500753 
L 354.957763 113.315847 
L 360.059028 110.911278 
L 365.03767 108.910495 
L 370.016312 106.643841 
L 374.910951 104.749479 
L 379.899419 102.840624 
L 384.829846 101.314308 
L 389.779478 99.1745 
L 394.720803 96.901695 
L 399.673263 95.084304 
L 404.620183 93.088635 
L 409.571888 91.26154 
L 414.516022 89.145623 
L 419.462957 87.154655 
L 424.405596 85.248208 
L 429.35273 83.138622 
L 434.297514 81.589541 
L 439.242196 80.052298 
L 444.186808 78.254871 
L 449.131319 75.668948 
L 454.076256 73.479476 
L 459.021015 72.227432 
L 463.965634 70.189999 
L 468.910391 67.724536 
L 473.855142 65.916222 
L 478.799873 63.974357 
L 483.744563 62.16825 
L 488.689293 60.301891 
L 493.633991 58.948572 
L 498.578716 56.691735 
" clip-path="url(#p394985a0e8)" style="fill: none; stroke: #2ca02c; stroke-width: 1.5; stroke-linecap: square"/>
   </g>
   <g id="patch_6">
    <path d="M 296.09293 137.336187 
L 296.09293 20.842187 
" style="fill: none; stroke: #000000; stroke-width: 0.8; stroke-linejoin: miter; stroke-linecap: square"/>
   </g>
   <g id="patch_7">
    <path d="M 296.09293 137.336187 
L 508.220896 137.336187 
" style="fill: none; stroke: #000000; stroke-width: 0.8; stroke-linejoin: miter; stroke-linecap: square"/>
   </g>
   <g id="text_9">
    <!-- inverted = False | variable = variance -->
    <g transform="translate(307.445975 14.842187)scale(0.1 -0.1)">
     <use xlink:href="#DejaVuSans-69"/>
     <use xlink:href="#DejaVuSans-6e" x="27.783203"/>
     <use xlink:href="#DejaVuSans-76" x="91.162109"/>
     <use xlink:href="#DejaVuSans-65" x="150.341797"/>
     <use xlink:href="#DejaVuSans-72" x="211.865234"/>
     <use xlink:href="#DejaVuSans-74" x="252.978516"/>
     <use xlink:href="#DejaVuSans-65" x="292.1875"/>
     <use xlink:href="#DejaVuSans-64" x="353.710938"/>
     <use xlink:href="#DejaVuSans-20" x="417.1875"/>
     <use xlink:href="#DejaVuSans-3d" x="448.974609"/>
     <use xlink:href="#DejaVuSans-20" x="532.763672"/>
     <use xlink:href="#DejaVuSans-46" x="564.550781"/>
     <use xlink:href="#DejaVuSans-61" x="612.945312"/>
     <use xlink:href="#DejaVuSans-6c" x="674.224609"/>
     <use xlink:href="#DejaVuSans-73" x="702.007812"/>
     <use xlink:href="#DejaVuSans-65" x="754.107422"/>
     <use xlink:href="#DejaVuSans-20" x="815.630859"/>
     <use xlink:href="#DejaVuSans-7c" x="847.417969"/>
     <use xlink:href="#DejaVuSans-20" x="881.109375"/>
     <use xlink:href="#DejaVuSans-76" x="912.896484"/>
     <use xlink:href="#DejaVuSans-61" x="972.076172"/>
     <use xlink:href="#DejaVuSans-72" x="1033.355469"/>
     <use xlink:href="#DejaVuSans-69" x="1074.46875"/>
     <use xlink:href="#DejaVuSans-61" x="1102.251953"/>
     <use xlink:href="#DejaVuSans-62" x="1163.53125"/>
     <use xlink:href="#DejaVuSans-6c" x="1227.007812"/>
     <use xlink:href="#DejaVuSans-65" x="1254.791016"/>
     <use xlink:href="#DejaVuSans-20" x="1316.314453"/>
     <use xlink:href="#DejaVuSans-3d" x="1348.101562"/>
     <use xlink:href="#DejaVuSans-20" x="1431.890625"/>
     <use xlink:href="#DejaVuSans-76" x="1463.677734"/>
     <use xlink:href="#DejaVuSans-61" x="1522.857422"/>
     <use xlink:href="#DejaVuSans-72" x="1584.136719"/>
     <use xlink:href="#DejaVuSans-69" x="1625.25"/>
     <use xlink:href="#DejaVuSans-61" x="1653.033203"/>
     <use xlink:href="#DejaVuSans-6e" x="1714.3125"/>
     <use xlink:href="#DejaVuSans-63" x="1777.691406"/>
     <use xlink:href="#DejaVuSans-65" x="1832.671875"/>
    </g>
   </g>
  </g>
  <g id="axes_3">
   <g id="patch_8">
    <path d="M 37.7 282.050187 
L 249.827966 282.050187 
L 249.827966 165.556187 
L 37.7 165.556187 
z
" style="fill: #ffffff"/>
   </g>
   <g id="PolyCollection_7">
    <defs>
     <path id="m2139d528aa" d="M 47.34218 -148.755068 
L 47.34218 -148.755068 
L 57.017465 -146.549824 
L 57.017465 -146.549824 
L 57.017465 -146.549824 
L 47.34218 -148.755068 
z
" style="stroke: #1f77b4; stroke-opacity: 0.2"/>
    </defs>
    <g clip-path="url(#pc4991bbcf3)">
     <use xlink:href="#m2139d528aa" x="0" y="319.606437" style="fill: #1f77b4; fill-opacity: 0.2; stroke: #1f77b4; stroke-opacity: 0.2"/>
    </g>
   </g>
   <g id="PolyCollection_8">
    <defs>
     <path id="m959b1c584a" d="M 47.34218 -148.755068 
L 47.34218 -148.755068 
L 57.017465 -146.015477 
L 57.017465 -146.210237 
L 57.017465 -146.210237 
L 47.34218 -148.755068 
z
" style="stroke: #ff7f0e; stroke-opacity: 0.2"/>
    </defs>
    <g clip-path="url(#pc4991bbcf3)">
     <use xlink:href="#m959b1c584a" x="0" y="319.606437" style="fill: #ff7f0e; fill-opacity: 0.2; stroke: #ff7f0e; stroke-opacity: 0.2"/>
    </g>
   </g>
   <g id="PolyCollection_9">
    <defs>
     <path id="m589afcd21c" d="M 47.34218 -148.755068 
L 47.34218 -148.755068 
L 57.017465 -146.26548 
L 57.017465 -146.344404 
L 57.017465 -146.344404 
L 47.34218 -148.755068 
z
" style="stroke: #2ca02c; stroke-opacity: 0.2"/>
    </defs>
    <g clip-path="url(#pc4991bbcf3)">
     <use xlink:href="#m589afcd21c" x="0" y="319.606437" style="fill: #2ca02c; fill-opacity: 0.2; stroke: #2ca02c; stroke-opacity: 0.2"/>
    </g>
   </g>
   <g id="PolyCollection_10">
    <defs>
     <path id="ma8b626dd06" d="M 47.34218 -148.755068 
L 47.34218 -148.755068 
L 57.017465 -143.441706 
L 57.017465 -143.441706 
L 57.017465 -143.441706 
L 47.34218 -148.755068 
z
" style="stroke: #d62728; stroke-opacity: 0.2"/>
    </defs>
    <g clip-path="url(#pc4991bbcf3)">
     <use xlink:href="#ma8b626dd06" x="0" y="319.606437" style="fill: #d62728; fill-opacity: 0.2; stroke: #d62728; stroke-opacity: 0.2"/>
    </g>
   </g>
   <g id="PolyCollection_11">
    <defs>
     <path id="mf66319984f" d="M 47.34218 -148.755068 
L 47.34218 -148.755068 
L 57.017465 -148.755068 
L 57.017465 -148.755068 
L 57.017465 -148.755068 
L 47.34218 -148.755068 
z
" style="stroke: #9467bd; stroke-opacity: 0.2"/>
    </defs>
    <g clip-path="url(#pc4991bbcf3)">
     <use xlink:href="#mf66319984f" x="0" y="319.606437" style="fill: #9467bd; fill-opacity: 0.2; stroke: #9467bd; stroke-opacity: 0.2"/>
    </g>
   </g>
   <g id="PolyCollection_12">
    <defs>
     <path id="m8e2a066afd" d="M 47.34218 -148.755068 
L 47.34218 -148.755068 
L 57.017465 -148.755068 
L 57.017465 -148.755068 
L 57.017465 -148.755068 
L 47.34218 -148.755068 
z
" style="stroke: #8c564b; stroke-opacity: 0.2"/>
    </defs>
    <g clip-path="url(#pc4991bbcf3)">
     <use xlink:href="#m8e2a066afd" x="0" y="319.606437" style="fill: #8c564b; fill-opacity: 0.2; stroke: #8c564b; stroke-opacity: 0.2"/>
    </g>
   </g>
   <g id="matplotlib.axis_5">
    <g id="xtick_7">
     <g id="line2d_26">
      <g>
       <use xlink:href="#m3d6d8d6d64" x="79.482781" y="282.050187" style="stroke: #000000; stroke-width: 0.8"/>
      </g>
     </g>
     <g id="text_10">
      <!-- $\mathdefault{10^{1}}$ -->
      <g transform="translate(70.682781 296.648625)scale(0.1 -0.1)">
       <use xlink:href="#DejaVuSans-31" transform="translate(0 0.684375)"/>
       <use xlink:href="#DejaVuSans-30" transform="translate(63.623047 0.684375)"/>
       <use xlink:href="#DejaVuSans-31" transform="translate(128.203125 38.965625)scale(0.7)"/>
      </g>
     </g>
    </g>
    <g id="xtick_8">
     <g id="line2d_27">
      <g>
       <use xlink:href="#m3d6d8d6d64" x="143.763983" y="282.050187" style="stroke: #000000; stroke-width: 0.8"/>
      </g>
     </g>
     <g id="text_11">
      <!-- $\mathdefault{10^{3}}$ -->
      <g transform="translate(134.963983 296.648625)scale(0.1 -0.1)">
       <use xlink:href="#DejaVuSans-31" transform="translate(0 0.765625)"/>
       <use xlink:href="#DejaVuSans-30" transform="translate(63.623047 0.765625)"/>
       <use xlink:href="#DejaVuSans-33" transform="translate(128.203125 39.046875)scale(0.7)"/>
      </g>
     </g>
    </g>
    <g id="xtick_9">
     <g id="line2d_28">
      <g>
       <use xlink:href="#m3d6d8d6d64" x="208.045185" y="282.050187" style="stroke: #000000; stroke-width: 0.8"/>
      </g>
     </g>
     <g id="text_12">
      <!-- $\mathdefault{10^{5}}$ -->
      <g transform="translate(199.245185 296.648625)scale(0.1 -0.1)">
       <use xlink:href="#DejaVuSans-31" transform="translate(0 0.684375)"/>
       <use xlink:href="#DejaVuSans-30" transform="translate(63.623047 0.684375)"/>
       <use xlink:href="#DejaVuSans-35" transform="translate(128.203125 38.965625)scale(0.7)"/>
      </g>
     </g>
    </g>
    <g id="text_13">
     <!-- candidate -->
     <g transform="translate(118.943671 310.32675)scale(0.1 -0.1)">
      <use xlink:href="#DejaVuSans-63"/>
      <use xlink:href="#DejaVuSans-61" x="54.980469"/>
      <use xlink:href="#DejaVuSans-6e" x="116.259766"/>
      <use xlink:href="#DejaVuSans-64" x="179.638672"/>
      <use xlink:href="#DejaVuSans-69" x="243.115234"/>
      <use xlink:href="#DejaVuSans-64" x="270.898438"/>
      <use xlink:href="#DejaVuSans-61" x="334.375"/>
      <use xlink:href="#DejaVuSans-74" x="395.654297"/>
      <use xlink:href="#DejaVuSans-65" x="434.863281"/>
     </g>
    </g>
   </g>
   <g id="matplotlib.axis_6">
    <g id="ytick_8">
     <g id="line2d_29">
      <g>
       <use xlink:href="#ma87778d236" x="37.7" y="259.1044" style="stroke: #000000; stroke-width: 0.8"/>
      </g>
     </g>
     <g id="text_14">
      <!-- $\mathdefault{10^{-5}}$ -->
      <g transform="translate(7.2 262.903618)scale(0.1 -0.1)">
       <defs>
        <path id="DejaVuSans-2212" d="M 678 2272 
L 4684 2272 
L 4684 1741 
L 678 1741 
L 678 2272 
z
" transform="scale(0.015625)"/>
       </defs>
       <use xlink:href="#DejaVuSans-31" transform="translate(0 0.684375)"/>
       <use xlink:href="#DejaVuSans-30" transform="translate(63.623047 0.684375)"/>
       <use xlink:href="#DejaVuSans-2212" transform="translate(128.203125 38.965625)scale(0.7)"/>
       <use xlink:href="#DejaVuSans-35" transform="translate(186.855469 38.965625)scale(0.7)"/>
      </g>
     </g>
    </g>
    <g id="ytick_9">
     <g id="line2d_30">
      <g>
       <use xlink:href="#ma87778d236" x="37.7" y="223.803187" style="stroke: #000000; stroke-width: 0.8"/>
      </g>
     </g>
     <g id="text_15">
      <!-- $\mathdefault{10^{-3}}$ -->
      <g transform="translate(7.2 227.602406)scale(0.1 -0.1)">
       <use xlink:href="#DejaVuSans-31" transform="translate(0 0.765625)"/>
       <use xlink:href="#DejaVuSans-30" transform="translate(63.623047 0.765625)"/>
       <use xlink:href="#DejaVuSans-2212" transform="translate(128.203125 39.046875)scale(0.7)"/>
       <use xlink:href="#DejaVuSans-33" transform="translate(186.855469 39.046875)scale(0.7)"/>
      </g>
     </g>
    </g>
    <g id="ytick_10">
     <g id="line2d_31">
      <g>
       <use xlink:href="#ma87778d236" x="37.7" y="188.501975" style="stroke: #000000; stroke-width: 0.8"/>
      </g>
     </g>
     <g id="text_16">
      <!-- $\mathdefault{10^{-1}}$ -->
      <g transform="translate(7.2 192.301194)scale(0.1 -0.1)">
       <use xlink:href="#DejaVuSans-31" transform="translate(0 0.684375)"/>
       <use xlink:href="#DejaVuSans-30" transform="translate(63.623047 0.684375)"/>
       <use xlink:href="#DejaVuSans-2212" transform="translate(128.203125 38.965625)scale(0.7)"/>
       <use xlink:href="#DejaVuSans-31" transform="translate(186.855469 38.965625)scale(0.7)"/>
      </g>
     </g>
    </g>
   </g>
   <g id="line2d_32">
    <path d="M 47.34218 170.851369 
L 57.017465 173.056614 
L 66.69275 175.851808 
L 69.807496 176.859648 
L 76.368035 179.127092 
L 80.813167 180.760479 
L 86.889548 183.099954 
L 91.702999 185.028055 
L 96.564833 187.032923 
L 101.666098 189.190263 
L 106.64474 191.341886 
L 111.623382 193.533318 
L 116.518021 195.721927 
L 121.50649 197.98332 
L 126.436916 200.245622 
L 131.386548 202.541079 
L 136.327873 204.854558 
L 141.280333 207.193058 
L 146.227253 209.546902 
L 151.178958 211.919397 
L 156.123092 214.303212 
L 161.070027 216.702096 
L 166.012666 219.11152 
L 170.9598 221.534806 
L 175.904584 223.967753 
L 180.849266 226.410692 
L 185.793879 228.86295 
L 190.738389 231.32389 
L 195.683326 233.793217 
L 200.628085 236.27012 
L 205.572704 238.754155 
L 210.517461 241.24504 
L 215.462212 243.742317 
L 220.406943 246.245624 
L 225.351633 248.754626 
L 230.296363 251.269063 
L 235.241062 253.788623 
L 240.185786 256.313078 
" clip-path="url(#pc4991bbcf3)" style="fill: none; stroke: #1f77b4; stroke-width: 1.5; stroke-linecap: square"/>
   </g>
   <g id="line2d_33">
    <path d="M 47.34218 170.851369 
L 57.017465 173.492962 
L 66.69275 177.374926 
L 69.807496 178.954854 
L 76.368035 182.187881 
L 80.813167 184.35603 
L 86.889548 187.616815 
L 91.702999 190.091086 
L 96.564833 192.709035 
L 101.666098 195.494403 
L 106.64474 198.168495 
L 111.623382 200.856371 
L 116.518021 203.560733 
L 121.50649 206.28537 
L 126.436916 208.990933 
L 131.386548 211.699114 
L 136.327873 214.420651 
L 141.280333 217.129418 
L 146.227253 219.850725 
L 151.178958 222.564995 
L 156.123092 225.281069 
L 161.070027 227.997292 
L 166.012666 230.708848 
L 170.9598 233.427529 
L 175.904584 236.14156 
L 180.849266 238.858505 
L 185.793879 241.573716 
L 190.738389 244.287768 
L 195.683326 247.002459 
L 200.628085 249.717551 
L 205.572704 252.43301 
L 210.517461 255.148467 
L 215.462212 257.863931 
L 220.406943 260.579381 
L 225.351633 263.294723 
L 230.296363 266.010548 
L 235.241062 268.726517 
L 240.185786 271.441758 
" clip-path="url(#pc4991bbcf3)" style="fill: none; stroke: #ff7f0e; stroke-width: 1.5; stroke-linecap: square"/>
   </g>
   <g id="line2d_34">
    <path d="M 47.34218 170.851369 
L 57.017465 173.301394 
L 66.69275 176.78365 
L 69.807496 178.0464 
L 76.368035 180.673752 
L 80.813167 182.866889 
L 86.889548 185.795419 
L 91.702999 188.2125 
L 96.564833 190.721021 
L 101.666098 193.394006 
L 106.64474 196.014399 
L 111.623382 198.692112 
L 116.518021 201.3327 
L 121.50649 204.038517 
L 126.436916 206.716514 
L 131.386548 209.432877 
L 136.327873 212.116698 
L 141.280333 214.813589 
L 146.227253 217.515132 
L 151.178958 220.226531 
L 156.123092 222.94392 
L 161.070027 225.652667 
L 166.012666 228.359434 
L 170.9598 231.076478 
L 175.904584 233.7916 
L 180.849266 236.508175 
L 185.793879 239.223632 
L 190.738389 241.935174 
L 195.683326 244.648546 
L 200.628085 247.365439 
L 205.572704 250.082567 
L 210.517461 252.797152 
L 215.462212 255.512831 
L 220.406943 258.228315 
L 225.351633 260.943137 
L 230.296363 263.65816 
L 235.241062 266.374007 
L 240.185786 269.089176 
" clip-path="url(#pc4991bbcf3)" style="fill: none; stroke: #2ca02c; stroke-width: 1.5; stroke-linecap: square"/>
   </g>
   <g id="line2d_35">
    <path d="M 47.34218 170.851369 
L 57.017465 176.164731 
L 66.69275 181.478093 
L 69.807496 183.188614 
L 76.368035 186.791455 
L 80.813167 189.232581 
L 86.889548 192.569539 
L 91.702999 195.212934 
L 96.564833 197.8829 
L 101.666098 200.684354 
L 106.64474 203.418468 
L 111.623382 206.152581 
L 116.518021 208.840563 
L 121.50649 211.580073 
L 126.436916 214.287708 
L 131.386548 217.00589 
L 136.327873 219.71951 
L 141.280333 222.439245 
L 146.227253 225.155938 
L 151.178958 227.875258 
L 156.123092 230.590421 
L 161.070027 233.307122 
L 166.012666 236.021464 
L 170.9598 238.738274 
L 175.904584 241.453794 
L 180.849266 244.169257 
L 185.793879 246.884683 
L 190.738389 249.600052 
L 195.683326 252.315656 
L 200.628085 255.031162 
L 205.572704 257.746591 
L 210.517461 260.462096 
L 215.462212 263.177597 
L 220.406943 265.893088 
L 225.351633 268.608556 
L 230.296363 271.324046 
L 235.241062 274.039519 
L 240.185786 276.755006 
" clip-path="url(#pc4991bbcf3)" style="fill: none; stroke: #d62728; stroke-width: 1.5; stroke-linecap: square"/>
   </g>
   <g id="line2d_36">
    <path d="M 47.34218 170.851369 
L 57.017465 170.851369 
L 66.69275 170.851369 
L 69.807496 170.851369 
L 76.368035 170.851369 
L 80.813167 171.581975 
L 86.889548 174.918932 
L 91.702999 177.562328 
L 96.564833 180.232294 
L 101.666098 183.033748 
L 106.64474 185.767862 
L 111.623382 188.501975 
L 116.518021 191.189957 
L 121.50649 193.929467 
L 126.436916 196.637102 
L 131.386548 199.355284 
L 136.327873 202.068904 
L 141.280333 204.788639 
L 146.227253 207.505332 
L 151.178958 210.224652 
L 156.123092 212.939815 
L 161.070027 215.656516 
L 166.012666 218.370858 
L 170.9598 221.087668 
L 175.904584 223.803187 
L 180.849266 226.518651 
L 185.793879 229.234077 
L 190.738389 231.949446 
L 195.683326 234.66505 
L 200.628085 237.380556 
L 205.572704 240.095985 
L 210.517461 242.81149 
L 215.462212 245.526991 
L 220.406943 248.242482 
L 225.351633 250.95795 
L 230.296363 253.67344 
L 235.241062 256.388913 
L 240.185786 259.1044 
" clip-path="url(#pc4991bbcf3)" style="fill: none; stroke: #9467bd; stroke-width: 1.5; stroke-linecap: square"/>
   </g>
   <g id="line2d_37">
    <path d="M 47.34218 170.851369 
L 57.017465 170.851369 
L 66.69275 170.851369 
L 69.807496 170.851369 
L 76.368035 170.851369 
L 80.813167 170.851369 
L 86.889548 170.851369 
L 91.702999 170.851369 
L 96.564833 170.851369 
L 101.666098 170.851369 
L 106.64474 170.851369 
L 111.623382 170.851369 
L 116.518021 173.539351 
L 121.50649 176.278861 
L 126.436916 178.986496 
L 131.386548 181.704678 
L 136.327873 184.418298 
L 141.280333 187.138033 
L 146.227253 189.854726 
L 151.178958 192.574046 
L 156.123092 195.289209 
L 161.070027 198.00591 
L 166.012666 200.720252 
L 170.9598 203.437062 
L 175.904584 206.152581 
L 180.849266 208.868045 
L 185.793879 211.583471 
L 190.738389 214.29884 
L 195.683326 217.014444 
L 200.628085 219.72995 
L 205.572704 222.445379 
L 210.517461 225.160884 
L 215.462212 227.876385 
L 220.406943 230.591876 
L 225.351633 233.307344 
L 230.296363 236.022834 
L 235.241062 238.738307 
L 240.185786 241.453794 
" clip-path="url(#pc4991bbcf3)" style="fill: none; stroke: #8c564b; stroke-width: 1.5; stroke-linecap: square"/>
   </g>
   <g id="patch_9">
    <path d="M 37.7 282.050187 
L 37.7 165.556187 
" style="fill: none; stroke: #000000; stroke-width: 0.8; stroke-linejoin: miter; stroke-linecap: square"/>
   </g>
   <g id="patch_10">
    <path d="M 37.7 282.050187 
L 249.827966 282.050187 
" style="fill: none; stroke: #000000; stroke-width: 0.8; stroke-linejoin: miter; stroke-linecap: square"/>
   </g>
   <g id="text_17">
    <!-- inverted = True | variable = expectation -->
    <g transform="translate(42.966327 159.556187)scale(0.1 -0.1)">
     <defs>
      <path id="DejaVuSans-54" d="M -19 4666 
L 3928 4666 
L 3928 4134 
L 2272 4134 
L 2272 0 
L 1638 0 
L 1638 4134 
L -19 4134 
L -19 4666 
z
" transform="scale(0.015625)"/>
      <path id="DejaVuSans-75" d="M 544 1381 
L 544 3500 
L 1119 3500 
L 1119 1403 
Q 1119 906 1312 657 
Q 1506 409 1894 409 
Q 2359 409 2629 706 
Q 2900 1003 2900 1516 
L 2900 3500 
L 3475 3500 
L 3475 0 
L 2900 0 
L 2900 538 
Q 2691 219 2414 64 
Q 2138 -91 1772 -91 
Q 1169 -91 856 284 
Q 544 659 544 1381 
z
M 1991 3584 
L 1991 3584 
z
" transform="scale(0.015625)"/>
     </defs>
     <use xlink:href="#DejaVuSans-69"/>
     <use xlink:href="#DejaVuSans-6e" x="27.783203"/>
     <use xlink:href="#DejaVuSans-76" x="91.162109"/>
     <use xlink:href="#DejaVuSans-65" x="150.341797"/>
     <use xlink:href="#DejaVuSans-72" x="211.865234"/>
     <use xlink:href="#DejaVuSans-74" x="252.978516"/>
     <use xlink:href="#DejaVuSans-65" x="292.1875"/>
     <use xlink:href="#DejaVuSans-64" x="353.710938"/>
     <use xlink:href="#DejaVuSans-20" x="417.1875"/>
     <use xlink:href="#DejaVuSans-3d" x="448.974609"/>
     <use xlink:href="#DejaVuSans-20" x="532.763672"/>
     <use xlink:href="#DejaVuSans-54" x="564.550781"/>
     <use xlink:href="#DejaVuSans-72" x="610.884766"/>
     <use xlink:href="#DejaVuSans-75" x="651.998047"/>
     <use xlink:href="#DejaVuSans-65" x="715.376953"/>
     <use xlink:href="#DejaVuSans-20" x="776.900391"/>
     <use xlink:href="#DejaVuSans-7c" x="808.6875"/>
     <use xlink:href="#DejaVuSans-20" x="842.378906"/>
     <use xlink:href="#DejaVuSans-76" x="874.166016"/>
     <use xlink:href="#DejaVuSans-61" x="933.345703"/>
     <use xlink:href="#DejaVuSans-72" x="994.625"/>
     <use xlink:href="#DejaVuSans-69" x="1035.738281"/>
     <use xlink:href="#DejaVuSans-61" x="1063.521484"/>
     <use xlink:href="#DejaVuSans-62" x="1124.800781"/>
     <use xlink:href="#DejaVuSans-6c" x="1188.277344"/>
     <use xlink:href="#DejaVuSans-65" x="1216.060547"/>
     <use xlink:href="#DejaVuSans-20" x="1277.583984"/>
     <use xlink:href="#DejaVuSans-3d" x="1309.371094"/>
     <use xlink:href="#DejaVuSans-20" x="1393.160156"/>
     <use xlink:href="#DejaVuSans-65" x="1424.947266"/>
     <use xlink:href="#DejaVuSans-78" x="1484.720703"/>
     <use xlink:href="#DejaVuSans-70" x="1543.900391"/>
     <use xlink:href="#DejaVuSans-65" x="1607.376953"/>
     <use xlink:href="#DejaVuSans-63" x="1668.900391"/>
     <use xlink:href="#DejaVuSans-74" x="1723.880859"/>
     <use xlink:href="#DejaVuSans-61" x="1763.089844"/>
     <use xlink:href="#DejaVuSans-74" x="1824.369141"/>
     <use xlink:href="#DejaVuSans-69" x="1863.578125"/>
     <use xlink:href="#DejaVuSans-6f" x="1891.361328"/>
     <use xlink:href="#DejaVuSans-6e" x="1952.542969"/>
    </g>
   </g>
  </g>
  <g id="axes_4">
   <g id="patch_11">
    <path d="M 296.09293 282.050187 
L 508.220896 282.050187 
L 508.220896 165.556187 
L 296.09293 165.556187 
z
" style="fill: #ffffff"/>
   </g>
   <g id="PolyCollection_13">
    <path d="M 305.73511 6415.393066 
L 305.73511 6415.393066 
L 315.410395 174.614356 
L 315.410395 174.614356 
L 315.410395 174.614356 
L 305.73511 6415.393066 
z
" clip-path="url(#p09deb25996)" style="fill: #1f77b4; fill-opacity: 0.2; stroke: #1f77b4; stroke-opacity: 0.2"/>
   </g>
   <g id="PolyCollection_14">
    <path d="M 305.73511 6415.393066 
L 305.73511 6415.393066 
L 315.410395 174.517645 
L 315.410395 174.417737 
L 315.410395 174.417737 
L 305.73511 6415.393066 
z
" clip-path="url(#p09deb25996)" style="fill: #ff7f0e; fill-opacity: 0.2; stroke: #ff7f0e; stroke-opacity: 0.2"/>
   </g>
   <g id="PolyCollection_15">
    <path d="M 305.73511 6415.393066 
L 305.73511 6415.393066 
L 315.410395 174.750388 
L 315.410395 174.55723 
L 315.410395 174.55723 
L 305.73511 6415.393066 
z
" clip-path="url(#p09deb25996)" style="fill: #2ca02c; fill-opacity: 0.2; stroke: #2ca02c; stroke-opacity: 0.2"/>
   </g>
   <g id="PolyCollection_16">
    <path d="M 305.73511 6415.393066 
L 305.73511 6415.393066 
L 315.410395 170.851369 
L 315.410395 170.851369 
L 315.410395 170.851369 
L 305.73511 6415.393066 
z
" clip-path="url(#p09deb25996)" style="fill: #d62728; fill-opacity: 0.2; stroke: #d62728; stroke-opacity: 0.2"/>
   </g>
   <g id="PolyCollection_17">
    <defs>
     <path id="mb995e2cc1b" d="M 305.73511 6095.786629 
L 305.73511 6095.786629 
L 315.410395 6095.786629 
L 315.410395 6095.786629 
L 315.410395 6095.786629 
L 305.73511 6095.786629 
z
" style="stroke: #9467bd; stroke-opacity: 0.2"/>
    </defs>
    <g clip-path="url(#p09deb25996)">
     <use xlink:href="#mb995e2cc1b" x="0" y="319.606437" style="fill: #9467bd; fill-opacity: 0.2; stroke: #9467bd; stroke-opacity: 0.2"/>
    </g>
   </g>
   <g id="PolyCollection_18">
    <defs>
     <path id="m61339be0f9" d="M 305.73511 6095.786629 
L 305.73511 6095.786629 
L 315.410395 6095.786629 
L 315.410395 6095.786629 
L 315.410395 6095.786629 
L 305.73511 6095.786629 
z
" style="stroke: #8c564b; stroke-opacity: 0.2"/>
    </defs>
    <g clip-path="url(#p09deb25996)">
     <use xlink:href="#m61339be0f9" x="0" y="319.606437" style="fill: #8c564b; fill-opacity: 0.2; stroke: #8c564b; stroke-opacity: 0.2"/>
    </g>
   </g>
   <g id="matplotlib.axis_7">
    <g id="xtick_10">
     <g id="line2d_38">
      <g>
       <use xlink:href="#m3d6d8d6d64" x="337.875711" y="282.050187" style="stroke: #000000; stroke-width: 0.8"/>
      </g>
     </g>
     <g id="text_18">
      <!-- $\mathdefault{10^{1}}$ -->
      <g transform="translate(329.075711 296.648625)scale(0.1 -0.1)">
       <use xlink:href="#DejaVuSans-31" transform="translate(0 0.684375)"/>
       <use xlink:href="#DejaVuSans-30" transform="translate(63.623047 0.684375)"/>
       <use xlink:href="#DejaVuSans-31" transform="translate(128.203125 38.965625)scale(0.7)"/>
      </g>
     </g>
    </g>
    <g id="xtick_11">
     <g id="line2d_39">
      <g>
       <use xlink:href="#m3d6d8d6d64" x="402.156913" y="282.050187" style="stroke: #000000; stroke-width: 0.8"/>
      </g>
     </g>
     <g id="text_19">
      <!-- $\mathdefault{10^{3}}$ -->
      <g transform="translate(393.356913 296.648625)scale(0.1 -0.1)">
       <use xlink:href="#DejaVuSans-31" transform="translate(0 0.765625)"/>
       <use xlink:href="#DejaVuSans-30" transform="translate(63.623047 0.765625)"/>
       <use xlink:href="#DejaVuSans-33" transform="translate(128.203125 39.046875)scale(0.7)"/>
      </g>
     </g>
    </g>
    <g id="xtick_12">
     <g id="line2d_40">
      <g>
       <use xlink:href="#m3d6d8d6d64" x="466.438115" y="282.050187" style="stroke: #000000; stroke-width: 0.8"/>
      </g>
     </g>
     <g id="text_20">
      <!-- $\mathdefault{10^{5}}$ -->
      <g transform="translate(457.638115 296.648625)scale(0.1 -0.1)">
       <use xlink:href="#DejaVuSans-31" transform="translate(0 0.684375)"/>
       <use xlink:href="#DejaVuSans-30" transform="translate(63.623047 0.684375)"/>
       <use xlink:href="#DejaVuSans-35" transform="translate(128.203125 38.965625)scale(0.7)"/>
      </g>
     </g>
    </g>
    <g id="text_21">
     <!-- candidate -->
     <g transform="translate(377.3366 310.32675)scale(0.1 -0.1)">
      <use xlink:href="#DejaVuSans-63"/>
      <use xlink:href="#DejaVuSans-61" x="54.980469"/>
      <use xlink:href="#DejaVuSans-6e" x="116.259766"/>
      <use xlink:href="#DejaVuSans-64" x="179.638672"/>
      <use xlink:href="#DejaVuSans-69" x="243.115234"/>
      <use xlink:href="#DejaVuSans-64" x="270.898438"/>
      <use xlink:href="#DejaVuSans-61" x="334.375"/>
      <use xlink:href="#DejaVuSans-74" x="395.654297"/>
      <use xlink:href="#DejaVuSans-65" x="434.863281"/>
     </g>
    </g>
   </g>
   <g id="matplotlib.axis_8">
    <g id="ytick_11">
     <g id="line2d_41">
      <g>
       <use xlink:href="#ma87778d236" x="296.09293" y="258.959681" style="stroke: #000000; stroke-width: 0.8"/>
      </g>
     </g>
     <g id="text_22">
      <!-- $\mathdefault{10^{-15}}$ -->
      <g transform="translate(261.19293 262.7589)scale(0.1 -0.1)">
       <use xlink:href="#DejaVuSans-31" transform="translate(0 0.684375)"/>
       <use xlink:href="#DejaVuSans-30" transform="translate(63.623047 0.684375)"/>
       <use xlink:href="#DejaVuSans-2212" transform="translate(128.203125 38.965625)scale(0.7)"/>
       <use xlink:href="#DejaVuSans-31" transform="translate(186.855469 38.965625)scale(0.7)"/>
       <use xlink:href="#DejaVuSans-35" transform="translate(231.391602 38.965625)scale(0.7)"/>
      </g>
     </g>
    </g>
    <g id="ytick_12">
     <g id="line2d_42">
      <g>
       <use xlink:href="#ma87778d236" x="296.09293" y="233.958937" style="stroke: #000000; stroke-width: 0.8"/>
      </g>
     </g>
     <g id="text_23">
      <!-- $\mathdefault{10^{-11}}$ -->
      <g transform="translate(261.19293 237.758155)scale(0.1 -0.1)">
       <use xlink:href="#DejaVuSans-31" transform="translate(0 0.684375)"/>
       <use xlink:href="#DejaVuSans-30" transform="translate(63.623047 0.684375)"/>
       <use xlink:href="#DejaVuSans-2212" transform="translate(128.203125 38.965625)scale(0.7)"/>
       <use xlink:href="#DejaVuSans-31" transform="translate(186.855469 38.965625)scale(0.7)"/>
       <use xlink:href="#DejaVuSans-31" transform="translate(231.391602 38.965625)scale(0.7)"/>
      </g>
     </g>
    </g>
    <g id="ytick_13">
     <g id="line2d_43">
      <g>
       <use xlink:href="#ma87778d236" x="296.09293" y="208.958192" style="stroke: #000000; stroke-width: 0.8"/>
      </g>
     </g>
     <g id="text_24">
      <!-- $\mathdefault{10^{-7}}$ -->
      <g transform="translate(265.59293 212.757411)scale(0.1 -0.1)">
       <defs>
        <path id="DejaVuSans-37" d="M 525 4666 
L 3525 4666 
L 3525 4397 
L 1831 0 
L 1172 0 
L 2766 4134 
L 525 4134 
L 525 4666 
z
" transform="scale(0.015625)"/>
       </defs>
       <use xlink:href="#DejaVuSans-31" transform="translate(0 0.684375)"/>
       <use xlink:href="#DejaVuSans-30" transform="translate(63.623047 0.684375)"/>
       <use xlink:href="#DejaVuSans-2212" transform="translate(128.203125 38.965625)scale(0.7)"/>
       <use xlink:href="#DejaVuSans-37" transform="translate(186.855469 38.965625)scale(0.7)"/>
      </g>
     </g>
    </g>
    <g id="ytick_14">
     <g id="line2d_44">
      <g>
       <use xlink:href="#ma87778d236" x="296.09293" y="183.957447" style="stroke: #000000; stroke-width: 0.8"/>
      </g>
     </g>
     <g id="text_25">
      <!-- $\mathdefault{10^{-3}}$ -->
      <g transform="translate(265.59293 187.756666)scale(0.1 -0.1)">
       <use xlink:href="#DejaVuSans-31" transform="translate(0 0.765625)"/>
       <use xlink:href="#DejaVuSans-30" transform="translate(63.623047 0.765625)"/>
       <use xlink:href="#DejaVuSans-2212" transform="translate(128.203125 39.046875)scale(0.7)"/>
       <use xlink:href="#DejaVuSans-33" transform="translate(186.855469 39.046875)scale(0.7)"/>
      </g>
     </g>
    </g>
   </g>
   <g id="line2d_45">
    <path d="M 315.184059 320.606437 
L 315.410395 174.614356 
L 325.08568 175.672875 
L 328.200426 176.293297 
L 334.760965 177.864056 
L 339.206097 179.082767 
L 345.282478 180.898511 
L 350.095929 182.43291 
L 354.957763 184.050271 
L 360.059028 185.805731 
L 365.03767 187.565221 
L 370.016312 189.36125 
L 374.910951 191.155554 
L 379.899419 193.007613 
L 384.829846 194.85666 
L 389.779478 196.727686 
L 394.720803 198.607315 
L 399.673263 200.500506 
L 404.620183 202.398937 
L 409.571888 204.304991 
L 414.516022 206.212654 
L 419.462957 208.124927 
L 424.405596 210.038278 
L 429.35273 211.955491 
L 434.297514 213.87343 
L 439.242196 215.792587 
L 444.186808 217.712679 
L 449.131319 219.633466 
L 454.076256 221.554979 
L 459.021015 223.476848 
L 463.965634 225.398983 
L 468.910391 227.321414 
L 473.855142 229.244025 
L 478.799873 231.166766 
L 483.744563 233.089594 
L 488.689293 235.012514 
L 493.633991 236.93548 
L 498.578716 238.858498 
" clip-path="url(#p09deb25996)" style="fill: none; stroke: #1f77b4; stroke-width: 1.5; stroke-linecap: square"/>
   </g>
   <g id="line2d_46">
    <path d="M 315.183836 320.606437 
L 315.410395 174.467231 
L 325.08568 177.003611 
L 328.200426 178.761928 
L 334.760965 181.525254 
L 339.206097 184.412682 
L 345.282478 187.713545 
L 350.095929 190.321339 
L 354.957763 193.303726 
L 360.059028 196.065017 
L 365.03767 199.099801 
L 370.016312 202.063952 
L 374.910951 204.913096 
L 379.899419 207.769674 
L 384.829846 210.789817 
L 389.779478 213.425569 
L 394.720803 216.490286 
L 399.673263 219.184748 
L 404.620183 222.229544 
L 409.571888 224.868815 
L 414.516022 228.017817 
L 419.462957 230.912213 
L 424.405596 233.704953 
L 429.35273 236.628789 
L 434.297514 239.300665 
L 439.242196 242.090418 
L 444.186808 245.113332 
L 449.131319 248.224803 
L 454.076256 251.016961 
L 459.021015 253.736922 
L 463.965634 256.612872 
L 468.910391 259.618371 
L 473.855142 262.573822 
L 478.799873 265.275757 
L 483.744563 268.035987 
L 488.689293 271.194918 
L 493.633991 274.226517 
L 498.578716 276.755006 
" clip-path="url(#p09deb25996)" style="fill: none; stroke: #ff7f0e; stroke-width: 1.5; stroke-linecap: square"/>
   </g>
   <g id="line2d_47">
    <path d="M 315.184116 320.606437 
L 315.410395 174.652091 
L 325.08568 176.594631 
L 328.200426 177.459105 
L 334.760965 179.570399 
L 339.206097 181.828416 
L 345.282478 184.570848 
L 350.095929 187.17693 
L 354.957763 189.509446 
L 360.059028 192.485192 
L 365.03767 195.139359 
L 370.016312 197.867598 
L 374.910951 200.616634 
L 379.899419 203.233621 
L 384.829846 206.140981 
L 389.779478 208.940923 
L 394.720803 211.925897 
L 399.673263 214.837847 
L 404.620183 217.615966 
L 409.571888 220.366129 
L 414.516022 223.165313 
L 419.462957 226.050706 
L 424.405596 229.15126 
L 429.35273 232.023577 
L 434.297514 234.54559 
L 439.242196 237.780212 
L 444.186808 240.433415 
L 449.131319 243.445668 
L 454.076256 246.210523 
L 459.021015 249.171086 
L 463.965634 251.993 
L 468.910391 255.130357 
L 473.855142 257.794941 
L 478.799873 260.673375 
L 483.744563 263.604022 
L 488.689293 266.320721 
L 493.633991 269.599696 
L 498.578716 272.484724 
" clip-path="url(#p09deb25996)" style="fill: none; stroke: #2ca02c; stroke-width: 1.5; stroke-linecap: square"/>
   </g>
   <g id="line2d_48">
    <path d="M 315.178365 320.606437 
L 315.410395 170.851369 
L 325.08568 173.513753 
L 328.200426 174.54998 
L 334.760965 176.85831 
L 339.206097 178.483397 
L 345.282478 180.752519 
L 350.095929 182.575568 
L 354.957763 184.431979 
L 360.059028 186.390939 
L 365.03767 188.310358 
L 370.016312 190.234914 
L 374.910951 192.130478 
L 379.899419 194.064853 
L 384.829846 195.978437 
L 389.779478 197.900674 
L 394.720803 199.820524 
L 399.673263 201.74529 
L 404.620183 203.668316 
L 409.571888 205.593492 
L 414.516022 207.515927 
L 419.462957 209.439593 
L 424.405596 211.361688 
L 429.35273 213.285601 
L 434.297514 215.20865 
L 439.242196 217.131693 
L 444.186808 219.054733 
L 449.131319 220.977751 
L 454.076256 222.900946 
L 459.021015 224.824081 
L 463.965634 226.747166 
L 468.910391 228.67031 
L 473.855142 230.593454 
L 478.799873 232.516593 
L 483.744563 234.439717 
L 488.689293 236.362857 
L 493.633991 238.285986 
L 498.578716 240.209126 
" clip-path="url(#p09deb25996)" style="fill: none; stroke: #d62728; stroke-width: 1.5; stroke-linecap: square"/>
   </g>
   <g id="line2d_49">
    <path d="M 339.104804 320.606437 
L 339.206097 178.483397 
L 345.282478 176.746287 
L 350.095929 177.672921 
L 354.957763 179.04621 
L 360.059028 180.704373 
L 365.03767 182.439545 
L 370.016312 184.24344 
L 374.910951 186.059329 
L 379.899419 187.938383 
L 384.829846 189.81443 
L 389.779478 191.710588 
L 394.720803 193.61235 
L 399.673263 195.524485 
L 404.620183 197.438703 
L 409.571888 199.357714 
L 414.516022 201.275842 
L 419.462957 203.196489 
L 424.405596 205.11647 
L 429.35273 207.038899 
L 434.297514 208.960908 
L 439.242196 210.883221 
L 444.186808 212.80575 
L 449.131319 214.728409 
L 454.076256 216.651352 
L 459.021015 218.57431 
L 463.965634 220.497272 
L 468.910391 222.420329 
L 473.855142 224.343412 
L 478.799873 226.266507 
L 483.744563 228.189601 
L 488.689293 230.112721 
L 493.633991 232.035835 
L 498.578716 233.958964 
" clip-path="url(#p09deb25996)" style="fill: none; stroke: #9467bd; stroke-width: 1.5; stroke-linecap: square"/>
   </g>
   <g id="line2d_50">
    <path d="M 374.802818 320.606437 
L 374.910951 182.917515 
L 379.899419 183.392749 
L 384.829846 184.621415 
L 389.779478 186.148369 
L 394.720803 187.822471 
L 399.673263 189.587046 
L 404.620183 191.403301 
L 409.571888 193.255984 
L 414.516022 195.128791 
L 419.462957 197.018159 
L 424.405596 198.916469 
L 429.35273 200.823804 
L 434.297514 202.735287 
L 439.242196 204.650244 
L 444.186808 206.567626 
L 449.131319 208.486679 
L 454.076256 210.407097 
L 459.021015 212.328284 
L 463.965634 214.250004 
L 468.910391 216.17219 
L 473.855142 218.094662 
L 478.799873 220.017329 
L 483.744563 221.940122 
L 488.689293 223.863031 
L 493.633991 225.785997 
L 498.578716 227.709022 
" clip-path="url(#p09deb25996)" style="fill: none; stroke: #8c564b; stroke-width: 1.5; stroke-linecap: square"/>
   </g>
   <g id="patch_12">
    <path d="M 296.09293 282.050187 
L 296.09293 165.556187 
" style="fill: none; stroke: #000000; stroke-width: 0.8; stroke-linejoin: miter; stroke-linecap: square"/>
   </g>
   <g id="patch_13">
    <path d="M 296.09293 282.050187 
L 508.220896 282.050187 
" style="fill: none; stroke: #000000; stroke-width: 0.8; stroke-linejoin: miter; stroke-linecap: square"/>
   </g>
   <g id="text_26">
    <!-- inverted = True | variable = variance -->
    <g transform="translate(309.382694 159.556187)scale(0.1 -0.1)">
     <use xlink:href="#DejaVuSans-69"/>
     <use xlink:href="#DejaVuSans-6e" x="27.783203"/>
     <use xlink:href="#DejaVuSans-76" x="91.162109"/>
     <use xlink:href="#DejaVuSans-65" x="150.341797"/>
     <use xlink:href="#DejaVuSans-72" x="211.865234"/>
     <use xlink:href="#DejaVuSans-74" x="252.978516"/>
     <use xlink:href="#DejaVuSans-65" x="292.1875"/>
     <use xlink:href="#DejaVuSans-64" x="353.710938"/>
     <use xlink:href="#DejaVuSans-20" x="417.1875"/>
     <use xlink:href="#DejaVuSans-3d" x="448.974609"/>
     <use xlink:href="#DejaVuSans-20" x="532.763672"/>
     <use xlink:href="#DejaVuSans-54" x="564.550781"/>
     <use xlink:href="#DejaVuSans-72" x="610.884766"/>
     <use xlink:href="#DejaVuSans-75" x="651.998047"/>
     <use xlink:href="#DejaVuSans-65" x="715.376953"/>
     <use xlink:href="#DejaVuSans-20" x="776.900391"/>
     <use xlink:href="#DejaVuSans-7c" x="808.6875"/>
     <use xlink:href="#DejaVuSans-20" x="842.378906"/>
     <use xlink:href="#DejaVuSans-76" x="874.166016"/>
     <use xlink:href="#DejaVuSans-61" x="933.345703"/>
     <use xlink:href="#DejaVuSans-72" x="994.625"/>
     <use xlink:href="#DejaVuSans-69" x="1035.738281"/>
     <use xlink:href="#DejaVuSans-61" x="1063.521484"/>
     <use xlink:href="#DejaVuSans-62" x="1124.800781"/>
     <use xlink:href="#DejaVuSans-6c" x="1188.277344"/>
     <use xlink:href="#DejaVuSans-65" x="1216.060547"/>
     <use xlink:href="#DejaVuSans-20" x="1277.583984"/>
     <use xlink:href="#DejaVuSans-3d" x="1309.371094"/>
     <use xlink:href="#DejaVuSans-20" x="1393.160156"/>
     <use xlink:href="#DejaVuSans-76" x="1424.947266"/>
     <use xlink:href="#DejaVuSans-61" x="1484.126953"/>
     <use xlink:href="#DejaVuSans-72" x="1545.40625"/>
     <use xlink:href="#DejaVuSans-69" x="1586.519531"/>
     <use xlink:href="#DejaVuSans-61" x="1614.302734"/>
     <use xlink:href="#DejaVuSans-6e" x="1675.582031"/>
     <use xlink:href="#DejaVuSans-63" x="1738.960938"/>
     <use xlink:href="#DejaVuSans-65" x="1793.941406"/>
    </g>
   </g>
  </g>
  <g id="legend_1">
   <g id="text_27">
    <!-- metric -->
    <g transform="translate(581.267321 117.693844)scale(0.1 -0.1)">
     <defs>
      <path id="DejaVuSans-6d" d="M 3328 2828 
Q 3544 3216 3844 3400 
Q 4144 3584 4550 3584 
Q 5097 3584 5394 3201 
Q 5691 2819 5691 2113 
L 5691 0 
L 5113 0 
L 5113 2094 
Q 5113 2597 4934 2840 
Q 4756 3084 4391 3084 
Q 3944 3084 3684 2787 
Q 3425 2491 3425 1978 
L 3425 0 
L 2847 0 
L 2847 2094 
Q 2847 2600 2669 2842 
Q 2491 3084 2119 3084 
Q 1678 3084 1418 2786 
Q 1159 2488 1159 1978 
L 1159 0 
L 581 0 
L 581 3500 
L 1159 3500 
L 1159 2956 
Q 1356 3278 1631 3431 
Q 1906 3584 2284 3584 
Q 2666 3584 2933 3390 
Q 3200 3197 3328 2828 
z
" transform="scale(0.015625)"/>
     </defs>
     <use xlink:href="#DejaVuSans-6d"/>
     <use xlink:href="#DejaVuSans-65" x="97.412109"/>
     <use xlink:href="#DejaVuSans-74" x="158.935547"/>
     <use xlink:href="#DejaVuSans-72" x="198.144531"/>
     <use xlink:href="#DejaVuSans-69" x="239.257812"/>
     <use xlink:href="#DejaVuSans-63" x="267.041016"/>
    </g>
   </g>
   <g id="line2d_51">
    <path d="M 527.322009 128.871969 
L 537.322009 128.871969 
L 547.322009 128.871969 
" style="fill: none; stroke: #1f77b4; stroke-width: 1.5; stroke-linecap: square"/>
   </g>
   <g id="text_28">
    <!-- harmonic_mean_rank -->
    <g transform="translate(555.322009 132.371969)scale(0.1 -0.1)">
     <defs>
      <path id="DejaVuSans-68" d="M 3513 2113 
L 3513 0 
L 2938 0 
L 2938 2094 
Q 2938 2591 2744 2837 
Q 2550 3084 2163 3084 
Q 1697 3084 1428 2787 
Q 1159 2491 1159 1978 
L 1159 0 
L 581 0 
L 581 4863 
L 1159 4863 
L 1159 2956 
Q 1366 3272 1645 3428 
Q 1925 3584 2291 3584 
Q 2894 3584 3203 3211 
Q 3513 2838 3513 2113 
z
" transform="scale(0.015625)"/>
      <path id="DejaVuSans-5f" d="M 3263 -1063 
L 3263 -1509 
L -63 -1509 
L -63 -1063 
L 3263 -1063 
z
" transform="scale(0.015625)"/>
      <path id="DejaVuSans-6b" d="M 581 4863 
L 1159 4863 
L 1159 1991 
L 2875 3500 
L 3609 3500 
L 1753 1863 
L 3688 0 
L 2938 0 
L 1159 1709 
L 1159 0 
L 581 0 
L 581 4863 
z
" transform="scale(0.015625)"/>
     </defs>
     <use xlink:href="#DejaVuSans-68"/>
     <use xlink:href="#DejaVuSans-61" x="63.378906"/>
     <use xlink:href="#DejaVuSans-72" x="124.658203"/>
     <use xlink:href="#DejaVuSans-6d" x="164.021484"/>
     <use xlink:href="#DejaVuSans-6f" x="261.433594"/>
     <use xlink:href="#DejaVuSans-6e" x="322.615234"/>
     <use xlink:href="#DejaVuSans-69" x="385.994141"/>
     <use xlink:href="#DejaVuSans-63" x="413.777344"/>
     <use xlink:href="#DejaVuSans-5f" x="468.757812"/>
     <use xlink:href="#DejaVuSans-6d" x="518.757812"/>
     <use xlink:href="#DejaVuSans-65" x="616.169922"/>
     <use xlink:href="#DejaVuSans-61" x="677.693359"/>
     <use xlink:href="#DejaVuSans-6e" x="738.972656"/>
     <use xlink:href="#DejaVuSans-5f" x="802.351562"/>
     <use xlink:href="#DejaVuSans-72" x="852.351562"/>
     <use xlink:href="#DejaVuSans-61" x="893.464844"/>
     <use xlink:href="#DejaVuSans-6e" x="954.744141"/>
     <use xlink:href="#DejaVuSans-6b" x="1018.123047"/>
    </g>
   </g>
   <g id="line2d_52">
    <path d="M 527.322009 143.828219 
L 537.322009 143.828219 
L 547.322009 143.828219 
" style="fill: none; stroke: #ff7f0e; stroke-width: 1.5; stroke-linecap: square"/>
   </g>
   <g id="text_29">
    <!-- arithmetic_mean_rank -->
    <g transform="translate(555.322009 147.328219)scale(0.1 -0.1)">
     <use xlink:href="#DejaVuSans-61"/>
     <use xlink:href="#DejaVuSans-72" x="61.279297"/>
     <use xlink:href="#DejaVuSans-69" x="102.392578"/>
     <use xlink:href="#DejaVuSans-74" x="130.175781"/>
     <use xlink:href="#DejaVuSans-68" x="169.384766"/>
     <use xlink:href="#DejaVuSans-6d" x="232.763672"/>
     <use xlink:href="#DejaVuSans-65" x="330.175781"/>
     <use xlink:href="#DejaVuSans-74" x="391.699219"/>
     <use xlink:href="#DejaVuSans-69" x="430.908203"/>
     <use xlink:href="#DejaVuSans-63" x="458.691406"/>
     <use xlink:href="#DejaVuSans-5f" x="513.671875"/>
     <use xlink:href="#DejaVuSans-6d" x="563.671875"/>
     <use xlink:href="#DejaVuSans-65" x="661.083984"/>
     <use xlink:href="#DejaVuSans-61" x="722.607422"/>
     <use xlink:href="#DejaVuSans-6e" x="783.886719"/>
     <use xlink:href="#DejaVuSans-5f" x="847.265625"/>
     <use xlink:href="#DejaVuSans-72" x="897.265625"/>
     <use xlink:href="#DejaVuSans-61" x="938.378906"/>
     <use xlink:href="#DejaVuSans-6e" x="999.658203"/>
     <use xlink:href="#DejaVuSans-6b" x="1063.037109"/>
    </g>
   </g>
   <g id="line2d_53">
    <path d="M 527.322009 158.784469 
L 537.322009 158.784469 
L 547.322009 158.784469 
" style="fill: none; stroke: #2ca02c; stroke-width: 1.5; stroke-linecap: square"/>
   </g>
   <g id="text_30">
    <!-- geometric_mean_rank -->
    <g transform="translate(555.322009 162.284469)scale(0.1 -0.1)">
     <defs>
      <path id="DejaVuSans-67" d="M 2906 1791 
Q 2906 2416 2648 2759 
Q 2391 3103 1925 3103 
Q 1463 3103 1205 2759 
Q 947 2416 947 1791 
Q 947 1169 1205 825 
Q 1463 481 1925 481 
Q 2391 481 2648 825 
Q 2906 1169 2906 1791 
z
M 3481 434 
Q 3481 -459 3084 -895 
Q 2688 -1331 1869 -1331 
Q 1566 -1331 1297 -1286 
Q 1028 -1241 775 -1147 
L 775 -588 
Q 1028 -725 1275 -790 
Q 1522 -856 1778 -856 
Q 2344 -856 2625 -561 
Q 2906 -266 2906 331 
L 2906 616 
Q 2728 306 2450 153 
Q 2172 0 1784 0 
Q 1141 0 747 490 
Q 353 981 353 1791 
Q 353 2603 747 3093 
Q 1141 3584 1784 3584 
Q 2172 3584 2450 3431 
Q 2728 3278 2906 2969 
L 2906 3500 
L 3481 3500 
L 3481 434 
z
" transform="scale(0.015625)"/>
     </defs>
     <use xlink:href="#DejaVuSans-67"/>
     <use xlink:href="#DejaVuSans-65" x="63.476562"/>
     <use xlink:href="#DejaVuSans-6f" x="125"/>
     <use xlink:href="#DejaVuSans-6d" x="186.181641"/>
     <use xlink:href="#DejaVuSans-65" x="283.59375"/>
     <use xlink:href="#DejaVuSans-74" x="345.117188"/>
     <use xlink:href="#DejaVuSans-72" x="384.326172"/>
     <use xlink:href="#DejaVuSans-69" x="425.439453"/>
     <use xlink:href="#DejaVuSans-63" x="453.222656"/>
     <use xlink:href="#DejaVuSans-5f" x="508.203125"/>
     <use xlink:href="#DejaVuSans-6d" x="558.203125"/>
     <use xlink:href="#DejaVuSans-65" x="655.615234"/>
     <use xlink:href="#DejaVuSans-61" x="717.138672"/>
     <use xlink:href="#DejaVuSans-6e" x="778.417969"/>
     <use xlink:href="#DejaVuSans-5f" x="841.796875"/>
     <use xlink:href="#DejaVuSans-72" x="891.796875"/>
     <use xlink:href="#DejaVuSans-61" x="932.910156"/>
     <use xlink:href="#DejaVuSans-6e" x="994.189453"/>
     <use xlink:href="#DejaVuSans-6b" x="1057.568359"/>
    </g>
   </g>
   <g id="line2d_54">
    <path d="M 527.322009 173.740719 
L 537.322009 173.740719 
L 547.322009 173.740719 
" style="fill: none; stroke: #d62728; stroke-width: 1.5; stroke-linecap: square"/>
   </g>
   <g id="text_31">
    <!-- hits_at_1 -->
    <g transform="translate(555.322009 177.240719)scale(0.1 -0.1)">
     <use xlink:href="#DejaVuSans-68"/>
     <use xlink:href="#DejaVuSans-69" x="63.378906"/>
     <use xlink:href="#DejaVuSans-74" x="91.162109"/>
     <use xlink:href="#DejaVuSans-73" x="130.371094"/>
     <use xlink:href="#DejaVuSans-5f" x="182.470703"/>
     <use xlink:href="#DejaVuSans-61" x="232.470703"/>
     <use xlink:href="#DejaVuSans-74" x="293.75"/>
     <use xlink:href="#DejaVuSans-5f" x="332.958984"/>
     <use xlink:href="#DejaVuSans-31" x="382.958984"/>
    </g>
   </g>
   <g id="line2d_55">
    <path d="M 527.322009 188.696969 
L 537.322009 188.696969 
L 547.322009 188.696969 
" style="fill: none; stroke: #9467bd; stroke-width: 1.5; stroke-linecap: square"/>
   </g>
   <g id="text_32">
    <!-- hits_at_10 -->
    <g transform="translate(555.322009 192.196969)scale(0.1 -0.1)">
     <use xlink:href="#DejaVuSans-68"/>
     <use xlink:href="#DejaVuSans-69" x="63.378906"/>
     <use xlink:href="#DejaVuSans-74" x="91.162109"/>
     <use xlink:href="#DejaVuSans-73" x="130.371094"/>
     <use xlink:href="#DejaVuSans-5f" x="182.470703"/>
     <use xlink:href="#DejaVuSans-61" x="232.470703"/>
     <use xlink:href="#DejaVuSans-74" x="293.75"/>
     <use xlink:href="#DejaVuSans-5f" x="332.958984"/>
     <use xlink:href="#DejaVuSans-31" x="382.958984"/>
     <use xlink:href="#DejaVuSans-30" x="446.582031"/>
    </g>
   </g>
   <g id="line2d_56">
    <path d="M 527.322009 203.653219 
L 537.322009 203.653219 
L 547.322009 203.653219 
" style="fill: none; stroke: #8c564b; stroke-width: 1.5; stroke-linecap: square"/>
   </g>
   <g id="text_33">
    <!-- hits_at_100 -->
    <g transform="translate(555.322009 207.153219)scale(0.1 -0.1)">
     <use xlink:href="#DejaVuSans-68"/>
     <use xlink:href="#DejaVuSans-69" x="63.378906"/>
     <use xlink:href="#DejaVuSans-74" x="91.162109"/>
     <use xlink:href="#DejaVuSans-73" x="130.371094"/>
     <use xlink:href="#DejaVuSans-5f" x="182.470703"/>
     <use xlink:href="#DejaVuSans-61" x="232.470703"/>
     <use xlink:href="#DejaVuSans-74" x="293.75"/>
     <use xlink:href="#DejaVuSans-5f" x="332.958984"/>
     <use xlink:href="#DejaVuSans-31" x="382.958984"/>
     <use xlink:href="#DejaVuSans-30" x="446.582031"/>
     <use xlink:href="#DejaVuSans-30" x="510.205078"/>
    </g>
   </g>
  </g>
 </g>
 <defs>
  <clipPath id="p6b80178829">
   <rect x="37.7" y="20.842187" width="212.127966" height="116.494"/>
  </clipPath>
  <clipPath id="p394985a0e8">
   <rect x="296.09293" y="20.842187" width="212.127966" height="116.494"/>
  </clipPath>
  <clipPath id="pc4991bbcf3">
   <rect x="37.7" y="165.556187" width="212.127966" height="116.494"/>
  </clipPath>
  <clipPath id="p09deb25996">
   <rect x="296.09293" y="165.556187" width="212.127966" height="116.494"/>
  </clipPath>
 </defs>
</svg>
