<?xml version="1.0" encoding="utf-8" standalone="no"?>
<!DOCTYPE svg PUBLIC "-//W3C//DTD SVG 1.1//EN"
  "http://www.w3.org/Graphics/SVG/1.1/DTD/svg11.dtd">
<svg xmlns:xlink="http://www.w3.org/1999/xlink" width="720pt" height="504pt" viewBox="0 0 720 504" xmlns="http://www.w3.org/2000/svg" version="1.1">
 <metadata>
  <rdf:RDF xmlns:dc="http://purl.org/dc/elements/1.1/" xmlns:cc="http://creativecommons.org/ns#" xmlns:rdf="http://www.w3.org/1999/02/22-rdf-syntax-ns#">
   <cc:Work>
    <dc:type rdf:resource="http://purl.org/dc/dcmitype/StillImage"/>
    <dc:date>2022-03-14T19:38:55.063043</dc:date>
    <dc:format>image/svg+xml</dc:format>
    <dc:creator>
     <cc:Agent>
      <dc:title>Matplotlib v3.5.1, https://matplotlib.org/</dc:title>
     </cc:Agent>
    </dc:creator>
   </cc:Work>
  </rdf:RDF>
 </metadata>
 <defs>
  <style type="text/css">*{stroke-linejoin: round; stroke-linecap: butt}</style>
 </defs>
 <g id="figure_1">
  <g id="patch_1">
   <path d="M 0 504 
L 720 504 
L 720 0 
L 0 0 
z
" style="fill: #ffffff"/>
  </g>
  <g id="axes_1">
   <g id="patch_2">
    <path d="M 65.36 222.626625 
L 361.575 222.626625 
L 361.575 21.72 
L 65.36 21.72 
z
" style="fill: #ffffff"/>
   </g>
   <g id="matplotlib.axis_1">
    <g id="xtick_1">
     <g id="text_1">
      <!-- $\mathdefault{10^{1}}$ -->
      <g style="fill: #262626" transform="translate(70.974318 239.939125)scale(0.1 -0.1)">
       <defs>
        <path id="ArialMT-31" d="M 2384 0 
L 1822 0 
L 1822 3584 
Q 1619 3391 1289 3197 
Q 959 3003 697 2906 
L 697 3450 
Q 1169 3672 1522 3987 
Q 1875 4303 2022 4600 
L 2384 4600 
L 2384 0 
z
" transform="scale(0.015625)"/>
        <path id="ArialMT-30" d="M 266 2259 
Q 266 3072 433 3567 
Q 600 4063 929 4331 
Q 1259 4600 1759 4600 
Q 2128 4600 2406 4451 
Q 2684 4303 2865 4023 
Q 3047 3744 3150 3342 
Q 3253 2941 3253 2259 
Q 3253 1453 3087 958 
Q 2922 463 2592 192 
Q 2263 -78 1759 -78 
Q 1097 -78 719 397 
Q 266 969 266 2259 
z
M 844 2259 
Q 844 1131 1108 757 
Q 1372 384 1759 384 
Q 2147 384 2411 759 
Q 2675 1134 2675 2259 
Q 2675 3391 2411 3762 
Q 2147 4134 1753 4134 
Q 1366 4134 1134 3806 
Q 844 3388 844 2259 
z
" transform="scale(0.015625)"/>
       </defs>
       <use xlink:href="#ArialMT-31" transform="translate(0 0.99375)"/>
       <use xlink:href="#ArialMT-30" transform="translate(55.615234 0.99375)"/>
       <use xlink:href="#ArialMT-31" transform="translate(112.972813 70.6875)scale(0.7)"/>
      </g>
     </g>
    </g>
    <g id="xtick_2">
     <g id="text_2">
      <!-- $\mathdefault{10^{2}}$ -->
      <g style="fill: #262626" transform="translate(124.831591 239.939125)scale(0.1 -0.1)">
       <defs>
        <path id="ArialMT-32" d="M 3222 541 
L 3222 0 
L 194 0 
Q 188 203 259 391 
Q 375 700 629 1000 
Q 884 1300 1366 1694 
Q 2113 2306 2375 2664 
Q 2638 3022 2638 3341 
Q 2638 3675 2398 3904 
Q 2159 4134 1775 4134 
Q 1369 4134 1125 3890 
Q 881 3647 878 3216 
L 300 3275 
Q 359 3922 746 4261 
Q 1134 4600 1788 4600 
Q 2447 4600 2831 4234 
Q 3216 3869 3216 3328 
Q 3216 3053 3103 2787 
Q 2991 2522 2730 2228 
Q 2469 1934 1863 1422 
Q 1356 997 1212 845 
Q 1069 694 975 541 
L 3222 541 
z
" transform="scale(0.015625)"/>
       </defs>
       <use xlink:href="#ArialMT-31" transform="translate(0 0.99375)"/>
       <use xlink:href="#ArialMT-30" transform="translate(55.615234 0.99375)"/>
       <use xlink:href="#ArialMT-32" transform="translate(112.972813 70.6875)scale(0.7)"/>
      </g>
     </g>
    </g>
    <g id="xtick_3">
     <g id="text_3">
      <!-- $\mathdefault{10^{3}}$ -->
      <g style="fill: #262626" transform="translate(178.688864 239.939125)scale(0.1 -0.1)">
       <defs>
        <path id="ArialMT-33" d="M 269 1209 
L 831 1284 
Q 928 806 1161 595 
Q 1394 384 1728 384 
Q 2125 384 2398 659 
Q 2672 934 2672 1341 
Q 2672 1728 2419 1979 
Q 2166 2231 1775 2231 
Q 1616 2231 1378 2169 
L 1441 2663 
Q 1497 2656 1531 2656 
Q 1891 2656 2178 2843 
Q 2466 3031 2466 3422 
Q 2466 3731 2256 3934 
Q 2047 4138 1716 4138 
Q 1388 4138 1169 3931 
Q 950 3725 888 3313 
L 325 3413 
Q 428 3978 793 4289 
Q 1159 4600 1703 4600 
Q 2078 4600 2393 4439 
Q 2709 4278 2876 4000 
Q 3044 3722 3044 3409 
Q 3044 3113 2884 2869 
Q 2725 2625 2413 2481 
Q 2819 2388 3044 2092 
Q 3269 1797 3269 1353 
Q 3269 753 2831 336 
Q 2394 -81 1725 -81 
Q 1122 -81 723 278 
Q 325 638 269 1209 
z
" transform="scale(0.015625)"/>
       </defs>
       <use xlink:href="#ArialMT-31" transform="translate(0 0.99375)"/>
       <use xlink:href="#ArialMT-30" transform="translate(55.615234 0.99375)"/>
       <use xlink:href="#ArialMT-33" transform="translate(112.972813 70.6875)scale(0.7)"/>
      </g>
     </g>
    </g>
    <g id="xtick_4">
     <g id="text_4">
      <!-- $\mathdefault{10^{4}}$ -->
      <g style="fill: #262626" transform="translate(232.546136 239.839125)scale(0.1 -0.1)">
       <defs>
        <path id="ArialMT-34" d="M 2069 0 
L 2069 1097 
L 81 1097 
L 81 1613 
L 2172 4581 
L 2631 4581 
L 2631 1613 
L 3250 1613 
L 3250 1097 
L 2631 1097 
L 2631 0 
L 2069 0 
z
M 2069 1613 
L 2069 3678 
L 634 1613 
L 2069 1613 
z
" transform="scale(0.015625)"/>
       </defs>
       <use xlink:href="#ArialMT-31" transform="translate(0 0.201563)"/>
       <use xlink:href="#ArialMT-30" transform="translate(55.615234 0.201563)"/>
       <use xlink:href="#ArialMT-34" transform="translate(112.972813 69.895313)scale(0.7)"/>
      </g>
     </g>
    </g>
    <g id="xtick_5">
     <g id="text_5">
      <!-- $\mathdefault{10^{5}}$ -->
      <g style="fill: #262626" transform="translate(286.403409 239.839125)scale(0.1 -0.1)">
       <defs>
        <path id="ArialMT-35" d="M 266 1200 
L 856 1250 
Q 922 819 1161 601 
Q 1400 384 1738 384 
Q 2144 384 2425 690 
Q 2706 997 2706 1503 
Q 2706 1984 2436 2262 
Q 2166 2541 1728 2541 
Q 1456 2541 1237 2417 
Q 1019 2294 894 2097 
L 366 2166 
L 809 4519 
L 3088 4519 
L 3088 3981 
L 1259 3981 
L 1013 2750 
Q 1425 3038 1878 3038 
Q 2478 3038 2890 2622 
Q 3303 2206 3303 1553 
Q 3303 931 2941 478 
Q 2500 -78 1738 -78 
Q 1113 -78 717 272 
Q 322 622 266 1200 
z
" transform="scale(0.015625)"/>
       </defs>
       <use xlink:href="#ArialMT-31" transform="translate(0 0.879688)"/>
       <use xlink:href="#ArialMT-30" transform="translate(55.615234 0.879688)"/>
       <use xlink:href="#ArialMT-35" transform="translate(112.972813 70.573438)scale(0.7)"/>
      </g>
     </g>
    </g>
    <g id="xtick_6">
     <g id="text_6">
      <!-- $\mathdefault{10^{6}}$ -->
      <g style="fill: #262626" transform="translate(340.260682 239.939125)scale(0.1 -0.1)">
       <defs>
        <path id="ArialMT-36" d="M 3184 3459 
L 2625 3416 
Q 2550 3747 2413 3897 
Q 2184 4138 1850 4138 
Q 1581 4138 1378 3988 
Q 1113 3794 959 3422 
Q 806 3050 800 2363 
Q 1003 2672 1297 2822 
Q 1591 2972 1913 2972 
Q 2475 2972 2870 2558 
Q 3266 2144 3266 1488 
Q 3266 1056 3080 686 
Q 2894 316 2569 119 
Q 2244 -78 1831 -78 
Q 1128 -78 684 439 
Q 241 956 241 2144 
Q 241 3472 731 4075 
Q 1159 4600 1884 4600 
Q 2425 4600 2770 4297 
Q 3116 3994 3184 3459 
z
M 888 1484 
Q 888 1194 1011 928 
Q 1134 663 1356 523 
Q 1578 384 1822 384 
Q 2178 384 2434 671 
Q 2691 959 2691 1453 
Q 2691 1928 2437 2201 
Q 2184 2475 1800 2475 
Q 1419 2475 1153 2201 
Q 888 1928 888 1484 
z
" transform="scale(0.015625)"/>
       </defs>
       <use xlink:href="#ArialMT-31" transform="translate(0 0.99375)"/>
       <use xlink:href="#ArialMT-30" transform="translate(55.615234 0.99375)"/>
       <use xlink:href="#ArialMT-36" transform="translate(112.972813 70.6875)scale(0.7)"/>
      </g>
     </g>
    </g>
    <g id="xtick_7"/>
    <g id="xtick_8"/>
    <g id="xtick_9"/>
    <g id="xtick_10"/>
    <g id="xtick_11"/>
    <g id="xtick_12"/>
    <g id="xtick_13"/>
    <g id="xtick_14"/>
    <g id="xtick_15"/>
    <g id="xtick_16"/>
    <g id="xtick_17"/>
    <g id="xtick_18"/>
    <g id="xtick_19"/>
    <g id="xtick_20"/>
    <g id="xtick_21"/>
    <g id="xtick_22"/>
    <g id="xtick_23"/>
    <g id="xtick_24"/>
    <g id="xtick_25"/>
    <g id="xtick_26"/>
    <g id="xtick_27"/>
    <g id="xtick_28"/>
    <g id="xtick_29"/>
    <g id="xtick_30"/>
    <g id="xtick_31"/>
    <g id="xtick_32"/>
    <g id="xtick_33"/>
    <g id="xtick_34"/>
    <g id="xtick_35"/>
    <g id="xtick_36"/>
    <g id="xtick_37"/>
    <g id="xtick_38"/>
    <g id="xtick_39"/>
    <g id="xtick_40"/>
    <g id="xtick_41"/>
    <g id="xtick_42"/>
    <g id="xtick_43"/>
    <g id="xtick_44"/>
    <g id="xtick_45"/>
    <g id="xtick_46"/>
    <g id="xtick_47"/>
    <g id="xtick_48"/>
    <g id="xtick_49"/>
    <g id="xtick_50"/>
   </g>
   <g id="matplotlib.axis_2">
    <g id="ytick_1">
     <g id="text_7">
      <!-- 0 -->
      <g style="fill: #262626" transform="translate(52.799062 217.075237)scale(0.1 -0.1)">
       <use xlink:href="#ArialMT-30"/>
      </g>
     </g>
    </g>
    <g id="ytick_2">
     <g id="text_8">
      <!-- 100000 -->
      <g style="fill: #262626" transform="translate(24.994375 182.188394)scale(0.1 -0.1)">
       <use xlink:href="#ArialMT-31"/>
       <use xlink:href="#ArialMT-30" x="55.615234"/>
       <use xlink:href="#ArialMT-30" x="111.230469"/>
       <use xlink:href="#ArialMT-30" x="166.845703"/>
       <use xlink:href="#ArialMT-30" x="222.460938"/>
       <use xlink:href="#ArialMT-30" x="278.076172"/>
      </g>
     </g>
    </g>
    <g id="ytick_3">
     <g id="text_9">
      <!-- 200000 -->
      <g style="fill: #262626" transform="translate(24.994375 147.30155)scale(0.1 -0.1)">
       <use xlink:href="#ArialMT-32"/>
       <use xlink:href="#ArialMT-30" x="55.615234"/>
       <use xlink:href="#ArialMT-30" x="111.230469"/>
       <use xlink:href="#ArialMT-30" x="166.845703"/>
       <use xlink:href="#ArialMT-30" x="222.460938"/>
       <use xlink:href="#ArialMT-30" x="278.076172"/>
      </g>
     </g>
    </g>
    <g id="ytick_4">
     <g id="text_10">
      <!-- 300000 -->
      <g style="fill: #262626" transform="translate(24.994375 112.414707)scale(0.1 -0.1)">
       <use xlink:href="#ArialMT-33"/>
       <use xlink:href="#ArialMT-30" x="55.615234"/>
       <use xlink:href="#ArialMT-30" x="111.230469"/>
       <use xlink:href="#ArialMT-30" x="166.845703"/>
       <use xlink:href="#ArialMT-30" x="222.460938"/>
       <use xlink:href="#ArialMT-30" x="278.076172"/>
      </g>
     </g>
    </g>
    <g id="ytick_5">
     <g id="text_11">
      <!-- 400000 -->
      <g style="fill: #262626" transform="translate(24.994375 77.527864)scale(0.1 -0.1)">
       <use xlink:href="#ArialMT-34"/>
       <use xlink:href="#ArialMT-30" x="55.615234"/>
       <use xlink:href="#ArialMT-30" x="111.230469"/>
       <use xlink:href="#ArialMT-30" x="166.845703"/>
       <use xlink:href="#ArialMT-30" x="222.460938"/>
       <use xlink:href="#ArialMT-30" x="278.076172"/>
      </g>
     </g>
    </g>
    <g id="ytick_6">
     <g id="text_12">
      <!-- 500000 -->
      <g style="fill: #262626" transform="translate(24.994375 42.64102)scale(0.1 -0.1)">
       <use xlink:href="#ArialMT-35"/>
       <use xlink:href="#ArialMT-30" x="55.615234"/>
       <use xlink:href="#ArialMT-30" x="111.230469"/>
       <use xlink:href="#ArialMT-30" x="166.845703"/>
       <use xlink:href="#ArialMT-30" x="222.460938"/>
       <use xlink:href="#ArialMT-30" x="278.076172"/>
      </g>
     </g>
    </g>
    <g id="text_13">
     <!-- Expectation -->
     <g style="fill: #262626" transform="translate(19.006875 148.299875)rotate(-90)scale(0.1 -0.1)">
      <defs>
       <path id="ArialMT-45" d="M 506 0 
L 506 4581 
L 3819 4581 
L 3819 4041 
L 1113 4041 
L 1113 2638 
L 3647 2638 
L 3647 2100 
L 1113 2100 
L 1113 541 
L 3925 541 
L 3925 0 
L 506 0 
z
" transform="scale(0.015625)"/>
       <path id="ArialMT-78" d="M 47 0 
L 1259 1725 
L 138 3319 
L 841 3319 
L 1350 2541 
Q 1494 2319 1581 2169 
Q 1719 2375 1834 2534 
L 2394 3319 
L 3066 3319 
L 1919 1756 
L 3153 0 
L 2463 0 
L 1781 1031 
L 1600 1309 
L 728 0 
L 47 0 
z
" transform="scale(0.015625)"/>
       <path id="ArialMT-70" d="M 422 -1272 
L 422 3319 
L 934 3319 
L 934 2888 
Q 1116 3141 1344 3267 
Q 1572 3394 1897 3394 
Q 2322 3394 2647 3175 
Q 2972 2956 3137 2557 
Q 3303 2159 3303 1684 
Q 3303 1175 3120 767 
Q 2938 359 2589 142 
Q 2241 -75 1856 -75 
Q 1575 -75 1351 44 
Q 1128 163 984 344 
L 984 -1272 
L 422 -1272 
z
M 931 1641 
Q 931 1000 1190 694 
Q 1450 388 1819 388 
Q 2194 388 2461 705 
Q 2728 1022 2728 1688 
Q 2728 2322 2467 2637 
Q 2206 2953 1844 2953 
Q 1484 2953 1207 2617 
Q 931 2281 931 1641 
z
" transform="scale(0.015625)"/>
       <path id="ArialMT-65" d="M 2694 1069 
L 3275 997 
Q 3138 488 2766 206 
Q 2394 -75 1816 -75 
Q 1088 -75 661 373 
Q 234 822 234 1631 
Q 234 2469 665 2931 
Q 1097 3394 1784 3394 
Q 2450 3394 2872 2941 
Q 3294 2488 3294 1666 
Q 3294 1616 3291 1516 
L 816 1516 
Q 847 969 1125 678 
Q 1403 388 1819 388 
Q 2128 388 2347 550 
Q 2566 713 2694 1069 
z
M 847 1978 
L 2700 1978 
Q 2663 2397 2488 2606 
Q 2219 2931 1791 2931 
Q 1403 2931 1139 2672 
Q 875 2413 847 1978 
z
" transform="scale(0.015625)"/>
       <path id="ArialMT-63" d="M 2588 1216 
L 3141 1144 
Q 3050 572 2676 248 
Q 2303 -75 1759 -75 
Q 1078 -75 664 370 
Q 250 816 250 1647 
Q 250 2184 428 2587 
Q 606 2991 970 3192 
Q 1334 3394 1763 3394 
Q 2303 3394 2647 3120 
Q 2991 2847 3088 2344 
L 2541 2259 
Q 2463 2594 2264 2762 
Q 2066 2931 1784 2931 
Q 1359 2931 1093 2626 
Q 828 2322 828 1663 
Q 828 994 1084 691 
Q 1341 388 1753 388 
Q 2084 388 2306 591 
Q 2528 794 2588 1216 
z
" transform="scale(0.015625)"/>
       <path id="ArialMT-74" d="M 1650 503 
L 1731 6 
Q 1494 -44 1306 -44 
Q 1000 -44 831 53 
Q 663 150 594 308 
Q 525 466 525 972 
L 525 2881 
L 113 2881 
L 113 3319 
L 525 3319 
L 525 4141 
L 1084 4478 
L 1084 3319 
L 1650 3319 
L 1650 2881 
L 1084 2881 
L 1084 941 
Q 1084 700 1114 631 
Q 1144 563 1211 522 
Q 1278 481 1403 481 
Q 1497 481 1650 503 
z
" transform="scale(0.015625)"/>
       <path id="ArialMT-61" d="M 2588 409 
Q 2275 144 1986 34 
Q 1697 -75 1366 -75 
Q 819 -75 525 192 
Q 231 459 231 875 
Q 231 1119 342 1320 
Q 453 1522 633 1644 
Q 813 1766 1038 1828 
Q 1203 1872 1538 1913 
Q 2219 1994 2541 2106 
Q 2544 2222 2544 2253 
Q 2544 2597 2384 2738 
Q 2169 2928 1744 2928 
Q 1347 2928 1158 2789 
Q 969 2650 878 2297 
L 328 2372 
Q 403 2725 575 2942 
Q 747 3159 1072 3276 
Q 1397 3394 1825 3394 
Q 2250 3394 2515 3294 
Q 2781 3194 2906 3042 
Q 3031 2891 3081 2659 
Q 3109 2516 3109 2141 
L 3109 1391 
Q 3109 606 3145 398 
Q 3181 191 3288 0 
L 2700 0 
Q 2613 175 2588 409 
z
M 2541 1666 
Q 2234 1541 1622 1453 
Q 1275 1403 1131 1340 
Q 988 1278 909 1158 
Q 831 1038 831 891 
Q 831 666 1001 516 
Q 1172 366 1500 366 
Q 1825 366 2078 508 
Q 2331 650 2450 897 
Q 2541 1088 2541 1459 
L 2541 1666 
z
" transform="scale(0.015625)"/>
       <path id="ArialMT-69" d="M 425 3934 
L 425 4581 
L 988 4581 
L 988 3934 
L 425 3934 
z
M 425 0 
L 425 3319 
L 988 3319 
L 988 0 
L 425 0 
z
" transform="scale(0.015625)"/>
       <path id="ArialMT-6f" d="M 213 1659 
Q 213 2581 725 3025 
Q 1153 3394 1769 3394 
Q 2453 3394 2887 2945 
Q 3322 2497 3322 1706 
Q 3322 1066 3130 698 
Q 2938 331 2570 128 
Q 2203 -75 1769 -75 
Q 1072 -75 642 372 
Q 213 819 213 1659 
z
M 791 1659 
Q 791 1022 1069 705 
Q 1347 388 1769 388 
Q 2188 388 2466 706 
Q 2744 1025 2744 1678 
Q 2744 2294 2464 2611 
Q 2184 2928 1769 2928 
Q 1347 2928 1069 2612 
Q 791 2297 791 1659 
z
" transform="scale(0.015625)"/>
       <path id="ArialMT-6e" d="M 422 0 
L 422 3319 
L 928 3319 
L 928 2847 
Q 1294 3394 1984 3394 
Q 2284 3394 2536 3286 
Q 2788 3178 2913 3003 
Q 3038 2828 3088 2588 
Q 3119 2431 3119 2041 
L 3119 0 
L 2556 0 
L 2556 2019 
Q 2556 2363 2490 2533 
Q 2425 2703 2258 2804 
Q 2091 2906 1866 2906 
Q 1506 2906 1245 2678 
Q 984 2450 984 1813 
L 984 0 
L 422 0 
z
" transform="scale(0.015625)"/>
      </defs>
      <use xlink:href="#ArialMT-45"/>
      <use xlink:href="#ArialMT-78" x="66.699219"/>
      <use xlink:href="#ArialMT-70" x="116.699219"/>
      <use xlink:href="#ArialMT-65" x="172.314453"/>
      <use xlink:href="#ArialMT-63" x="227.929688"/>
      <use xlink:href="#ArialMT-74" x="277.929688"/>
      <use xlink:href="#ArialMT-61" x="305.712891"/>
      <use xlink:href="#ArialMT-74" x="361.328125"/>
      <use xlink:href="#ArialMT-69" x="389.111328"/>
      <use xlink:href="#ArialMT-6f" x="411.328125"/>
      <use xlink:href="#ArialMT-6e" x="466.943359"/>
     </g>
    </g>
   </g>
   <g id="line2d_1">
    <path d="M 78.824318 213.494506 
L 84.319958 213.494142 
L 89.815598 213.493467 
L 95.311238 213.492638 
L 100.806878 213.491838 
L 106.302519 213.49062 
L 111.798159 213.48963 
L 117.293799 213.486894 
L 122.789439 213.485051 
L 128.285079 213.481775 
L 133.780719 213.478417 
L 139.276359 213.474315 
L 144.771999 213.467789 
L 150.267639 213.459888 
L 155.763279 213.449096 
L 161.258919 213.438406 
L 166.754559 213.422944 
L 172.250199 213.40833 
L 177.74584 213.38134 
L 183.24148 213.341448 
L 188.73712 213.307796 
L 194.23276 213.249413 
L 199.7284 213.191743 
L 205.22404 213.110049 
L 210.71968 213.010889 
L 216.21532 212.874034 
L 221.71096 212.724543 
L 227.2066 212.489265 
L 232.70224 212.242344 
L 238.19788 211.919763 
L 243.69352 211.547736 
L 249.18916 210.995906 
L 254.684801 210.282435 
L 260.180441 209.277042 
L 265.676081 208.527325 
L 271.171721 207.101847 
L 276.667361 205.230629 
L 282.163001 203.132819 
L 287.658641 199.73924 
L 293.154281 196.504867 
L 298.649921 192.673756 
L 304.145561 187.203894 
L 309.641201 180.447221 
L 315.136841 172.023985 
L 320.632481 157.90466 
L 326.128122 144.556902 
L 331.623762 126.879227 
L 337.119402 104.645864 
L 342.615042 75.515058 
L 348.110682 30.852119 
" clip-path="url(#p5bf0826a50)" style="fill: none; stroke: #1f77b4; stroke-width: 1.5; stroke-linecap: round"/>
   </g>
   <g id="line2d_2">
    <path d="M 78.824318 213.494412 
L 84.319958 213.49395 
L 89.815598 213.493366 
L 95.311238 213.492627 
L 100.806878 213.491692 
L 106.302519 213.490509 
L 111.798159 213.489014 
L 117.293799 213.487122 
L 122.789439 213.484729 
L 128.285079 213.481702 
L 133.780719 213.477874 
L 139.276359 213.473032 
L 144.771999 213.466907 
L 150.267639 213.45916 
L 155.763279 213.449361 
L 161.258919 213.436967 
L 166.754559 213.421291 
L 172.250199 213.401462 
L 177.74584 213.376381 
L 183.24148 213.344658 
L 188.73712 213.304533 
L 194.23276 213.253781 
L 199.7284 213.189587 
L 205.22404 213.10839 
L 210.71968 213.005688 
L 216.21532 212.875785 
L 221.71096 212.711476 
L 227.2066 212.503649 
L 232.70224 212.240778 
L 238.19788 211.908285 
L 243.69352 211.487729 
L 249.18916 210.955786 
L 254.684801 210.282956 
L 260.180441 209.431923 
L 265.676081 208.35549 
L 271.171721 206.993958 
L 276.667361 205.271816 
L 282.163001 203.093557 
L 287.658641 200.338374 
L 293.154281 196.853467 
L 298.649921 192.445564 
L 304.145561 186.870204 
L 309.641201 179.818182 
L 315.136841 170.898395 
L 320.632481 159.616155 
L 326.128122 145.345756 
L 331.623762 127.295767 
L 337.119402 104.465144 
L 342.615042 75.587711 
L 348.110682 39.06194 
" clip-path="url(#p5bf0826a50)" style="fill: none; stroke: #ff7f0e; stroke-width: 1.5; stroke-linecap: round"/>
   </g>
   <g id="line2d_3">
    <path d="M 78.824318 213.494499 
L 84.319958 213.494035 
L 89.815598 213.493441 
L 95.311238 213.492724 
L 100.806878 213.491843 
L 106.302519 213.49066 
L 111.798159 213.489011 
L 117.293799 213.487375 
L 122.789439 213.484284 
L 128.285079 213.481957 
L 133.780719 213.478931 
L 139.276359 213.473524 
L 144.771999 213.468424 
L 150.267639 213.459573 
L 155.763279 213.448505 
L 161.258919 213.437506 
L 166.754559 213.421718 
L 172.250199 213.402882 
L 177.74584 213.379461 
L 183.24148 213.344126 
L 188.73712 213.303671 
L 194.23276 213.254731 
L 199.7284 213.183953 
L 205.22404 213.112655 
L 210.71968 213.021121 
L 216.21532 212.905694 
L 221.71096 212.73384 
L 227.2066 212.481106 
L 232.70224 212.254999 
L 238.19788 211.847173 
L 243.69352 211.484129 
L 249.18916 210.871536 
L 254.684801 210.393112 
L 260.180441 209.382021 
L 265.676081 208.068296 
L 271.171721 207.003522 
L 276.667361 205.452065 
L 282.163001 202.819674 
L 287.658641 200.235459 
L 293.154281 196.576025 
L 298.649921 192.50622 
L 304.145561 186.154192 
L 309.641201 179.487473 
L 315.136841 171.144738 
L 320.632481 160.100185 
L 326.128122 145.916415 
L 331.623762 128.11634 
L 337.119402 111.882299 
L 342.615042 77.547016 
L 348.110682 42.266483 
" clip-path="url(#p5bf0826a50)" style="fill: none; stroke: #2ca02c; stroke-width: 1.5; stroke-linecap: round"/>
   </g>
   <g id="line2d_4"/>
   <g id="line2d_5"/>
   <g id="line2d_6"/>
   <g id="patch_3">
    <path d="M 65.36 222.626625 
L 65.36 21.72 
" style="fill: none; stroke: #262626; stroke-width: 0.8; stroke-linejoin: miter; stroke-linecap: square"/>
   </g>
   <g id="patch_4">
    <path d="M 361.575 222.626625 
L 361.575 21.72 
" style="fill: none; stroke: #262626; stroke-width: 0.8; stroke-linejoin: miter; stroke-linecap: square"/>
   </g>
   <g id="patch_5">
    <path d="M 65.36 222.626625 
L 361.575 222.626625 
" style="fill: none; stroke: #262626; stroke-width: 0.8; stroke-linejoin: miter; stroke-linecap: square"/>
   </g>
   <g id="patch_6">
    <path d="M 65.36 21.72 
L 361.575 21.72 
" style="fill: none; stroke: #262626; stroke-width: 0.8; stroke-linejoin: miter; stroke-linecap: square"/>
   </g>
   <g id="legend_1">
    <g id="patch_7">
     <path d="M 72.36 86.30125 
L 198.836563 86.30125 
Q 200.836563 86.30125 200.836563 84.30125 
L 200.836563 28.72 
Q 200.836563 26.72 198.836563 26.72 
L 72.36 26.72 
Q 70.36 26.72 70.36 28.72 
L 70.36 84.30125 
Q 70.36 86.30125 72.36 86.30125 
z
" style="fill: #ffffff; opacity: 0.8; stroke: #cccccc; stroke-linejoin: miter"/>
    </g>
    <g id="text_14">
     <!-- metric -->
     <g style="fill: #262626" transform="translate(121.988125 37.877813)scale(0.1 -0.1)">
      <defs>
       <path id="ArialMT-6d" d="M 422 0 
L 422 3319 
L 925 3319 
L 925 2853 
Q 1081 3097 1340 3245 
Q 1600 3394 1931 3394 
Q 2300 3394 2536 3241 
Q 2772 3088 2869 2813 
Q 3263 3394 3894 3394 
Q 4388 3394 4653 3120 
Q 4919 2847 4919 2278 
L 4919 0 
L 4359 0 
L 4359 2091 
Q 4359 2428 4304 2576 
Q 4250 2725 4106 2815 
Q 3963 2906 3769 2906 
Q 3419 2906 3187 2673 
Q 2956 2441 2956 1928 
L 2956 0 
L 2394 0 
L 2394 2156 
Q 2394 2531 2256 2718 
Q 2119 2906 1806 2906 
Q 1569 2906 1367 2781 
Q 1166 2656 1075 2415 
Q 984 2175 984 1722 
L 984 0 
L 422 0 
z
" transform="scale(0.015625)"/>
       <path id="ArialMT-72" d="M 416 0 
L 416 3319 
L 922 3319 
L 922 2816 
Q 1116 3169 1280 3281 
Q 1444 3394 1641 3394 
Q 1925 3394 2219 3213 
L 2025 2691 
Q 1819 2813 1613 2813 
Q 1428 2813 1281 2702 
Q 1134 2591 1072 2394 
Q 978 2094 978 1738 
L 978 0 
L 416 0 
z
" transform="scale(0.015625)"/>
      </defs>
      <use xlink:href="#ArialMT-6d"/>
      <use xlink:href="#ArialMT-65" x="83.300781"/>
      <use xlink:href="#ArialMT-74" x="138.916016"/>
      <use xlink:href="#ArialMT-72" x="166.699219"/>
      <use xlink:href="#ArialMT-69" x="200"/>
      <use xlink:href="#ArialMT-63" x="222.216797"/>
     </g>
    </g>
    <g id="line2d_7">
     <path d="M 74.36 48.523125 
L 84.36 48.523125 
L 94.36 48.523125 
" style="fill: none; stroke: #1f77b4; stroke-width: 1.5; stroke-linecap: round"/>
    </g>
    <g id="text_15">
     <!-- HarmonicMeanRank -->
     <g style="fill: #262626" transform="translate(102.36 52.023125)scale(0.1 -0.1)">
      <defs>
       <path id="ArialMT-48" d="M 513 0 
L 513 4581 
L 1119 4581 
L 1119 2700 
L 3500 2700 
L 3500 4581 
L 4106 4581 
L 4106 0 
L 3500 0 
L 3500 2159 
L 1119 2159 
L 1119 0 
L 513 0 
z
" transform="scale(0.015625)"/>
       <path id="ArialMT-4d" d="M 475 0 
L 475 4581 
L 1388 4581 
L 2472 1338 
Q 2622 884 2691 659 
Q 2769 909 2934 1394 
L 4031 4581 
L 4847 4581 
L 4847 0 
L 4263 0 
L 4263 3834 
L 2931 0 
L 2384 0 
L 1059 3900 
L 1059 0 
L 475 0 
z
" transform="scale(0.015625)"/>
       <path id="ArialMT-52" d="M 503 0 
L 503 4581 
L 2534 4581 
Q 3147 4581 3465 4457 
Q 3784 4334 3975 4021 
Q 4166 3709 4166 3331 
Q 4166 2844 3850 2509 
Q 3534 2175 2875 2084 
Q 3116 1969 3241 1856 
Q 3506 1613 3744 1247 
L 4541 0 
L 3778 0 
L 3172 953 
Q 2906 1366 2734 1584 
Q 2563 1803 2427 1890 
Q 2291 1978 2150 2013 
Q 2047 2034 1813 2034 
L 1109 2034 
L 1109 0 
L 503 0 
z
M 1109 2559 
L 2413 2559 
Q 2828 2559 3062 2645 
Q 3297 2731 3419 2920 
Q 3541 3109 3541 3331 
Q 3541 3656 3305 3865 
Q 3069 4075 2559 4075 
L 1109 4075 
L 1109 2559 
z
" transform="scale(0.015625)"/>
       <path id="ArialMT-6b" d="M 425 0 
L 425 4581 
L 988 4581 
L 988 1969 
L 2319 3319 
L 3047 3319 
L 1778 2088 
L 3175 0 
L 2481 0 
L 1384 1697 
L 988 1316 
L 988 0 
L 425 0 
z
" transform="scale(0.015625)"/>
      </defs>
      <use xlink:href="#ArialMT-48"/>
      <use xlink:href="#ArialMT-61" x="72.216797"/>
      <use xlink:href="#ArialMT-72" x="127.832031"/>
      <use xlink:href="#ArialMT-6d" x="161.132812"/>
      <use xlink:href="#ArialMT-6f" x="244.433594"/>
      <use xlink:href="#ArialMT-6e" x="300.048828"/>
      <use xlink:href="#ArialMT-69" x="355.664062"/>
      <use xlink:href="#ArialMT-63" x="377.880859"/>
      <use xlink:href="#ArialMT-4d" x="427.880859"/>
      <use xlink:href="#ArialMT-65" x="511.181641"/>
      <use xlink:href="#ArialMT-61" x="566.796875"/>
      <use xlink:href="#ArialMT-6e" x="622.412109"/>
      <use xlink:href="#ArialMT-52" x="678.027344"/>
      <use xlink:href="#ArialMT-61" x="750.244141"/>
      <use xlink:href="#ArialMT-6e" x="805.859375"/>
      <use xlink:href="#ArialMT-6b" x="861.474609"/>
     </g>
    </g>
    <g id="line2d_8">
     <path d="M 74.36 62.668437 
L 84.36 62.668437 
L 94.36 62.668437 
" style="fill: none; stroke: #ff7f0e; stroke-width: 1.5; stroke-linecap: round"/>
    </g>
    <g id="text_16">
     <!-- ArithmeticMeanRank -->
     <g style="fill: #262626" transform="translate(102.36 66.168437)scale(0.1 -0.1)">
      <defs>
       <path id="ArialMT-41" d="M -9 0 
L 1750 4581 
L 2403 4581 
L 4278 0 
L 3588 0 
L 3053 1388 
L 1138 1388 
L 634 0 
L -9 0 
z
M 1313 1881 
L 2866 1881 
L 2388 3150 
Q 2169 3728 2063 4100 
Q 1975 3659 1816 3225 
L 1313 1881 
z
" transform="scale(0.015625)"/>
       <path id="ArialMT-68" d="M 422 0 
L 422 4581 
L 984 4581 
L 984 2938 
Q 1378 3394 1978 3394 
Q 2347 3394 2619 3248 
Q 2891 3103 3008 2847 
Q 3125 2591 3125 2103 
L 3125 0 
L 2563 0 
L 2563 2103 
Q 2563 2525 2380 2717 
Q 2197 2909 1863 2909 
Q 1613 2909 1392 2779 
Q 1172 2650 1078 2428 
Q 984 2206 984 1816 
L 984 0 
L 422 0 
z
" transform="scale(0.015625)"/>
      </defs>
      <use xlink:href="#ArialMT-41"/>
      <use xlink:href="#ArialMT-72" x="66.699219"/>
      <use xlink:href="#ArialMT-69" x="100"/>
      <use xlink:href="#ArialMT-74" x="122.216797"/>
      <use xlink:href="#ArialMT-68" x="150"/>
      <use xlink:href="#ArialMT-6d" x="205.615234"/>
      <use xlink:href="#ArialMT-65" x="288.916016"/>
      <use xlink:href="#ArialMT-74" x="344.53125"/>
      <use xlink:href="#ArialMT-69" x="372.314453"/>
      <use xlink:href="#ArialMT-63" x="394.53125"/>
      <use xlink:href="#ArialMT-4d" x="444.53125"/>
      <use xlink:href="#ArialMT-65" x="527.832031"/>
      <use xlink:href="#ArialMT-61" x="583.447266"/>
      <use xlink:href="#ArialMT-6e" x="639.0625"/>
      <use xlink:href="#ArialMT-52" x="694.677734"/>
      <use xlink:href="#ArialMT-61" x="766.894531"/>
      <use xlink:href="#ArialMT-6e" x="822.509766"/>
      <use xlink:href="#ArialMT-6b" x="878.125"/>
     </g>
    </g>
    <g id="line2d_9">
     <path d="M 74.36 76.81375 
L 84.36 76.81375 
L 94.36 76.81375 
" style="fill: none; stroke: #2ca02c; stroke-width: 1.5; stroke-linecap: round"/>
    </g>
    <g id="text_17">
     <!-- GeometricMeanRank -->
     <g style="fill: #262626" transform="translate(102.36 80.31375)scale(0.1 -0.1)">
      <defs>
       <path id="ArialMT-47" d="M 2638 1797 
L 2638 2334 
L 4578 2338 
L 4578 638 
Q 4131 281 3656 101 
Q 3181 -78 2681 -78 
Q 2006 -78 1454 211 
Q 903 500 622 1047 
Q 341 1594 341 2269 
Q 341 2938 620 3517 
Q 900 4097 1425 4378 
Q 1950 4659 2634 4659 
Q 3131 4659 3532 4498 
Q 3934 4338 4162 4050 
Q 4391 3763 4509 3300 
L 3963 3150 
Q 3859 3500 3706 3700 
Q 3553 3900 3268 4020 
Q 2984 4141 2638 4141 
Q 2222 4141 1919 4014 
Q 1616 3888 1430 3681 
Q 1244 3475 1141 3228 
Q 966 2803 966 2306 
Q 966 1694 1177 1281 
Q 1388 869 1791 669 
Q 2194 469 2647 469 
Q 3041 469 3416 620 
Q 3791 772 3984 944 
L 3984 1797 
L 2638 1797 
z
" transform="scale(0.015625)"/>
      </defs>
      <use xlink:href="#ArialMT-47"/>
      <use xlink:href="#ArialMT-65" x="77.783203"/>
      <use xlink:href="#ArialMT-6f" x="133.398438"/>
      <use xlink:href="#ArialMT-6d" x="189.013672"/>
      <use xlink:href="#ArialMT-65" x="272.314453"/>
      <use xlink:href="#ArialMT-74" x="327.929688"/>
      <use xlink:href="#ArialMT-72" x="355.712891"/>
      <use xlink:href="#ArialMT-69" x="389.013672"/>
      <use xlink:href="#ArialMT-63" x="411.230469"/>
      <use xlink:href="#ArialMT-4d" x="461.230469"/>
      <use xlink:href="#ArialMT-65" x="544.53125"/>
      <use xlink:href="#ArialMT-61" x="600.146484"/>
      <use xlink:href="#ArialMT-6e" x="655.761719"/>
      <use xlink:href="#ArialMT-52" x="711.376953"/>
      <use xlink:href="#ArialMT-61" x="783.59375"/>
      <use xlink:href="#ArialMT-6e" x="839.208984"/>
      <use xlink:href="#ArialMT-6b" x="894.824219"/>
     </g>
    </g>
   </g>
  </g>
  <g id="axes_2">
   <g id="patch_8">
    <path d="M 412.985 222.626625 
L 709.2 222.626625 
L 709.2 21.72 
L 412.985 21.72 
z
" style="fill: #ffffff"/>
   </g>
   <g id="matplotlib.axis_3">
    <g id="xtick_51">
     <g id="text_18">
      <!-- $\mathdefault{10^{1}}$ -->
      <g style="fill: #262626" transform="translate(418.599318 239.939125)scale(0.1 -0.1)">
       <use xlink:href="#ArialMT-31" transform="translate(0 0.99375)"/>
       <use xlink:href="#ArialMT-30" transform="translate(55.615234 0.99375)"/>
       <use xlink:href="#ArialMT-31" transform="translate(112.972813 70.6875)scale(0.7)"/>
      </g>
     </g>
    </g>
    <g id="xtick_52">
     <g id="text_19">
      <!-- $\mathdefault{10^{2}}$ -->
      <g style="fill: #262626" transform="translate(472.456591 239.939125)scale(0.1 -0.1)">
       <use xlink:href="#ArialMT-31" transform="translate(0 0.99375)"/>
       <use xlink:href="#ArialMT-30" transform="translate(55.615234 0.99375)"/>
       <use xlink:href="#ArialMT-32" transform="translate(112.972813 70.6875)scale(0.7)"/>
      </g>
     </g>
    </g>
    <g id="xtick_53">
     <g id="text_20">
      <!-- $\mathdefault{10^{3}}$ -->
      <g style="fill: #262626" transform="translate(526.313864 239.939125)scale(0.1 -0.1)">
       <use xlink:href="#ArialMT-31" transform="translate(0 0.99375)"/>
       <use xlink:href="#ArialMT-30" transform="translate(55.615234 0.99375)"/>
       <use xlink:href="#ArialMT-33" transform="translate(112.972813 70.6875)scale(0.7)"/>
      </g>
     </g>
    </g>
    <g id="xtick_54">
     <g id="text_21">
      <!-- $\mathdefault{10^{4}}$ -->
      <g style="fill: #262626" transform="translate(580.171136 239.839125)scale(0.1 -0.1)">
       <use xlink:href="#ArialMT-31" transform="translate(0 0.201563)"/>
       <use xlink:href="#ArialMT-30" transform="translate(55.615234 0.201563)"/>
       <use xlink:href="#ArialMT-34" transform="translate(112.972813 69.895313)scale(0.7)"/>
      </g>
     </g>
    </g>
    <g id="xtick_55">
     <g id="text_22">
      <!-- $\mathdefault{10^{5}}$ -->
      <g style="fill: #262626" transform="translate(634.028409 239.839125)scale(0.1 -0.1)">
       <use xlink:href="#ArialMT-31" transform="translate(0 0.879688)"/>
       <use xlink:href="#ArialMT-30" transform="translate(55.615234 0.879688)"/>
       <use xlink:href="#ArialMT-35" transform="translate(112.972813 70.573438)scale(0.7)"/>
      </g>
     </g>
    </g>
    <g id="xtick_56">
     <g id="text_23">
      <!-- $\mathdefault{10^{6}}$ -->
      <g style="fill: #262626" transform="translate(687.885682 239.939125)scale(0.1 -0.1)">
       <use xlink:href="#ArialMT-31" transform="translate(0 0.99375)"/>
       <use xlink:href="#ArialMT-30" transform="translate(55.615234 0.99375)"/>
       <use xlink:href="#ArialMT-36" transform="translate(112.972813 70.6875)scale(0.7)"/>
      </g>
     </g>
    </g>
    <g id="xtick_57"/>
    <g id="xtick_58"/>
    <g id="xtick_59"/>
    <g id="xtick_60"/>
    <g id="xtick_61"/>
    <g id="xtick_62"/>
    <g id="xtick_63"/>
    <g id="xtick_64"/>
    <g id="xtick_65"/>
    <g id="xtick_66"/>
    <g id="xtick_67"/>
    <g id="xtick_68"/>
    <g id="xtick_69"/>
    <g id="xtick_70"/>
    <g id="xtick_71"/>
    <g id="xtick_72"/>
    <g id="xtick_73"/>
    <g id="xtick_74"/>
    <g id="xtick_75"/>
    <g id="xtick_76"/>
    <g id="xtick_77"/>
    <g id="xtick_78"/>
    <g id="xtick_79"/>
    <g id="xtick_80"/>
    <g id="xtick_81"/>
    <g id="xtick_82"/>
    <g id="xtick_83"/>
    <g id="xtick_84"/>
    <g id="xtick_85"/>
    <g id="xtick_86"/>
    <g id="xtick_87"/>
    <g id="xtick_88"/>
    <g id="xtick_89"/>
    <g id="xtick_90"/>
    <g id="xtick_91"/>
    <g id="xtick_92"/>
    <g id="xtick_93"/>
    <g id="xtick_94"/>
    <g id="xtick_95"/>
    <g id="xtick_96"/>
    <g id="xtick_97"/>
    <g id="xtick_98"/>
    <g id="xtick_99"/>
    <g id="xtick_100"/>
   </g>
   <g id="matplotlib.axis_4">
    <g id="ytick_7">
     <g id="text_24">
      <!-- 0 -->
      <g style="fill: #262626" transform="translate(400.424062 217.073412)scale(0.1 -0.1)">
       <use xlink:href="#ArialMT-30"/>
      </g>
     </g>
    </g>
    <g id="ytick_8">
     <g id="text_25">
      <!-- 2 -->
      <g style="fill: #262626" transform="translate(400.424062 173.239239)scale(0.1 -0.1)">
       <use xlink:href="#ArialMT-32"/>
      </g>
     </g>
    </g>
    <g id="ytick_9">
     <g id="text_26">
      <!-- 4 -->
      <g style="fill: #262626" transform="translate(400.424062 129.405066)scale(0.1 -0.1)">
       <use xlink:href="#ArialMT-34"/>
      </g>
     </g>
    </g>
    <g id="ytick_10">
     <g id="text_27">
      <!-- 6 -->
      <g style="fill: #262626" transform="translate(400.424062 85.570894)scale(0.1 -0.1)">
       <use xlink:href="#ArialMT-36"/>
      </g>
     </g>
    </g>
    <g id="ytick_11">
     <g id="text_28">
      <!-- 8 -->
      <g style="fill: #262626" transform="translate(400.424062 41.736721)scale(0.1 -0.1)">
       <defs>
        <path id="ArialMT-38" d="M 1131 2484 
Q 781 2613 612 2850 
Q 444 3088 444 3419 
Q 444 3919 803 4259 
Q 1163 4600 1759 4600 
Q 2359 4600 2725 4251 
Q 3091 3903 3091 3403 
Q 3091 3084 2923 2848 
Q 2756 2613 2416 2484 
Q 2838 2347 3058 2040 
Q 3278 1734 3278 1309 
Q 3278 722 2862 322 
Q 2447 -78 1769 -78 
Q 1091 -78 675 323 
Q 259 725 259 1325 
Q 259 1772 486 2073 
Q 713 2375 1131 2484 
z
M 1019 3438 
Q 1019 3113 1228 2906 
Q 1438 2700 1772 2700 
Q 2097 2700 2305 2904 
Q 2513 3109 2513 3406 
Q 2513 3716 2298 3927 
Q 2084 4138 1766 4138 
Q 1444 4138 1231 3931 
Q 1019 3725 1019 3438 
z
M 838 1322 
Q 838 1081 952 856 
Q 1066 631 1291 507 
Q 1516 384 1775 384 
Q 2178 384 2440 643 
Q 2703 903 2703 1303 
Q 2703 1709 2433 1975 
Q 2163 2241 1756 2241 
Q 1359 2241 1098 1978 
Q 838 1716 838 1322 
z
" transform="scale(0.015625)"/>
       </defs>
       <use xlink:href="#ArialMT-38"/>
      </g>
     </g>
    </g>
    <g id="text_29">
     <!-- Variance -->
     <g style="fill: #262626" transform="translate(394.436562 141.537375)rotate(-90)scale(0.1 -0.1)">
      <defs>
       <path id="ArialMT-56" d="M 1803 0 
L 28 4581 
L 684 4581 
L 1875 1253 
Q 2019 853 2116 503 
Q 2222 878 2363 1253 
L 3600 4581 
L 4219 4581 
L 2425 0 
L 1803 0 
z
" transform="scale(0.015625)"/>
      </defs>
      <use xlink:href="#ArialMT-56"/>
      <use xlink:href="#ArialMT-61" x="59.324219"/>
      <use xlink:href="#ArialMT-72" x="114.939453"/>
      <use xlink:href="#ArialMT-69" x="148.240234"/>
      <use xlink:href="#ArialMT-61" x="170.457031"/>
      <use xlink:href="#ArialMT-6e" x="226.072266"/>
      <use xlink:href="#ArialMT-63" x="281.6875"/>
      <use xlink:href="#ArialMT-65" x="331.6875"/>
     </g>
    </g>
    <g id="text_30">
     <!-- 1e10 -->
     <g style="fill: #262626" transform="translate(412.985 18.72)scale(0.1 -0.1)">
      <use xlink:href="#ArialMT-31"/>
      <use xlink:href="#ArialMT-65" x="55.615234"/>
      <use xlink:href="#ArialMT-31" x="111.230469"/>
      <use xlink:href="#ArialMT-30" x="166.845703"/>
     </g>
    </g>
   </g>
   <g id="line2d_10">
    <path d="M 426.449318 213.494506 
L 431.944958 213.494506 
L 437.440598 213.494506 
L 442.936238 213.494506 
L 448.431878 213.494506 
L 453.927519 213.494506 
L 459.423159 213.494506 
L 464.918799 213.494506 
L 470.414439 213.494506 
L 475.910079 213.494506 
L 481.405719 213.494506 
L 486.901359 213.494506 
L 492.396999 213.494506 
L 497.892639 213.494506 
L 503.388279 213.494506 
L 508.883919 213.494506 
L 514.379559 213.494506 
L 519.875199 213.494506 
L 525.37084 213.494506 
L 530.86648 213.494506 
L 536.36212 213.494506 
L 541.85776 213.494506 
L 547.3534 213.494506 
L 552.84904 213.494506 
L 558.34468 213.494506 
L 563.84032 213.494506 
L 569.33596 213.494506 
L 574.8316 213.494506 
L 580.32724 213.494506 
L 585.82288 213.494506 
L 591.31852 213.494506 
L 596.81416 213.494506 
L 602.309801 213.494506 
L 607.805441 213.494506 
L 613.301081 213.494506 
L 618.796721 213.494506 
L 624.292361 213.494506 
L 629.788001 213.494506 
L 635.283641 213.494506 
L 640.779281 213.494506 
L 646.274921 213.494506 
L 651.770561 213.494506 
L 657.266201 213.494506 
L 662.761841 213.494506 
L 668.257481 213.494506 
L 673.753122 213.494506 
L 679.248762 213.494506 
L 684.744402 213.494506 
L 690.240042 213.494506 
L 695.735682 213.494506 
" clip-path="url(#pa9bb58a9c1)" style="fill: none; stroke: #1f77b4; stroke-width: 1.5; stroke-linecap: round"/>
   </g>
   <g id="line2d_11">
    <path d="M 426.449318 213.494506 
L 431.944958 213.494506 
L 437.440598 213.494506 
L 442.936238 213.494506 
L 448.431878 213.494506 
L 453.927519 213.494505 
L 459.423159 213.494505 
L 464.918799 213.494505 
L 470.414439 213.494505 
L 475.910079 213.494504 
L 481.405719 213.494504 
L 486.901359 213.494502 
L 492.396999 213.494501 
L 497.892639 213.494497 
L 503.388279 213.494493 
L 508.883919 213.494485 
L 514.379559 213.494472 
L 519.875199 213.494452 
L 525.37084 213.49442 
L 530.86648 213.494368 
L 536.36212 213.494285 
L 541.85776 213.494153 
L 547.3534 213.493942 
L 552.84904 213.493603 
L 558.34468 213.493062 
L 563.84032 213.492196 
L 569.33596 213.49081 
L 574.8316 213.488593 
L 580.32724 213.485046 
L 585.82288 213.479371 
L 591.31852 213.470293 
L 596.81416 213.455768 
L 602.309801 213.432531 
L 607.805441 213.395355 
L 613.301081 213.335879 
L 618.796721 213.240725 
L 624.292361 213.088492 
L 629.788001 212.844942 
L 635.283641 212.455295 
L 640.779281 211.831915 
L 646.274921 210.834596 
L 651.770561 209.239026 
L 657.266201 206.68634 
L 662.761841 202.602402 
L 668.257481 196.068678 
L 673.753122 185.615644 
L 679.248762 168.892265 
L 684.744402 142.137222 
L 690.240042 99.332934 
L 695.735682 30.852119 
" clip-path="url(#pa9bb58a9c1)" style="fill: none; stroke: #ff7f0e; stroke-width: 1.5; stroke-linecap: round"/>
   </g>
   <g id="line2d_12">
    <path d="M 426.449318 213.494506 
L 431.944958 213.494506 
L 437.440598 213.494506 
L 442.936238 213.494506 
L 448.431878 213.494506 
L 453.927519 213.494506 
L 459.423159 213.494506 
L 464.918799 213.494506 
L 470.414439 213.494506 
L 475.910079 213.494506 
L 481.405719 213.494506 
L 486.901359 213.494506 
L 492.396999 213.494506 
L 497.892639 213.494506 
L 503.388279 213.494506 
L 508.883919 213.494506 
L 514.379559 213.494506 
L 519.875199 213.494506 
L 525.37084 213.494506 
L 530.86648 213.494506 
L 536.36212 213.494506 
L 541.85776 213.494506 
L 547.3534 213.494506 
L 552.84904 213.494506 
L 558.34468 213.494506 
L 563.84032 213.494506 
L 569.33596 213.494506 
L 574.8316 213.494506 
L 580.32724 213.494506 
L 585.82288 213.494506 
L 591.31852 213.494506 
L 596.81416 213.494506 
L 602.309801 213.494506 
L 607.805441 213.494506 
L 613.301081 213.494506 
L 618.796721 213.494506 
L 624.292361 213.494506 
L 629.788001 213.494506 
L 635.283641 213.494506 
L 640.779281 213.494506 
L 646.274921 213.494506 
L 651.770561 213.494506 
L 657.266201 213.494506 
L 662.761841 213.494506 
L 668.257481 213.494506 
L 673.753122 213.494506 
L 679.248762 213.494506 
L 684.744402 213.494506 
L 690.240042 213.494506 
L 695.735682 213.494506 
" clip-path="url(#pa9bb58a9c1)" style="fill: none; stroke: #2ca02c; stroke-width: 1.5; stroke-linecap: round"/>
   </g>
   <g id="line2d_13"/>
   <g id="line2d_14"/>
   <g id="line2d_15"/>
   <g id="patch_9">
    <path d="M 412.985 222.626625 
L 412.985 21.72 
" style="fill: none; stroke: #262626; stroke-width: 0.8; stroke-linejoin: miter; stroke-linecap: square"/>
   </g>
   <g id="patch_10">
    <path d="M 709.2 222.626625 
L 709.2 21.72 
" style="fill: none; stroke: #262626; stroke-width: 0.8; stroke-linejoin: miter; stroke-linecap: square"/>
   </g>
   <g id="patch_11">
    <path d="M 412.985 222.626625 
L 709.2 222.626625 
" style="fill: none; stroke: #262626; stroke-width: 0.8; stroke-linejoin: miter; stroke-linecap: square"/>
   </g>
   <g id="patch_12">
    <path d="M 412.985 21.72 
L 709.2 21.72 
" style="fill: none; stroke: #262626; stroke-width: 0.8; stroke-linejoin: miter; stroke-linecap: square"/>
   </g>
   <g id="legend_2">
    <g id="patch_13">
     <path d="M 419.985 86.30125 
L 546.461562 86.30125 
Q 548.461562 86.30125 548.461562 84.30125 
L 548.461562 28.72 
Q 548.461562 26.72 546.461562 26.72 
L 419.985 26.72 
Q 417.985 26.72 417.985 28.72 
L 417.985 84.30125 
Q 417.985 86.30125 419.985 86.30125 
z
" style="fill: #ffffff; opacity: 0.8; stroke: #cccccc; stroke-linejoin: miter"/>
    </g>
    <g id="text_31">
     <!-- metric -->
     <g style="fill: #262626" transform="translate(469.613125 37.877813)scale(0.1 -0.1)">
      <use xlink:href="#ArialMT-6d"/>
      <use xlink:href="#ArialMT-65" x="83.300781"/>
      <use xlink:href="#ArialMT-74" x="138.916016"/>
      <use xlink:href="#ArialMT-72" x="166.699219"/>
      <use xlink:href="#ArialMT-69" x="200"/>
      <use xlink:href="#ArialMT-63" x="222.216797"/>
     </g>
    </g>
    <g id="line2d_16">
     <path d="M 421.985 48.523125 
L 431.985 48.523125 
L 441.985 48.523125 
" style="fill: none; stroke: #1f77b4; stroke-width: 1.5; stroke-linecap: round"/>
    </g>
    <g id="text_32">
     <!-- HarmonicMeanRank -->
     <g style="fill: #262626" transform="translate(449.985 52.023125)scale(0.1 -0.1)">
      <use xlink:href="#ArialMT-48"/>
      <use xlink:href="#ArialMT-61" x="72.216797"/>
      <use xlink:href="#ArialMT-72" x="127.832031"/>
      <use xlink:href="#ArialMT-6d" x="161.132812"/>
      <use xlink:href="#ArialMT-6f" x="244.433594"/>
      <use xlink:href="#ArialMT-6e" x="300.048828"/>
      <use xlink:href="#ArialMT-69" x="355.664062"/>
      <use xlink:href="#ArialMT-63" x="377.880859"/>
      <use xlink:href="#ArialMT-4d" x="427.880859"/>
      <use xlink:href="#ArialMT-65" x="511.181641"/>
      <use xlink:href="#ArialMT-61" x="566.796875"/>
      <use xlink:href="#ArialMT-6e" x="622.412109"/>
      <use xlink:href="#ArialMT-52" x="678.027344"/>
      <use xlink:href="#ArialMT-61" x="750.244141"/>
      <use xlink:href="#ArialMT-6e" x="805.859375"/>
      <use xlink:href="#ArialMT-6b" x="861.474609"/>
     </g>
    </g>
    <g id="line2d_17">
     <path d="M 421.985 62.668437 
L 431.985 62.668437 
L 441.985 62.668437 
" style="fill: none; stroke: #ff7f0e; stroke-width: 1.5; stroke-linecap: round"/>
    </g>
    <g id="text_33">
     <!-- ArithmeticMeanRank -->
     <g style="fill: #262626" transform="translate(449.985 66.168437)scale(0.1 -0.1)">
      <use xlink:href="#ArialMT-41"/>
      <use xlink:href="#ArialMT-72" x="66.699219"/>
      <use xlink:href="#ArialMT-69" x="100"/>
      <use xlink:href="#ArialMT-74" x="122.216797"/>
      <use xlink:href="#ArialMT-68" x="150"/>
      <use xlink:href="#ArialMT-6d" x="205.615234"/>
      <use xlink:href="#ArialMT-65" x="288.916016"/>
      <use xlink:href="#ArialMT-74" x="344.53125"/>
      <use xlink:href="#ArialMT-69" x="372.314453"/>
      <use xlink:href="#ArialMT-63" x="394.53125"/>
      <use xlink:href="#ArialMT-4d" x="444.53125"/>
      <use xlink:href="#ArialMT-65" x="527.832031"/>
      <use xlink:href="#ArialMT-61" x="583.447266"/>
      <use xlink:href="#ArialMT-6e" x="639.0625"/>
      <use xlink:href="#ArialMT-52" x="694.677734"/>
      <use xlink:href="#ArialMT-61" x="766.894531"/>
      <use xlink:href="#ArialMT-6e" x="822.509766"/>
      <use xlink:href="#ArialMT-6b" x="878.125"/>
     </g>
    </g>
    <g id="line2d_18">
     <path d="M 421.985 76.81375 
L 431.985 76.81375 
L 441.985 76.81375 
" style="fill: none; stroke: #2ca02c; stroke-width: 1.5; stroke-linecap: round"/>
    </g>
    <g id="text_34">
     <!-- GeometricMeanRank -->
     <g style="fill: #262626" transform="translate(449.985 80.31375)scale(0.1 -0.1)">
      <use xlink:href="#ArialMT-47"/>
      <use xlink:href="#ArialMT-65" x="77.783203"/>
      <use xlink:href="#ArialMT-6f" x="133.398438"/>
      <use xlink:href="#ArialMT-6d" x="189.013672"/>
      <use xlink:href="#ArialMT-65" x="272.314453"/>
      <use xlink:href="#ArialMT-74" x="327.929688"/>
      <use xlink:href="#ArialMT-72" x="355.712891"/>
      <use xlink:href="#ArialMT-69" x="389.013672"/>
      <use xlink:href="#ArialMT-63" x="411.230469"/>
      <use xlink:href="#ArialMT-4d" x="461.230469"/>
      <use xlink:href="#ArialMT-65" x="544.53125"/>
      <use xlink:href="#ArialMT-61" x="600.146484"/>
      <use xlink:href="#ArialMT-6e" x="655.761719"/>
      <use xlink:href="#ArialMT-52" x="711.376953"/>
      <use xlink:href="#ArialMT-61" x="783.59375"/>
      <use xlink:href="#ArialMT-6e" x="839.208984"/>
      <use xlink:href="#ArialMT-6b" x="894.824219"/>
     </g>
    </g>
   </g>
  </g>
  <g id="axes_3">
   <g id="patch_14">
    <path d="M 65.36 456.726625 
L 361.575 456.726625 
L 361.575 255.82 
L 65.36 255.82 
z
" style="fill: #ffffff"/>
   </g>
   <g id="matplotlib.axis_5">
    <g id="xtick_101">
     <g id="text_35">
      <!-- $\mathdefault{10^{2}}$ -->
      <g style="fill: #262626" transform="translate(70.974318 474.039125)scale(0.1 -0.1)">
       <use xlink:href="#ArialMT-31" transform="translate(0 0.99375)"/>
       <use xlink:href="#ArialMT-30" transform="translate(55.615234 0.99375)"/>
       <use xlink:href="#ArialMT-32" transform="translate(112.972813 70.6875)scale(0.7)"/>
      </g>
     </g>
    </g>
    <g id="xtick_102">
     <g id="text_36">
      <!-- $\mathdefault{10^{3}}$ -->
      <g style="fill: #262626" transform="translate(124.831591 474.039125)scale(0.1 -0.1)">
       <use xlink:href="#ArialMT-31" transform="translate(0 0.99375)"/>
       <use xlink:href="#ArialMT-30" transform="translate(55.615234 0.99375)"/>
       <use xlink:href="#ArialMT-33" transform="translate(112.972813 70.6875)scale(0.7)"/>
      </g>
     </g>
    </g>
    <g id="xtick_103">
     <g id="text_37">
      <!-- $\mathdefault{10^{4}}$ -->
      <g style="fill: #262626" transform="translate(178.688864 473.939125)scale(0.1 -0.1)">
       <use xlink:href="#ArialMT-31" transform="translate(0 0.201563)"/>
       <use xlink:href="#ArialMT-30" transform="translate(55.615234 0.201563)"/>
       <use xlink:href="#ArialMT-34" transform="translate(112.972813 69.895313)scale(0.7)"/>
      </g>
     </g>
    </g>
    <g id="xtick_104">
     <g id="text_38">
      <!-- $\mathdefault{10^{5}}$ -->
      <g style="fill: #262626" transform="translate(232.546136 473.939125)scale(0.1 -0.1)">
       <use xlink:href="#ArialMT-31" transform="translate(0 0.879688)"/>
       <use xlink:href="#ArialMT-30" transform="translate(55.615234 0.879688)"/>
       <use xlink:href="#ArialMT-35" transform="translate(112.972813 70.573438)scale(0.7)"/>
      </g>
     </g>
    </g>
    <g id="xtick_105">
     <g id="text_39">
      <!-- $\mathdefault{10^{6}}$ -->
      <g style="fill: #262626" transform="translate(286.403409 474.039125)scale(0.1 -0.1)">
       <use xlink:href="#ArialMT-31" transform="translate(0 0.99375)"/>
       <use xlink:href="#ArialMT-30" transform="translate(55.615234 0.99375)"/>
       <use xlink:href="#ArialMT-36" transform="translate(112.972813 70.6875)scale(0.7)"/>
      </g>
     </g>
    </g>
    <g id="xtick_106">
     <g id="text_40">
      <!-- $\mathdefault{10^{7}}$ -->
      <g style="fill: #262626" transform="translate(340.260682 473.939125)scale(0.1 -0.1)">
       <defs>
        <path id="ArialMT-37" d="M 303 3981 
L 303 4522 
L 3269 4522 
L 3269 4084 
Q 2831 3619 2401 2847 
Q 1972 2075 1738 1259 
Q 1569 684 1522 0 
L 944 0 
Q 953 541 1156 1306 
Q 1359 2072 1739 2783 
Q 2119 3494 2547 3981 
L 303 3981 
z
" transform="scale(0.015625)"/>
       </defs>
       <use xlink:href="#ArialMT-31" transform="translate(0 0.846875)"/>
       <use xlink:href="#ArialMT-30" transform="translate(55.615234 0.846875)"/>
       <use xlink:href="#ArialMT-37" transform="translate(112.972813 70.540625)scale(0.7)"/>
      </g>
     </g>
    </g>
    <g id="xtick_107"/>
    <g id="xtick_108"/>
    <g id="xtick_109"/>
    <g id="xtick_110"/>
    <g id="xtick_111"/>
    <g id="xtick_112"/>
    <g id="xtick_113"/>
    <g id="xtick_114"/>
    <g id="xtick_115"/>
    <g id="xtick_116"/>
    <g id="xtick_117"/>
    <g id="xtick_118"/>
    <g id="xtick_119"/>
    <g id="xtick_120"/>
    <g id="xtick_121"/>
    <g id="xtick_122"/>
    <g id="xtick_123"/>
    <g id="xtick_124"/>
    <g id="xtick_125"/>
    <g id="xtick_126"/>
    <g id="xtick_127"/>
    <g id="xtick_128"/>
    <g id="xtick_129"/>
    <g id="xtick_130"/>
    <g id="xtick_131"/>
    <g id="xtick_132"/>
    <g id="xtick_133"/>
    <g id="xtick_134"/>
    <g id="xtick_135"/>
    <g id="xtick_136"/>
    <g id="xtick_137"/>
    <g id="xtick_138"/>
    <g id="xtick_139"/>
    <g id="xtick_140"/>
    <g id="xtick_141"/>
    <g id="xtick_142"/>
    <g id="xtick_143"/>
    <g id="xtick_144"/>
    <g id="xtick_145"/>
    <g id="xtick_146"/>
    <g id="xtick_147"/>
    <g id="xtick_148"/>
    <g id="xtick_149"/>
    <g id="xtick_150"/>
    <g id="text_41">
     <!-- Number of Candidates -->
     <g style="fill: #262626" transform="translate(163.444062 487.184438)scale(0.1 -0.1)">
      <defs>
       <path id="ArialMT-4e" d="M 488 0 
L 488 4581 
L 1109 4581 
L 3516 984 
L 3516 4581 
L 4097 4581 
L 4097 0 
L 3475 0 
L 1069 3600 
L 1069 0 
L 488 0 
z
" transform="scale(0.015625)"/>
       <path id="ArialMT-75" d="M 2597 0 
L 2597 488 
Q 2209 -75 1544 -75 
Q 1250 -75 995 37 
Q 741 150 617 320 
Q 494 491 444 738 
Q 409 903 409 1263 
L 409 3319 
L 972 3319 
L 972 1478 
Q 972 1038 1006 884 
Q 1059 663 1231 536 
Q 1403 409 1656 409 
Q 1909 409 2131 539 
Q 2353 669 2445 892 
Q 2538 1116 2538 1541 
L 2538 3319 
L 3100 3319 
L 3100 0 
L 2597 0 
z
" transform="scale(0.015625)"/>
       <path id="ArialMT-62" d="M 941 0 
L 419 0 
L 419 4581 
L 981 4581 
L 981 2947 
Q 1338 3394 1891 3394 
Q 2197 3394 2470 3270 
Q 2744 3147 2920 2923 
Q 3097 2700 3197 2384 
Q 3297 2069 3297 1709 
Q 3297 856 2875 390 
Q 2453 -75 1863 -75 
Q 1275 -75 941 416 
L 941 0 
z
M 934 1684 
Q 934 1088 1097 822 
Q 1363 388 1816 388 
Q 2184 388 2453 708 
Q 2722 1028 2722 1663 
Q 2722 2313 2464 2622 
Q 2206 2931 1841 2931 
Q 1472 2931 1203 2611 
Q 934 2291 934 1684 
z
" transform="scale(0.015625)"/>
       <path id="ArialMT-20" transform="scale(0.015625)"/>
       <path id="ArialMT-66" d="M 556 0 
L 556 2881 
L 59 2881 
L 59 3319 
L 556 3319 
L 556 3672 
Q 556 4006 616 4169 
Q 697 4388 901 4523 
Q 1106 4659 1475 4659 
Q 1713 4659 2000 4603 
L 1916 4113 
Q 1741 4144 1584 4144 
Q 1328 4144 1222 4034 
Q 1116 3925 1116 3625 
L 1116 3319 
L 1763 3319 
L 1763 2881 
L 1116 2881 
L 1116 0 
L 556 0 
z
" transform="scale(0.015625)"/>
       <path id="ArialMT-43" d="M 3763 1606 
L 4369 1453 
Q 4178 706 3683 314 
Q 3188 -78 2472 -78 
Q 1731 -78 1267 223 
Q 803 525 561 1097 
Q 319 1669 319 2325 
Q 319 3041 592 3573 
Q 866 4106 1370 4382 
Q 1875 4659 2481 4659 
Q 3169 4659 3637 4309 
Q 4106 3959 4291 3325 
L 3694 3184 
Q 3534 3684 3231 3912 
Q 2928 4141 2469 4141 
Q 1941 4141 1586 3887 
Q 1231 3634 1087 3207 
Q 944 2781 944 2328 
Q 944 1744 1114 1308 
Q 1284 872 1643 656 
Q 2003 441 2422 441 
Q 2931 441 3284 734 
Q 3638 1028 3763 1606 
z
" transform="scale(0.015625)"/>
       <path id="ArialMT-64" d="M 2575 0 
L 2575 419 
Q 2259 -75 1647 -75 
Q 1250 -75 917 144 
Q 584 363 401 755 
Q 219 1147 219 1656 
Q 219 2153 384 2558 
Q 550 2963 881 3178 
Q 1213 3394 1622 3394 
Q 1922 3394 2156 3267 
Q 2391 3141 2538 2938 
L 2538 4581 
L 3097 4581 
L 3097 0 
L 2575 0 
z
M 797 1656 
Q 797 1019 1065 703 
Q 1334 388 1700 388 
Q 2069 388 2326 689 
Q 2584 991 2584 1609 
Q 2584 2291 2321 2609 
Q 2059 2928 1675 2928 
Q 1300 2928 1048 2622 
Q 797 2316 797 1656 
z
" transform="scale(0.015625)"/>
       <path id="ArialMT-73" d="M 197 991 
L 753 1078 
Q 800 744 1014 566 
Q 1228 388 1613 388 
Q 2000 388 2187 545 
Q 2375 703 2375 916 
Q 2375 1106 2209 1216 
Q 2094 1291 1634 1406 
Q 1016 1563 777 1677 
Q 538 1791 414 1992 
Q 291 2194 291 2438 
Q 291 2659 392 2848 
Q 494 3038 669 3163 
Q 800 3259 1026 3326 
Q 1253 3394 1513 3394 
Q 1903 3394 2198 3281 
Q 2494 3169 2634 2976 
Q 2775 2784 2828 2463 
L 2278 2388 
Q 2241 2644 2061 2787 
Q 1881 2931 1553 2931 
Q 1166 2931 1000 2803 
Q 834 2675 834 2503 
Q 834 2394 903 2306 
Q 972 2216 1119 2156 
Q 1203 2125 1616 2013 
Q 2213 1853 2448 1751 
Q 2684 1650 2818 1456 
Q 2953 1263 2953 975 
Q 2953 694 2789 445 
Q 2625 197 2315 61 
Q 2006 -75 1616 -75 
Q 969 -75 630 194 
Q 291 463 197 991 
z
" transform="scale(0.015625)"/>
      </defs>
      <use xlink:href="#ArialMT-4e"/>
      <use xlink:href="#ArialMT-75" x="72.216797"/>
      <use xlink:href="#ArialMT-6d" x="127.832031"/>
      <use xlink:href="#ArialMT-62" x="211.132812"/>
      <use xlink:href="#ArialMT-65" x="266.748047"/>
      <use xlink:href="#ArialMT-72" x="322.363281"/>
      <use xlink:href="#ArialMT-20" x="355.664062"/>
      <use xlink:href="#ArialMT-6f" x="383.447266"/>
      <use xlink:href="#ArialMT-66" x="439.0625"/>
      <use xlink:href="#ArialMT-20" x="466.845703"/>
      <use xlink:href="#ArialMT-43" x="494.628906"/>
      <use xlink:href="#ArialMT-61" x="566.845703"/>
      <use xlink:href="#ArialMT-6e" x="622.460938"/>
      <use xlink:href="#ArialMT-64" x="678.076172"/>
      <use xlink:href="#ArialMT-69" x="733.691406"/>
      <use xlink:href="#ArialMT-64" x="755.908203"/>
      <use xlink:href="#ArialMT-61" x="811.523438"/>
      <use xlink:href="#ArialMT-74" x="867.138672"/>
      <use xlink:href="#ArialMT-65" x="894.921875"/>
      <use xlink:href="#ArialMT-73" x="950.537109"/>
     </g>
    </g>
   </g>
   <g id="matplotlib.axis_6">
    <g id="ytick_12">
     <g id="text_42">
      <!-- 0.00 -->
      <g style="fill: #262626" transform="translate(38.899062 451.174447)scale(0.1 -0.1)">
       <defs>
        <path id="ArialMT-2e" d="M 581 0 
L 581 641 
L 1222 641 
L 1222 0 
L 581 0 
z
" transform="scale(0.015625)"/>
       </defs>
       <use xlink:href="#ArialMT-30"/>
       <use xlink:href="#ArialMT-2e" x="55.615234"/>
       <use xlink:href="#ArialMT-30" x="83.398438"/>
       <use xlink:href="#ArialMT-30" x="139.013672"/>
      </g>
     </g>
    </g>
    <g id="ytick_13">
     <g id="text_43">
      <!-- 0.02 -->
      <g style="fill: #262626" transform="translate(38.899062 414.645763)scale(0.1 -0.1)">
       <use xlink:href="#ArialMT-30"/>
       <use xlink:href="#ArialMT-2e" x="55.615234"/>
       <use xlink:href="#ArialMT-30" x="83.398438"/>
       <use xlink:href="#ArialMT-32" x="139.013672"/>
      </g>
     </g>
    </g>
    <g id="ytick_14">
     <g id="text_44">
      <!-- 0.04 -->
      <g style="fill: #262626" transform="translate(38.899062 378.117078)scale(0.1 -0.1)">
       <use xlink:href="#ArialMT-30"/>
       <use xlink:href="#ArialMT-2e" x="55.615234"/>
       <use xlink:href="#ArialMT-30" x="83.398438"/>
       <use xlink:href="#ArialMT-34" x="139.013672"/>
      </g>
     </g>
    </g>
    <g id="ytick_15">
     <g id="text_45">
      <!-- 0.06 -->
      <g style="fill: #262626" transform="translate(38.899062 341.588394)scale(0.1 -0.1)">
       <use xlink:href="#ArialMT-30"/>
       <use xlink:href="#ArialMT-2e" x="55.615234"/>
       <use xlink:href="#ArialMT-30" x="83.398438"/>
       <use xlink:href="#ArialMT-36" x="139.013672"/>
      </g>
     </g>
    </g>
    <g id="ytick_16">
     <g id="text_46">
      <!-- 0.08 -->
      <g style="fill: #262626" transform="translate(38.899062 305.05971)scale(0.1 -0.1)">
       <use xlink:href="#ArialMT-30"/>
       <use xlink:href="#ArialMT-2e" x="55.615234"/>
       <use xlink:href="#ArialMT-30" x="83.398438"/>
       <use xlink:href="#ArialMT-38" x="139.013672"/>
      </g>
     </g>
    </g>
    <g id="ytick_17">
     <g id="text_47">
      <!-- 0.10 -->
      <g style="fill: #262626" transform="translate(38.899062 268.531026)scale(0.1 -0.1)">
       <use xlink:href="#ArialMT-30"/>
       <use xlink:href="#ArialMT-2e" x="55.615234"/>
       <use xlink:href="#ArialMT-31" x="83.398438"/>
       <use xlink:href="#ArialMT-30" x="139.013672"/>
      </g>
     </g>
    </g>
    <g id="text_48">
     <!-- Expectation -->
     <g style="fill: #262626" transform="translate(32.911562 382.399875)rotate(-90)scale(0.1 -0.1)">
      <use xlink:href="#ArialMT-45"/>
      <use xlink:href="#ArialMT-78" x="66.699219"/>
      <use xlink:href="#ArialMT-70" x="116.699219"/>
      <use xlink:href="#ArialMT-65" x="172.314453"/>
      <use xlink:href="#ArialMT-63" x="227.929688"/>
      <use xlink:href="#ArialMT-74" x="277.929688"/>
      <use xlink:href="#ArialMT-61" x="305.712891"/>
      <use xlink:href="#ArialMT-74" x="361.328125"/>
      <use xlink:href="#ArialMT-69" x="389.111328"/>
      <use xlink:href="#ArialMT-6f" x="411.328125"/>
      <use xlink:href="#ArialMT-6e" x="466.943359"/>
     </g>
    </g>
   </g>
   <g id="line2d_19">
    <path d="M 78.824318 362.635537 
L 84.319958 377.147771 
L 89.815598 389.292814 
L 95.311238 399.43059 
L 100.806878 407.872501 
L 106.302519 414.886469 
L 111.798159 420.701839 
L 117.293799 425.514025 
L 122.789439 429.488827 
L 128.285079 432.766374 
L 133.780719 435.464676 
L 139.276359 437.682798 
L 144.771999 439.50365 
L 150.267639 440.996429 
L 155.763279 442.218746 
L 161.258919 443.21845 
L 166.754559 444.035198 
L 172.250199 444.701791 
L 177.74584 445.245312 
L 183.24148 445.68808 
L 188.73712 446.048463 
L 194.23276 446.341551 
L 199.7284 446.579728 
L 205.22404 446.773139 
L 210.71968 446.93009 
L 216.21532 447.057369 
L 221.71096 447.160523 
L 227.2066 447.244073 
L 232.70224 447.311707 
L 238.19788 447.366427 
L 243.69352 447.410676 
L 249.18916 447.446439 
L 254.684801 447.475331 
L 260.180441 447.49866 
L 265.676081 447.517491 
L 271.171721 447.532683 
L 276.667361 447.544935 
L 282.163001 447.554812 
L 287.658641 447.562771 
L 293.154281 447.569183 
L 298.649921 447.574347 
L 304.145561 447.578504 
L 309.641201 447.581849 
L 315.136841 447.58454 
L 320.632481 447.586705 
L 326.128122 447.588445 
L 331.623762 447.589844 
L 337.119402 447.590968 
L 342.615042 447.591871 
L 348.110682 447.592597 
" clip-path="url(#p6573475b0a)" style="fill: none; stroke: #1f77b4; stroke-width: 1.5; stroke-linecap: round"/>
   </g>
   <g id="line2d_20">
    <path d="M 78.824318 369.153882 
L 84.319958 358.44571 
L 89.815598 381.864441 
L 95.311238 390.613732 
L 100.806878 401.528802 
L 106.302519 412.568872 
L 111.798159 416.379289 
L 117.293799 418.654092 
L 122.789439 432.130211 
L 128.285079 421.85505 
L 133.780719 433.883965 
L 139.276359 441.042055 
L 144.771999 441.619955 
L 150.267639 440.891048 
L 155.763279 443.077587 
L 161.258919 440.567415 
L 166.754559 444.791308 
L 172.250199 444.207939 
L 177.74584 445.702267 
L 183.24148 439.100899 
L 188.73712 444.986631 
L 194.23276 446.617974 
L 199.7284 446.521466 
L 205.22404 446.567364 
L 210.71968 447.248334 
L 216.21532 447.091426 
L 221.71096 447.219919 
L 227.2066 447.351671 
L 232.70224 447.391162 
L 238.19788 447.475271 
L 243.69352 447.357952 
L 249.18916 447.518291 
L 254.684801 447.514092 
L 260.180441 447.506967 
L 265.676081 447.460752 
L 271.171721 447.543254 
L 276.667361 447.571086 
L 282.163001 447.569824 
L 287.658641 447.58027 
L 293.154281 447.576208 
L 298.649921 447.580368 
L 304.145561 447.58259 
L 309.641201 447.589211 
L 315.136841 447.589514 
L 320.632481 447.589161 
L 326.128122 447.590358 
L 331.623762 447.593069 
L 337.119402 447.592861 
L 342.615042 447.593874 
L 348.110682 447.594506 
" clip-path="url(#p6573475b0a)" style="fill: none; stroke: #ff7f0e; stroke-width: 1.5; stroke-linecap: round"/>
   </g>
   <g id="line2d_21">
    <path d="M 78.824318 348.011352 
L 84.319958 374.289878 
L 89.815598 393.096384 
L 95.311238 399.976679 
L 100.806878 400.67384 
L 106.302519 413.777142 
L 111.798159 419.087933 
L 117.293799 418.616474 
L 122.789439 431.372571 
L 128.285079 430.429308 
L 133.780719 434.971242 
L 139.276359 438.576605 
L 144.771999 438.337868 
L 150.267639 441.026115 
L 155.763279 443.529087 
L 161.258919 438.721246 
L 166.754559 439.841323 
L 172.250199 445.025842 
L 177.74584 446.019774 
L 183.24148 445.871471 
L 188.73712 446.428976 
L 194.23276 446.961809 
L 199.7284 446.813519 
L 205.22404 446.736794 
L 210.71968 447.273643 
L 216.21532 446.890096 
L 221.71096 447.211365 
L 227.2066 447.302441 
L 232.70224 447.434919 
L 238.19788 447.403208 
L 243.69352 447.466257 
L 249.18916 447.080064 
L 254.684801 447.543183 
L 260.180441 447.538923 
L 265.676081 447.528492 
L 271.171721 447.017304 
L 276.667361 447.576062 
L 282.163001 447.571629 
L 287.658641 447.571406 
L 293.154281 447.582438 
L 298.649921 447.585848 
L 304.145561 447.582443 
L 309.641201 447.577472 
L 315.136841 447.591157 
L 320.632481 447.587186 
L 326.128122 447.592038 
L 331.623762 447.592725 
L 337.119402 447.593048 
L 342.615042 447.593635 
L 348.110682 447.594404 
" clip-path="url(#p6573475b0a)" style="fill: none; stroke: #2ca02c; stroke-width: 1.5; stroke-linecap: round"/>
   </g>
   <g id="line2d_22">
    <path d="M 78.824318 264.952119 
L 84.319958 303.196862 
L 89.815598 333.433322 
L 95.311238 357.338397 
L 100.806878 376.237853 
L 106.302519 391.179844 
L 111.798159 402.993047 
L 117.293799 412.332617 
L 122.789439 419.716521 
L 128.285079 425.554267 
L 133.780719 430.169614 
L 139.276359 433.818528 
L 144.771999 436.703375 
L 150.267639 438.984147 
L 155.763279 440.787336 
L 161.258919 442.212944 
L 166.754559 443.340037 
L 172.250199 444.231121 
L 177.74584 444.935616 
L 183.24148 445.492593 
L 188.73712 445.932941 
L 194.23276 446.281082 
L 199.7284 446.556324 
L 205.22404 446.773931 
L 210.71968 446.945973 
L 216.21532 447.081989 
L 221.71096 447.189525 
L 227.2066 447.274543 
L 232.70224 447.341758 
L 238.19788 447.394899 
L 243.69352 447.436913 
L 249.18916 447.470129 
L 254.684801 447.496389 
L 260.180441 447.517151 
L 265.676081 447.533566 
L 271.171721 447.546543 
L 276.667361 447.556803 
L 282.163001 447.564914 
L 287.658641 447.571327 
L 293.154281 447.576397 
L 298.649921 447.580406 
L 304.145561 447.583575 
L 309.641201 447.586081 
L 315.136841 447.588061 
L 320.632481 447.589628 
L 326.128122 447.590866 
L 331.623762 447.591845 
L 337.119402 447.592618 
L 342.615042 447.59323 
L 348.110682 447.593714 
" clip-path="url(#p6573475b0a)" style="fill: none; stroke: #d62728; stroke-width: 1.5; stroke-linecap: round"/>
   </g>
   <g id="line2d_23"/>
   <g id="line2d_24"/>
   <g id="line2d_25"/>
   <g id="line2d_26"/>
   <g id="patch_15">
    <path d="M 65.36 456.726625 
L 65.36 255.82 
" style="fill: none; stroke: #262626; stroke-width: 0.8; stroke-linejoin: miter; stroke-linecap: square"/>
   </g>
   <g id="patch_16">
    <path d="M 361.575 456.726625 
L 361.575 255.82 
" style="fill: none; stroke: #262626; stroke-width: 0.8; stroke-linejoin: miter; stroke-linecap: square"/>
   </g>
   <g id="patch_17">
    <path d="M 65.36 456.726625 
L 361.575 456.726625 
" style="fill: none; stroke: #262626; stroke-width: 0.8; stroke-linejoin: miter; stroke-linecap: square"/>
   </g>
   <g id="patch_18">
    <path d="M 65.36 255.82 
L 361.575 255.82 
" style="fill: none; stroke: #262626; stroke-width: 0.8; stroke-linejoin: miter; stroke-linecap: square"/>
   </g>
   <g id="legend_3">
    <g id="patch_19">
     <path d="M 195.307812 334.546562 
L 354.575 334.546562 
Q 356.575 334.546562 356.575 332.546562 
L 356.575 262.82 
Q 356.575 260.82 354.575 260.82 
L 195.307812 260.82 
Q 193.307812 260.82 193.307812 262.82 
L 193.307812 332.546562 
Q 193.307812 334.546562 195.307812 334.546562 
z
" style="fill: #ffffff; opacity: 0.8; stroke: #cccccc; stroke-linejoin: miter"/>
    </g>
    <g id="text_49">
     <!-- metric -->
     <g style="fill: #262626" transform="translate(261.33125 271.977813)scale(0.1 -0.1)">
      <use xlink:href="#ArialMT-6d"/>
      <use xlink:href="#ArialMT-65" x="83.300781"/>
      <use xlink:href="#ArialMT-74" x="138.916016"/>
      <use xlink:href="#ArialMT-72" x="166.699219"/>
      <use xlink:href="#ArialMT-69" x="200"/>
      <use xlink:href="#ArialMT-63" x="222.216797"/>
     </g>
    </g>
    <g id="line2d_27">
     <path d="M 197.307812 282.623125 
L 207.307812 282.623125 
L 217.307812 282.623125 
" style="fill: none; stroke: #1f77b4; stroke-width: 1.5; stroke-linecap: round"/>
    </g>
    <g id="text_50">
     <!-- InverseHarmonicMeanRank -->
     <g style="fill: #262626" transform="translate(225.307812 286.123125)scale(0.1 -0.1)">
      <defs>
       <path id="ArialMT-49" d="M 597 0 
L 597 4581 
L 1203 4581 
L 1203 0 
L 597 0 
z
" transform="scale(0.015625)"/>
       <path id="ArialMT-76" d="M 1344 0 
L 81 3319 
L 675 3319 
L 1388 1331 
Q 1503 1009 1600 663 
Q 1675 925 1809 1294 
L 2547 3319 
L 3125 3319 
L 1869 0 
L 1344 0 
z
" transform="scale(0.015625)"/>
      </defs>
      <use xlink:href="#ArialMT-49"/>
      <use xlink:href="#ArialMT-6e" x="27.783203"/>
      <use xlink:href="#ArialMT-76" x="83.398438"/>
      <use xlink:href="#ArialMT-65" x="133.398438"/>
      <use xlink:href="#ArialMT-72" x="189.013672"/>
      <use xlink:href="#ArialMT-73" x="222.314453"/>
      <use xlink:href="#ArialMT-65" x="272.314453"/>
      <use xlink:href="#ArialMT-48" x="327.929688"/>
      <use xlink:href="#ArialMT-61" x="400.146484"/>
      <use xlink:href="#ArialMT-72" x="455.761719"/>
      <use xlink:href="#ArialMT-6d" x="489.0625"/>
      <use xlink:href="#ArialMT-6f" x="572.363281"/>
      <use xlink:href="#ArialMT-6e" x="627.978516"/>
      <use xlink:href="#ArialMT-69" x="683.59375"/>
      <use xlink:href="#ArialMT-63" x="705.810547"/>
      <use xlink:href="#ArialMT-4d" x="755.810547"/>
      <use xlink:href="#ArialMT-65" x="839.111328"/>
      <use xlink:href="#ArialMT-61" x="894.726562"/>
      <use xlink:href="#ArialMT-6e" x="950.341797"/>
      <use xlink:href="#ArialMT-52" x="1005.957031"/>
      <use xlink:href="#ArialMT-61" x="1078.173828"/>
      <use xlink:href="#ArialMT-6e" x="1133.789062"/>
      <use xlink:href="#ArialMT-6b" x="1189.404297"/>
     </g>
    </g>
    <g id="line2d_28">
     <path d="M 197.307812 296.768438 
L 207.307812 296.768438 
L 217.307812 296.768438 
" style="fill: none; stroke: #ff7f0e; stroke-width: 1.5; stroke-linecap: round"/>
    </g>
    <g id="text_51">
     <!-- InverseArithmeticMeanRank -->
     <g style="fill: #262626" transform="translate(225.307812 300.268438)scale(0.1 -0.1)">
      <use xlink:href="#ArialMT-49"/>
      <use xlink:href="#ArialMT-6e" x="27.783203"/>
      <use xlink:href="#ArialMT-76" x="83.398438"/>
      <use xlink:href="#ArialMT-65" x="133.398438"/>
      <use xlink:href="#ArialMT-72" x="189.013672"/>
      <use xlink:href="#ArialMT-73" x="222.314453"/>
      <use xlink:href="#ArialMT-65" x="272.314453"/>
      <use xlink:href="#ArialMT-41" x="327.929688"/>
      <use xlink:href="#ArialMT-72" x="394.628906"/>
      <use xlink:href="#ArialMT-69" x="427.929688"/>
      <use xlink:href="#ArialMT-74" x="450.146484"/>
      <use xlink:href="#ArialMT-68" x="477.929688"/>
      <use xlink:href="#ArialMT-6d" x="533.544922"/>
      <use xlink:href="#ArialMT-65" x="616.845703"/>
      <use xlink:href="#ArialMT-74" x="672.460938"/>
      <use xlink:href="#ArialMT-69" x="700.244141"/>
      <use xlink:href="#ArialMT-63" x="722.460938"/>
      <use xlink:href="#ArialMT-4d" x="772.460938"/>
      <use xlink:href="#ArialMT-65" x="855.761719"/>
      <use xlink:href="#ArialMT-61" x="911.376953"/>
      <use xlink:href="#ArialMT-6e" x="966.992188"/>
      <use xlink:href="#ArialMT-52" x="1022.607422"/>
      <use xlink:href="#ArialMT-61" x="1094.824219"/>
      <use xlink:href="#ArialMT-6e" x="1150.439453"/>
      <use xlink:href="#ArialMT-6b" x="1206.054688"/>
     </g>
    </g>
    <g id="line2d_29">
     <path d="M 197.307812 310.91375 
L 207.307812 310.91375 
L 217.307812 310.91375 
" style="fill: none; stroke: #2ca02c; stroke-width: 1.5; stroke-linecap: round"/>
    </g>
    <g id="text_52">
     <!-- InverseGeometricMeanRank -->
     <g style="fill: #262626" transform="translate(225.307812 314.41375)scale(0.1 -0.1)">
      <use xlink:href="#ArialMT-49"/>
      <use xlink:href="#ArialMT-6e" x="27.783203"/>
      <use xlink:href="#ArialMT-76" x="83.398438"/>
      <use xlink:href="#ArialMT-65" x="133.398438"/>
      <use xlink:href="#ArialMT-72" x="189.013672"/>
      <use xlink:href="#ArialMT-73" x="222.314453"/>
      <use xlink:href="#ArialMT-65" x="272.314453"/>
      <use xlink:href="#ArialMT-47" x="327.929688"/>
      <use xlink:href="#ArialMT-65" x="405.712891"/>
      <use xlink:href="#ArialMT-6f" x="461.328125"/>
      <use xlink:href="#ArialMT-6d" x="516.943359"/>
      <use xlink:href="#ArialMT-65" x="600.244141"/>
      <use xlink:href="#ArialMT-74" x="655.859375"/>
      <use xlink:href="#ArialMT-72" x="683.642578"/>
      <use xlink:href="#ArialMT-69" x="716.943359"/>
      <use xlink:href="#ArialMT-63" x="739.160156"/>
      <use xlink:href="#ArialMT-4d" x="789.160156"/>
      <use xlink:href="#ArialMT-65" x="872.460938"/>
      <use xlink:href="#ArialMT-61" x="928.076172"/>
      <use xlink:href="#ArialMT-6e" x="983.691406"/>
      <use xlink:href="#ArialMT-52" x="1039.306641"/>
      <use xlink:href="#ArialMT-61" x="1111.523438"/>
      <use xlink:href="#ArialMT-6e" x="1167.138672"/>
      <use xlink:href="#ArialMT-6b" x="1222.753906"/>
     </g>
    </g>
    <g id="line2d_30">
     <path d="M 197.307812 325.059062 
L 207.307812 325.059062 
L 217.307812 325.059062 
" style="fill: none; stroke: #d62728; stroke-width: 1.5; stroke-linecap: round"/>
    </g>
    <g id="text_53">
     <!-- HitsAtK -->
     <g style="fill: #262626" transform="translate(225.307812 328.559062)scale(0.1 -0.1)">
      <defs>
       <path id="ArialMT-4b" d="M 469 0 
L 469 4581 
L 1075 4581 
L 1075 2309 
L 3350 4581 
L 4172 4581 
L 2250 2725 
L 4256 0 
L 3456 0 
L 1825 2319 
L 1075 1588 
L 1075 0 
L 469 0 
z
" transform="scale(0.015625)"/>
      </defs>
      <use xlink:href="#ArialMT-48"/>
      <use xlink:href="#ArialMT-69" x="72.216797"/>
      <use xlink:href="#ArialMT-74" x="94.433594"/>
      <use xlink:href="#ArialMT-73" x="122.216797"/>
      <use xlink:href="#ArialMT-41" x="172.216797"/>
      <use xlink:href="#ArialMT-74" x="238.916016"/>
      <use xlink:href="#ArialMT-4b" x="266.699219"/>
     </g>
    </g>
   </g>
  </g>
  <g id="axes_4">
   <g id="patch_20">
    <path d="M 412.985 456.726625 
L 709.2 456.726625 
L 709.2 255.82 
L 412.985 255.82 
z
" style="fill: #ffffff"/>
   </g>
   <g id="matplotlib.axis_7">
    <g id="xtick_151">
     <g id="text_54">
      <!-- $\mathdefault{10^{2}}$ -->
      <g style="fill: #262626" transform="translate(418.599318 474.039125)scale(0.1 -0.1)">
       <use xlink:href="#ArialMT-31" transform="translate(0 0.99375)"/>
       <use xlink:href="#ArialMT-30" transform="translate(55.615234 0.99375)"/>
       <use xlink:href="#ArialMT-32" transform="translate(112.972813 70.6875)scale(0.7)"/>
      </g>
     </g>
    </g>
    <g id="xtick_152">
     <g id="text_55">
      <!-- $\mathdefault{10^{3}}$ -->
      <g style="fill: #262626" transform="translate(472.456591 474.039125)scale(0.1 -0.1)">
       <use xlink:href="#ArialMT-31" transform="translate(0 0.99375)"/>
       <use xlink:href="#ArialMT-30" transform="translate(55.615234 0.99375)"/>
       <use xlink:href="#ArialMT-33" transform="translate(112.972813 70.6875)scale(0.7)"/>
      </g>
     </g>
    </g>
    <g id="xtick_153">
     <g id="text_56">
      <!-- $\mathdefault{10^{4}}$ -->
      <g style="fill: #262626" transform="translate(526.313864 473.939125)scale(0.1 -0.1)">
       <use xlink:href="#ArialMT-31" transform="translate(0 0.201563)"/>
       <use xlink:href="#ArialMT-30" transform="translate(55.615234 0.201563)"/>
       <use xlink:href="#ArialMT-34" transform="translate(112.972813 69.895313)scale(0.7)"/>
      </g>
     </g>
    </g>
    <g id="xtick_154">
     <g id="text_57">
      <!-- $\mathdefault{10^{5}}$ -->
      <g style="fill: #262626" transform="translate(580.171136 473.939125)scale(0.1 -0.1)">
       <use xlink:href="#ArialMT-31" transform="translate(0 0.879688)"/>
       <use xlink:href="#ArialMT-30" transform="translate(55.615234 0.879688)"/>
       <use xlink:href="#ArialMT-35" transform="translate(112.972813 70.573438)scale(0.7)"/>
      </g>
     </g>
    </g>
    <g id="xtick_155">
     <g id="text_58">
      <!-- $\mathdefault{10^{6}}$ -->
      <g style="fill: #262626" transform="translate(634.028409 474.039125)scale(0.1 -0.1)">
       <use xlink:href="#ArialMT-31" transform="translate(0 0.99375)"/>
       <use xlink:href="#ArialMT-30" transform="translate(55.615234 0.99375)"/>
       <use xlink:href="#ArialMT-36" transform="translate(112.972813 70.6875)scale(0.7)"/>
      </g>
     </g>
    </g>
    <g id="xtick_156">
     <g id="text_59">
      <!-- $\mathdefault{10^{7}}$ -->
      <g style="fill: #262626" transform="translate(687.885682 473.939125)scale(0.1 -0.1)">
       <use xlink:href="#ArialMT-31" transform="translate(0 0.846875)"/>
       <use xlink:href="#ArialMT-30" transform="translate(55.615234 0.846875)"/>
       <use xlink:href="#ArialMT-37" transform="translate(112.972813 70.540625)scale(0.7)"/>
      </g>
     </g>
    </g>
    <g id="xtick_157"/>
    <g id="xtick_158"/>
    <g id="xtick_159"/>
    <g id="xtick_160"/>
    <g id="xtick_161"/>
    <g id="xtick_162"/>
    <g id="xtick_163"/>
    <g id="xtick_164"/>
    <g id="xtick_165"/>
    <g id="xtick_166"/>
    <g id="xtick_167"/>
    <g id="xtick_168"/>
    <g id="xtick_169"/>
    <g id="xtick_170"/>
    <g id="xtick_171"/>
    <g id="xtick_172"/>
    <g id="xtick_173"/>
    <g id="xtick_174"/>
    <g id="xtick_175"/>
    <g id="xtick_176"/>
    <g id="xtick_177"/>
    <g id="xtick_178"/>
    <g id="xtick_179"/>
    <g id="xtick_180"/>
    <g id="xtick_181"/>
    <g id="xtick_182"/>
    <g id="xtick_183"/>
    <g id="xtick_184"/>
    <g id="xtick_185"/>
    <g id="xtick_186"/>
    <g id="xtick_187"/>
    <g id="xtick_188"/>
    <g id="xtick_189"/>
    <g id="xtick_190"/>
    <g id="xtick_191"/>
    <g id="xtick_192"/>
    <g id="xtick_193"/>
    <g id="xtick_194"/>
    <g id="xtick_195"/>
    <g id="xtick_196"/>
    <g id="xtick_197"/>
    <g id="xtick_198"/>
    <g id="xtick_199"/>
    <g id="xtick_200"/>
    <g id="text_60">
     <!-- Number of Candidates -->
     <g style="fill: #262626" transform="translate(511.069062 487.184438)scale(0.1 -0.1)">
      <use xlink:href="#ArialMT-4e"/>
      <use xlink:href="#ArialMT-75" x="72.216797"/>
      <use xlink:href="#ArialMT-6d" x="127.832031"/>
      <use xlink:href="#ArialMT-62" x="211.132812"/>
      <use xlink:href="#ArialMT-65" x="266.748047"/>
      <use xlink:href="#ArialMT-72" x="322.363281"/>
      <use xlink:href="#ArialMT-20" x="355.664062"/>
      <use xlink:href="#ArialMT-6f" x="383.447266"/>
      <use xlink:href="#ArialMT-66" x="439.0625"/>
      <use xlink:href="#ArialMT-20" x="466.845703"/>
      <use xlink:href="#ArialMT-43" x="494.628906"/>
      <use xlink:href="#ArialMT-61" x="566.845703"/>
      <use xlink:href="#ArialMT-6e" x="622.460938"/>
      <use xlink:href="#ArialMT-64" x="678.076172"/>
      <use xlink:href="#ArialMT-69" x="733.691406"/>
      <use xlink:href="#ArialMT-64" x="755.908203"/>
      <use xlink:href="#ArialMT-61" x="811.523438"/>
      <use xlink:href="#ArialMT-74" x="867.138672"/>
      <use xlink:href="#ArialMT-65" x="894.921875"/>
      <use xlink:href="#ArialMT-73" x="950.537109"/>
     </g>
    </g>
   </g>
   <g id="matplotlib.axis_8">
    <g id="ytick_18">
     <g id="text_61">
      <!-- 0.00 -->
      <g style="fill: #262626" transform="translate(386.524062 451.173412)scale(0.1 -0.1)">
       <use xlink:href="#ArialMT-30"/>
       <use xlink:href="#ArialMT-2e" x="55.615234"/>
       <use xlink:href="#ArialMT-30" x="83.398438"/>
       <use xlink:href="#ArialMT-30" x="139.013672"/>
      </g>
     </g>
    </g>
    <g id="ytick_19">
     <g id="text_62">
      <!-- 0.02 -->
      <g style="fill: #262626" transform="translate(386.524062 410.586215)scale(0.1 -0.1)">
       <use xlink:href="#ArialMT-30"/>
       <use xlink:href="#ArialMT-2e" x="55.615234"/>
       <use xlink:href="#ArialMT-30" x="83.398438"/>
       <use xlink:href="#ArialMT-32" x="139.013672"/>
      </g>
     </g>
    </g>
    <g id="ytick_20">
     <g id="text_63">
      <!-- 0.04 -->
      <g style="fill: #262626" transform="translate(386.524062 369.999018)scale(0.1 -0.1)">
       <use xlink:href="#ArialMT-30"/>
       <use xlink:href="#ArialMT-2e" x="55.615234"/>
       <use xlink:href="#ArialMT-30" x="83.398438"/>
       <use xlink:href="#ArialMT-34" x="139.013672"/>
      </g>
     </g>
    </g>
    <g id="ytick_21">
     <g id="text_64">
      <!-- 0.06 -->
      <g style="fill: #262626" transform="translate(386.524062 329.411821)scale(0.1 -0.1)">
       <use xlink:href="#ArialMT-30"/>
       <use xlink:href="#ArialMT-2e" x="55.615234"/>
       <use xlink:href="#ArialMT-30" x="83.398438"/>
       <use xlink:href="#ArialMT-36" x="139.013672"/>
      </g>
     </g>
    </g>
    <g id="ytick_22">
     <g id="text_65">
      <!-- 0.08 -->
      <g style="fill: #262626" transform="translate(386.524062 288.824624)scale(0.1 -0.1)">
       <use xlink:href="#ArialMT-30"/>
       <use xlink:href="#ArialMT-2e" x="55.615234"/>
       <use xlink:href="#ArialMT-30" x="83.398438"/>
       <use xlink:href="#ArialMT-38" x="139.013672"/>
      </g>
     </g>
    </g>
    <g id="text_66">
     <!-- Variance -->
     <g style="fill: #262626" transform="translate(380.536562 375.637375)rotate(-90)scale(0.1 -0.1)">
      <use xlink:href="#ArialMT-56"/>
      <use xlink:href="#ArialMT-61" x="59.324219"/>
      <use xlink:href="#ArialMT-72" x="114.939453"/>
      <use xlink:href="#ArialMT-69" x="148.240234"/>
      <use xlink:href="#ArialMT-61" x="170.457031"/>
      <use xlink:href="#ArialMT-6e" x="226.072266"/>
      <use xlink:href="#ArialMT-63" x="281.6875"/>
      <use xlink:href="#ArialMT-65" x="331.6875"/>
     </g>
    </g>
   </g>
   <g id="line2d_31">
    <path d="M 426.449318 431.692075 
L 431.944958 434.569455 
L 437.440598 436.977783 
L 442.936238 438.977271 
L 448.431878 440.625841 
L 453.927519 441.97699 
L 459.423159 443.078701 
L 464.918799 443.973051 
L 470.414439 444.696303 
L 475.910079 445.279267 
L 481.405719 445.747826 
L 486.901359 446.123513 
L 492.396999 446.424106 
L 497.892639 446.664182 
L 503.388279 446.85563 
L 508.883919 447.008098 
L 514.379559 447.129386 
L 519.875199 447.225778 
L 525.37084 447.30232 
L 530.86648 447.36306 
L 536.36212 447.411229 
L 541.85776 447.449412 
L 547.3534 447.479666 
L 552.84904 447.503628 
L 558.34468 447.522601 
L 563.84032 447.537621 
L 569.33596 447.549508 
L 574.8316 447.558915 
L 580.32724 447.566357 
L 585.82288 447.572244 
L 591.31852 447.576901 
L 596.81416 447.580585 
L 602.309801 447.583498 
L 607.805441 447.585802 
L 613.301081 447.587623 
L 618.796721 447.589064 
L 624.292361 447.590203 
L 629.788001 447.591104 
L 635.283641 447.591816 
L 640.779281 447.592379 
L 646.274921 447.592824 
L 651.770561 447.593176 
L 657.266201 447.593455 
L 662.761841 447.593675 
L 668.257481 447.593849 
L 673.753122 447.593986 
L 679.248762 447.594095 
L 684.744402 447.594181 
L 690.240042 447.594249 
L 695.735682 447.594303 
" clip-path="url(#p7eec933109)" style="fill: none; stroke: #1f77b4; stroke-width: 1.5; stroke-linecap: round"/>
   </g>
   <g id="line2d_32">
    <path d="M 426.449318 447.594506 
L 431.944958 447.594506 
L 437.440598 447.594506 
L 442.936238 447.594506 
L 448.431878 447.594506 
L 453.927519 447.594506 
L 459.423159 447.594506 
L 464.918799 447.594506 
L 470.414439 447.594506 
L 475.910079 447.594506 
L 481.405719 447.594506 
L 486.901359 447.594506 
L 492.396999 447.594506 
L 497.892639 447.594506 
L 503.388279 447.594506 
L 508.883919 447.594506 
L 514.379559 447.594506 
L 519.875199 447.594506 
L 525.37084 447.594506 
L 530.86648 447.594506 
L 536.36212 447.594506 
L 541.85776 447.594506 
L 547.3534 447.594506 
L 552.84904 447.594506 
L 558.34468 447.594506 
L 563.84032 447.594506 
L 569.33596 447.594506 
L 574.8316 447.594506 
L 580.32724 447.594506 
L 585.82288 447.594506 
L 591.31852 447.594506 
L 596.81416 447.594506 
L 602.309801 447.594506 
L 607.805441 447.594506 
L 613.301081 447.594506 
L 618.796721 447.594506 
L 624.292361 447.594506 
L 629.788001 447.594506 
L 635.283641 447.594506 
L 640.779281 447.594506 
L 646.274921 447.594506 
L 651.770561 447.594506 
L 657.266201 447.594506 
L 662.761841 447.594506 
L 668.257481 447.594506 
L 673.753122 447.594506 
L 679.248762 447.594506 
L 684.744402 447.594506 
L 690.240042 447.594506 
L 695.735682 447.594506 
" clip-path="url(#p7eec933109)" style="fill: none; stroke: #ff7f0e; stroke-width: 1.5; stroke-linecap: round"/>
   </g>
   <g id="line2d_33">
    <path d="M 426.449318 447.594506 
L 431.944958 447.594506 
L 437.440598 447.594506 
L 442.936238 447.594506 
L 448.431878 447.594506 
L 453.927519 447.594506 
L 459.423159 447.594506 
L 464.918799 447.594506 
L 470.414439 447.594506 
L 475.910079 447.594506 
L 481.405719 447.594506 
L 486.901359 447.594506 
L 492.396999 447.594506 
L 497.892639 447.594506 
L 503.388279 447.594506 
L 508.883919 447.594506 
L 514.379559 447.594506 
L 519.875199 447.594506 
L 525.37084 447.594506 
L 530.86648 447.594506 
L 536.36212 447.594506 
L 541.85776 447.594506 
L 547.3534 447.594506 
L 552.84904 447.594506 
L 558.34468 447.594506 
L 563.84032 447.594506 
L 569.33596 447.594506 
L 574.8316 447.594506 
L 580.32724 447.594506 
L 585.82288 447.594506 
L 591.31852 447.594506 
L 596.81416 447.594506 
L 602.309801 447.594506 
L 607.805441 447.594506 
L 613.301081 447.594506 
L 618.796721 447.594506 
L 624.292361 447.594506 
L 629.788001 447.594506 
L 635.283641 447.594506 
L 640.779281 447.594506 
L 646.274921 447.594506 
L 651.770561 447.594506 
L 657.266201 447.594506 
L 662.761841 447.594506 
L 668.257481 447.594506 
L 673.753122 447.594506 
L 679.248762 447.594506 
L 684.744402 447.594506 
L 690.240042 447.594506 
L 695.735682 447.594506 
" clip-path="url(#p7eec933109)" style="fill: none; stroke: #2ca02c; stroke-width: 1.5; stroke-linecap: round"/>
   </g>
   <g id="line2d_34">
    <path d="M 426.449318 264.952119 
L 431.944958 299.837058 
L 437.440598 328.676902 
L 442.936238 352.265163 
L 448.431878 371.406287 
L 453.927519 386.846957 
L 459.423159 399.246694 
L 464.918799 409.170164 
L 470.414439 417.090823 
L 475.910079 423.399886 
L 481.405719 428.417207 
L 486.901359 432.402269 
L 492.396999 435.564342 
L 497.892639 438.071458 
L 503.388279 440.058075 
L 508.883919 441.631503 
L 514.379559 442.877212 
L 519.875199 443.863169 
L 525.37084 444.643355 
L 530.86648 445.2606 
L 536.36212 445.748865 
L 541.85776 446.135056 
L 547.3534 446.440484 
L 552.84904 446.682022 
L 558.34468 446.873025 
L 563.84032 447.024057 
L 569.33596 447.14348 
L 574.8316 447.237906 
L 580.32724 447.312566 
L 585.82288 447.371597 
L 591.31852 447.418269 
L 596.81416 447.455169 
L 602.309801 447.484344 
L 607.805441 447.507411 
L 613.301081 447.525647 
L 618.796721 447.540066 
L 624.292361 447.551465 
L 629.788001 447.560477 
L 635.283641 447.567603 
L 640.779281 447.573236 
L 646.274921 447.57769 
L 651.770561 447.581211 
L 657.266201 447.583995 
L 662.761841 447.586196 
L 668.257481 447.587936 
L 673.753122 447.589311 
L 679.248762 447.590399 
L 684.744402 447.591259 
L 690.240042 447.591939 
L 695.735682 447.592476 
" clip-path="url(#p7eec933109)" style="fill: none; stroke: #d62728; stroke-width: 1.5; stroke-linecap: round"/>
   </g>
   <g id="line2d_35"/>
   <g id="line2d_36"/>
   <g id="line2d_37"/>
   <g id="line2d_38"/>
   <g id="patch_21">
    <path d="M 412.985 456.726625 
L 412.985 255.82 
" style="fill: none; stroke: #262626; stroke-width: 0.8; stroke-linejoin: miter; stroke-linecap: square"/>
   </g>
   <g id="patch_22">
    <path d="M 709.2 456.726625 
L 709.2 255.82 
" style="fill: none; stroke: #262626; stroke-width: 0.8; stroke-linejoin: miter; stroke-linecap: square"/>
   </g>
   <g id="patch_23">
    <path d="M 412.985 456.726625 
L 709.2 456.726625 
" style="fill: none; stroke: #262626; stroke-width: 0.8; stroke-linejoin: miter; stroke-linecap: square"/>
   </g>
   <g id="patch_24">
    <path d="M 412.985 255.82 
L 709.2 255.82 
" style="fill: none; stroke: #262626; stroke-width: 0.8; stroke-linejoin: miter; stroke-linecap: square"/>
   </g>
   <g id="legend_4">
    <g id="patch_25">
     <path d="M 542.932813 334.546562 
L 702.2 334.546562 
Q 704.2 334.546562 704.2 332.546562 
L 704.2 262.82 
Q 704.2 260.82 702.2 260.82 
L 542.932813 260.82 
Q 540.932813 260.82 540.932813 262.82 
L 540.932813 332.546562 
Q 540.932813 334.546562 542.932813 334.546562 
z
" style="fill: #ffffff; opacity: 0.8; stroke: #cccccc; stroke-linejoin: miter"/>
    </g>
    <g id="text_67">
     <!-- metric -->
     <g style="fill: #262626" transform="translate(608.95625 271.977813)scale(0.1 -0.1)">
      <use xlink:href="#ArialMT-6d"/>
      <use xlink:href="#ArialMT-65" x="83.300781"/>
      <use xlink:href="#ArialMT-74" x="138.916016"/>
      <use xlink:href="#ArialMT-72" x="166.699219"/>
      <use xlink:href="#ArialMT-69" x="200"/>
      <use xlink:href="#ArialMT-63" x="222.216797"/>
     </g>
    </g>
    <g id="line2d_39">
     <path d="M 544.932813 282.623125 
L 554.932813 282.623125 
L 564.932813 282.623125 
" style="fill: none; stroke: #1f77b4; stroke-width: 1.5; stroke-linecap: round"/>
    </g>
    <g id="text_68">
     <!-- InverseHarmonicMeanRank -->
     <g style="fill: #262626" transform="translate(572.932813 286.123125)scale(0.1 -0.1)">
      <use xlink:href="#ArialMT-49"/>
      <use xlink:href="#ArialMT-6e" x="27.783203"/>
      <use xlink:href="#ArialMT-76" x="83.398438"/>
      <use xlink:href="#ArialMT-65" x="133.398438"/>
      <use xlink:href="#ArialMT-72" x="189.013672"/>
      <use xlink:href="#ArialMT-73" x="222.314453"/>
      <use xlink:href="#ArialMT-65" x="272.314453"/>
      <use xlink:href="#ArialMT-48" x="327.929688"/>
      <use xlink:href="#ArialMT-61" x="400.146484"/>
      <use xlink:href="#ArialMT-72" x="455.761719"/>
      <use xlink:href="#ArialMT-6d" x="489.0625"/>
      <use xlink:href="#ArialMT-6f" x="572.363281"/>
      <use xlink:href="#ArialMT-6e" x="627.978516"/>
      <use xlink:href="#ArialMT-69" x="683.59375"/>
      <use xlink:href="#ArialMT-63" x="705.810547"/>
      <use xlink:href="#ArialMT-4d" x="755.810547"/>
      <use xlink:href="#ArialMT-65" x="839.111328"/>
      <use xlink:href="#ArialMT-61" x="894.726562"/>
      <use xlink:href="#ArialMT-6e" x="950.341797"/>
      <use xlink:href="#ArialMT-52" x="1005.957031"/>
      <use xlink:href="#ArialMT-61" x="1078.173828"/>
      <use xlink:href="#ArialMT-6e" x="1133.789062"/>
      <use xlink:href="#ArialMT-6b" x="1189.404297"/>
     </g>
    </g>
    <g id="line2d_40">
     <path d="M 544.932813 296.768438 
L 554.932813 296.768438 
L 564.932813 296.768438 
" style="fill: none; stroke: #ff7f0e; stroke-width: 1.5; stroke-linecap: round"/>
    </g>
    <g id="text_69">
     <!-- InverseArithmeticMeanRank -->
     <g style="fill: #262626" transform="translate(572.932813 300.268438)scale(0.1 -0.1)">
      <use xlink:href="#ArialMT-49"/>
      <use xlink:href="#ArialMT-6e" x="27.783203"/>
      <use xlink:href="#ArialMT-76" x="83.398438"/>
      <use xlink:href="#ArialMT-65" x="133.398438"/>
      <use xlink:href="#ArialMT-72" x="189.013672"/>
      <use xlink:href="#ArialMT-73" x="222.314453"/>
      <use xlink:href="#ArialMT-65" x="272.314453"/>
      <use xlink:href="#ArialMT-41" x="327.929688"/>
      <use xlink:href="#ArialMT-72" x="394.628906"/>
      <use xlink:href="#ArialMT-69" x="427.929688"/>
      <use xlink:href="#ArialMT-74" x="450.146484"/>
      <use xlink:href="#ArialMT-68" x="477.929688"/>
      <use xlink:href="#ArialMT-6d" x="533.544922"/>
      <use xlink:href="#ArialMT-65" x="616.845703"/>
      <use xlink:href="#ArialMT-74" x="672.460938"/>
      <use xlink:href="#ArialMT-69" x="700.244141"/>
      <use xlink:href="#ArialMT-63" x="722.460938"/>
      <use xlink:href="#ArialMT-4d" x="772.460938"/>
      <use xlink:href="#ArialMT-65" x="855.761719"/>
      <use xlink:href="#ArialMT-61" x="911.376953"/>
      <use xlink:href="#ArialMT-6e" x="966.992188"/>
      <use xlink:href="#ArialMT-52" x="1022.607422"/>
      <use xlink:href="#ArialMT-61" x="1094.824219"/>
      <use xlink:href="#ArialMT-6e" x="1150.439453"/>
      <use xlink:href="#ArialMT-6b" x="1206.054688"/>
     </g>
    </g>
    <g id="line2d_41">
     <path d="M 544.932813 310.91375 
L 554.932813 310.91375 
L 564.932813 310.91375 
" style="fill: none; stroke: #2ca02c; stroke-width: 1.5; stroke-linecap: round"/>
    </g>
    <g id="text_70">
     <!-- InverseGeometricMeanRank -->
     <g style="fill: #262626" transform="translate(572.932813 314.41375)scale(0.1 -0.1)">
      <use xlink:href="#ArialMT-49"/>
      <use xlink:href="#ArialMT-6e" x="27.783203"/>
      <use xlink:href="#ArialMT-76" x="83.398438"/>
      <use xlink:href="#ArialMT-65" x="133.398438"/>
      <use xlink:href="#ArialMT-72" x="189.013672"/>
      <use xlink:href="#ArialMT-73" x="222.314453"/>
      <use xlink:href="#ArialMT-65" x="272.314453"/>
      <use xlink:href="#ArialMT-47" x="327.929688"/>
      <use xlink:href="#ArialMT-65" x="405.712891"/>
      <use xlink:href="#ArialMT-6f" x="461.328125"/>
      <use xlink:href="#ArialMT-6d" x="516.943359"/>
      <use xlink:href="#ArialMT-65" x="600.244141"/>
      <use xlink:href="#ArialMT-74" x="655.859375"/>
      <use xlink:href="#ArialMT-72" x="683.642578"/>
      <use xlink:href="#ArialMT-69" x="716.943359"/>
      <use xlink:href="#ArialMT-63" x="739.160156"/>
      <use xlink:href="#ArialMT-4d" x="789.160156"/>
      <use xlink:href="#ArialMT-65" x="872.460938"/>
      <use xlink:href="#ArialMT-61" x="928.076172"/>
      <use xlink:href="#ArialMT-6e" x="983.691406"/>
      <use xlink:href="#ArialMT-52" x="1039.306641"/>
      <use xlink:href="#ArialMT-61" x="1111.523438"/>
      <use xlink:href="#ArialMT-6e" x="1167.138672"/>
      <use xlink:href="#ArialMT-6b" x="1222.753906"/>
     </g>
    </g>
    <g id="line2d_42">
     <path d="M 544.932813 325.059062 
L 554.932813 325.059062 
L 564.932813 325.059062 
" style="fill: none; stroke: #d62728; stroke-width: 1.5; stroke-linecap: round"/>
    </g>
    <g id="text_71">
     <!-- HitsAtK -->
     <g style="fill: #262626" transform="translate(572.932813 328.559062)scale(0.1 -0.1)">
      <use xlink:href="#ArialMT-48"/>
      <use xlink:href="#ArialMT-69" x="72.216797"/>
      <use xlink:href="#ArialMT-74" x="94.433594"/>
      <use xlink:href="#ArialMT-73" x="122.216797"/>
      <use xlink:href="#ArialMT-41" x="172.216797"/>
      <use xlink:href="#ArialMT-74" x="238.916016"/>
      <use xlink:href="#ArialMT-4b" x="266.699219"/>
     </g>
    </g>
   </g>
  </g>
 </g>
 <defs>
  <clipPath id="p5bf0826a50">
   <rect x="65.36" y="21.72" width="296.215" height="200.906625"/>
  </clipPath>
  <clipPath id="pa9bb58a9c1">
   <rect x="412.985" y="21.72" width="296.215" height="200.906625"/>
  </clipPath>
  <clipPath id="p6573475b0a">
   <rect x="65.36" y="255.82" width="296.215" height="200.906625"/>
  </clipPath>
  <clipPath id="p7eec933109">
   <rect x="412.985" y="255.82" width="296.215" height="200.906625"/>
  </clipPath>
 </defs>
</svg>
