<?xml version="1.0" encoding="utf-8" standalone="no"?>
<!DOCTYPE svg PUBLIC "-//W3C//DTD SVG 1.1//EN"
  "http://www.w3.org/Graphics/SVG/1.1/DTD/svg11.dtd">
<svg xmlns:xlink="http://www.w3.org/1999/xlink" width="720pt" height="504pt" viewBox="0 0 720 504" xmlns="http://www.w3.org/2000/svg" version="1.1">
 <metadata>
  <rdf:RDF xmlns:dc="http://purl.org/dc/elements/1.1/" xmlns:cc="http://creativecommons.org/ns#" xmlns:rdf="http://www.w3.org/1999/02/22-rdf-syntax-ns#">
   <cc:Work>
    <dc:type rdf:resource="http://purl.org/dc/dcmitype/StillImage"/>
    <dc:date>2022-03-14T20:19:24.219076</dc:date>
    <dc:format>image/svg+xml</dc:format>
    <dc:creator>
     <cc:Agent>
      <dc:title>Matplotlib v3.5.1, https://matplotlib.org/</dc:title>
     </cc:Agent>
    </dc:creator>
   </cc:Work>
  </rdf:RDF>
 </metadata>
 <defs>
  <style type="text/css">*{stroke-linejoin: round; stroke-linecap: butt}</style>
 </defs>
 <g id="figure_1">
  <g id="patch_1">
   <path d="M 0 504 
L 720 504 
L 720 0 
L 0 0 
z
" style="fill: #ffffff"/>
  </g>
  <g id="axes_1">
   <g id="patch_2">
    <path d="M 45.83 222.626625 
L 351.81 222.626625 
L 351.81 21.72 
L 45.83 21.72 
z
" style="fill: #ffffff"/>
   </g>
   <g id="matplotlib.axis_1">
    <g id="xtick_1">
     <g id="text_1">
      <!-- $\mathdefault{10^{0}}$ -->
      <g style="fill: #262626" transform="translate(39.38841 239.939125)scale(0.1 -0.1)">
       <defs>
        <path id="ArialMT-31" d="M 2384 0 
L 1822 0 
L 1822 3584 
Q 1619 3391 1289 3197 
Q 959 3003 697 2906 
L 697 3450 
Q 1169 3672 1522 3987 
Q 1875 4303 2022 4600 
L 2384 4600 
L 2384 0 
z
" transform="scale(0.015625)"/>
        <path id="ArialMT-30" d="M 266 2259 
Q 266 3072 433 3567 
Q 600 4063 929 4331 
Q 1259 4600 1759 4600 
Q 2128 4600 2406 4451 
Q 2684 4303 2865 4023 
Q 3047 3744 3150 3342 
Q 3253 2941 3253 2259 
Q 3253 1453 3087 958 
Q 2922 463 2592 192 
Q 2263 -78 1759 -78 
Q 1097 -78 719 397 
Q 266 969 266 2259 
z
M 844 2259 
Q 844 1131 1108 757 
Q 1372 384 1759 384 
Q 2147 384 2411 759 
Q 2675 1134 2675 2259 
Q 2675 3391 2411 3762 
Q 2147 4134 1753 4134 
Q 1366 4134 1134 3806 
Q 844 3388 844 2259 
z
" transform="scale(0.015625)"/>
       </defs>
       <use xlink:href="#ArialMT-31" transform="translate(0 0.99375)"/>
       <use xlink:href="#ArialMT-30" transform="translate(55.615234 0.99375)"/>
       <use xlink:href="#ArialMT-30" transform="translate(112.972813 70.6875)scale(0.7)"/>
      </g>
     </g>
    </g>
    <g id="xtick_2">
     <g id="text_2">
      <!-- $\mathdefault{10^{1}}$ -->
      <g style="fill: #262626" transform="translate(80.911754 239.939125)scale(0.1 -0.1)">
       <use xlink:href="#ArialMT-31" transform="translate(0 0.99375)"/>
       <use xlink:href="#ArialMT-30" transform="translate(55.615234 0.99375)"/>
       <use xlink:href="#ArialMT-31" transform="translate(112.972813 70.6875)scale(0.7)"/>
      </g>
     </g>
    </g>
    <g id="xtick_3">
     <g id="text_3">
      <!-- $\mathdefault{10^{2}}$ -->
      <g style="fill: #262626" transform="translate(122.435098 239.939125)scale(0.1 -0.1)">
       <defs>
        <path id="ArialMT-32" d="M 3222 541 
L 3222 0 
L 194 0 
Q 188 203 259 391 
Q 375 700 629 1000 
Q 884 1300 1366 1694 
Q 2113 2306 2375 2664 
Q 2638 3022 2638 3341 
Q 2638 3675 2398 3904 
Q 2159 4134 1775 4134 
Q 1369 4134 1125 3890 
Q 881 3647 878 3216 
L 300 3275 
Q 359 3922 746 4261 
Q 1134 4600 1788 4600 
Q 2447 4600 2831 4234 
Q 3216 3869 3216 3328 
Q 3216 3053 3103 2787 
Q 2991 2522 2730 2228 
Q 2469 1934 1863 1422 
Q 1356 997 1212 845 
Q 1069 694 975 541 
L 3222 541 
z
" transform="scale(0.015625)"/>
       </defs>
       <use xlink:href="#ArialMT-31" transform="translate(0 0.99375)"/>
       <use xlink:href="#ArialMT-30" transform="translate(55.615234 0.99375)"/>
       <use xlink:href="#ArialMT-32" transform="translate(112.972813 70.6875)scale(0.7)"/>
      </g>
     </g>
    </g>
    <g id="xtick_4">
     <g id="text_4">
      <!-- $\mathdefault{10^{3}}$ -->
      <g style="fill: #262626" transform="translate(163.958442 239.939125)scale(0.1 -0.1)">
       <defs>
        <path id="ArialMT-33" d="M 269 1209 
L 831 1284 
Q 928 806 1161 595 
Q 1394 384 1728 384 
Q 2125 384 2398 659 
Q 2672 934 2672 1341 
Q 2672 1728 2419 1979 
Q 2166 2231 1775 2231 
Q 1616 2231 1378 2169 
L 1441 2663 
Q 1497 2656 1531 2656 
Q 1891 2656 2178 2843 
Q 2466 3031 2466 3422 
Q 2466 3731 2256 3934 
Q 2047 4138 1716 4138 
Q 1388 4138 1169 3931 
Q 950 3725 888 3313 
L 325 3413 
Q 428 3978 793 4289 
Q 1159 4600 1703 4600 
Q 2078 4600 2393 4439 
Q 2709 4278 2876 4000 
Q 3044 3722 3044 3409 
Q 3044 3113 2884 2869 
Q 2725 2625 2413 2481 
Q 2819 2388 3044 2092 
Q 3269 1797 3269 1353 
Q 3269 753 2831 336 
Q 2394 -81 1725 -81 
Q 1122 -81 723 278 
Q 325 638 269 1209 
z
" transform="scale(0.015625)"/>
       </defs>
       <use xlink:href="#ArialMT-31" transform="translate(0 0.99375)"/>
       <use xlink:href="#ArialMT-30" transform="translate(55.615234 0.99375)"/>
       <use xlink:href="#ArialMT-33" transform="translate(112.972813 70.6875)scale(0.7)"/>
      </g>
     </g>
    </g>
    <g id="xtick_5">
     <g id="text_5">
      <!-- $\mathdefault{10^{4}}$ -->
      <g style="fill: #262626" transform="translate(205.481786 239.839125)scale(0.1 -0.1)">
       <defs>
        <path id="ArialMT-34" d="M 2069 0 
L 2069 1097 
L 81 1097 
L 81 1613 
L 2172 4581 
L 2631 4581 
L 2631 1613 
L 3250 1613 
L 3250 1097 
L 2631 1097 
L 2631 0 
L 2069 0 
z
M 2069 1613 
L 2069 3678 
L 634 1613 
L 2069 1613 
z
" transform="scale(0.015625)"/>
       </defs>
       <use xlink:href="#ArialMT-31" transform="translate(0 0.201563)"/>
       <use xlink:href="#ArialMT-30" transform="translate(55.615234 0.201563)"/>
       <use xlink:href="#ArialMT-34" transform="translate(112.972813 69.895313)scale(0.7)"/>
      </g>
     </g>
    </g>
    <g id="xtick_6">
     <g id="text_6">
      <!-- $\mathdefault{10^{5}}$ -->
      <g style="fill: #262626" transform="translate(247.00513 239.839125)scale(0.1 -0.1)">
       <defs>
        <path id="ArialMT-35" d="M 266 1200 
L 856 1250 
Q 922 819 1161 601 
Q 1400 384 1738 384 
Q 2144 384 2425 690 
Q 2706 997 2706 1503 
Q 2706 1984 2436 2262 
Q 2166 2541 1728 2541 
Q 1456 2541 1237 2417 
Q 1019 2294 894 2097 
L 366 2166 
L 809 4519 
L 3088 4519 
L 3088 3981 
L 1259 3981 
L 1013 2750 
Q 1425 3038 1878 3038 
Q 2478 3038 2890 2622 
Q 3303 2206 3303 1553 
Q 3303 931 2941 478 
Q 2500 -78 1738 -78 
Q 1113 -78 717 272 
Q 322 622 266 1200 
z
" transform="scale(0.015625)"/>
       </defs>
       <use xlink:href="#ArialMT-31" transform="translate(0 0.879688)"/>
       <use xlink:href="#ArialMT-30" transform="translate(55.615234 0.879688)"/>
       <use xlink:href="#ArialMT-35" transform="translate(112.972813 70.573438)scale(0.7)"/>
      </g>
     </g>
    </g>
    <g id="xtick_7">
     <g id="text_7">
      <!-- $\mathdefault{10^{6}}$ -->
      <g style="fill: #262626" transform="translate(288.528474 239.939125)scale(0.1 -0.1)">
       <defs>
        <path id="ArialMT-36" d="M 3184 3459 
L 2625 3416 
Q 2550 3747 2413 3897 
Q 2184 4138 1850 4138 
Q 1581 4138 1378 3988 
Q 1113 3794 959 3422 
Q 806 3050 800 2363 
Q 1003 2672 1297 2822 
Q 1591 2972 1913 2972 
Q 2475 2972 2870 2558 
Q 3266 2144 3266 1488 
Q 3266 1056 3080 686 
Q 2894 316 2569 119 
Q 2244 -78 1831 -78 
Q 1128 -78 684 439 
Q 241 956 241 2144 
Q 241 3472 731 4075 
Q 1159 4600 1884 4600 
Q 2425 4600 2770 4297 
Q 3116 3994 3184 3459 
z
M 888 1484 
Q 888 1194 1011 928 
Q 1134 663 1356 523 
Q 1578 384 1822 384 
Q 2178 384 2434 671 
Q 2691 959 2691 1453 
Q 2691 1928 2437 2201 
Q 2184 2475 1800 2475 
Q 1419 2475 1153 2201 
Q 888 1928 888 1484 
z
" transform="scale(0.015625)"/>
       </defs>
       <use xlink:href="#ArialMT-31" transform="translate(0 0.99375)"/>
       <use xlink:href="#ArialMT-30" transform="translate(55.615234 0.99375)"/>
       <use xlink:href="#ArialMT-36" transform="translate(112.972813 70.6875)scale(0.7)"/>
      </g>
     </g>
    </g>
    <g id="xtick_8">
     <g id="text_8">
      <!-- $\mathdefault{10^{7}}$ -->
      <g style="fill: #262626" transform="translate(330.051818 239.839125)scale(0.1 -0.1)">
       <defs>
        <path id="ArialMT-37" d="M 303 3981 
L 303 4522 
L 3269 4522 
L 3269 4084 
Q 2831 3619 2401 2847 
Q 1972 2075 1738 1259 
Q 1569 684 1522 0 
L 944 0 
Q 953 541 1156 1306 
Q 1359 2072 1739 2783 
Q 2119 3494 2547 3981 
L 303 3981 
z
" transform="scale(0.015625)"/>
       </defs>
       <use xlink:href="#ArialMT-31" transform="translate(0 0.846875)"/>
       <use xlink:href="#ArialMT-30" transform="translate(55.615234 0.846875)"/>
       <use xlink:href="#ArialMT-37" transform="translate(112.972813 70.540625)scale(0.7)"/>
      </g>
     </g>
    </g>
    <g id="xtick_9"/>
    <g id="xtick_10"/>
    <g id="xtick_11"/>
    <g id="xtick_12"/>
    <g id="xtick_13"/>
    <g id="xtick_14"/>
    <g id="xtick_15"/>
    <g id="xtick_16"/>
    <g id="xtick_17"/>
    <g id="xtick_18"/>
    <g id="xtick_19"/>
    <g id="xtick_20"/>
    <g id="xtick_21"/>
    <g id="xtick_22"/>
    <g id="xtick_23"/>
    <g id="xtick_24"/>
    <g id="xtick_25"/>
    <g id="xtick_26"/>
    <g id="xtick_27"/>
    <g id="xtick_28"/>
    <g id="xtick_29"/>
    <g id="xtick_30"/>
    <g id="xtick_31"/>
    <g id="xtick_32"/>
    <g id="xtick_33"/>
    <g id="xtick_34"/>
    <g id="xtick_35"/>
    <g id="xtick_36"/>
    <g id="xtick_37"/>
    <g id="xtick_38"/>
    <g id="xtick_39"/>
    <g id="xtick_40"/>
    <g id="xtick_41"/>
    <g id="xtick_42"/>
    <g id="xtick_43"/>
    <g id="xtick_44"/>
    <g id="xtick_45"/>
    <g id="xtick_46"/>
    <g id="xtick_47"/>
    <g id="xtick_48"/>
    <g id="xtick_49"/>
    <g id="xtick_50"/>
    <g id="xtick_51"/>
    <g id="xtick_52"/>
    <g id="xtick_53"/>
    <g id="xtick_54"/>
    <g id="xtick_55"/>
    <g id="xtick_56"/>
    <g id="xtick_57"/>
    <g id="xtick_58"/>
    <g id="xtick_59"/>
    <g id="xtick_60"/>
    <g id="xtick_61"/>
    <g id="xtick_62"/>
    <g id="xtick_63"/>
    <g id="xtick_64"/>
    <g id="xtick_65"/>
   </g>
   <g id="matplotlib.axis_2">
    <g id="ytick_1">
     <g id="text_9">
      <!-- 0 -->
      <g style="fill: #262626" transform="translate(33.269062 217.073466)scale(0.1 -0.1)">
       <use xlink:href="#ArialMT-30"/>
      </g>
     </g>
    </g>
    <g id="ytick_2">
     <g id="text_10">
      <!-- 1 -->
      <g style="fill: #262626" transform="translate(33.269062 180.544981)scale(0.1 -0.1)">
       <use xlink:href="#ArialMT-31"/>
      </g>
     </g>
    </g>
    <g id="ytick_3">
     <g id="text_11">
      <!-- 2 -->
      <g style="fill: #262626" transform="translate(33.269062 144.016497)scale(0.1 -0.1)">
       <use xlink:href="#ArialMT-32"/>
      </g>
     </g>
    </g>
    <g id="ytick_4">
     <g id="text_12">
      <!-- 3 -->
      <g style="fill: #262626" transform="translate(33.269062 107.488013)scale(0.1 -0.1)">
       <use xlink:href="#ArialMT-33"/>
      </g>
     </g>
    </g>
    <g id="ytick_5">
     <g id="text_13">
      <!-- 4 -->
      <g style="fill: #262626" transform="translate(33.269062 70.959528)scale(0.1 -0.1)">
       <use xlink:href="#ArialMT-34"/>
      </g>
     </g>
    </g>
    <g id="ytick_6">
     <g id="text_14">
      <!-- 5 -->
      <g style="fill: #262626" transform="translate(33.269062 34.431044)scale(0.1 -0.1)">
       <use xlink:href="#ArialMT-35"/>
      </g>
     </g>
    </g>
    <g id="text_15">
     <!-- Expectation -->
     <g style="fill: #262626" transform="translate(27.281562 148.299875)rotate(-90)scale(0.1 -0.1)">
      <defs>
       <path id="ArialMT-45" d="M 506 0 
L 506 4581 
L 3819 4581 
L 3819 4041 
L 1113 4041 
L 1113 2638 
L 3647 2638 
L 3647 2100 
L 1113 2100 
L 1113 541 
L 3925 541 
L 3925 0 
L 506 0 
z
" transform="scale(0.015625)"/>
       <path id="ArialMT-78" d="M 47 0 
L 1259 1725 
L 138 3319 
L 841 3319 
L 1350 2541 
Q 1494 2319 1581 2169 
Q 1719 2375 1834 2534 
L 2394 3319 
L 3066 3319 
L 1919 1756 
L 3153 0 
L 2463 0 
L 1781 1031 
L 1600 1309 
L 728 0 
L 47 0 
z
" transform="scale(0.015625)"/>
       <path id="ArialMT-70" d="M 422 -1272 
L 422 3319 
L 934 3319 
L 934 2888 
Q 1116 3141 1344 3267 
Q 1572 3394 1897 3394 
Q 2322 3394 2647 3175 
Q 2972 2956 3137 2557 
Q 3303 2159 3303 1684 
Q 3303 1175 3120 767 
Q 2938 359 2589 142 
Q 2241 -75 1856 -75 
Q 1575 -75 1351 44 
Q 1128 163 984 344 
L 984 -1272 
L 422 -1272 
z
M 931 1641 
Q 931 1000 1190 694 
Q 1450 388 1819 388 
Q 2194 388 2461 705 
Q 2728 1022 2728 1688 
Q 2728 2322 2467 2637 
Q 2206 2953 1844 2953 
Q 1484 2953 1207 2617 
Q 931 2281 931 1641 
z
" transform="scale(0.015625)"/>
       <path id="ArialMT-65" d="M 2694 1069 
L 3275 997 
Q 3138 488 2766 206 
Q 2394 -75 1816 -75 
Q 1088 -75 661 373 
Q 234 822 234 1631 
Q 234 2469 665 2931 
Q 1097 3394 1784 3394 
Q 2450 3394 2872 2941 
Q 3294 2488 3294 1666 
Q 3294 1616 3291 1516 
L 816 1516 
Q 847 969 1125 678 
Q 1403 388 1819 388 
Q 2128 388 2347 550 
Q 2566 713 2694 1069 
z
M 847 1978 
L 2700 1978 
Q 2663 2397 2488 2606 
Q 2219 2931 1791 2931 
Q 1403 2931 1139 2672 
Q 875 2413 847 1978 
z
" transform="scale(0.015625)"/>
       <path id="ArialMT-63" d="M 2588 1216 
L 3141 1144 
Q 3050 572 2676 248 
Q 2303 -75 1759 -75 
Q 1078 -75 664 370 
Q 250 816 250 1647 
Q 250 2184 428 2587 
Q 606 2991 970 3192 
Q 1334 3394 1763 3394 
Q 2303 3394 2647 3120 
Q 2991 2847 3088 2344 
L 2541 2259 
Q 2463 2594 2264 2762 
Q 2066 2931 1784 2931 
Q 1359 2931 1093 2626 
Q 828 2322 828 1663 
Q 828 994 1084 691 
Q 1341 388 1753 388 
Q 2084 388 2306 591 
Q 2528 794 2588 1216 
z
" transform="scale(0.015625)"/>
       <path id="ArialMT-74" d="M 1650 503 
L 1731 6 
Q 1494 -44 1306 -44 
Q 1000 -44 831 53 
Q 663 150 594 308 
Q 525 466 525 972 
L 525 2881 
L 113 2881 
L 113 3319 
L 525 3319 
L 525 4141 
L 1084 4478 
L 1084 3319 
L 1650 3319 
L 1650 2881 
L 1084 2881 
L 1084 941 
Q 1084 700 1114 631 
Q 1144 563 1211 522 
Q 1278 481 1403 481 
Q 1497 481 1650 503 
z
" transform="scale(0.015625)"/>
       <path id="ArialMT-61" d="M 2588 409 
Q 2275 144 1986 34 
Q 1697 -75 1366 -75 
Q 819 -75 525 192 
Q 231 459 231 875 
Q 231 1119 342 1320 
Q 453 1522 633 1644 
Q 813 1766 1038 1828 
Q 1203 1872 1538 1913 
Q 2219 1994 2541 2106 
Q 2544 2222 2544 2253 
Q 2544 2597 2384 2738 
Q 2169 2928 1744 2928 
Q 1347 2928 1158 2789 
Q 969 2650 878 2297 
L 328 2372 
Q 403 2725 575 2942 
Q 747 3159 1072 3276 
Q 1397 3394 1825 3394 
Q 2250 3394 2515 3294 
Q 2781 3194 2906 3042 
Q 3031 2891 3081 2659 
Q 3109 2516 3109 2141 
L 3109 1391 
Q 3109 606 3145 398 
Q 3181 191 3288 0 
L 2700 0 
Q 2613 175 2588 409 
z
M 2541 1666 
Q 2234 1541 1622 1453 
Q 1275 1403 1131 1340 
Q 988 1278 909 1158 
Q 831 1038 831 891 
Q 831 666 1001 516 
Q 1172 366 1500 366 
Q 1825 366 2078 508 
Q 2331 650 2450 897 
Q 2541 1088 2541 1459 
L 2541 1666 
z
" transform="scale(0.015625)"/>
       <path id="ArialMT-69" d="M 425 3934 
L 425 4581 
L 988 4581 
L 988 3934 
L 425 3934 
z
M 425 0 
L 425 3319 
L 988 3319 
L 988 0 
L 425 0 
z
" transform="scale(0.015625)"/>
       <path id="ArialMT-6f" d="M 213 1659 
Q 213 2581 725 3025 
Q 1153 3394 1769 3394 
Q 2453 3394 2887 2945 
Q 3322 2497 3322 1706 
Q 3322 1066 3130 698 
Q 2938 331 2570 128 
Q 2203 -75 1769 -75 
Q 1072 -75 642 372 
Q 213 819 213 1659 
z
M 791 1659 
Q 791 1022 1069 705 
Q 1347 388 1769 388 
Q 2188 388 2466 706 
Q 2744 1025 2744 1678 
Q 2744 2294 2464 2611 
Q 2184 2928 1769 2928 
Q 1347 2928 1069 2612 
Q 791 2297 791 1659 
z
" transform="scale(0.015625)"/>
       <path id="ArialMT-6e" d="M 422 0 
L 422 3319 
L 928 3319 
L 928 2847 
Q 1294 3394 1984 3394 
Q 2284 3394 2536 3286 
Q 2788 3178 2913 3003 
Q 3038 2828 3088 2588 
Q 3119 2431 3119 2041 
L 3119 0 
L 2556 0 
L 2556 2019 
Q 2556 2363 2490 2533 
Q 2425 2703 2258 2804 
Q 2091 2906 1866 2906 
Q 1506 2906 1245 2678 
Q 984 2450 984 1813 
L 984 0 
L 422 0 
z
" transform="scale(0.015625)"/>
      </defs>
      <use xlink:href="#ArialMT-45"/>
      <use xlink:href="#ArialMT-78" x="66.699219"/>
      <use xlink:href="#ArialMT-70" x="116.699219"/>
      <use xlink:href="#ArialMT-65" x="172.314453"/>
      <use xlink:href="#ArialMT-63" x="227.929688"/>
      <use xlink:href="#ArialMT-74" x="277.929688"/>
      <use xlink:href="#ArialMT-61" x="305.712891"/>
      <use xlink:href="#ArialMT-74" x="361.328125"/>
      <use xlink:href="#ArialMT-69" x="389.111328"/>
      <use xlink:href="#ArialMT-6f" x="411.328125"/>
      <use xlink:href="#ArialMT-6e" x="466.943359"/>
     </g>
    </g>
    <g id="text_16">
     <!-- 1e6 -->
     <g style="fill: #262626" transform="translate(45.83 18.72)scale(0.1 -0.1)">
      <use xlink:href="#ArialMT-31"/>
      <use xlink:href="#ArialMT-65" x="55.615234"/>
      <use xlink:href="#ArialMT-36" x="111.230469"/>
     </g>
    </g>
   </g>
   <g id="line2d_1">
    <path d="M 59.738182 213.494505 
L 64.45282 213.494503 
L 69.167458 213.494484 
L 73.882096 213.494468 
L 78.596733 213.49445 
L 83.311371 213.494418 
L 88.026009 213.49437 
L 92.740647 213.494329 
L 97.455285 213.494242 
L 102.169923 213.494158 
L 106.884561 213.494041 
L 111.599199 213.493909 
L 116.313837 213.493723 
L 121.028475 213.493431 
L 125.743112 213.493109 
L 130.45775 213.492726 
L 135.172388 213.492229 
L 139.887026 213.49144 
L 144.601664 213.490527 
L 149.316302 213.489349 
L 154.03094 213.487524 
L 158.745578 213.485833 
L 163.460216 213.482822 
L 168.174854 213.47911 
L 172.889492 213.474765 
L 177.604129 213.469775 
L 182.318767 213.461986 
L 187.033405 213.452867 
L 191.748043 213.440705 
L 196.462681 213.425916 
L 201.177319 213.399244 
L 205.891957 213.374617 
L 210.606595 213.336027 
L 215.321233 213.292681 
L 220.035871 213.226332 
L 224.750508 213.173149 
L 229.465146 213.03259 
L 234.179784 212.905169 
L 238.894422 212.737302 
L 243.60906 212.517924 
L 248.323698 212.176596 
L 253.038336 211.868812 
L 257.752974 211.376122 
L 262.467612 210.696668 
L 267.18225 209.813519 
L 271.896888 208.698874 
L 276.611525 207.391392 
L 281.326163 205.301088 
L 286.040801 203.611245 
L 290.755439 200.450503 
L 295.470077 195.620334 
L 300.184715 191.085801 
L 304.899353 185.693672 
L 309.613991 174.517659 
L 314.328629 163.090014 
L 319.043267 149.254917 
L 323.757904 129.800548 
L 328.472542 101.267583 
L 333.18718 69.835315 
L 337.901818 34.870116 
" clip-path="url(#pef8c73a24e)" style="fill: none; stroke: #1f77b4; stroke-width: 1.5; stroke-linecap: round"/>
   </g>
   <g id="line2d_2">
    <path d="M 59.738182 213.494505 
L 64.45282 213.494494 
L 69.167458 213.494479 
L 73.882096 213.494461 
L 78.596733 213.494437 
L 83.311371 213.494406 
L 88.026009 213.494366 
L 92.740647 213.494313 
L 97.455285 213.494245 
L 102.169923 213.494157 
L 106.884561 213.494042 
L 111.599199 213.493893 
L 116.313837 213.493699 
L 121.028475 213.493448 
L 125.743112 213.493121 
L 130.45775 213.492697 
L 135.172388 213.492146 
L 139.887026 213.49143 
L 144.601664 213.490501 
L 149.316302 213.489294 
L 154.03094 213.487726 
L 158.745578 213.48569 
L 163.460216 213.483045 
L 168.174854 213.47961 
L 172.889492 213.475148 
L 177.604129 213.469354 
L 182.318767 213.461828 
L 187.033405 213.452053 
L 191.748043 213.439358 
L 196.462681 213.42287 
L 201.177319 213.401454 
L 205.891957 213.37364 
L 210.606595 213.337515 
L 215.321233 213.290596 
L 220.035871 213.229657 
L 224.750508 213.150511 
L 229.465146 213.047715 
L 234.179784 212.914204 
L 238.894422 212.740799 
L 243.60906 212.515582 
L 248.323698 212.223071 
L 253.038336 211.843157 
L 257.752974 211.349725 
L 262.467612 210.708857 
L 267.18225 209.876498 
L 271.896888 208.795432 
L 276.611525 207.391344 
L 281.326163 205.567716 
L 286.040801 203.19919 
L 290.755439 200.122952 
L 295.470077 196.127538 
L 300.184715 190.938299 
L 304.899353 184.198522 
L 309.613991 175.444908 
L 314.328629 164.075725 
L 319.043267 149.309444 
L 323.757904 130.131017 
L 328.472542 105.2221 
L 333.18718 72.870429 
L 337.901818 30.852119 
" clip-path="url(#pef8c73a24e)" style="fill: none; stroke: #ff7f0e; stroke-width: 1.5; stroke-linecap: round"/>
   </g>
   <g id="line2d_3">
    <path d="M 59.738182 213.494504 
L 64.45282 213.494506 
L 69.167458 213.494489 
L 73.882096 213.494471 
L 78.596733 213.49445 
L 83.311371 213.494414 
L 88.026009 213.49437 
L 92.740647 213.494318 
L 97.455285 213.494244 
L 102.169923 213.494162 
L 106.884561 213.494056 
L 111.599199 213.493891 
L 116.313837 213.493686 
L 121.028475 213.493524 
L 125.743112 213.493107 
L 130.45775 213.492733 
L 135.172388 213.492173 
L 139.887026 213.49154 
L 144.601664 213.490618 
L 149.316302 213.489479 
L 154.03094 213.487712 
L 158.745578 213.485638 
L 163.460216 213.483013 
L 168.174854 213.479233 
L 172.889492 213.475541 
L 177.604129 213.468807 
L 182.318767 213.462123 
L 187.033405 213.452251 
L 191.748043 213.440691 
L 196.462681 213.422888 
L 201.177319 213.398429 
L 205.891957 213.378479 
L 210.606595 213.338459 
L 215.321233 213.292091 
L 220.035871 213.218161 
L 224.750508 213.154232 
L 229.465146 213.057938 
L 234.179784 212.921814 
L 238.894422 212.740115 
L 243.60906 212.543261 
L 248.323698 212.241679 
L 253.038336 211.84731 
L 257.752974 211.371951 
L 262.467612 210.870957 
L 267.18225 209.836122 
L 271.896888 208.753254 
L 276.611525 207.247844 
L 281.326163 205.640322 
L 286.040801 203.575499 
L 290.755439 199.958297 
L 295.470077 196.928232 
L 300.184715 190.904632 
L 304.899353 184.925289 
L 309.613991 173.523459 
L 314.328629 161.323404 
L 319.043267 149.131936 
L 323.757904 128.763391 
L 328.472542 103.575014 
L 333.18718 73.485224 
L 337.901818 40.935264 
" clip-path="url(#pef8c73a24e)" style="fill: none; stroke: #2ca02c; stroke-width: 1.5; stroke-linecap: round"/>
   </g>
   <g id="line2d_4"/>
   <g id="line2d_5"/>
   <g id="line2d_6"/>
   <g id="patch_3">
    <path d="M 45.83 222.626625 
L 45.83 21.72 
" style="fill: none; stroke: #262626; stroke-width: 0.8; stroke-linejoin: miter; stroke-linecap: square"/>
   </g>
   <g id="patch_4">
    <path d="M 351.81 222.626625 
L 351.81 21.72 
" style="fill: none; stroke: #262626; stroke-width: 0.8; stroke-linejoin: miter; stroke-linecap: square"/>
   </g>
   <g id="patch_5">
    <path d="M 45.83 222.626625 
L 351.81 222.626625 
" style="fill: none; stroke: #262626; stroke-width: 0.8; stroke-linejoin: miter; stroke-linecap: square"/>
   </g>
   <g id="patch_6">
    <path d="M 45.83 21.72 
L 351.81 21.72 
" style="fill: none; stroke: #262626; stroke-width: 0.8; stroke-linejoin: miter; stroke-linecap: square"/>
   </g>
   <g id="legend_1">
    <g id="patch_7">
     <path d="M 52.83 86.30125 
L 179.306562 86.30125 
Q 181.306562 86.30125 181.306562 84.30125 
L 181.306562 28.72 
Q 181.306562 26.72 179.306562 26.72 
L 52.83 26.72 
Q 50.83 26.72 50.83 28.72 
L 50.83 84.30125 
Q 50.83 86.30125 52.83 86.30125 
z
" style="fill: #ffffff; opacity: 0.8; stroke: #cccccc; stroke-linejoin: miter"/>
    </g>
    <g id="text_17">
     <!-- metric -->
     <g style="fill: #262626" transform="translate(102.458125 37.877813)scale(0.1 -0.1)">
      <defs>
       <path id="ArialMT-6d" d="M 422 0 
L 422 3319 
L 925 3319 
L 925 2853 
Q 1081 3097 1340 3245 
Q 1600 3394 1931 3394 
Q 2300 3394 2536 3241 
Q 2772 3088 2869 2813 
Q 3263 3394 3894 3394 
Q 4388 3394 4653 3120 
Q 4919 2847 4919 2278 
L 4919 0 
L 4359 0 
L 4359 2091 
Q 4359 2428 4304 2576 
Q 4250 2725 4106 2815 
Q 3963 2906 3769 2906 
Q 3419 2906 3187 2673 
Q 2956 2441 2956 1928 
L 2956 0 
L 2394 0 
L 2394 2156 
Q 2394 2531 2256 2718 
Q 2119 2906 1806 2906 
Q 1569 2906 1367 2781 
Q 1166 2656 1075 2415 
Q 984 2175 984 1722 
L 984 0 
L 422 0 
z
" transform="scale(0.015625)"/>
       <path id="ArialMT-72" d="M 416 0 
L 416 3319 
L 922 3319 
L 922 2816 
Q 1116 3169 1280 3281 
Q 1444 3394 1641 3394 
Q 1925 3394 2219 3213 
L 2025 2691 
Q 1819 2813 1613 2813 
Q 1428 2813 1281 2702 
Q 1134 2591 1072 2394 
Q 978 2094 978 1738 
L 978 0 
L 416 0 
z
" transform="scale(0.015625)"/>
      </defs>
      <use xlink:href="#ArialMT-6d"/>
      <use xlink:href="#ArialMT-65" x="83.300781"/>
      <use xlink:href="#ArialMT-74" x="138.916016"/>
      <use xlink:href="#ArialMT-72" x="166.699219"/>
      <use xlink:href="#ArialMT-69" x="200"/>
      <use xlink:href="#ArialMT-63" x="222.216797"/>
     </g>
    </g>
    <g id="line2d_7">
     <path d="M 54.83 48.523125 
L 64.83 48.523125 
L 74.83 48.523125 
" style="fill: none; stroke: #1f77b4; stroke-width: 1.5; stroke-linecap: round"/>
    </g>
    <g id="text_18">
     <!-- HarmonicMeanRank -->
     <g style="fill: #262626" transform="translate(82.83 52.023125)scale(0.1 -0.1)">
      <defs>
       <path id="ArialMT-48" d="M 513 0 
L 513 4581 
L 1119 4581 
L 1119 2700 
L 3500 2700 
L 3500 4581 
L 4106 4581 
L 4106 0 
L 3500 0 
L 3500 2159 
L 1119 2159 
L 1119 0 
L 513 0 
z
" transform="scale(0.015625)"/>
       <path id="ArialMT-4d" d="M 475 0 
L 475 4581 
L 1388 4581 
L 2472 1338 
Q 2622 884 2691 659 
Q 2769 909 2934 1394 
L 4031 4581 
L 4847 4581 
L 4847 0 
L 4263 0 
L 4263 3834 
L 2931 0 
L 2384 0 
L 1059 3900 
L 1059 0 
L 475 0 
z
" transform="scale(0.015625)"/>
       <path id="ArialMT-52" d="M 503 0 
L 503 4581 
L 2534 4581 
Q 3147 4581 3465 4457 
Q 3784 4334 3975 4021 
Q 4166 3709 4166 3331 
Q 4166 2844 3850 2509 
Q 3534 2175 2875 2084 
Q 3116 1969 3241 1856 
Q 3506 1613 3744 1247 
L 4541 0 
L 3778 0 
L 3172 953 
Q 2906 1366 2734 1584 
Q 2563 1803 2427 1890 
Q 2291 1978 2150 2013 
Q 2047 2034 1813 2034 
L 1109 2034 
L 1109 0 
L 503 0 
z
M 1109 2559 
L 2413 2559 
Q 2828 2559 3062 2645 
Q 3297 2731 3419 2920 
Q 3541 3109 3541 3331 
Q 3541 3656 3305 3865 
Q 3069 4075 2559 4075 
L 1109 4075 
L 1109 2559 
z
" transform="scale(0.015625)"/>
       <path id="ArialMT-6b" d="M 425 0 
L 425 4581 
L 988 4581 
L 988 1969 
L 2319 3319 
L 3047 3319 
L 1778 2088 
L 3175 0 
L 2481 0 
L 1384 1697 
L 988 1316 
L 988 0 
L 425 0 
z
" transform="scale(0.015625)"/>
      </defs>
      <use xlink:href="#ArialMT-48"/>
      <use xlink:href="#ArialMT-61" x="72.216797"/>
      <use xlink:href="#ArialMT-72" x="127.832031"/>
      <use xlink:href="#ArialMT-6d" x="161.132812"/>
      <use xlink:href="#ArialMT-6f" x="244.433594"/>
      <use xlink:href="#ArialMT-6e" x="300.048828"/>
      <use xlink:href="#ArialMT-69" x="355.664062"/>
      <use xlink:href="#ArialMT-63" x="377.880859"/>
      <use xlink:href="#ArialMT-4d" x="427.880859"/>
      <use xlink:href="#ArialMT-65" x="511.181641"/>
      <use xlink:href="#ArialMT-61" x="566.796875"/>
      <use xlink:href="#ArialMT-6e" x="622.412109"/>
      <use xlink:href="#ArialMT-52" x="678.027344"/>
      <use xlink:href="#ArialMT-61" x="750.244141"/>
      <use xlink:href="#ArialMT-6e" x="805.859375"/>
      <use xlink:href="#ArialMT-6b" x="861.474609"/>
     </g>
    </g>
    <g id="line2d_8">
     <path d="M 54.83 62.668437 
L 64.83 62.668437 
L 74.83 62.668437 
" style="fill: none; stroke: #ff7f0e; stroke-width: 1.5; stroke-linecap: round"/>
    </g>
    <g id="text_19">
     <!-- ArithmeticMeanRank -->
     <g style="fill: #262626" transform="translate(82.83 66.168437)scale(0.1 -0.1)">
      <defs>
       <path id="ArialMT-41" d="M -9 0 
L 1750 4581 
L 2403 4581 
L 4278 0 
L 3588 0 
L 3053 1388 
L 1138 1388 
L 634 0 
L -9 0 
z
M 1313 1881 
L 2866 1881 
L 2388 3150 
Q 2169 3728 2063 4100 
Q 1975 3659 1816 3225 
L 1313 1881 
z
" transform="scale(0.015625)"/>
       <path id="ArialMT-68" d="M 422 0 
L 422 4581 
L 984 4581 
L 984 2938 
Q 1378 3394 1978 3394 
Q 2347 3394 2619 3248 
Q 2891 3103 3008 2847 
Q 3125 2591 3125 2103 
L 3125 0 
L 2563 0 
L 2563 2103 
Q 2563 2525 2380 2717 
Q 2197 2909 1863 2909 
Q 1613 2909 1392 2779 
Q 1172 2650 1078 2428 
Q 984 2206 984 1816 
L 984 0 
L 422 0 
z
" transform="scale(0.015625)"/>
      </defs>
      <use xlink:href="#ArialMT-41"/>
      <use xlink:href="#ArialMT-72" x="66.699219"/>
      <use xlink:href="#ArialMT-69" x="100"/>
      <use xlink:href="#ArialMT-74" x="122.216797"/>
      <use xlink:href="#ArialMT-68" x="150"/>
      <use xlink:href="#ArialMT-6d" x="205.615234"/>
      <use xlink:href="#ArialMT-65" x="288.916016"/>
      <use xlink:href="#ArialMT-74" x="344.53125"/>
      <use xlink:href="#ArialMT-69" x="372.314453"/>
      <use xlink:href="#ArialMT-63" x="394.53125"/>
      <use xlink:href="#ArialMT-4d" x="444.53125"/>
      <use xlink:href="#ArialMT-65" x="527.832031"/>
      <use xlink:href="#ArialMT-61" x="583.447266"/>
      <use xlink:href="#ArialMT-6e" x="639.0625"/>
      <use xlink:href="#ArialMT-52" x="694.677734"/>
      <use xlink:href="#ArialMT-61" x="766.894531"/>
      <use xlink:href="#ArialMT-6e" x="822.509766"/>
      <use xlink:href="#ArialMT-6b" x="878.125"/>
     </g>
    </g>
    <g id="line2d_9">
     <path d="M 54.83 76.81375 
L 64.83 76.81375 
L 74.83 76.81375 
" style="fill: none; stroke: #2ca02c; stroke-width: 1.5; stroke-linecap: round"/>
    </g>
    <g id="text_20">
     <!-- GeometricMeanRank -->
     <g style="fill: #262626" transform="translate(82.83 80.31375)scale(0.1 -0.1)">
      <defs>
       <path id="ArialMT-47" d="M 2638 1797 
L 2638 2334 
L 4578 2338 
L 4578 638 
Q 4131 281 3656 101 
Q 3181 -78 2681 -78 
Q 2006 -78 1454 211 
Q 903 500 622 1047 
Q 341 1594 341 2269 
Q 341 2938 620 3517 
Q 900 4097 1425 4378 
Q 1950 4659 2634 4659 
Q 3131 4659 3532 4498 
Q 3934 4338 4162 4050 
Q 4391 3763 4509 3300 
L 3963 3150 
Q 3859 3500 3706 3700 
Q 3553 3900 3268 4020 
Q 2984 4141 2638 4141 
Q 2222 4141 1919 4014 
Q 1616 3888 1430 3681 
Q 1244 3475 1141 3228 
Q 966 2803 966 2306 
Q 966 1694 1177 1281 
Q 1388 869 1791 669 
Q 2194 469 2647 469 
Q 3041 469 3416 620 
Q 3791 772 3984 944 
L 3984 1797 
L 2638 1797 
z
" transform="scale(0.015625)"/>
      </defs>
      <use xlink:href="#ArialMT-47"/>
      <use xlink:href="#ArialMT-65" x="77.783203"/>
      <use xlink:href="#ArialMT-6f" x="133.398438"/>
      <use xlink:href="#ArialMT-6d" x="189.013672"/>
      <use xlink:href="#ArialMT-65" x="272.314453"/>
      <use xlink:href="#ArialMT-74" x="327.929688"/>
      <use xlink:href="#ArialMT-72" x="355.712891"/>
      <use xlink:href="#ArialMT-69" x="389.013672"/>
      <use xlink:href="#ArialMT-63" x="411.230469"/>
      <use xlink:href="#ArialMT-4d" x="461.230469"/>
      <use xlink:href="#ArialMT-65" x="544.53125"/>
      <use xlink:href="#ArialMT-61" x="600.146484"/>
      <use xlink:href="#ArialMT-6e" x="655.761719"/>
      <use xlink:href="#ArialMT-52" x="711.376953"/>
      <use xlink:href="#ArialMT-61" x="783.59375"/>
      <use xlink:href="#ArialMT-6e" x="839.208984"/>
      <use xlink:href="#ArialMT-6b" x="894.824219"/>
     </g>
    </g>
   </g>
  </g>
  <g id="axes_2">
   <g id="patch_8">
    <path d="M 403.22 222.626625 
L 709.2 222.626625 
L 709.2 21.72 
L 403.22 21.72 
z
" style="fill: #ffffff"/>
   </g>
   <g id="matplotlib.axis_3">
    <g id="xtick_66">
     <g id="text_21">
      <!-- $\mathdefault{10^{0}}$ -->
      <g style="fill: #262626" transform="translate(396.77841 239.939125)scale(0.1 -0.1)">
       <use xlink:href="#ArialMT-31" transform="translate(0 0.99375)"/>
       <use xlink:href="#ArialMT-30" transform="translate(55.615234 0.99375)"/>
       <use xlink:href="#ArialMT-30" transform="translate(112.972813 70.6875)scale(0.7)"/>
      </g>
     </g>
    </g>
    <g id="xtick_67">
     <g id="text_22">
      <!-- $\mathdefault{10^{1}}$ -->
      <g style="fill: #262626" transform="translate(438.301754 239.939125)scale(0.1 -0.1)">
       <use xlink:href="#ArialMT-31" transform="translate(0 0.99375)"/>
       <use xlink:href="#ArialMT-30" transform="translate(55.615234 0.99375)"/>
       <use xlink:href="#ArialMT-31" transform="translate(112.972813 70.6875)scale(0.7)"/>
      </g>
     </g>
    </g>
    <g id="xtick_68">
     <g id="text_23">
      <!-- $\mathdefault{10^{2}}$ -->
      <g style="fill: #262626" transform="translate(479.825098 239.939125)scale(0.1 -0.1)">
       <use xlink:href="#ArialMT-31" transform="translate(0 0.99375)"/>
       <use xlink:href="#ArialMT-30" transform="translate(55.615234 0.99375)"/>
       <use xlink:href="#ArialMT-32" transform="translate(112.972813 70.6875)scale(0.7)"/>
      </g>
     </g>
    </g>
    <g id="xtick_69">
     <g id="text_24">
      <!-- $\mathdefault{10^{3}}$ -->
      <g style="fill: #262626" transform="translate(521.348442 239.939125)scale(0.1 -0.1)">
       <use xlink:href="#ArialMT-31" transform="translate(0 0.99375)"/>
       <use xlink:href="#ArialMT-30" transform="translate(55.615234 0.99375)"/>
       <use xlink:href="#ArialMT-33" transform="translate(112.972813 70.6875)scale(0.7)"/>
      </g>
     </g>
    </g>
    <g id="xtick_70">
     <g id="text_25">
      <!-- $\mathdefault{10^{4}}$ -->
      <g style="fill: #262626" transform="translate(562.871786 239.839125)scale(0.1 -0.1)">
       <use xlink:href="#ArialMT-31" transform="translate(0 0.201563)"/>
       <use xlink:href="#ArialMT-30" transform="translate(55.615234 0.201563)"/>
       <use xlink:href="#ArialMT-34" transform="translate(112.972813 69.895313)scale(0.7)"/>
      </g>
     </g>
    </g>
    <g id="xtick_71">
     <g id="text_26">
      <!-- $\mathdefault{10^{5}}$ -->
      <g style="fill: #262626" transform="translate(604.39513 239.839125)scale(0.1 -0.1)">
       <use xlink:href="#ArialMT-31" transform="translate(0 0.879688)"/>
       <use xlink:href="#ArialMT-30" transform="translate(55.615234 0.879688)"/>
       <use xlink:href="#ArialMT-35" transform="translate(112.972813 70.573438)scale(0.7)"/>
      </g>
     </g>
    </g>
    <g id="xtick_72">
     <g id="text_27">
      <!-- $\mathdefault{10^{6}}$ -->
      <g style="fill: #262626" transform="translate(645.918474 239.939125)scale(0.1 -0.1)">
       <use xlink:href="#ArialMT-31" transform="translate(0 0.99375)"/>
       <use xlink:href="#ArialMT-30" transform="translate(55.615234 0.99375)"/>
       <use xlink:href="#ArialMT-36" transform="translate(112.972813 70.6875)scale(0.7)"/>
      </g>
     </g>
    </g>
    <g id="xtick_73">
     <g id="text_28">
      <!-- $\mathdefault{10^{7}}$ -->
      <g style="fill: #262626" transform="translate(687.441818 239.839125)scale(0.1 -0.1)">
       <use xlink:href="#ArialMT-31" transform="translate(0 0.846875)"/>
       <use xlink:href="#ArialMT-30" transform="translate(55.615234 0.846875)"/>
       <use xlink:href="#ArialMT-37" transform="translate(112.972813 70.540625)scale(0.7)"/>
      </g>
     </g>
    </g>
    <g id="xtick_74"/>
    <g id="xtick_75"/>
    <g id="xtick_76"/>
    <g id="xtick_77"/>
    <g id="xtick_78"/>
    <g id="xtick_79"/>
    <g id="xtick_80"/>
    <g id="xtick_81"/>
    <g id="xtick_82"/>
    <g id="xtick_83"/>
    <g id="xtick_84"/>
    <g id="xtick_85"/>
    <g id="xtick_86"/>
    <g id="xtick_87"/>
    <g id="xtick_88"/>
    <g id="xtick_89"/>
    <g id="xtick_90"/>
    <g id="xtick_91"/>
    <g id="xtick_92"/>
    <g id="xtick_93"/>
    <g id="xtick_94"/>
    <g id="xtick_95"/>
    <g id="xtick_96"/>
    <g id="xtick_97"/>
    <g id="xtick_98"/>
    <g id="xtick_99"/>
    <g id="xtick_100"/>
    <g id="xtick_101"/>
    <g id="xtick_102"/>
    <g id="xtick_103"/>
    <g id="xtick_104"/>
    <g id="xtick_105"/>
    <g id="xtick_106"/>
    <g id="xtick_107"/>
    <g id="xtick_108"/>
    <g id="xtick_109"/>
    <g id="xtick_110"/>
    <g id="xtick_111"/>
    <g id="xtick_112"/>
    <g id="xtick_113"/>
    <g id="xtick_114"/>
    <g id="xtick_115"/>
    <g id="xtick_116"/>
    <g id="xtick_117"/>
    <g id="xtick_118"/>
    <g id="xtick_119"/>
    <g id="xtick_120"/>
    <g id="xtick_121"/>
    <g id="xtick_122"/>
    <g id="xtick_123"/>
    <g id="xtick_124"/>
    <g id="xtick_125"/>
    <g id="xtick_126"/>
    <g id="xtick_127"/>
    <g id="xtick_128"/>
    <g id="xtick_129"/>
    <g id="xtick_130"/>
   </g>
   <g id="matplotlib.axis_4">
    <g id="ytick_7">
     <g id="text_29">
      <!-- 0 -->
      <g style="fill: #262626" transform="translate(390.659063 217.073412)scale(0.1 -0.1)">
       <use xlink:href="#ArialMT-30"/>
      </g>
     </g>
    </g>
    <g id="ytick_8">
     <g id="text_30">
      <!-- 2 -->
      <g style="fill: #262626" transform="translate(390.659063 173.239239)scale(0.1 -0.1)">
       <use xlink:href="#ArialMT-32"/>
      </g>
     </g>
    </g>
    <g id="ytick_9">
     <g id="text_31">
      <!-- 4 -->
      <g style="fill: #262626" transform="translate(390.659063 129.405066)scale(0.1 -0.1)">
       <use xlink:href="#ArialMT-34"/>
      </g>
     </g>
    </g>
    <g id="ytick_10">
     <g id="text_32">
      <!-- 6 -->
      <g style="fill: #262626" transform="translate(390.659063 85.570894)scale(0.1 -0.1)">
       <use xlink:href="#ArialMT-36"/>
      </g>
     </g>
    </g>
    <g id="ytick_11">
     <g id="text_33">
      <!-- 8 -->
      <g style="fill: #262626" transform="translate(390.659063 41.736721)scale(0.1 -0.1)">
       <defs>
        <path id="ArialMT-38" d="M 1131 2484 
Q 781 2613 612 2850 
Q 444 3088 444 3419 
Q 444 3919 803 4259 
Q 1163 4600 1759 4600 
Q 2359 4600 2725 4251 
Q 3091 3903 3091 3403 
Q 3091 3084 2923 2848 
Q 2756 2613 2416 2484 
Q 2838 2347 3058 2040 
Q 3278 1734 3278 1309 
Q 3278 722 2862 322 
Q 2447 -78 1769 -78 
Q 1091 -78 675 323 
Q 259 725 259 1325 
Q 259 1772 486 2073 
Q 713 2375 1131 2484 
z
M 1019 3438 
Q 1019 3113 1228 2906 
Q 1438 2700 1772 2700 
Q 2097 2700 2305 2904 
Q 2513 3109 2513 3406 
Q 2513 3716 2298 3927 
Q 2084 4138 1766 4138 
Q 1444 4138 1231 3931 
Q 1019 3725 1019 3438 
z
M 838 1322 
Q 838 1081 952 856 
Q 1066 631 1291 507 
Q 1516 384 1775 384 
Q 2178 384 2440 643 
Q 2703 903 2703 1303 
Q 2703 1709 2433 1975 
Q 2163 2241 1756 2241 
Q 1359 2241 1098 1978 
Q 838 1716 838 1322 
z
" transform="scale(0.015625)"/>
       </defs>
       <use xlink:href="#ArialMT-38"/>
      </g>
     </g>
    </g>
    <g id="text_34">
     <!-- Variance -->
     <g style="fill: #262626" transform="translate(384.671562 141.537375)rotate(-90)scale(0.1 -0.1)">
      <defs>
       <path id="ArialMT-56" d="M 1803 0 
L 28 4581 
L 684 4581 
L 1875 1253 
Q 2019 853 2116 503 
Q 2222 878 2363 1253 
L 3600 4581 
L 4219 4581 
L 2425 0 
L 1803 0 
z
" transform="scale(0.015625)"/>
      </defs>
      <use xlink:href="#ArialMT-56"/>
      <use xlink:href="#ArialMT-61" x="59.324219"/>
      <use xlink:href="#ArialMT-72" x="114.939453"/>
      <use xlink:href="#ArialMT-69" x="148.240234"/>
      <use xlink:href="#ArialMT-61" x="170.457031"/>
      <use xlink:href="#ArialMT-6e" x="226.072266"/>
      <use xlink:href="#ArialMT-63" x="281.6875"/>
      <use xlink:href="#ArialMT-65" x="331.6875"/>
     </g>
    </g>
    <g id="text_35">
     <!-- 1e12 -->
     <g style="fill: #262626" transform="translate(403.22 18.72)scale(0.1 -0.1)">
      <use xlink:href="#ArialMT-31"/>
      <use xlink:href="#ArialMT-65" x="55.615234"/>
      <use xlink:href="#ArialMT-31" x="111.230469"/>
      <use xlink:href="#ArialMT-32" x="166.845703"/>
     </g>
    </g>
   </g>
   <g id="line2d_10">
    <path d="M 417.128182 213.494506 
L 421.84282 213.494506 
L 426.557458 213.494506 
L 431.272096 213.494506 
L 435.986733 213.494506 
L 440.701371 213.494506 
L 445.416009 213.494506 
L 450.130647 213.494506 
L 454.845285 213.494506 
L 459.559923 213.494506 
L 464.274561 213.494506 
L 468.989199 213.494506 
L 473.703837 213.494506 
L 478.418475 213.494506 
L 483.133112 213.494506 
L 487.84775 213.494506 
L 492.562388 213.494506 
L 497.277026 213.494506 
L 501.991664 213.494506 
L 506.706302 213.494506 
L 511.42094 213.494506 
L 516.135578 213.494506 
L 520.850216 213.494506 
L 525.564854 213.494506 
L 530.279492 213.494506 
L 534.994129 213.494506 
L 539.708767 213.494506 
L 544.423405 213.494506 
L 549.138043 213.494506 
L 553.852681 213.494506 
L 558.567319 213.494506 
L 563.281957 213.494506 
L 567.996595 213.494506 
L 572.711233 213.494506 
L 577.425871 213.494506 
L 582.140508 213.494506 
L 586.855146 213.494506 
L 591.569784 213.494506 
L 596.284422 213.494506 
L 600.99906 213.494506 
L 605.713698 213.494506 
L 610.428336 213.494506 
L 615.142974 213.494506 
L 619.857612 213.494506 
L 624.57225 213.494506 
L 629.286888 213.494506 
L 634.001525 213.494506 
L 638.716163 213.494506 
L 643.430801 213.494506 
L 648.145439 213.494506 
L 652.860077 213.494506 
L 657.574715 213.494506 
L 662.289353 213.494506 
L 667.003991 213.494506 
L 671.718629 213.494506 
L 676.433267 213.494506 
L 681.147904 213.494506 
L 685.862542 213.494506 
L 690.57718 213.494506 
L 695.291818 213.494506 
" clip-path="url(#p007ab3a28e)" style="fill: none; stroke: #1f77b4; stroke-width: 1.5; stroke-linecap: round"/>
   </g>
   <g id="line2d_11">
    <path d="M 417.128182 213.494506 
L 421.84282 213.494506 
L 426.557458 213.494506 
L 431.272096 213.494506 
L 435.986733 213.494506 
L 440.701371 213.494506 
L 445.416009 213.494506 
L 450.130647 213.494506 
L 454.845285 213.494506 
L 459.559923 213.494506 
L 464.274561 213.494506 
L 468.989199 213.494506 
L 473.703837 213.494506 
L 478.418475 213.494506 
L 483.133112 213.494506 
L 487.84775 213.494506 
L 492.562388 213.494506 
L 497.277026 213.494506 
L 501.991664 213.494506 
L 506.706302 213.494506 
L 511.42094 213.494505 
L 516.135578 213.494505 
L 520.850216 213.494505 
L 525.564854 213.494504 
L 530.279492 213.494504 
L 534.994129 213.494502 
L 539.708767 213.4945 
L 544.423405 213.494496 
L 549.138043 213.494489 
L 553.852681 213.494478 
L 558.567319 213.494458 
L 563.281957 213.494426 
L 567.996595 213.494371 
L 572.711233 213.494278 
L 577.425871 213.494122 
L 582.140508 213.493858 
L 586.855146 213.493413 
L 591.569784 213.492662 
L 596.284422 213.491395 
L 600.99906 213.489258 
L 605.713698 213.485654 
L 610.428336 213.479574 
L 615.142974 213.469319 
L 619.857612 213.452018 
L 624.57225 213.422834 
L 629.286888 213.373605 
L 634.001525 213.290561 
L 638.716163 213.150475 
L 643.430801 212.914168 
L 648.145439 212.515547 
L 652.860077 211.843122 
L 657.574715 210.708822 
L 662.289353 208.795397 
L 667.003991 205.567682 
L 671.718629 200.122919 
L 676.433267 190.938268 
L 681.147904 175.44488 
L 685.862542 149.309422 
L 690.57718 105.222086 
L 695.291818 30.852119 
" clip-path="url(#p007ab3a28e)" style="fill: none; stroke: #ff7f0e; stroke-width: 1.5; stroke-linecap: round"/>
   </g>
   <g id="line2d_12">
    <path d="M 417.128182 213.494506 
L 421.84282 213.494506 
L 426.557458 213.494506 
L 431.272096 213.494506 
L 435.986733 213.494506 
L 440.701371 213.494506 
L 445.416009 213.494506 
L 450.130647 213.494506 
L 454.845285 213.494506 
L 459.559923 213.494506 
L 464.274561 213.494506 
L 468.989199 213.494506 
L 473.703837 213.494506 
L 478.418475 213.494506 
L 483.133112 213.494506 
L 487.84775 213.494506 
L 492.562388 213.494506 
L 497.277026 213.494506 
L 501.991664 213.494506 
L 506.706302 213.494506 
L 511.42094 213.494506 
L 516.135578 213.494506 
L 520.850216 213.494506 
L 525.564854 213.494506 
L 530.279492 213.494506 
L 534.994129 213.494506 
L 539.708767 213.494506 
L 544.423405 213.494506 
L 549.138043 213.494506 
L 553.852681 213.494506 
L 558.567319 213.494506 
L 563.281957 213.494506 
L 567.996595 213.494506 
L 572.711233 213.494506 
L 577.425871 213.494506 
L 582.140508 213.494506 
L 586.855146 213.494506 
L 591.569784 213.494506 
L 596.284422 213.494506 
L 600.99906 213.494506 
L 605.713698 213.494506 
L 610.428336 213.494506 
L 615.142974 213.494506 
L 619.857612 213.494506 
L 624.57225 213.494506 
L 629.286888 213.494506 
L 634.001525 213.494506 
L 638.716163 213.494506 
L 643.430801 213.494506 
L 648.145439 213.494506 
L 652.860077 213.494506 
L 657.574715 213.494506 
L 662.289353 213.494506 
L 667.003991 213.494506 
L 671.718629 213.494506 
L 676.433267 213.494506 
L 681.147904 213.494506 
L 685.862542 213.494506 
L 690.57718 213.494506 
L 695.291818 213.494506 
" clip-path="url(#p007ab3a28e)" style="fill: none; stroke: #2ca02c; stroke-width: 1.5; stroke-linecap: round"/>
   </g>
   <g id="line2d_13"/>
   <g id="line2d_14"/>
   <g id="line2d_15"/>
   <g id="patch_9">
    <path d="M 403.22 222.626625 
L 403.22 21.72 
" style="fill: none; stroke: #262626; stroke-width: 0.8; stroke-linejoin: miter; stroke-linecap: square"/>
   </g>
   <g id="patch_10">
    <path d="M 709.2 222.626625 
L 709.2 21.72 
" style="fill: none; stroke: #262626; stroke-width: 0.8; stroke-linejoin: miter; stroke-linecap: square"/>
   </g>
   <g id="patch_11">
    <path d="M 403.22 222.626625 
L 709.2 222.626625 
" style="fill: none; stroke: #262626; stroke-width: 0.8; stroke-linejoin: miter; stroke-linecap: square"/>
   </g>
   <g id="patch_12">
    <path d="M 403.22 21.72 
L 709.2 21.72 
" style="fill: none; stroke: #262626; stroke-width: 0.8; stroke-linejoin: miter; stroke-linecap: square"/>
   </g>
   <g id="legend_2">
    <g id="patch_13">
     <path d="M 410.22 86.30125 
L 536.696563 86.30125 
Q 538.696563 86.30125 538.696563 84.30125 
L 538.696563 28.72 
Q 538.696563 26.72 536.696563 26.72 
L 410.22 26.72 
Q 408.22 26.72 408.22 28.72 
L 408.22 84.30125 
Q 408.22 86.30125 410.22 86.30125 
z
" style="fill: #ffffff; opacity: 0.8; stroke: #cccccc; stroke-linejoin: miter"/>
    </g>
    <g id="text_36">
     <!-- metric -->
     <g style="fill: #262626" transform="translate(459.848125 37.877813)scale(0.1 -0.1)">
      <use xlink:href="#ArialMT-6d"/>
      <use xlink:href="#ArialMT-65" x="83.300781"/>
      <use xlink:href="#ArialMT-74" x="138.916016"/>
      <use xlink:href="#ArialMT-72" x="166.699219"/>
      <use xlink:href="#ArialMT-69" x="200"/>
      <use xlink:href="#ArialMT-63" x="222.216797"/>
     </g>
    </g>
    <g id="line2d_16">
     <path d="M 412.22 48.523125 
L 422.22 48.523125 
L 432.22 48.523125 
" style="fill: none; stroke: #1f77b4; stroke-width: 1.5; stroke-linecap: round"/>
    </g>
    <g id="text_37">
     <!-- HarmonicMeanRank -->
     <g style="fill: #262626" transform="translate(440.22 52.023125)scale(0.1 -0.1)">
      <use xlink:href="#ArialMT-48"/>
      <use xlink:href="#ArialMT-61" x="72.216797"/>
      <use xlink:href="#ArialMT-72" x="127.832031"/>
      <use xlink:href="#ArialMT-6d" x="161.132812"/>
      <use xlink:href="#ArialMT-6f" x="244.433594"/>
      <use xlink:href="#ArialMT-6e" x="300.048828"/>
      <use xlink:href="#ArialMT-69" x="355.664062"/>
      <use xlink:href="#ArialMT-63" x="377.880859"/>
      <use xlink:href="#ArialMT-4d" x="427.880859"/>
      <use xlink:href="#ArialMT-65" x="511.181641"/>
      <use xlink:href="#ArialMT-61" x="566.796875"/>
      <use xlink:href="#ArialMT-6e" x="622.412109"/>
      <use xlink:href="#ArialMT-52" x="678.027344"/>
      <use xlink:href="#ArialMT-61" x="750.244141"/>
      <use xlink:href="#ArialMT-6e" x="805.859375"/>
      <use xlink:href="#ArialMT-6b" x="861.474609"/>
     </g>
    </g>
    <g id="line2d_17">
     <path d="M 412.22 62.668437 
L 422.22 62.668437 
L 432.22 62.668437 
" style="fill: none; stroke: #ff7f0e; stroke-width: 1.5; stroke-linecap: round"/>
    </g>
    <g id="text_38">
     <!-- ArithmeticMeanRank -->
     <g style="fill: #262626" transform="translate(440.22 66.168437)scale(0.1 -0.1)">
      <use xlink:href="#ArialMT-41"/>
      <use xlink:href="#ArialMT-72" x="66.699219"/>
      <use xlink:href="#ArialMT-69" x="100"/>
      <use xlink:href="#ArialMT-74" x="122.216797"/>
      <use xlink:href="#ArialMT-68" x="150"/>
      <use xlink:href="#ArialMT-6d" x="205.615234"/>
      <use xlink:href="#ArialMT-65" x="288.916016"/>
      <use xlink:href="#ArialMT-74" x="344.53125"/>
      <use xlink:href="#ArialMT-69" x="372.314453"/>
      <use xlink:href="#ArialMT-63" x="394.53125"/>
      <use xlink:href="#ArialMT-4d" x="444.53125"/>
      <use xlink:href="#ArialMT-65" x="527.832031"/>
      <use xlink:href="#ArialMT-61" x="583.447266"/>
      <use xlink:href="#ArialMT-6e" x="639.0625"/>
      <use xlink:href="#ArialMT-52" x="694.677734"/>
      <use xlink:href="#ArialMT-61" x="766.894531"/>
      <use xlink:href="#ArialMT-6e" x="822.509766"/>
      <use xlink:href="#ArialMT-6b" x="878.125"/>
     </g>
    </g>
    <g id="line2d_18">
     <path d="M 412.22 76.81375 
L 422.22 76.81375 
L 432.22 76.81375 
" style="fill: none; stroke: #2ca02c; stroke-width: 1.5; stroke-linecap: round"/>
    </g>
    <g id="text_39">
     <!-- GeometricMeanRank -->
     <g style="fill: #262626" transform="translate(440.22 80.31375)scale(0.1 -0.1)">
      <use xlink:href="#ArialMT-47"/>
      <use xlink:href="#ArialMT-65" x="77.783203"/>
      <use xlink:href="#ArialMT-6f" x="133.398438"/>
      <use xlink:href="#ArialMT-6d" x="189.013672"/>
      <use xlink:href="#ArialMT-65" x="272.314453"/>
      <use xlink:href="#ArialMT-74" x="327.929688"/>
      <use xlink:href="#ArialMT-72" x="355.712891"/>
      <use xlink:href="#ArialMT-69" x="389.013672"/>
      <use xlink:href="#ArialMT-63" x="411.230469"/>
      <use xlink:href="#ArialMT-4d" x="461.230469"/>
      <use xlink:href="#ArialMT-65" x="544.53125"/>
      <use xlink:href="#ArialMT-61" x="600.146484"/>
      <use xlink:href="#ArialMT-6e" x="655.761719"/>
      <use xlink:href="#ArialMT-52" x="711.376953"/>
      <use xlink:href="#ArialMT-61" x="783.59375"/>
      <use xlink:href="#ArialMT-6e" x="839.208984"/>
      <use xlink:href="#ArialMT-6b" x="894.824219"/>
     </g>
    </g>
   </g>
  </g>
  <g id="axes_3">
   <g id="patch_14">
    <path d="M 45.83 456.726625 
L 351.81 456.726625 
L 351.81 255.82 
L 45.83 255.82 
z
" style="fill: #ffffff"/>
   </g>
   <g id="matplotlib.axis_5">
    <g id="xtick_131">
     <g id="text_40">
      <!-- $\mathdefault{10^{0}}$ -->
      <g style="fill: #262626" transform="translate(39.38841 474.039125)scale(0.1 -0.1)">
       <use xlink:href="#ArialMT-31" transform="translate(0 0.99375)"/>
       <use xlink:href="#ArialMT-30" transform="translate(55.615234 0.99375)"/>
       <use xlink:href="#ArialMT-30" transform="translate(112.972813 70.6875)scale(0.7)"/>
      </g>
     </g>
    </g>
    <g id="xtick_132">
     <g id="text_41">
      <!-- $\mathdefault{10^{1}}$ -->
      <g style="fill: #262626" transform="translate(80.911754 474.039125)scale(0.1 -0.1)">
       <use xlink:href="#ArialMT-31" transform="translate(0 0.99375)"/>
       <use xlink:href="#ArialMT-30" transform="translate(55.615234 0.99375)"/>
       <use xlink:href="#ArialMT-31" transform="translate(112.972813 70.6875)scale(0.7)"/>
      </g>
     </g>
    </g>
    <g id="xtick_133">
     <g id="text_42">
      <!-- $\mathdefault{10^{2}}$ -->
      <g style="fill: #262626" transform="translate(122.435098 474.039125)scale(0.1 -0.1)">
       <use xlink:href="#ArialMT-31" transform="translate(0 0.99375)"/>
       <use xlink:href="#ArialMT-30" transform="translate(55.615234 0.99375)"/>
       <use xlink:href="#ArialMT-32" transform="translate(112.972813 70.6875)scale(0.7)"/>
      </g>
     </g>
    </g>
    <g id="xtick_134">
     <g id="text_43">
      <!-- $\mathdefault{10^{3}}$ -->
      <g style="fill: #262626" transform="translate(163.958442 474.039125)scale(0.1 -0.1)">
       <use xlink:href="#ArialMT-31" transform="translate(0 0.99375)"/>
       <use xlink:href="#ArialMT-30" transform="translate(55.615234 0.99375)"/>
       <use xlink:href="#ArialMT-33" transform="translate(112.972813 70.6875)scale(0.7)"/>
      </g>
     </g>
    </g>
    <g id="xtick_135">
     <g id="text_44">
      <!-- $\mathdefault{10^{4}}$ -->
      <g style="fill: #262626" transform="translate(205.481786 473.939125)scale(0.1 -0.1)">
       <use xlink:href="#ArialMT-31" transform="translate(0 0.201563)"/>
       <use xlink:href="#ArialMT-30" transform="translate(55.615234 0.201563)"/>
       <use xlink:href="#ArialMT-34" transform="translate(112.972813 69.895313)scale(0.7)"/>
      </g>
     </g>
    </g>
    <g id="xtick_136">
     <g id="text_45">
      <!-- $\mathdefault{10^{5}}$ -->
      <g style="fill: #262626" transform="translate(247.00513 473.939125)scale(0.1 -0.1)">
       <use xlink:href="#ArialMT-31" transform="translate(0 0.879688)"/>
       <use xlink:href="#ArialMT-30" transform="translate(55.615234 0.879688)"/>
       <use xlink:href="#ArialMT-35" transform="translate(112.972813 70.573438)scale(0.7)"/>
      </g>
     </g>
    </g>
    <g id="xtick_137">
     <g id="text_46">
      <!-- $\mathdefault{10^{6}}$ -->
      <g style="fill: #262626" transform="translate(288.528474 474.039125)scale(0.1 -0.1)">
       <use xlink:href="#ArialMT-31" transform="translate(0 0.99375)"/>
       <use xlink:href="#ArialMT-30" transform="translate(55.615234 0.99375)"/>
       <use xlink:href="#ArialMT-36" transform="translate(112.972813 70.6875)scale(0.7)"/>
      </g>
     </g>
    </g>
    <g id="xtick_138">
     <g id="text_47">
      <!-- $\mathdefault{10^{7}}$ -->
      <g style="fill: #262626" transform="translate(330.051818 473.939125)scale(0.1 -0.1)">
       <use xlink:href="#ArialMT-31" transform="translate(0 0.846875)"/>
       <use xlink:href="#ArialMT-30" transform="translate(55.615234 0.846875)"/>
       <use xlink:href="#ArialMT-37" transform="translate(112.972813 70.540625)scale(0.7)"/>
      </g>
     </g>
    </g>
    <g id="xtick_139"/>
    <g id="xtick_140"/>
    <g id="xtick_141"/>
    <g id="xtick_142"/>
    <g id="xtick_143"/>
    <g id="xtick_144"/>
    <g id="xtick_145"/>
    <g id="xtick_146"/>
    <g id="xtick_147"/>
    <g id="xtick_148"/>
    <g id="xtick_149"/>
    <g id="xtick_150"/>
    <g id="xtick_151"/>
    <g id="xtick_152"/>
    <g id="xtick_153"/>
    <g id="xtick_154"/>
    <g id="xtick_155"/>
    <g id="xtick_156"/>
    <g id="xtick_157"/>
    <g id="xtick_158"/>
    <g id="xtick_159"/>
    <g id="xtick_160"/>
    <g id="xtick_161"/>
    <g id="xtick_162"/>
    <g id="xtick_163"/>
    <g id="xtick_164"/>
    <g id="xtick_165"/>
    <g id="xtick_166"/>
    <g id="xtick_167"/>
    <g id="xtick_168"/>
    <g id="xtick_169"/>
    <g id="xtick_170"/>
    <g id="xtick_171"/>
    <g id="xtick_172"/>
    <g id="xtick_173"/>
    <g id="xtick_174"/>
    <g id="xtick_175"/>
    <g id="xtick_176"/>
    <g id="xtick_177"/>
    <g id="xtick_178"/>
    <g id="xtick_179"/>
    <g id="xtick_180"/>
    <g id="xtick_181"/>
    <g id="xtick_182"/>
    <g id="xtick_183"/>
    <g id="xtick_184"/>
    <g id="xtick_185"/>
    <g id="xtick_186"/>
    <g id="xtick_187"/>
    <g id="xtick_188"/>
    <g id="xtick_189"/>
    <g id="xtick_190"/>
    <g id="xtick_191"/>
    <g id="xtick_192"/>
    <g id="xtick_193"/>
    <g id="xtick_194"/>
    <g id="xtick_195"/>
    <g id="text_48">
     <!-- Number of Candidates -->
     <g style="fill: #262626" transform="translate(148.796562 487.184438)scale(0.1 -0.1)">
      <defs>
       <path id="ArialMT-4e" d="M 488 0 
L 488 4581 
L 1109 4581 
L 3516 984 
L 3516 4581 
L 4097 4581 
L 4097 0 
L 3475 0 
L 1069 3600 
L 1069 0 
L 488 0 
z
" transform="scale(0.015625)"/>
       <path id="ArialMT-75" d="M 2597 0 
L 2597 488 
Q 2209 -75 1544 -75 
Q 1250 -75 995 37 
Q 741 150 617 320 
Q 494 491 444 738 
Q 409 903 409 1263 
L 409 3319 
L 972 3319 
L 972 1478 
Q 972 1038 1006 884 
Q 1059 663 1231 536 
Q 1403 409 1656 409 
Q 1909 409 2131 539 
Q 2353 669 2445 892 
Q 2538 1116 2538 1541 
L 2538 3319 
L 3100 3319 
L 3100 0 
L 2597 0 
z
" transform="scale(0.015625)"/>
       <path id="ArialMT-62" d="M 941 0 
L 419 0 
L 419 4581 
L 981 4581 
L 981 2947 
Q 1338 3394 1891 3394 
Q 2197 3394 2470 3270 
Q 2744 3147 2920 2923 
Q 3097 2700 3197 2384 
Q 3297 2069 3297 1709 
Q 3297 856 2875 390 
Q 2453 -75 1863 -75 
Q 1275 -75 941 416 
L 941 0 
z
M 934 1684 
Q 934 1088 1097 822 
Q 1363 388 1816 388 
Q 2184 388 2453 708 
Q 2722 1028 2722 1663 
Q 2722 2313 2464 2622 
Q 2206 2931 1841 2931 
Q 1472 2931 1203 2611 
Q 934 2291 934 1684 
z
" transform="scale(0.015625)"/>
       <path id="ArialMT-20" transform="scale(0.015625)"/>
       <path id="ArialMT-66" d="M 556 0 
L 556 2881 
L 59 2881 
L 59 3319 
L 556 3319 
L 556 3672 
Q 556 4006 616 4169 
Q 697 4388 901 4523 
Q 1106 4659 1475 4659 
Q 1713 4659 2000 4603 
L 1916 4113 
Q 1741 4144 1584 4144 
Q 1328 4144 1222 4034 
Q 1116 3925 1116 3625 
L 1116 3319 
L 1763 3319 
L 1763 2881 
L 1116 2881 
L 1116 0 
L 556 0 
z
" transform="scale(0.015625)"/>
       <path id="ArialMT-43" d="M 3763 1606 
L 4369 1453 
Q 4178 706 3683 314 
Q 3188 -78 2472 -78 
Q 1731 -78 1267 223 
Q 803 525 561 1097 
Q 319 1669 319 2325 
Q 319 3041 592 3573 
Q 866 4106 1370 4382 
Q 1875 4659 2481 4659 
Q 3169 4659 3637 4309 
Q 4106 3959 4291 3325 
L 3694 3184 
Q 3534 3684 3231 3912 
Q 2928 4141 2469 4141 
Q 1941 4141 1586 3887 
Q 1231 3634 1087 3207 
Q 944 2781 944 2328 
Q 944 1744 1114 1308 
Q 1284 872 1643 656 
Q 2003 441 2422 441 
Q 2931 441 3284 734 
Q 3638 1028 3763 1606 
z
" transform="scale(0.015625)"/>
       <path id="ArialMT-64" d="M 2575 0 
L 2575 419 
Q 2259 -75 1647 -75 
Q 1250 -75 917 144 
Q 584 363 401 755 
Q 219 1147 219 1656 
Q 219 2153 384 2558 
Q 550 2963 881 3178 
Q 1213 3394 1622 3394 
Q 1922 3394 2156 3267 
Q 2391 3141 2538 2938 
L 2538 4581 
L 3097 4581 
L 3097 0 
L 2575 0 
z
M 797 1656 
Q 797 1019 1065 703 
Q 1334 388 1700 388 
Q 2069 388 2326 689 
Q 2584 991 2584 1609 
Q 2584 2291 2321 2609 
Q 2059 2928 1675 2928 
Q 1300 2928 1048 2622 
Q 797 2316 797 1656 
z
" transform="scale(0.015625)"/>
       <path id="ArialMT-73" d="M 197 991 
L 753 1078 
Q 800 744 1014 566 
Q 1228 388 1613 388 
Q 2000 388 2187 545 
Q 2375 703 2375 916 
Q 2375 1106 2209 1216 
Q 2094 1291 1634 1406 
Q 1016 1563 777 1677 
Q 538 1791 414 1992 
Q 291 2194 291 2438 
Q 291 2659 392 2848 
Q 494 3038 669 3163 
Q 800 3259 1026 3326 
Q 1253 3394 1513 3394 
Q 1903 3394 2198 3281 
Q 2494 3169 2634 2976 
Q 2775 2784 2828 2463 
L 2278 2388 
Q 2241 2644 2061 2787 
Q 1881 2931 1553 2931 
Q 1166 2931 1000 2803 
Q 834 2675 834 2503 
Q 834 2394 903 2306 
Q 972 2216 1119 2156 
Q 1203 2125 1616 2013 
Q 2213 1853 2448 1751 
Q 2684 1650 2818 1456 
Q 2953 1263 2953 975 
Q 2953 694 2789 445 
Q 2625 197 2315 61 
Q 2006 -75 1616 -75 
Q 969 -75 630 194 
Q 291 463 197 991 
z
" transform="scale(0.015625)"/>
      </defs>
      <use xlink:href="#ArialMT-4e"/>
      <use xlink:href="#ArialMT-75" x="72.216797"/>
      <use xlink:href="#ArialMT-6d" x="127.832031"/>
      <use xlink:href="#ArialMT-62" x="211.132812"/>
      <use xlink:href="#ArialMT-65" x="266.748047"/>
      <use xlink:href="#ArialMT-72" x="322.363281"/>
      <use xlink:href="#ArialMT-20" x="355.664062"/>
      <use xlink:href="#ArialMT-6f" x="383.447266"/>
      <use xlink:href="#ArialMT-66" x="439.0625"/>
      <use xlink:href="#ArialMT-20" x="466.845703"/>
      <use xlink:href="#ArialMT-43" x="494.628906"/>
      <use xlink:href="#ArialMT-61" x="566.845703"/>
      <use xlink:href="#ArialMT-6e" x="622.460938"/>
      <use xlink:href="#ArialMT-64" x="678.076172"/>
      <use xlink:href="#ArialMT-69" x="733.691406"/>
      <use xlink:href="#ArialMT-64" x="755.908203"/>
      <use xlink:href="#ArialMT-61" x="811.523438"/>
      <use xlink:href="#ArialMT-74" x="867.138672"/>
      <use xlink:href="#ArialMT-65" x="894.921875"/>
      <use xlink:href="#ArialMT-73" x="950.537109"/>
     </g>
    </g>
   </g>
   <g id="matplotlib.axis_6">
    <g id="ytick_12">
     <g id="text_49">
      <!-- 0.0 -->
      <g style="fill: #262626" transform="translate(24.93 451.173544)scale(0.1 -0.1)">
       <defs>
        <path id="ArialMT-2e" d="M 581 0 
L 581 641 
L 1222 641 
L 1222 0 
L 581 0 
z
" transform="scale(0.015625)"/>
       </defs>
       <use xlink:href="#ArialMT-30"/>
       <use xlink:href="#ArialMT-2e" x="55.615234"/>
       <use xlink:href="#ArialMT-30" x="83.398438"/>
      </g>
     </g>
    </g>
    <g id="ytick_13">
     <g id="text_50">
      <!-- 0.2 -->
      <g style="fill: #262626" transform="translate(24.93 414.645041)scale(0.1 -0.1)">
       <use xlink:href="#ArialMT-30"/>
       <use xlink:href="#ArialMT-2e" x="55.615234"/>
       <use xlink:href="#ArialMT-32" x="83.398438"/>
      </g>
     </g>
    </g>
    <g id="ytick_14">
     <g id="text_51">
      <!-- 0.4 -->
      <g style="fill: #262626" transform="translate(24.93 378.116537)scale(0.1 -0.1)">
       <use xlink:href="#ArialMT-30"/>
       <use xlink:href="#ArialMT-2e" x="55.615234"/>
       <use xlink:href="#ArialMT-34" x="83.398438"/>
      </g>
     </g>
    </g>
    <g id="ytick_15">
     <g id="text_52">
      <!-- 0.6 -->
      <g style="fill: #262626" transform="translate(24.93 341.588033)scale(0.1 -0.1)">
       <use xlink:href="#ArialMT-30"/>
       <use xlink:href="#ArialMT-2e" x="55.615234"/>
       <use xlink:href="#ArialMT-36" x="83.398438"/>
      </g>
     </g>
    </g>
    <g id="ytick_16">
     <g id="text_53">
      <!-- 0.8 -->
      <g style="fill: #262626" transform="translate(24.93 305.059529)scale(0.1 -0.1)">
       <use xlink:href="#ArialMT-30"/>
       <use xlink:href="#ArialMT-2e" x="55.615234"/>
       <use xlink:href="#ArialMT-38" x="83.398438"/>
      </g>
     </g>
    </g>
    <g id="ytick_17">
     <g id="text_54">
      <!-- 1.0 -->
      <g style="fill: #262626" transform="translate(24.93 268.531026)scale(0.1 -0.1)">
       <use xlink:href="#ArialMT-31"/>
       <use xlink:href="#ArialMT-2e" x="55.615234"/>
       <use xlink:href="#ArialMT-30" x="83.398438"/>
      </g>
     </g>
    </g>
    <g id="text_55">
     <!-- Expectation -->
     <g style="fill: #262626" transform="translate(18.9425 382.399875)rotate(-90)scale(0.1 -0.1)">
      <use xlink:href="#ArialMT-45"/>
      <use xlink:href="#ArialMT-78" x="66.699219"/>
      <use xlink:href="#ArialMT-70" x="116.699219"/>
      <use xlink:href="#ArialMT-65" x="172.314453"/>
      <use xlink:href="#ArialMT-63" x="227.929688"/>
      <use xlink:href="#ArialMT-74" x="277.929688"/>
      <use xlink:href="#ArialMT-61" x="305.712891"/>
      <use xlink:href="#ArialMT-74" x="361.328125"/>
      <use xlink:href="#ArialMT-69" x="389.111328"/>
      <use xlink:href="#ArialMT-6f" x="411.328125"/>
      <use xlink:href="#ArialMT-6e" x="466.943359"/>
     </g>
    </g>
   </g>
   <g id="line2d_19">
    <path d="M 59.738182 320.996491 
L 64.45282 338.463164 
L 69.167458 354.030617 
L 73.882096 367.801104 
L 78.596733 379.892575 
L 83.311371 390.434079 
L 88.026009 399.561181 
L 92.740647 407.411692 
L 97.455285 414.121893 
L 102.169923 419.823416 
L 106.884561 424.640813 
L 111.599199 428.68983 
L 116.313837 432.076322 
L 121.028475 434.895729 
L 125.743112 437.233011 
L 130.45775 439.162949 
L 135.172388 440.750689 
L 139.887026 442.052466 
L 144.601664 443.116427 
L 149.316302 443.983485 
L 154.03094 444.688178 
L 158.745578 445.259482 
L 163.460216 445.721575 
L 168.174854 446.094535 
L 172.889492 446.394957 
L 177.604129 446.636502 
L 182.318767 446.830377 
L 187.033405 446.985742 
L 191.748043 447.11006 
L 196.462681 447.209398 
L 201.177319 447.288672 
L 205.891957 447.351858 
L 210.606595 447.402163 
L 215.321233 447.442171 
L 220.035871 447.473957 
L 224.750508 447.499187 
L 229.465146 447.519195 
L 234.179784 447.535049 
L 238.894422 447.547601 
L 243.60906 447.557532 
L 248.323698 447.565383 
L 253.038336 447.571585 
L 257.752974 447.576482 
L 262.467612 447.580346 
L 267.18225 447.583393 
L 271.896888 447.585794 
L 276.611525 447.587686 
L 281.326163 447.589175 
L 286.040801 447.590347 
L 290.755439 447.591269 
L 295.470077 447.591994 
L 300.184715 447.592564 
L 304.899353 447.593011 
L 309.613991 447.593363 
L 314.328629 447.593638 
L 319.043267 447.593855 
L 323.757904 447.594025 
L 328.472542 447.594158 
L 333.18718 447.594262 
L 337.901818 447.594344 
" clip-path="url(#p754bcb4ad8)" style="fill: none; stroke: #1f77b4; stroke-width: 1.5; stroke-linecap: round"/>
   </g>
   <g id="line2d_20">
    <path d="M 59.738182 311.708604 
L 64.45282 317.005237 
L 69.167458 336.730629 
L 73.882096 353.168456 
L 78.596733 366.598769 
L 83.311371 380.677898 
L 88.026009 387.267524 
L 92.740647 398.731439 
L 97.455285 406.715112 
L 102.169923 417.342139 
L 106.884561 420.494236 
L 111.599199 427.03497 
L 116.313837 430.431957 
L 121.028475 431.746455 
L 125.743112 437.33026 
L 130.45775 438.559775 
L 135.172388 440.376448 
L 139.887026 441.711396 
L 144.601664 442.429151 
L 149.316302 443.075821 
L 154.03094 444.787837 
L 158.745578 444.451473 
L 163.460216 445.775697 
L 168.174854 445.949701 
L 172.889492 445.930193 
L 177.604129 446.624301 
L 182.318767 446.771354 
L 187.033405 447.022447 
L 191.748043 447.282448 
L 196.462681 447.268987 
L 201.177319 447.288359 
L 205.891957 447.414236 
L 210.606595 447.224055 
L 215.321233 447.432094 
L 220.035871 447.51423 
L 224.750508 447.522267 
L 229.465146 447.547549 
L 234.179784 447.510518 
L 238.894422 447.54557 
L 243.60906 447.545014 
L 248.323698 447.579895 
L 253.038336 447.55479 
L 257.752974 447.446726 
L 262.467612 447.573726 
L 267.18225 447.58671 
L 271.896888 447.565851 
L 276.611525 447.583228 
L 281.326163 447.592178 
L 286.040801 447.591454 
L 290.755439 447.592862 
L 295.470077 447.593249 
L 300.184715 447.593711 
L 304.899353 447.593333 
L 309.613991 447.593877 
L 314.328629 447.593858 
L 319.043267 447.594278 
L 323.757904 447.594293 
L 328.472542 447.59404 
L 333.18718 447.594467 
L 337.901818 447.594506 
" clip-path="url(#p754bcb4ad8)" style="fill: none; stroke: #ff7f0e; stroke-width: 1.5; stroke-linecap: round"/>
   </g>
   <g id="line2d_21">
    <path d="M 59.738182 311.708604 
L 64.45282 305.681401 
L 69.167458 334.660681 
L 73.882096 351.555114 
L 78.596733 367.049287 
L 83.311371 380.964908 
L 88.026009 389.241368 
L 92.740647 400.66969 
L 97.455285 410.693843 
L 102.169923 416.044184 
L 106.884561 419.050262 
L 111.599199 425.429859 
L 116.313837 429.772886 
L 121.028475 434.48939 
L 125.743112 438.087704 
L 130.45775 437.247683 
L 135.172388 439.174126 
L 139.887026 440.675781 
L 144.601664 441.793929 
L 149.316302 443.401034 
L 154.03094 444.959721 
L 158.745578 445.442181 
L 163.460216 445.857589 
L 168.174854 445.766915 
L 172.889492 446.574998 
L 177.604129 446.592214 
L 182.318767 446.852008 
L 187.033405 446.539526 
L 191.748043 447.278741 
L 196.462681 446.553993 
L 201.177319 447.203461 
L 205.891957 447.039453 
L 210.606595 447.361203 
L 215.321233 447.48853 
L 220.035871 447.510678 
L 224.750508 447.540559 
L 229.465146 447.522893 
L 234.179784 447.545455 
L 238.894422 447.37711 
L 243.60906 447.548839 
L 248.323698 447.576071 
L 253.038336 447.572993 
L 257.752974 447.586297 
L 262.467612 447.584645 
L 267.18225 447.588344 
L 271.896888 447.586666 
L 276.611525 447.590457 
L 281.326163 447.5908 
L 286.040801 447.590981 
L 290.755439 447.590395 
L 295.470077 447.593445 
L 300.184715 447.593591 
L 304.899353 447.593694 
L 309.613991 447.593738 
L 314.328629 447.592891 
L 319.043267 447.591108 
L 323.757904 447.594071 
L 328.472542 447.594257 
L 333.18718 447.594326 
L 337.901818 447.594468 
" clip-path="url(#p754bcb4ad8)" style="fill: none; stroke: #2ca02c; stroke-width: 1.5; stroke-linecap: round"/>
   </g>
   <g id="line2d_22">
    <path d="M 59.738182 264.952119 
L 64.45282 264.952119 
L 69.167458 264.952119 
L 73.882096 264.952119 
L 78.596733 264.952119 
L 83.311371 264.952119 
L 88.026009 264.952119 
L 92.740647 301.114466 
L 97.455285 334.813369 
L 102.169923 360.759577 
L 106.884561 380.736659 
L 111.599199 396.117857 
L 116.313837 407.960491 
L 121.028475 417.078635 
L 125.743112 424.099079 
L 130.45775 429.504415 
L 135.172388 433.666211 
L 139.887026 436.870554 
L 144.601664 439.337713 
L 149.316302 441.237283 
L 154.03094 442.699842 
L 158.745578 443.825928 
L 163.460216 444.692949 
L 168.174854 445.360505 
L 172.889492 445.874485 
L 177.604129 446.270219 
L 182.318767 446.574912 
L 187.033405 446.809508 
L 191.748043 446.990133 
L 196.462681 447.129204 
L 201.177319 447.236281 
L 205.891957 447.318724 
L 210.606595 447.3822 
L 215.321233 447.431073 
L 220.035871 447.468702 
L 224.750508 447.497675 
L 229.465146 447.519982 
L 234.179784 447.537157 
L 238.894422 447.550381 
L 243.60906 447.560563 
L 248.323698 447.568402 
L 253.038336 447.574438 
L 257.752974 447.579085 
L 262.467612 447.582663 
L 267.18225 447.585418 
L 271.896888 447.587539 
L 276.611525 447.589172 
L 281.326163 447.59043 
L 286.040801 447.591398 
L 290.755439 447.592143 
L 295.470077 447.592717 
L 300.184715 447.593159 
L 304.899353 447.593499 
L 309.613991 447.593761 
L 314.328629 447.593963 
L 319.043267 447.594118 
L 323.757904 447.594238 
L 328.472542 447.59433 
L 333.18718 447.594401 
L 337.901818 447.594455 
" clip-path="url(#p754bcb4ad8)" style="fill: none; stroke: #d62728; stroke-width: 1.5; stroke-linecap: round"/>
   </g>
   <g id="line2d_23"/>
   <g id="line2d_24"/>
   <g id="line2d_25"/>
   <g id="line2d_26"/>
   <g id="patch_15">
    <path d="M 45.83 456.726625 
L 45.83 255.82 
" style="fill: none; stroke: #262626; stroke-width: 0.8; stroke-linejoin: miter; stroke-linecap: square"/>
   </g>
   <g id="patch_16">
    <path d="M 351.81 456.726625 
L 351.81 255.82 
" style="fill: none; stroke: #262626; stroke-width: 0.8; stroke-linejoin: miter; stroke-linecap: square"/>
   </g>
   <g id="patch_17">
    <path d="M 45.83 456.726625 
L 351.81 456.726625 
" style="fill: none; stroke: #262626; stroke-width: 0.8; stroke-linejoin: miter; stroke-linecap: square"/>
   </g>
   <g id="patch_18">
    <path d="M 45.83 255.82 
L 351.81 255.82 
" style="fill: none; stroke: #262626; stroke-width: 0.8; stroke-linejoin: miter; stroke-linecap: square"/>
   </g>
   <g id="legend_3">
    <g id="patch_19">
     <path d="M 185.542813 334.546562 
L 344.81 334.546562 
Q 346.81 334.546562 346.81 332.546562 
L 346.81 262.82 
Q 346.81 260.82 344.81 260.82 
L 185.542813 260.82 
Q 183.542813 260.82 183.542813 262.82 
L 183.542813 332.546562 
Q 183.542813 334.546562 185.542813 334.546562 
z
" style="fill: #ffffff; opacity: 0.8; stroke: #cccccc; stroke-linejoin: miter"/>
    </g>
    <g id="text_56">
     <!-- metric -->
     <g style="fill: #262626" transform="translate(251.56625 271.977813)scale(0.1 -0.1)">
      <use xlink:href="#ArialMT-6d"/>
      <use xlink:href="#ArialMT-65" x="83.300781"/>
      <use xlink:href="#ArialMT-74" x="138.916016"/>
      <use xlink:href="#ArialMT-72" x="166.699219"/>
      <use xlink:href="#ArialMT-69" x="200"/>
      <use xlink:href="#ArialMT-63" x="222.216797"/>
     </g>
    </g>
    <g id="line2d_27">
     <path d="M 187.542813 282.623125 
L 197.542813 282.623125 
L 207.542813 282.623125 
" style="fill: none; stroke: #1f77b4; stroke-width: 1.5; stroke-linecap: round"/>
    </g>
    <g id="text_57">
     <!-- InverseHarmonicMeanRank -->
     <g style="fill: #262626" transform="translate(215.542813 286.123125)scale(0.1 -0.1)">
      <defs>
       <path id="ArialMT-49" d="M 597 0 
L 597 4581 
L 1203 4581 
L 1203 0 
L 597 0 
z
" transform="scale(0.015625)"/>
       <path id="ArialMT-76" d="M 1344 0 
L 81 3319 
L 675 3319 
L 1388 1331 
Q 1503 1009 1600 663 
Q 1675 925 1809 1294 
L 2547 3319 
L 3125 3319 
L 1869 0 
L 1344 0 
z
" transform="scale(0.015625)"/>
      </defs>
      <use xlink:href="#ArialMT-49"/>
      <use xlink:href="#ArialMT-6e" x="27.783203"/>
      <use xlink:href="#ArialMT-76" x="83.398438"/>
      <use xlink:href="#ArialMT-65" x="133.398438"/>
      <use xlink:href="#ArialMT-72" x="189.013672"/>
      <use xlink:href="#ArialMT-73" x="222.314453"/>
      <use xlink:href="#ArialMT-65" x="272.314453"/>
      <use xlink:href="#ArialMT-48" x="327.929688"/>
      <use xlink:href="#ArialMT-61" x="400.146484"/>
      <use xlink:href="#ArialMT-72" x="455.761719"/>
      <use xlink:href="#ArialMT-6d" x="489.0625"/>
      <use xlink:href="#ArialMT-6f" x="572.363281"/>
      <use xlink:href="#ArialMT-6e" x="627.978516"/>
      <use xlink:href="#ArialMT-69" x="683.59375"/>
      <use xlink:href="#ArialMT-63" x="705.810547"/>
      <use xlink:href="#ArialMT-4d" x="755.810547"/>
      <use xlink:href="#ArialMT-65" x="839.111328"/>
      <use xlink:href="#ArialMT-61" x="894.726562"/>
      <use xlink:href="#ArialMT-6e" x="950.341797"/>
      <use xlink:href="#ArialMT-52" x="1005.957031"/>
      <use xlink:href="#ArialMT-61" x="1078.173828"/>
      <use xlink:href="#ArialMT-6e" x="1133.789062"/>
      <use xlink:href="#ArialMT-6b" x="1189.404297"/>
     </g>
    </g>
    <g id="line2d_28">
     <path d="M 187.542813 296.768438 
L 197.542813 296.768438 
L 207.542813 296.768438 
" style="fill: none; stroke: #ff7f0e; stroke-width: 1.5; stroke-linecap: round"/>
    </g>
    <g id="text_58">
     <!-- InverseArithmeticMeanRank -->
     <g style="fill: #262626" transform="translate(215.542813 300.268438)scale(0.1 -0.1)">
      <use xlink:href="#ArialMT-49"/>
      <use xlink:href="#ArialMT-6e" x="27.783203"/>
      <use xlink:href="#ArialMT-76" x="83.398438"/>
      <use xlink:href="#ArialMT-65" x="133.398438"/>
      <use xlink:href="#ArialMT-72" x="189.013672"/>
      <use xlink:href="#ArialMT-73" x="222.314453"/>
      <use xlink:href="#ArialMT-65" x="272.314453"/>
      <use xlink:href="#ArialMT-41" x="327.929688"/>
      <use xlink:href="#ArialMT-72" x="394.628906"/>
      <use xlink:href="#ArialMT-69" x="427.929688"/>
      <use xlink:href="#ArialMT-74" x="450.146484"/>
      <use xlink:href="#ArialMT-68" x="477.929688"/>
      <use xlink:href="#ArialMT-6d" x="533.544922"/>
      <use xlink:href="#ArialMT-65" x="616.845703"/>
      <use xlink:href="#ArialMT-74" x="672.460938"/>
      <use xlink:href="#ArialMT-69" x="700.244141"/>
      <use xlink:href="#ArialMT-63" x="722.460938"/>
      <use xlink:href="#ArialMT-4d" x="772.460938"/>
      <use xlink:href="#ArialMT-65" x="855.761719"/>
      <use xlink:href="#ArialMT-61" x="911.376953"/>
      <use xlink:href="#ArialMT-6e" x="966.992188"/>
      <use xlink:href="#ArialMT-52" x="1022.607422"/>
      <use xlink:href="#ArialMT-61" x="1094.824219"/>
      <use xlink:href="#ArialMT-6e" x="1150.439453"/>
      <use xlink:href="#ArialMT-6b" x="1206.054688"/>
     </g>
    </g>
    <g id="line2d_29">
     <path d="M 187.542813 310.91375 
L 197.542813 310.91375 
L 207.542813 310.91375 
" style="fill: none; stroke: #2ca02c; stroke-width: 1.5; stroke-linecap: round"/>
    </g>
    <g id="text_59">
     <!-- InverseGeometricMeanRank -->
     <g style="fill: #262626" transform="translate(215.542813 314.41375)scale(0.1 -0.1)">
      <use xlink:href="#ArialMT-49"/>
      <use xlink:href="#ArialMT-6e" x="27.783203"/>
      <use xlink:href="#ArialMT-76" x="83.398438"/>
      <use xlink:href="#ArialMT-65" x="133.398438"/>
      <use xlink:href="#ArialMT-72" x="189.013672"/>
      <use xlink:href="#ArialMT-73" x="222.314453"/>
      <use xlink:href="#ArialMT-65" x="272.314453"/>
      <use xlink:href="#ArialMT-47" x="327.929688"/>
      <use xlink:href="#ArialMT-65" x="405.712891"/>
      <use xlink:href="#ArialMT-6f" x="461.328125"/>
      <use xlink:href="#ArialMT-6d" x="516.943359"/>
      <use xlink:href="#ArialMT-65" x="600.244141"/>
      <use xlink:href="#ArialMT-74" x="655.859375"/>
      <use xlink:href="#ArialMT-72" x="683.642578"/>
      <use xlink:href="#ArialMT-69" x="716.943359"/>
      <use xlink:href="#ArialMT-63" x="739.160156"/>
      <use xlink:href="#ArialMT-4d" x="789.160156"/>
      <use xlink:href="#ArialMT-65" x="872.460938"/>
      <use xlink:href="#ArialMT-61" x="928.076172"/>
      <use xlink:href="#ArialMT-6e" x="983.691406"/>
      <use xlink:href="#ArialMT-52" x="1039.306641"/>
      <use xlink:href="#ArialMT-61" x="1111.523438"/>
      <use xlink:href="#ArialMT-6e" x="1167.138672"/>
      <use xlink:href="#ArialMT-6b" x="1222.753906"/>
     </g>
    </g>
    <g id="line2d_30">
     <path d="M 187.542813 325.059062 
L 197.542813 325.059062 
L 207.542813 325.059062 
" style="fill: none; stroke: #d62728; stroke-width: 1.5; stroke-linecap: round"/>
    </g>
    <g id="text_60">
     <!-- HitsAtK -->
     <g style="fill: #262626" transform="translate(215.542813 328.559062)scale(0.1 -0.1)">
      <defs>
       <path id="ArialMT-4b" d="M 469 0 
L 469 4581 
L 1075 4581 
L 1075 2309 
L 3350 4581 
L 4172 4581 
L 2250 2725 
L 4256 0 
L 3456 0 
L 1825 2319 
L 1075 1588 
L 1075 0 
L 469 0 
z
" transform="scale(0.015625)"/>
      </defs>
      <use xlink:href="#ArialMT-48"/>
      <use xlink:href="#ArialMT-69" x="72.216797"/>
      <use xlink:href="#ArialMT-74" x="94.433594"/>
      <use xlink:href="#ArialMT-73" x="122.216797"/>
      <use xlink:href="#ArialMT-41" x="172.216797"/>
      <use xlink:href="#ArialMT-74" x="238.916016"/>
      <use xlink:href="#ArialMT-4b" x="266.699219"/>
     </g>
    </g>
   </g>
  </g>
  <g id="axes_4">
   <g id="patch_20">
    <path d="M 403.22 456.726625 
L 709.2 456.726625 
L 709.2 255.82 
L 403.22 255.82 
z
" style="fill: #ffffff"/>
   </g>
   <g id="matplotlib.axis_7">
    <g id="xtick_196">
     <g id="text_61">
      <!-- $\mathdefault{10^{0}}$ -->
      <g style="fill: #262626" transform="translate(396.77841 474.039125)scale(0.1 -0.1)">
       <use xlink:href="#ArialMT-31" transform="translate(0 0.99375)"/>
       <use xlink:href="#ArialMT-30" transform="translate(55.615234 0.99375)"/>
       <use xlink:href="#ArialMT-30" transform="translate(112.972813 70.6875)scale(0.7)"/>
      </g>
     </g>
    </g>
    <g id="xtick_197">
     <g id="text_62">
      <!-- $\mathdefault{10^{1}}$ -->
      <g style="fill: #262626" transform="translate(438.301754 474.039125)scale(0.1 -0.1)">
       <use xlink:href="#ArialMT-31" transform="translate(0 0.99375)"/>
       <use xlink:href="#ArialMT-30" transform="translate(55.615234 0.99375)"/>
       <use xlink:href="#ArialMT-31" transform="translate(112.972813 70.6875)scale(0.7)"/>
      </g>
     </g>
    </g>
    <g id="xtick_198">
     <g id="text_63">
      <!-- $\mathdefault{10^{2}}$ -->
      <g style="fill: #262626" transform="translate(479.825098 474.039125)scale(0.1 -0.1)">
       <use xlink:href="#ArialMT-31" transform="translate(0 0.99375)"/>
       <use xlink:href="#ArialMT-30" transform="translate(55.615234 0.99375)"/>
       <use xlink:href="#ArialMT-32" transform="translate(112.972813 70.6875)scale(0.7)"/>
      </g>
     </g>
    </g>
    <g id="xtick_199">
     <g id="text_64">
      <!-- $\mathdefault{10^{3}}$ -->
      <g style="fill: #262626" transform="translate(521.348442 474.039125)scale(0.1 -0.1)">
       <use xlink:href="#ArialMT-31" transform="translate(0 0.99375)"/>
       <use xlink:href="#ArialMT-30" transform="translate(55.615234 0.99375)"/>
       <use xlink:href="#ArialMT-33" transform="translate(112.972813 70.6875)scale(0.7)"/>
      </g>
     </g>
    </g>
    <g id="xtick_200">
     <g id="text_65">
      <!-- $\mathdefault{10^{4}}$ -->
      <g style="fill: #262626" transform="translate(562.871786 473.939125)scale(0.1 -0.1)">
       <use xlink:href="#ArialMT-31" transform="translate(0 0.201563)"/>
       <use xlink:href="#ArialMT-30" transform="translate(55.615234 0.201563)"/>
       <use xlink:href="#ArialMT-34" transform="translate(112.972813 69.895313)scale(0.7)"/>
      </g>
     </g>
    </g>
    <g id="xtick_201">
     <g id="text_66">
      <!-- $\mathdefault{10^{5}}$ -->
      <g style="fill: #262626" transform="translate(604.39513 473.939125)scale(0.1 -0.1)">
       <use xlink:href="#ArialMT-31" transform="translate(0 0.879688)"/>
       <use xlink:href="#ArialMT-30" transform="translate(55.615234 0.879688)"/>
       <use xlink:href="#ArialMT-35" transform="translate(112.972813 70.573438)scale(0.7)"/>
      </g>
     </g>
    </g>
    <g id="xtick_202">
     <g id="text_67">
      <!-- $\mathdefault{10^{6}}$ -->
      <g style="fill: #262626" transform="translate(645.918474 474.039125)scale(0.1 -0.1)">
       <use xlink:href="#ArialMT-31" transform="translate(0 0.99375)"/>
       <use xlink:href="#ArialMT-30" transform="translate(55.615234 0.99375)"/>
       <use xlink:href="#ArialMT-36" transform="translate(112.972813 70.6875)scale(0.7)"/>
      </g>
     </g>
    </g>
    <g id="xtick_203">
     <g id="text_68">
      <!-- $\mathdefault{10^{7}}$ -->
      <g style="fill: #262626" transform="translate(687.441818 473.939125)scale(0.1 -0.1)">
       <use xlink:href="#ArialMT-31" transform="translate(0 0.846875)"/>
       <use xlink:href="#ArialMT-30" transform="translate(55.615234 0.846875)"/>
       <use xlink:href="#ArialMT-37" transform="translate(112.972813 70.540625)scale(0.7)"/>
      </g>
     </g>
    </g>
    <g id="xtick_204"/>
    <g id="xtick_205"/>
    <g id="xtick_206"/>
    <g id="xtick_207"/>
    <g id="xtick_208"/>
    <g id="xtick_209"/>
    <g id="xtick_210"/>
    <g id="xtick_211"/>
    <g id="xtick_212"/>
    <g id="xtick_213"/>
    <g id="xtick_214"/>
    <g id="xtick_215"/>
    <g id="xtick_216"/>
    <g id="xtick_217"/>
    <g id="xtick_218"/>
    <g id="xtick_219"/>
    <g id="xtick_220"/>
    <g id="xtick_221"/>
    <g id="xtick_222"/>
    <g id="xtick_223"/>
    <g id="xtick_224"/>
    <g id="xtick_225"/>
    <g id="xtick_226"/>
    <g id="xtick_227"/>
    <g id="xtick_228"/>
    <g id="xtick_229"/>
    <g id="xtick_230"/>
    <g id="xtick_231"/>
    <g id="xtick_232"/>
    <g id="xtick_233"/>
    <g id="xtick_234"/>
    <g id="xtick_235"/>
    <g id="xtick_236"/>
    <g id="xtick_237"/>
    <g id="xtick_238"/>
    <g id="xtick_239"/>
    <g id="xtick_240"/>
    <g id="xtick_241"/>
    <g id="xtick_242"/>
    <g id="xtick_243"/>
    <g id="xtick_244"/>
    <g id="xtick_245"/>
    <g id="xtick_246"/>
    <g id="xtick_247"/>
    <g id="xtick_248"/>
    <g id="xtick_249"/>
    <g id="xtick_250"/>
    <g id="xtick_251"/>
    <g id="xtick_252"/>
    <g id="xtick_253"/>
    <g id="xtick_254"/>
    <g id="xtick_255"/>
    <g id="xtick_256"/>
    <g id="xtick_257"/>
    <g id="xtick_258"/>
    <g id="xtick_259"/>
    <g id="xtick_260"/>
    <g id="text_69">
     <!-- Number of Candidates -->
     <g style="fill: #262626" transform="translate(506.186563 487.184438)scale(0.1 -0.1)">
      <use xlink:href="#ArialMT-4e"/>
      <use xlink:href="#ArialMT-75" x="72.216797"/>
      <use xlink:href="#ArialMT-6d" x="127.832031"/>
      <use xlink:href="#ArialMT-62" x="211.132812"/>
      <use xlink:href="#ArialMT-65" x="266.748047"/>
      <use xlink:href="#ArialMT-72" x="322.363281"/>
      <use xlink:href="#ArialMT-20" x="355.664062"/>
      <use xlink:href="#ArialMT-6f" x="383.447266"/>
      <use xlink:href="#ArialMT-66" x="439.0625"/>
      <use xlink:href="#ArialMT-20" x="466.845703"/>
      <use xlink:href="#ArialMT-43" x="494.628906"/>
      <use xlink:href="#ArialMT-61" x="566.845703"/>
      <use xlink:href="#ArialMT-6e" x="622.460938"/>
      <use xlink:href="#ArialMT-64" x="678.076172"/>
      <use xlink:href="#ArialMT-69" x="733.691406"/>
      <use xlink:href="#ArialMT-64" x="755.908203"/>
      <use xlink:href="#ArialMT-61" x="811.523438"/>
      <use xlink:href="#ArialMT-74" x="867.138672"/>
      <use xlink:href="#ArialMT-65" x="894.921875"/>
      <use xlink:href="#ArialMT-73" x="950.537109"/>
     </g>
    </g>
   </g>
   <g id="matplotlib.axis_8">
    <g id="ytick_18">
     <g id="text_70">
      <!-- 0.00 -->
      <g style="fill: #262626" transform="translate(376.759063 451.173412)scale(0.1 -0.1)">
       <use xlink:href="#ArialMT-30"/>
       <use xlink:href="#ArialMT-2e" x="55.615234"/>
       <use xlink:href="#ArialMT-30" x="83.398438"/>
       <use xlink:href="#ArialMT-30" x="139.013672"/>
      </g>
     </g>
    </g>
    <g id="ytick_19">
     <g id="text_71">
      <!-- 0.05 -->
      <g style="fill: #262626" transform="translate(376.759063 414.556567)scale(0.1 -0.1)">
       <use xlink:href="#ArialMT-30"/>
       <use xlink:href="#ArialMT-2e" x="55.615234"/>
       <use xlink:href="#ArialMT-30" x="83.398438"/>
       <use xlink:href="#ArialMT-35" x="139.013672"/>
      </g>
     </g>
    </g>
    <g id="ytick_20">
     <g id="text_72">
      <!-- 0.10 -->
      <g style="fill: #262626" transform="translate(376.759063 377.939722)scale(0.1 -0.1)">
       <use xlink:href="#ArialMT-30"/>
       <use xlink:href="#ArialMT-2e" x="55.615234"/>
       <use xlink:href="#ArialMT-31" x="83.398438"/>
       <use xlink:href="#ArialMT-30" x="139.013672"/>
      </g>
     </g>
    </g>
    <g id="ytick_21">
     <g id="text_73">
      <!-- 0.15 -->
      <g style="fill: #262626" transform="translate(376.759063 341.322877)scale(0.1 -0.1)">
       <use xlink:href="#ArialMT-30"/>
       <use xlink:href="#ArialMT-2e" x="55.615234"/>
       <use xlink:href="#ArialMT-31" x="83.398438"/>
       <use xlink:href="#ArialMT-35" x="139.013672"/>
      </g>
     </g>
    </g>
    <g id="ytick_22">
     <g id="text_74">
      <!-- 0.20 -->
      <g style="fill: #262626" transform="translate(376.759063 304.706032)scale(0.1 -0.1)">
       <use xlink:href="#ArialMT-30"/>
       <use xlink:href="#ArialMT-2e" x="55.615234"/>
       <use xlink:href="#ArialMT-32" x="83.398438"/>
       <use xlink:href="#ArialMT-30" x="139.013672"/>
      </g>
     </g>
    </g>
    <g id="ytick_23">
     <g id="text_75">
      <!-- 0.25 -->
      <g style="fill: #262626" transform="translate(376.759063 268.089186)scale(0.1 -0.1)">
       <use xlink:href="#ArialMT-30"/>
       <use xlink:href="#ArialMT-2e" x="55.615234"/>
       <use xlink:href="#ArialMT-32" x="83.398438"/>
       <use xlink:href="#ArialMT-35" x="139.013672"/>
      </g>
     </g>
    </g>
    <g id="text_76">
     <!-- Variance -->
     <g style="fill: #262626" transform="translate(370.771563 375.637375)rotate(-90)scale(0.1 -0.1)">
      <use xlink:href="#ArialMT-56"/>
      <use xlink:href="#ArialMT-61" x="59.324219"/>
      <use xlink:href="#ArialMT-72" x="114.939453"/>
      <use xlink:href="#ArialMT-69" x="148.240234"/>
      <use xlink:href="#ArialMT-61" x="170.457031"/>
      <use xlink:href="#ArialMT-6e" x="226.072266"/>
      <use xlink:href="#ArialMT-63" x="281.6875"/>
      <use xlink:href="#ArialMT-65" x="331.6875"/>
     </g>
    </g>
   </g>
   <g id="line2d_31">
    <path d="M 417.128182 433.279526 
L 421.84282 427.127115 
L 426.557458 422.713205 
L 431.272096 420.243352 
L 435.986733 419.539962 
L 440.701371 420.247667 
L 445.416009 421.962953 
L 450.130647 424.308652 
L 454.845285 426.970331 
L 459.559923 429.708046 
L 464.274561 432.353545 
L 468.989199 434.800057 
L 473.703837 436.989348 
L 478.418475 438.898884 
L 483.133112 440.530572 
L 487.84775 441.901677 
L 492.562388 443.037963 
L 497.277026 443.96882 
L 501.991664 444.724015 
L 506.706302 445.331699 
L 511.42094 445.817306 
L 516.135578 446.203088 
L 520.850216 446.508045 
L 525.564854 446.748094 
L 530.279492 446.936377 
L 534.994129 447.083611 
L 539.708767 447.198452 
L 544.423405 447.287834 
L 549.138043 447.357274 
L 553.852681 447.41114 
L 558.567319 447.452871 
L 563.281957 447.485167 
L 567.996595 447.510138 
L 572.711233 447.529432 
L 577.425871 447.544329 
L 582.140508 447.555827 
L 586.855146 447.564696 
L 591.569784 447.571536 
L 596.284422 447.576809 
L 600.99906 447.580873 
L 605.713698 447.584005 
L 610.428336 447.586418 
L 615.142974 447.588277 
L 619.857612 447.589709 
L 624.57225 447.590812 
L 629.286888 447.591661 
L 634.001525 447.592315 
L 638.716163 447.592819 
L 643.430801 447.593207 
L 648.145439 447.593506 
L 652.860077 447.593736 
L 657.574715 447.593913 
L 662.289353 447.594049 
L 667.003991 447.594154 
L 671.718629 447.594235 
L 676.433267 447.594297 
L 681.147904 447.594345 
L 685.862542 447.594382 
L 690.57718 447.594411 
L 695.291818 447.594432 
" clip-path="url(#pe07ce17d03)" style="fill: none; stroke: #1f77b4; stroke-width: 1.5; stroke-linecap: round"/>
   </g>
   <g id="line2d_32">
    <path d="M 417.128182 447.594506 
L 421.84282 447.594506 
L 426.557458 447.594506 
L 431.272096 447.594506 
L 435.986733 447.594506 
L 440.701371 447.594506 
L 445.416009 447.594506 
L 450.130647 447.594506 
L 454.845285 447.594506 
L 459.559923 447.594506 
L 464.274561 447.594506 
L 468.989199 447.594506 
L 473.703837 447.594506 
L 478.418475 447.594506 
L 483.133112 447.594506 
L 487.84775 447.594506 
L 492.562388 447.594506 
L 497.277026 447.594506 
L 501.991664 447.594506 
L 506.706302 447.594506 
L 511.42094 447.594506 
L 516.135578 447.594506 
L 520.850216 447.594506 
L 525.564854 447.594506 
L 530.279492 447.594506 
L 534.994129 447.594506 
L 539.708767 447.594506 
L 544.423405 447.594506 
L 549.138043 447.594506 
L 553.852681 447.594506 
L 558.567319 447.594506 
L 563.281957 447.594506 
L 567.996595 447.594506 
L 572.711233 447.594506 
L 577.425871 447.594506 
L 582.140508 447.594506 
L 586.855146 447.594506 
L 591.569784 447.594506 
L 596.284422 447.594506 
L 600.99906 447.594506 
L 605.713698 447.594506 
L 610.428336 447.594506 
L 615.142974 447.594506 
L 619.857612 447.594506 
L 624.57225 447.594506 
L 629.286888 447.594506 
L 634.001525 447.594506 
L 638.716163 447.594506 
L 643.430801 447.594506 
L 648.145439 447.594506 
L 652.860077 447.594506 
L 657.574715 447.594506 
L 662.289353 447.594506 
L 667.003991 447.594506 
L 671.718629 447.594506 
L 676.433267 447.594506 
L 681.147904 447.594506 
L 685.862542 447.594506 
L 690.57718 447.594506 
L 695.291818 447.594506 
" clip-path="url(#pe07ce17d03)" style="fill: none; stroke: #ff7f0e; stroke-width: 1.5; stroke-linecap: round"/>
   </g>
   <g id="line2d_33">
    <path d="M 417.128182 447.594506 
L 421.84282 447.594506 
L 426.557458 447.594506 
L 431.272096 447.594506 
L 435.986733 447.594506 
L 440.701371 447.594506 
L 445.416009 447.594506 
L 450.130647 447.594506 
L 454.845285 447.594506 
L 459.559923 447.594506 
L 464.274561 447.594506 
L 468.989199 447.594506 
L 473.703837 447.594506 
L 478.418475 447.594506 
L 483.133112 447.594506 
L 487.84775 447.594506 
L 492.562388 447.594506 
L 497.277026 447.594506 
L 501.991664 447.594506 
L 506.706302 447.594506 
L 511.42094 447.594506 
L 516.135578 447.594506 
L 520.850216 447.594506 
L 525.564854 447.594506 
L 530.279492 447.594506 
L 534.994129 447.594506 
L 539.708767 447.594506 
L 544.423405 447.594506 
L 549.138043 447.594506 
L 553.852681 447.594506 
L 558.567319 447.594506 
L 563.281957 447.594506 
L 567.996595 447.594506 
L 572.711233 447.594506 
L 577.425871 447.594506 
L 582.140508 447.594506 
L 586.855146 447.594506 
L 591.569784 447.594506 
L 596.284422 447.594506 
L 600.99906 447.594506 
L 605.713698 447.594506 
L 610.428336 447.594506 
L 615.142974 447.594506 
L 619.857612 447.594506 
L 624.57225 447.594506 
L 629.286888 447.594506 
L 634.001525 447.594506 
L 638.716163 447.594506 
L 643.430801 447.594506 
L 648.145439 447.594506 
L 652.860077 447.594506 
L 657.574715 447.594506 
L 662.289353 447.594506 
L 667.003991 447.594506 
L 671.718629 447.594506 
L 676.433267 447.594506 
L 681.147904 447.594506 
L 685.862542 447.594506 
L 690.57718 447.594506 
L 695.291818 447.594506 
" clip-path="url(#pe07ce17d03)" style="fill: none; stroke: #2ca02c; stroke-width: 1.5; stroke-linecap: round"/>
   </g>
   <g id="line2d_34">
    <path d="M 417.128182 447.594506 
L 421.84282 447.594506 
L 426.557458 447.594506 
L 431.272096 447.594506 
L 435.986733 447.594506 
L 440.701371 447.594506 
L 445.416009 447.594506 
L 450.130647 331.304446 
L 454.845285 274.620648 
L 459.559923 264.952119 
L 464.274561 277.6485 
L 468.989199 299.363542 
L 473.703837 323.160775 
L 478.418475 345.679129 
L 483.133112 365.504312 
L 487.84775 382.243088 
L 492.562388 396.005095 
L 497.277026 407.119233 
L 501.991664 415.983663 
L 506.706302 422.990865 
L 511.42094 428.493959 
L 516.135578 432.79502 
L 520.850216 436.144525 
L 525.564854 438.74594 
L 530.279492 440.762212 
L 534.994129 442.322528 
L 539.708767 443.528566 
L 544.423405 444.459924 
L 549.138043 445.178662 
L 553.852681 445.733024 
L 558.567319 446.16043 
L 563.281957 446.489851 
L 567.996595 446.743689 
L 572.711233 446.939251 
L 577.425871 447.089893 
L 582.140508 447.205922 
L 586.855146 447.295282 
L 591.569784 447.364099 
L 596.284422 447.417093 
L 600.99906 447.4579 
L 605.713698 447.489323 
L 610.428336 447.513518 
L 615.142974 447.532149 
L 619.857612 447.546493 
L 624.57225 447.557538 
L 629.286888 447.566043 
L 634.001525 447.572591 
L 638.716163 447.577632 
L 643.430801 447.581514 
L 648.145439 447.584503 
L 652.860077 447.586804 
L 657.574715 447.588576 
L 662.289353 447.58994 
L 667.003991 447.59099 
L 671.718629 447.591799 
L 676.433267 447.592422 
L 681.147904 447.592901 
L 685.862542 447.59327 
L 690.57718 447.593555 
L 695.291818 447.593773 
" clip-path="url(#pe07ce17d03)" style="fill: none; stroke: #d62728; stroke-width: 1.5; stroke-linecap: round"/>
   </g>
   <g id="line2d_35"/>
   <g id="line2d_36"/>
   <g id="line2d_37"/>
   <g id="line2d_38"/>
   <g id="patch_21">
    <path d="M 403.22 456.726625 
L 403.22 255.82 
" style="fill: none; stroke: #262626; stroke-width: 0.8; stroke-linejoin: miter; stroke-linecap: square"/>
   </g>
   <g id="patch_22">
    <path d="M 709.2 456.726625 
L 709.2 255.82 
" style="fill: none; stroke: #262626; stroke-width: 0.8; stroke-linejoin: miter; stroke-linecap: square"/>
   </g>
   <g id="patch_23">
    <path d="M 403.22 456.726625 
L 709.2 456.726625 
" style="fill: none; stroke: #262626; stroke-width: 0.8; stroke-linejoin: miter; stroke-linecap: square"/>
   </g>
   <g id="patch_24">
    <path d="M 403.22 255.82 
L 709.2 255.82 
" style="fill: none; stroke: #262626; stroke-width: 0.8; stroke-linejoin: miter; stroke-linecap: square"/>
   </g>
   <g id="legend_4">
    <g id="patch_25">
     <path d="M 542.932813 334.546562 
L 702.2 334.546562 
Q 704.2 334.546562 704.2 332.546562 
L 704.2 262.82 
Q 704.2 260.82 702.2 260.82 
L 542.932813 260.82 
Q 540.932813 260.82 540.932813 262.82 
L 540.932813 332.546562 
Q 540.932813 334.546562 542.932813 334.546562 
z
" style="fill: #ffffff; opacity: 0.8; stroke: #cccccc; stroke-linejoin: miter"/>
    </g>
    <g id="text_77">
     <!-- metric -->
     <g style="fill: #262626" transform="translate(608.95625 271.977813)scale(0.1 -0.1)">
      <use xlink:href="#ArialMT-6d"/>
      <use xlink:href="#ArialMT-65" x="83.300781"/>
      <use xlink:href="#ArialMT-74" x="138.916016"/>
      <use xlink:href="#ArialMT-72" x="166.699219"/>
      <use xlink:href="#ArialMT-69" x="200"/>
      <use xlink:href="#ArialMT-63" x="222.216797"/>
     </g>
    </g>
    <g id="line2d_39">
     <path d="M 544.932813 282.623125 
L 554.932813 282.623125 
L 564.932813 282.623125 
" style="fill: none; stroke: #1f77b4; stroke-width: 1.5; stroke-linecap: round"/>
    </g>
    <g id="text_78">
     <!-- InverseHarmonicMeanRank -->
     <g style="fill: #262626" transform="translate(572.932813 286.123125)scale(0.1 -0.1)">
      <use xlink:href="#ArialMT-49"/>
      <use xlink:href="#ArialMT-6e" x="27.783203"/>
      <use xlink:href="#ArialMT-76" x="83.398438"/>
      <use xlink:href="#ArialMT-65" x="133.398438"/>
      <use xlink:href="#ArialMT-72" x="189.013672"/>
      <use xlink:href="#ArialMT-73" x="222.314453"/>
      <use xlink:href="#ArialMT-65" x="272.314453"/>
      <use xlink:href="#ArialMT-48" x="327.929688"/>
      <use xlink:href="#ArialMT-61" x="400.146484"/>
      <use xlink:href="#ArialMT-72" x="455.761719"/>
      <use xlink:href="#ArialMT-6d" x="489.0625"/>
      <use xlink:href="#ArialMT-6f" x="572.363281"/>
      <use xlink:href="#ArialMT-6e" x="627.978516"/>
      <use xlink:href="#ArialMT-69" x="683.59375"/>
      <use xlink:href="#ArialMT-63" x="705.810547"/>
      <use xlink:href="#ArialMT-4d" x="755.810547"/>
      <use xlink:href="#ArialMT-65" x="839.111328"/>
      <use xlink:href="#ArialMT-61" x="894.726562"/>
      <use xlink:href="#ArialMT-6e" x="950.341797"/>
      <use xlink:href="#ArialMT-52" x="1005.957031"/>
      <use xlink:href="#ArialMT-61" x="1078.173828"/>
      <use xlink:href="#ArialMT-6e" x="1133.789062"/>
      <use xlink:href="#ArialMT-6b" x="1189.404297"/>
     </g>
    </g>
    <g id="line2d_40">
     <path d="M 544.932813 296.768438 
L 554.932813 296.768438 
L 564.932813 296.768438 
" style="fill: none; stroke: #ff7f0e; stroke-width: 1.5; stroke-linecap: round"/>
    </g>
    <g id="text_79">
     <!-- InverseArithmeticMeanRank -->
     <g style="fill: #262626" transform="translate(572.932813 300.268438)scale(0.1 -0.1)">
      <use xlink:href="#ArialMT-49"/>
      <use xlink:href="#ArialMT-6e" x="27.783203"/>
      <use xlink:href="#ArialMT-76" x="83.398438"/>
      <use xlink:href="#ArialMT-65" x="133.398438"/>
      <use xlink:href="#ArialMT-72" x="189.013672"/>
      <use xlink:href="#ArialMT-73" x="222.314453"/>
      <use xlink:href="#ArialMT-65" x="272.314453"/>
      <use xlink:href="#ArialMT-41" x="327.929688"/>
      <use xlink:href="#ArialMT-72" x="394.628906"/>
      <use xlink:href="#ArialMT-69" x="427.929688"/>
      <use xlink:href="#ArialMT-74" x="450.146484"/>
      <use xlink:href="#ArialMT-68" x="477.929688"/>
      <use xlink:href="#ArialMT-6d" x="533.544922"/>
      <use xlink:href="#ArialMT-65" x="616.845703"/>
      <use xlink:href="#ArialMT-74" x="672.460938"/>
      <use xlink:href="#ArialMT-69" x="700.244141"/>
      <use xlink:href="#ArialMT-63" x="722.460938"/>
      <use xlink:href="#ArialMT-4d" x="772.460938"/>
      <use xlink:href="#ArialMT-65" x="855.761719"/>
      <use xlink:href="#ArialMT-61" x="911.376953"/>
      <use xlink:href="#ArialMT-6e" x="966.992188"/>
      <use xlink:href="#ArialMT-52" x="1022.607422"/>
      <use xlink:href="#ArialMT-61" x="1094.824219"/>
      <use xlink:href="#ArialMT-6e" x="1150.439453"/>
      <use xlink:href="#ArialMT-6b" x="1206.054688"/>
     </g>
    </g>
    <g id="line2d_41">
     <path d="M 544.932813 310.91375 
L 554.932813 310.91375 
L 564.932813 310.91375 
" style="fill: none; stroke: #2ca02c; stroke-width: 1.5; stroke-linecap: round"/>
    </g>
    <g id="text_80">
     <!-- InverseGeometricMeanRank -->
     <g style="fill: #262626" transform="translate(572.932813 314.41375)scale(0.1 -0.1)">
      <use xlink:href="#ArialMT-49"/>
      <use xlink:href="#ArialMT-6e" x="27.783203"/>
      <use xlink:href="#ArialMT-76" x="83.398438"/>
      <use xlink:href="#ArialMT-65" x="133.398438"/>
      <use xlink:href="#ArialMT-72" x="189.013672"/>
      <use xlink:href="#ArialMT-73" x="222.314453"/>
      <use xlink:href="#ArialMT-65" x="272.314453"/>
      <use xlink:href="#ArialMT-47" x="327.929688"/>
      <use xlink:href="#ArialMT-65" x="405.712891"/>
      <use xlink:href="#ArialMT-6f" x="461.328125"/>
      <use xlink:href="#ArialMT-6d" x="516.943359"/>
      <use xlink:href="#ArialMT-65" x="600.244141"/>
      <use xlink:href="#ArialMT-74" x="655.859375"/>
      <use xlink:href="#ArialMT-72" x="683.642578"/>
      <use xlink:href="#ArialMT-69" x="716.943359"/>
      <use xlink:href="#ArialMT-63" x="739.160156"/>
      <use xlink:href="#ArialMT-4d" x="789.160156"/>
      <use xlink:href="#ArialMT-65" x="872.460938"/>
      <use xlink:href="#ArialMT-61" x="928.076172"/>
      <use xlink:href="#ArialMT-6e" x="983.691406"/>
      <use xlink:href="#ArialMT-52" x="1039.306641"/>
      <use xlink:href="#ArialMT-61" x="1111.523438"/>
      <use xlink:href="#ArialMT-6e" x="1167.138672"/>
      <use xlink:href="#ArialMT-6b" x="1222.753906"/>
     </g>
    </g>
    <g id="line2d_42">
     <path d="M 544.932813 325.059062 
L 554.932813 325.059062 
L 564.932813 325.059062 
" style="fill: none; stroke: #d62728; stroke-width: 1.5; stroke-linecap: round"/>
    </g>
    <g id="text_81">
     <!-- HitsAtK -->
     <g style="fill: #262626" transform="translate(572.932813 328.559062)scale(0.1 -0.1)">
      <use xlink:href="#ArialMT-48"/>
      <use xlink:href="#ArialMT-69" x="72.216797"/>
      <use xlink:href="#ArialMT-74" x="94.433594"/>
      <use xlink:href="#ArialMT-73" x="122.216797"/>
      <use xlink:href="#ArialMT-41" x="172.216797"/>
      <use xlink:href="#ArialMT-74" x="238.916016"/>
      <use xlink:href="#ArialMT-4b" x="266.699219"/>
     </g>
    </g>
   </g>
  </g>
 </g>
 <defs>
  <clipPath id="pef8c73a24e">
   <rect x="45.83" y="21.72" width="305.98" height="200.906625"/>
  </clipPath>
  <clipPath id="p007ab3a28e">
   <rect x="403.22" y="21.72" width="305.98" height="200.906625"/>
  </clipPath>
  <clipPath id="p754bcb4ad8">
   <rect x="45.83" y="255.82" width="305.98" height="200.906625"/>
  </clipPath>
  <clipPath id="pe07ce17d03">
   <rect x="403.22" y="255.82" width="305.98" height="200.906625"/>
  </clipPath>
 </defs>
</svg>
