<?xml version="1.0" encoding="utf-8" standalone="no"?>
<!DOCTYPE svg PUBLIC "-//W3C//DTD SVG 1.1//EN"
  "http://www.w3.org/Graphics/SVG/1.1/DTD/svg11.dtd">
<svg xmlns:xlink="http://www.w3.org/1999/xlink" width="1022.350501pt" height="163.558125pt" viewBox="0 0 1022.350501 163.558125" xmlns="http://www.w3.org/2000/svg" version="1.1">
 <metadata>
  <rdf:RDF xmlns:dc="http://purl.org/dc/elements/1.1/" xmlns:cc="http://creativecommons.org/ns#" xmlns:rdf="http://www.w3.org/1999/02/22-rdf-syntax-ns#">
   <cc:Work>
    <dc:type rdf:resource="http://purl.org/dc/dcmitype/StillImage"/>
    <dc:date>2022-03-14T20:09:12.922052</dc:date>
    <dc:format>image/svg+xml</dc:format>
    <dc:creator>
     <cc:Agent>
      <dc:title>Matplotlib v3.5.1, https://matplotlib.org/</dc:title>
     </cc:Agent>
    </dc:creator>
   </cc:Work>
  </rdf:RDF>
 </metadata>
 <defs>
  <style type="text/css">*{stroke-linejoin: round; stroke-linecap: butt}</style>
 </defs>
 <g id="figure_1">
  <g id="patch_1">
   <path d="M 0 163.558125 
L 1022.350501 163.558125 
L 1022.350501 0 
L 0 0 
z
" style="fill: #ffffff"/>
  </g>
  <g id="axes_1">
   <g id="patch_2">
    <path d="M 43.78125 139.68 
L 272.662523 139.68 
L 272.662523 23.08 
L 43.78125 23.08 
z
" style="fill: #ffffff"/>
   </g>
   <g id="patch_3">
    <path d="M 49.503282 139.68 
L 60.947345 139.68 
L 60.947345 27.140697 
L 49.503282 27.140697 
z
" clip-path="url(#p74755ea20c)" style="fill: #3274a1"/>
   </g>
   <g id="patch_4">
    <path d="M 106.7236 139.68 
L 118.167664 139.68 
L 118.167664 25.690448 
L 106.7236 25.690448 
z
" clip-path="url(#p74755ea20c)" style="fill: #3274a1"/>
   </g>
   <g id="patch_5">
    <path d="M 163.943918 139.68 
L 175.387982 139.68 
L 175.387982 25.980498 
L 163.943918 25.980498 
z
" clip-path="url(#p74755ea20c)" style="fill: #3274a1"/>
   </g>
   <g id="patch_6">
    <path d="M 221.164237 139.68 
L 232.6083 139.68 
L 232.6083 24.240199 
L 221.164237 24.240199 
z
" clip-path="url(#p74755ea20c)" style="fill: #3274a1"/>
   </g>
   <g id="patch_7">
    <path d="M 60.947345 139.68 
L 72.391409 139.68 
L 72.391409 32.253836 
L 60.947345 32.253836 
z
" clip-path="url(#p74755ea20c)" style="fill: #e1812c"/>
   </g>
   <g id="patch_8">
    <path d="M 118.167664 139.68 
L 129.611727 139.68 
L 129.611727 26.119851 
L 118.167664 26.119851 
z
" clip-path="url(#p74755ea20c)" style="fill: #e1812c"/>
   </g>
   <g id="patch_9">
    <path d="M 175.387982 139.68 
L 186.832046 139.68 
L 186.832046 31.873855 
L 175.387982 31.873855 
z
" clip-path="url(#p74755ea20c)" style="fill: #e1812c"/>
   </g>
   <g id="patch_10">
    <path d="M 232.6083 139.68 
L 244.052364 139.68 
L 244.052364 24.762775 
L 232.6083 24.762775 
z
" clip-path="url(#p74755ea20c)" style="fill: #e1812c"/>
   </g>
   <g id="patch_11">
    <path d="M 72.391409 139.68 
L 83.835473 139.68 
L 83.835473 82.436737 
L 72.391409 82.436737 
z
" clip-path="url(#p74755ea20c)" style="fill: #3a923a"/>
   </g>
   <g id="patch_12">
    <path d="M 129.611727 139.68 
L 141.055791 139.68 
L 141.055791 70.972134 
L 129.611727 70.972134 
z
" clip-path="url(#p74755ea20c)" style="fill: #3a923a"/>
   </g>
   <g id="patch_13">
    <path d="M 186.832046 139.68 
L 198.276109 139.68 
L 198.276109 73.245116 
L 186.832046 73.245116 
z
" clip-path="url(#p74755ea20c)" style="fill: #3a923a"/>
   </g>
   <g id="patch_14">
    <path d="M 244.052364 139.68 
L 255.496428 139.68 
L 255.496428 76.39539 
L 244.052364 76.39539 
z
" clip-path="url(#p74755ea20c)" style="fill: #3a923a"/>
   </g>
   <g id="patch_15">
    <path d="M 83.835473 139.68 
L 95.279536 139.68 
L 95.279536 89.760732 
L 83.835473 89.760732 
z
" clip-path="url(#p74755ea20c)" style="fill: #c03d3e"/>
   </g>
   <g id="patch_16">
    <path d="M 141.055791 139.68 
L 152.499855 139.68 
L 152.499855 107.164015 
L 141.055791 107.164015 
z
" clip-path="url(#p74755ea20c)" style="fill: #c03d3e"/>
   </g>
   <g id="patch_17">
    <path d="M 198.276109 139.68 
L 209.720173 139.68 
L 209.720173 83.040172 
L 198.276109 83.040172 
z
" clip-path="url(#p74755ea20c)" style="fill: #c03d3e"/>
   </g>
   <g id="patch_18">
    <path d="M 255.496428 139.68 
L 266.940491 139.68 
L 266.940491 78.136674 
L 255.496428 78.136674 
z
" clip-path="url(#p74755ea20c)" style="fill: #c03d3e"/>
   </g>
   <g id="matplotlib.axis_1">
    <g id="xtick_1">
     <g id="line2d_1">
      <defs>
       <path id="m12d1e2b0a9" d="M 0 0 
L 0 3.5 
" style="stroke: #000000; stroke-width: 0.8"/>
      </defs>
      <g>
       <use xlink:href="#m12d1e2b0a9" x="72.391409" y="139.68" style="stroke: #000000; stroke-width: 0.8"/>
      </g>
     </g>
     <g id="text_1">
      <!-- ComplEx -->
      <g transform="translate(50.288284 154.278437)scale(0.1 -0.1)">
       <defs>
        <path id="DejaVuSans-43" d="M 4122 4306 
L 4122 3641 
Q 3803 3938 3442 4084 
Q 3081 4231 2675 4231 
Q 1875 4231 1450 3742 
Q 1025 3253 1025 2328 
Q 1025 1406 1450 917 
Q 1875 428 2675 428 
Q 3081 428 3442 575 
Q 3803 722 4122 1019 
L 4122 359 
Q 3791 134 3420 21 
Q 3050 -91 2638 -91 
Q 1578 -91 968 557 
Q 359 1206 359 2328 
Q 359 3453 968 4101 
Q 1578 4750 2638 4750 
Q 3056 4750 3426 4639 
Q 3797 4528 4122 4306 
z
" transform="scale(0.015625)"/>
        <path id="DejaVuSans-6f" d="M 1959 3097 
Q 1497 3097 1228 2736 
Q 959 2375 959 1747 
Q 959 1119 1226 758 
Q 1494 397 1959 397 
Q 2419 397 2687 759 
Q 2956 1122 2956 1747 
Q 2956 2369 2687 2733 
Q 2419 3097 1959 3097 
z
M 1959 3584 
Q 2709 3584 3137 3096 
Q 3566 2609 3566 1747 
Q 3566 888 3137 398 
Q 2709 -91 1959 -91 
Q 1206 -91 779 398 
Q 353 888 353 1747 
Q 353 2609 779 3096 
Q 1206 3584 1959 3584 
z
" transform="scale(0.015625)"/>
        <path id="DejaVuSans-6d" d="M 3328 2828 
Q 3544 3216 3844 3400 
Q 4144 3584 4550 3584 
Q 5097 3584 5394 3201 
Q 5691 2819 5691 2113 
L 5691 0 
L 5113 0 
L 5113 2094 
Q 5113 2597 4934 2840 
Q 4756 3084 4391 3084 
Q 3944 3084 3684 2787 
Q 3425 2491 3425 1978 
L 3425 0 
L 2847 0 
L 2847 2094 
Q 2847 2600 2669 2842 
Q 2491 3084 2119 3084 
Q 1678 3084 1418 2786 
Q 1159 2488 1159 1978 
L 1159 0 
L 581 0 
L 581 3500 
L 1159 3500 
L 1159 2956 
Q 1356 3278 1631 3431 
Q 1906 3584 2284 3584 
Q 2666 3584 2933 3390 
Q 3200 3197 3328 2828 
z
" transform="scale(0.015625)"/>
        <path id="DejaVuSans-70" d="M 1159 525 
L 1159 -1331 
L 581 -1331 
L 581 3500 
L 1159 3500 
L 1159 2969 
Q 1341 3281 1617 3432 
Q 1894 3584 2278 3584 
Q 2916 3584 3314 3078 
Q 3713 2572 3713 1747 
Q 3713 922 3314 415 
Q 2916 -91 2278 -91 
Q 1894 -91 1617 61 
Q 1341 213 1159 525 
z
M 3116 1747 
Q 3116 2381 2855 2742 
Q 2594 3103 2138 3103 
Q 1681 3103 1420 2742 
Q 1159 2381 1159 1747 
Q 1159 1113 1420 752 
Q 1681 391 2138 391 
Q 2594 391 2855 752 
Q 3116 1113 3116 1747 
z
" transform="scale(0.015625)"/>
        <path id="DejaVuSans-6c" d="M 603 4863 
L 1178 4863 
L 1178 0 
L 603 0 
L 603 4863 
z
" transform="scale(0.015625)"/>
        <path id="DejaVuSans-45" d="M 628 4666 
L 3578 4666 
L 3578 4134 
L 1259 4134 
L 1259 2753 
L 3481 2753 
L 3481 2222 
L 1259 2222 
L 1259 531 
L 3634 531 
L 3634 0 
L 628 0 
L 628 4666 
z
" transform="scale(0.015625)"/>
        <path id="DejaVuSans-78" d="M 3513 3500 
L 2247 1797 
L 3578 0 
L 2900 0 
L 1881 1375 
L 863 0 
L 184 0 
L 1544 1831 
L 300 3500 
L 978 3500 
L 1906 2253 
L 2834 3500 
L 3513 3500 
z
" transform="scale(0.015625)"/>
       </defs>
       <use xlink:href="#DejaVuSans-43"/>
       <use xlink:href="#DejaVuSans-6f" x="69.824219"/>
       <use xlink:href="#DejaVuSans-6d" x="131.005859"/>
       <use xlink:href="#DejaVuSans-70" x="228.417969"/>
       <use xlink:href="#DejaVuSans-6c" x="291.894531"/>
       <use xlink:href="#DejaVuSans-45" x="319.677734"/>
       <use xlink:href="#DejaVuSans-78" x="382.861328"/>
      </g>
     </g>
    </g>
    <g id="xtick_2">
     <g id="line2d_2">
      <g>
       <use xlink:href="#m12d1e2b0a9" x="129.611727" y="139.68" style="stroke: #000000; stroke-width: 0.8"/>
      </g>
     </g>
     <g id="text_2">
      <!-- RotatE -->
      <g transform="translate(113.159384 154.278437)scale(0.1 -0.1)">
       <defs>
        <path id="DejaVuSans-52" d="M 2841 2188 
Q 3044 2119 3236 1894 
Q 3428 1669 3622 1275 
L 4263 0 
L 3584 0 
L 2988 1197 
Q 2756 1666 2539 1819 
Q 2322 1972 1947 1972 
L 1259 1972 
L 1259 0 
L 628 0 
L 628 4666 
L 2053 4666 
Q 2853 4666 3247 4331 
Q 3641 3997 3641 3322 
Q 3641 2881 3436 2590 
Q 3231 2300 2841 2188 
z
M 1259 4147 
L 1259 2491 
L 2053 2491 
Q 2509 2491 2742 2702 
Q 2975 2913 2975 3322 
Q 2975 3731 2742 3939 
Q 2509 4147 2053 4147 
L 1259 4147 
z
" transform="scale(0.015625)"/>
        <path id="DejaVuSans-74" d="M 1172 4494 
L 1172 3500 
L 2356 3500 
L 2356 3053 
L 1172 3053 
L 1172 1153 
Q 1172 725 1289 603 
Q 1406 481 1766 481 
L 2356 481 
L 2356 0 
L 1766 0 
Q 1100 0 847 248 
Q 594 497 594 1153 
L 594 3053 
L 172 3053 
L 172 3500 
L 594 3500 
L 594 4494 
L 1172 4494 
z
" transform="scale(0.015625)"/>
        <path id="DejaVuSans-61" d="M 2194 1759 
Q 1497 1759 1228 1600 
Q 959 1441 959 1056 
Q 959 750 1161 570 
Q 1363 391 1709 391 
Q 2188 391 2477 730 
Q 2766 1069 2766 1631 
L 2766 1759 
L 2194 1759 
z
M 3341 1997 
L 3341 0 
L 2766 0 
L 2766 531 
Q 2569 213 2275 61 
Q 1981 -91 1556 -91 
Q 1019 -91 701 211 
Q 384 513 384 1019 
Q 384 1609 779 1909 
Q 1175 2209 1959 2209 
L 2766 2209 
L 2766 2266 
Q 2766 2663 2505 2880 
Q 2244 3097 1772 3097 
Q 1472 3097 1187 3025 
Q 903 2953 641 2809 
L 641 3341 
Q 956 3463 1253 3523 
Q 1550 3584 1831 3584 
Q 2591 3584 2966 3190 
Q 3341 2797 3341 1997 
z
" transform="scale(0.015625)"/>
       </defs>
       <use xlink:href="#DejaVuSans-52"/>
       <use xlink:href="#DejaVuSans-6f" x="64.982422"/>
       <use xlink:href="#DejaVuSans-74" x="126.164062"/>
       <use xlink:href="#DejaVuSans-61" x="165.373047"/>
       <use xlink:href="#DejaVuSans-74" x="226.652344"/>
       <use xlink:href="#DejaVuSans-45" x="265.861328"/>
      </g>
     </g>
    </g>
    <g id="xtick_3">
     <g id="line2d_3">
      <g>
       <use xlink:href="#m12d1e2b0a9" x="186.832046" y="139.68" style="stroke: #000000; stroke-width: 0.8"/>
      </g>
     </g>
     <g id="text_3">
      <!-- TransE -->
      <g transform="translate(170.463296 154.278437)scale(0.1 -0.1)">
       <defs>
        <path id="DejaVuSans-54" d="M -19 4666 
L 3928 4666 
L 3928 4134 
L 2272 4134 
L 2272 0 
L 1638 0 
L 1638 4134 
L -19 4134 
L -19 4666 
z
" transform="scale(0.015625)"/>
        <path id="DejaVuSans-72" d="M 2631 2963 
Q 2534 3019 2420 3045 
Q 2306 3072 2169 3072 
Q 1681 3072 1420 2755 
Q 1159 2438 1159 1844 
L 1159 0 
L 581 0 
L 581 3500 
L 1159 3500 
L 1159 2956 
Q 1341 3275 1631 3429 
Q 1922 3584 2338 3584 
Q 2397 3584 2469 3576 
Q 2541 3569 2628 3553 
L 2631 2963 
z
" transform="scale(0.015625)"/>
        <path id="DejaVuSans-6e" d="M 3513 2113 
L 3513 0 
L 2938 0 
L 2938 2094 
Q 2938 2591 2744 2837 
Q 2550 3084 2163 3084 
Q 1697 3084 1428 2787 
Q 1159 2491 1159 1978 
L 1159 0 
L 581 0 
L 581 3500 
L 1159 3500 
L 1159 2956 
Q 1366 3272 1645 3428 
Q 1925 3584 2291 3584 
Q 2894 3584 3203 3211 
Q 3513 2838 3513 2113 
z
" transform="scale(0.015625)"/>
        <path id="DejaVuSans-73" d="M 2834 3397 
L 2834 2853 
Q 2591 2978 2328 3040 
Q 2066 3103 1784 3103 
Q 1356 3103 1142 2972 
Q 928 2841 928 2578 
Q 928 2378 1081 2264 
Q 1234 2150 1697 2047 
L 1894 2003 
Q 2506 1872 2764 1633 
Q 3022 1394 3022 966 
Q 3022 478 2636 193 
Q 2250 -91 1575 -91 
Q 1294 -91 989 -36 
Q 684 19 347 128 
L 347 722 
Q 666 556 975 473 
Q 1284 391 1588 391 
Q 1994 391 2212 530 
Q 2431 669 2431 922 
Q 2431 1156 2273 1281 
Q 2116 1406 1581 1522 
L 1381 1569 
Q 847 1681 609 1914 
Q 372 2147 372 2553 
Q 372 3047 722 3315 
Q 1072 3584 1716 3584 
Q 2034 3584 2315 3537 
Q 2597 3491 2834 3397 
z
" transform="scale(0.015625)"/>
       </defs>
       <use xlink:href="#DejaVuSans-54"/>
       <use xlink:href="#DejaVuSans-72" x="46.333984"/>
       <use xlink:href="#DejaVuSans-61" x="87.447266"/>
       <use xlink:href="#DejaVuSans-6e" x="148.726562"/>
       <use xlink:href="#DejaVuSans-73" x="212.105469"/>
       <use xlink:href="#DejaVuSans-45" x="264.205078"/>
      </g>
     </g>
    </g>
    <g id="xtick_4">
     <g id="line2d_4">
      <g>
       <use xlink:href="#m12d1e2b0a9" x="244.052364" y="139.68" style="stroke: #000000; stroke-width: 0.8"/>
      </g>
     </g>
     <g id="text_4">
      <!-- TuckER -->
      <g transform="translate(226.307833 154.278437)scale(0.1 -0.1)">
       <defs>
        <path id="DejaVuSans-75" d="M 544 1381 
L 544 3500 
L 1119 3500 
L 1119 1403 
Q 1119 906 1312 657 
Q 1506 409 1894 409 
Q 2359 409 2629 706 
Q 2900 1003 2900 1516 
L 2900 3500 
L 3475 3500 
L 3475 0 
L 2900 0 
L 2900 538 
Q 2691 219 2414 64 
Q 2138 -91 1772 -91 
Q 1169 -91 856 284 
Q 544 659 544 1381 
z
M 1991 3584 
L 1991 3584 
z
" transform="scale(0.015625)"/>
        <path id="DejaVuSans-63" d="M 3122 3366 
L 3122 2828 
Q 2878 2963 2633 3030 
Q 2388 3097 2138 3097 
Q 1578 3097 1268 2742 
Q 959 2388 959 1747 
Q 959 1106 1268 751 
Q 1578 397 2138 397 
Q 2388 397 2633 464 
Q 2878 531 3122 666 
L 3122 134 
Q 2881 22 2623 -34 
Q 2366 -91 2075 -91 
Q 1284 -91 818 406 
Q 353 903 353 1747 
Q 353 2603 823 3093 
Q 1294 3584 2113 3584 
Q 2378 3584 2631 3529 
Q 2884 3475 3122 3366 
z
" transform="scale(0.015625)"/>
        <path id="DejaVuSans-6b" d="M 581 4863 
L 1159 4863 
L 1159 1991 
L 2875 3500 
L 3609 3500 
L 1753 1863 
L 3688 0 
L 2938 0 
L 1159 1709 
L 1159 0 
L 581 0 
L 581 4863 
z
" transform="scale(0.015625)"/>
       </defs>
       <use xlink:href="#DejaVuSans-54"/>
       <use xlink:href="#DejaVuSans-75" x="45.958984"/>
       <use xlink:href="#DejaVuSans-63" x="109.337891"/>
       <use xlink:href="#DejaVuSans-6b" x="164.318359"/>
       <use xlink:href="#DejaVuSans-45" x="222.228516"/>
       <use xlink:href="#DejaVuSans-52" x="285.412109"/>
      </g>
     </g>
    </g>
   </g>
   <g id="matplotlib.axis_2">
    <g id="ytick_1">
     <g id="line2d_5">
      <defs>
       <path id="m939fae50d5" d="M 0 0 
L -3.5 0 
" style="stroke: #000000; stroke-width: 0.8"/>
      </defs>
      <g>
       <use xlink:href="#m939fae50d5" x="43.78125" y="139.68" style="stroke: #000000; stroke-width: 0.8"/>
      </g>
     </g>
     <g id="text_5">
      <!-- 0.0 -->
      <g transform="translate(20.878125 143.479219)scale(0.1 -0.1)">
       <defs>
        <path id="DejaVuSans-30" d="M 2034 4250 
Q 1547 4250 1301 3770 
Q 1056 3291 1056 2328 
Q 1056 1369 1301 889 
Q 1547 409 2034 409 
Q 2525 409 2770 889 
Q 3016 1369 3016 2328 
Q 3016 3291 2770 3770 
Q 2525 4250 2034 4250 
z
M 2034 4750 
Q 2819 4750 3233 4129 
Q 3647 3509 3647 2328 
Q 3647 1150 3233 529 
Q 2819 -91 2034 -91 
Q 1250 -91 836 529 
Q 422 1150 422 2328 
Q 422 3509 836 4129 
Q 1250 4750 2034 4750 
z
" transform="scale(0.015625)"/>
        <path id="DejaVuSans-2e" d="M 684 794 
L 1344 794 
L 1344 0 
L 684 0 
L 684 794 
z
" transform="scale(0.015625)"/>
       </defs>
       <use xlink:href="#DejaVuSans-30"/>
       <use xlink:href="#DejaVuSans-2e" x="63.623047"/>
       <use xlink:href="#DejaVuSans-30" x="95.410156"/>
      </g>
     </g>
    </g>
    <g id="ytick_2">
     <g id="line2d_6">
      <g>
       <use xlink:href="#m939fae50d5" x="43.78125" y="116.36" style="stroke: #000000; stroke-width: 0.8"/>
      </g>
     </g>
     <g id="text_6">
      <!-- 0.2 -->
      <g transform="translate(20.878125 120.159219)scale(0.1 -0.1)">
       <defs>
        <path id="DejaVuSans-32" d="M 1228 531 
L 3431 531 
L 3431 0 
L 469 0 
L 469 531 
Q 828 903 1448 1529 
Q 2069 2156 2228 2338 
Q 2531 2678 2651 2914 
Q 2772 3150 2772 3378 
Q 2772 3750 2511 3984 
Q 2250 4219 1831 4219 
Q 1534 4219 1204 4116 
Q 875 4013 500 3803 
L 500 4441 
Q 881 4594 1212 4672 
Q 1544 4750 1819 4750 
Q 2544 4750 2975 4387 
Q 3406 4025 3406 3419 
Q 3406 3131 3298 2873 
Q 3191 2616 2906 2266 
Q 2828 2175 2409 1742 
Q 1991 1309 1228 531 
z
" transform="scale(0.015625)"/>
       </defs>
       <use xlink:href="#DejaVuSans-30"/>
       <use xlink:href="#DejaVuSans-2e" x="63.623047"/>
       <use xlink:href="#DejaVuSans-32" x="95.410156"/>
      </g>
     </g>
    </g>
    <g id="ytick_3">
     <g id="line2d_7">
      <g>
       <use xlink:href="#m939fae50d5" x="43.78125" y="93.04" style="stroke: #000000; stroke-width: 0.8"/>
      </g>
     </g>
     <g id="text_7">
      <!-- 0.4 -->
      <g transform="translate(20.878125 96.839219)scale(0.1 -0.1)">
       <defs>
        <path id="DejaVuSans-34" d="M 2419 4116 
L 825 1625 
L 2419 1625 
L 2419 4116 
z
M 2253 4666 
L 3047 4666 
L 3047 1625 
L 3713 1625 
L 3713 1100 
L 3047 1100 
L 3047 0 
L 2419 0 
L 2419 1100 
L 313 1100 
L 313 1709 
L 2253 4666 
z
" transform="scale(0.015625)"/>
       </defs>
       <use xlink:href="#DejaVuSans-30"/>
       <use xlink:href="#DejaVuSans-2e" x="63.623047"/>
       <use xlink:href="#DejaVuSans-34" x="95.410156"/>
      </g>
     </g>
    </g>
    <g id="ytick_4">
     <g id="line2d_8">
      <g>
       <use xlink:href="#m939fae50d5" x="43.78125" y="69.72" style="stroke: #000000; stroke-width: 0.8"/>
      </g>
     </g>
     <g id="text_8">
      <!-- 0.6 -->
      <g transform="translate(20.878125 73.519219)scale(0.1 -0.1)">
       <defs>
        <path id="DejaVuSans-36" d="M 2113 2584 
Q 1688 2584 1439 2293 
Q 1191 2003 1191 1497 
Q 1191 994 1439 701 
Q 1688 409 2113 409 
Q 2538 409 2786 701 
Q 3034 994 3034 1497 
Q 3034 2003 2786 2293 
Q 2538 2584 2113 2584 
z
M 3366 4563 
L 3366 3988 
Q 3128 4100 2886 4159 
Q 2644 4219 2406 4219 
Q 1781 4219 1451 3797 
Q 1122 3375 1075 2522 
Q 1259 2794 1537 2939 
Q 1816 3084 2150 3084 
Q 2853 3084 3261 2657 
Q 3669 2231 3669 1497 
Q 3669 778 3244 343 
Q 2819 -91 2113 -91 
Q 1303 -91 875 529 
Q 447 1150 447 2328 
Q 447 3434 972 4092 
Q 1497 4750 2381 4750 
Q 2619 4750 2861 4703 
Q 3103 4656 3366 4563 
z
" transform="scale(0.015625)"/>
       </defs>
       <use xlink:href="#DejaVuSans-30"/>
       <use xlink:href="#DejaVuSans-2e" x="63.623047"/>
       <use xlink:href="#DejaVuSans-36" x="95.410156"/>
      </g>
     </g>
    </g>
    <g id="ytick_5">
     <g id="line2d_9">
      <g>
       <use xlink:href="#m939fae50d5" x="43.78125" y="46.4" style="stroke: #000000; stroke-width: 0.8"/>
      </g>
     </g>
     <g id="text_9">
      <!-- 0.8 -->
      <g transform="translate(20.878125 50.199219)scale(0.1 -0.1)">
       <defs>
        <path id="DejaVuSans-38" d="M 2034 2216 
Q 1584 2216 1326 1975 
Q 1069 1734 1069 1313 
Q 1069 891 1326 650 
Q 1584 409 2034 409 
Q 2484 409 2743 651 
Q 3003 894 3003 1313 
Q 3003 1734 2745 1975 
Q 2488 2216 2034 2216 
z
M 1403 2484 
Q 997 2584 770 2862 
Q 544 3141 544 3541 
Q 544 4100 942 4425 
Q 1341 4750 2034 4750 
Q 2731 4750 3128 4425 
Q 3525 4100 3525 3541 
Q 3525 3141 3298 2862 
Q 3072 2584 2669 2484 
Q 3125 2378 3379 2068 
Q 3634 1759 3634 1313 
Q 3634 634 3220 271 
Q 2806 -91 2034 -91 
Q 1263 -91 848 271 
Q 434 634 434 1313 
Q 434 1759 690 2068 
Q 947 2378 1403 2484 
z
M 1172 3481 
Q 1172 3119 1398 2916 
Q 1625 2713 2034 2713 
Q 2441 2713 2670 2916 
Q 2900 3119 2900 3481 
Q 2900 3844 2670 4047 
Q 2441 4250 2034 4250 
Q 1625 4250 1398 4047 
Q 1172 3844 1172 3481 
z
" transform="scale(0.015625)"/>
       </defs>
       <use xlink:href="#DejaVuSans-30"/>
       <use xlink:href="#DejaVuSans-2e" x="63.623047"/>
       <use xlink:href="#DejaVuSans-38" x="95.410156"/>
      </g>
     </g>
    </g>
    <g id="ytick_6">
     <g id="line2d_10">
      <g>
       <use xlink:href="#m939fae50d5" x="43.78125" y="23.08" style="stroke: #000000; stroke-width: 0.8"/>
      </g>
     </g>
     <g id="text_10">
      <!-- 1.0 -->
      <g transform="translate(20.878125 26.879219)scale(0.1 -0.1)">
       <defs>
        <path id="DejaVuSans-31" d="M 794 531 
L 1825 531 
L 1825 4091 
L 703 3866 
L 703 4441 
L 1819 4666 
L 2450 4666 
L 2450 531 
L 3481 531 
L 3481 0 
L 794 0 
L 794 531 
z
" transform="scale(0.015625)"/>
       </defs>
       <use xlink:href="#DejaVuSans-31"/>
       <use xlink:href="#DejaVuSans-2e" x="63.623047"/>
       <use xlink:href="#DejaVuSans-30" x="95.410156"/>
      </g>
     </g>
    </g>
    <g id="text_11">
     <!-- Hits at 10 -->
     <g transform="translate(14.798438 105.658906)rotate(-90)scale(0.1 -0.1)">
      <defs>
       <path id="DejaVuSans-48" d="M 628 4666 
L 1259 4666 
L 1259 2753 
L 3553 2753 
L 3553 4666 
L 4184 4666 
L 4184 0 
L 3553 0 
L 3553 2222 
L 1259 2222 
L 1259 0 
L 628 0 
L 628 4666 
z
" transform="scale(0.015625)"/>
       <path id="DejaVuSans-69" d="M 603 3500 
L 1178 3500 
L 1178 0 
L 603 0 
L 603 3500 
z
M 603 4863 
L 1178 4863 
L 1178 4134 
L 603 4134 
L 603 4863 
z
" transform="scale(0.015625)"/>
       <path id="DejaVuSans-20" transform="scale(0.015625)"/>
      </defs>
      <use xlink:href="#DejaVuSans-48"/>
      <use xlink:href="#DejaVuSans-69" x="75.195312"/>
      <use xlink:href="#DejaVuSans-74" x="102.978516"/>
      <use xlink:href="#DejaVuSans-73" x="142.1875"/>
      <use xlink:href="#DejaVuSans-20" x="194.287109"/>
      <use xlink:href="#DejaVuSans-61" x="226.074219"/>
      <use xlink:href="#DejaVuSans-74" x="287.353516"/>
      <use xlink:href="#DejaVuSans-20" x="326.5625"/>
      <use xlink:href="#DejaVuSans-31" x="358.349609"/>
      <use xlink:href="#DejaVuSans-30" x="421.972656"/>
     </g>
    </g>
   </g>
   <g id="line2d_11">
    <path clip-path="url(#p74755ea20c)" style="fill: none; stroke: #424242; stroke-width: 2.7; stroke-linecap: square"/>
   </g>
   <g id="line2d_12">
    <path clip-path="url(#p74755ea20c)" style="fill: none; stroke: #424242; stroke-width: 2.7; stroke-linecap: square"/>
   </g>
   <g id="line2d_13">
    <path clip-path="url(#p74755ea20c)" style="fill: none; stroke: #424242; stroke-width: 2.7; stroke-linecap: square"/>
   </g>
   <g id="line2d_14">
    <path clip-path="url(#p74755ea20c)" style="fill: none; stroke: #424242; stroke-width: 2.7; stroke-linecap: square"/>
   </g>
   <g id="line2d_15">
    <path clip-path="url(#p74755ea20c)" style="fill: none; stroke: #424242; stroke-width: 2.7; stroke-linecap: square"/>
   </g>
   <g id="line2d_16">
    <path clip-path="url(#p74755ea20c)" style="fill: none; stroke: #424242; stroke-width: 2.7; stroke-linecap: square"/>
   </g>
   <g id="line2d_17">
    <path clip-path="url(#p74755ea20c)" style="fill: none; stroke: #424242; stroke-width: 2.7; stroke-linecap: square"/>
   </g>
   <g id="line2d_18">
    <path clip-path="url(#p74755ea20c)" style="fill: none; stroke: #424242; stroke-width: 2.7; stroke-linecap: square"/>
   </g>
   <g id="line2d_19">
    <path clip-path="url(#p74755ea20c)" style="fill: none; stroke: #424242; stroke-width: 2.7; stroke-linecap: square"/>
   </g>
   <g id="line2d_20">
    <path clip-path="url(#p74755ea20c)" style="fill: none; stroke: #424242; stroke-width: 2.7; stroke-linecap: square"/>
   </g>
   <g id="line2d_21">
    <path clip-path="url(#p74755ea20c)" style="fill: none; stroke: #424242; stroke-width: 2.7; stroke-linecap: square"/>
   </g>
   <g id="line2d_22">
    <path clip-path="url(#p74755ea20c)" style="fill: none; stroke: #424242; stroke-width: 2.7; stroke-linecap: square"/>
   </g>
   <g id="line2d_23">
    <path clip-path="url(#p74755ea20c)" style="fill: none; stroke: #424242; stroke-width: 2.7; stroke-linecap: square"/>
   </g>
   <g id="line2d_24">
    <path clip-path="url(#p74755ea20c)" style="fill: none; stroke: #424242; stroke-width: 2.7; stroke-linecap: square"/>
   </g>
   <g id="line2d_25">
    <path clip-path="url(#p74755ea20c)" style="fill: none; stroke: #424242; stroke-width: 2.7; stroke-linecap: square"/>
   </g>
   <g id="line2d_26">
    <path clip-path="url(#p74755ea20c)" style="fill: none; stroke: #424242; stroke-width: 2.7; stroke-linecap: square"/>
   </g>
   <g id="patch_19">
    <path d="M 43.78125 139.68 
L 43.78125 23.08 
" style="fill: none; stroke: #000000; stroke-width: 0.8; stroke-linejoin: miter; stroke-linecap: square"/>
   </g>
   <g id="patch_20">
    <path d="M 43.78125 139.68 
L 272.662523 139.68 
" style="fill: none; stroke: #000000; stroke-width: 0.8; stroke-linejoin: miter; stroke-linecap: square"/>
   </g>
   <g id="text_12">
    <!-- Original ($H_{10}$) -->
    <g transform="translate(114.736887 17.08)scale(0.13 -0.13)">
     <defs>
      <path id="DejaVuSans-4f" d="M 2522 4238 
Q 1834 4238 1429 3725 
Q 1025 3213 1025 2328 
Q 1025 1447 1429 934 
Q 1834 422 2522 422 
Q 3209 422 3611 934 
Q 4013 1447 4013 2328 
Q 4013 3213 3611 3725 
Q 3209 4238 2522 4238 
z
M 2522 4750 
Q 3503 4750 4090 4092 
Q 4678 3434 4678 2328 
Q 4678 1225 4090 567 
Q 3503 -91 2522 -91 
Q 1538 -91 948 565 
Q 359 1222 359 2328 
Q 359 3434 948 4092 
Q 1538 4750 2522 4750 
z
" transform="scale(0.015625)"/>
      <path id="DejaVuSans-67" d="M 2906 1791 
Q 2906 2416 2648 2759 
Q 2391 3103 1925 3103 
Q 1463 3103 1205 2759 
Q 947 2416 947 1791 
Q 947 1169 1205 825 
Q 1463 481 1925 481 
Q 2391 481 2648 825 
Q 2906 1169 2906 1791 
z
M 3481 434 
Q 3481 -459 3084 -895 
Q 2688 -1331 1869 -1331 
Q 1566 -1331 1297 -1286 
Q 1028 -1241 775 -1147 
L 775 -588 
Q 1028 -725 1275 -790 
Q 1522 -856 1778 -856 
Q 2344 -856 2625 -561 
Q 2906 -266 2906 331 
L 2906 616 
Q 2728 306 2450 153 
Q 2172 0 1784 0 
Q 1141 0 747 490 
Q 353 981 353 1791 
Q 353 2603 747 3093 
Q 1141 3584 1784 3584 
Q 2172 3584 2450 3431 
Q 2728 3278 2906 2969 
L 2906 3500 
L 3481 3500 
L 3481 434 
z
" transform="scale(0.015625)"/>
      <path id="DejaVuSans-28" d="M 1984 4856 
Q 1566 4138 1362 3434 
Q 1159 2731 1159 2009 
Q 1159 1288 1364 580 
Q 1569 -128 1984 -844 
L 1484 -844 
Q 1016 -109 783 600 
Q 550 1309 550 2009 
Q 550 2706 781 3412 
Q 1013 4119 1484 4856 
L 1984 4856 
z
" transform="scale(0.015625)"/>
      <path id="DejaVuSans-Oblique-48" d="M 1081 4666 
L 1716 4666 
L 1344 2753 
L 3634 2753 
L 4006 4666 
L 4641 4666 
L 3731 0 
L 3097 0 
L 3531 2222 
L 1241 2222 
L 806 0 
L 172 0 
L 1081 4666 
z
" transform="scale(0.015625)"/>
      <path id="DejaVuSans-29" d="M 513 4856 
L 1013 4856 
Q 1481 4119 1714 3412 
Q 1947 2706 1947 2009 
Q 1947 1309 1714 600 
Q 1481 -109 1013 -844 
L 513 -844 
Q 928 -128 1133 580 
Q 1338 1288 1338 2009 
Q 1338 2731 1133 3434 
Q 928 4138 513 4856 
z
" transform="scale(0.015625)"/>
     </defs>
     <use xlink:href="#DejaVuSans-4f" transform="translate(0 0.015625)"/>
     <use xlink:href="#DejaVuSans-72" transform="translate(78.710938 0.015625)"/>
     <use xlink:href="#DejaVuSans-69" transform="translate(119.824219 0.015625)"/>
     <use xlink:href="#DejaVuSans-67" transform="translate(147.607422 0.015625)"/>
     <use xlink:href="#DejaVuSans-69" transform="translate(211.083984 0.015625)"/>
     <use xlink:href="#DejaVuSans-6e" transform="translate(238.867188 0.015625)"/>
     <use xlink:href="#DejaVuSans-61" transform="translate(302.246094 0.015625)"/>
     <use xlink:href="#DejaVuSans-6c" transform="translate(363.525391 0.015625)"/>
     <use xlink:href="#DejaVuSans-20" transform="translate(391.308594 0.015625)"/>
     <use xlink:href="#DejaVuSans-28" transform="translate(423.095703 0.015625)"/>
     <use xlink:href="#DejaVuSans-Oblique-48" transform="translate(462.109375 0.015625)"/>
     <use xlink:href="#DejaVuSans-31" transform="translate(537.304688 -16.390625)scale(0.7)"/>
     <use xlink:href="#DejaVuSans-30" transform="translate(581.84082 -16.390625)scale(0.7)"/>
     <use xlink:href="#DejaVuSans-29" transform="translate(629.111328 0.015625)"/>
    </g>
   </g>
  </g>
  <g id="axes_2">
   <g id="patch_21">
    <path d="M 314.354577 139.68 
L 543.23585 139.68 
L 543.23585 23.08 
L 314.354577 23.08 
z
" style="fill: #ffffff"/>
   </g>
   <g id="patch_22">
    <path d="M 320.076609 139.68 
L 331.520673 139.68 
L 331.520673 99.595764 
L 320.076609 99.595764 
z
" clip-path="url(#p819aefabb1)" style="fill: #3274a1"/>
   </g>
   <g id="patch_23">
    <path d="M 377.296927 139.68 
L 388.740991 139.68 
L 388.740991 72.268705 
L 377.296927 72.268705 
z
" clip-path="url(#p819aefabb1)" style="fill: #3274a1"/>
   </g>
   <g id="patch_24">
    <path d="M 434.517245 139.68 
L 445.961309 139.68 
L 445.961309 77.734117 
L 434.517245 77.734117 
z
" clip-path="url(#p819aefabb1)" style="fill: #3274a1"/>
   </g>
   <g id="patch_25">
    <path d="M 491.737564 139.68 
L 503.181627 139.68 
L 503.181627 44.941647 
L 491.737564 44.941647 
z
" clip-path="url(#p819aefabb1)" style="fill: #3274a1"/>
   </g>
   <g id="patch_26">
    <path d="M 331.520673 139.68 
L 342.964736 139.68 
L 342.964736 33.344521 
L 331.520673 33.344521 
z
" clip-path="url(#p819aefabb1)" style="fill: #e1812c"/>
   </g>
   <g id="patch_27">
    <path d="M 388.740991 139.68 
L 400.185054 139.68 
L 400.185054 26.481261 
L 388.740991 26.481261 
z
" clip-path="url(#p819aefabb1)" style="fill: #e1812c"/>
   </g>
   <g id="patch_28">
    <path d="M 445.961309 139.68 
L 457.405373 139.68 
L 457.405373 32.919364 
L 445.961309 32.919364 
z
" clip-path="url(#p819aefabb1)" style="fill: #e1812c"/>
   </g>
   <g id="patch_29">
    <path d="M 503.181627 139.68 
L 514.625691 139.68 
L 514.625691 24.962841 
L 503.181627 24.962841 
z
" clip-path="url(#p819aefabb1)" style="fill: #e1812c"/>
   </g>
   <g id="patch_30">
    <path d="M 342.964736 139.68 
L 354.4088 139.68 
L 354.4088 82.451381 
L 342.964736 82.451381 
z
" clip-path="url(#p819aefabb1)" style="fill: #3a923a"/>
   </g>
   <g id="patch_31">
    <path d="M 400.185054 139.68 
L 411.629118 139.68 
L 411.629118 70.983949 
L 400.185054 70.983949 
z
" clip-path="url(#p819aefabb1)" style="fill: #3a923a"/>
   </g>
   <g id="patch_32">
    <path d="M 457.405373 139.68 
L 468.849436 139.68 
L 468.849436 73.257492 
L 457.405373 73.257492 
z
" clip-path="url(#p819aefabb1)" style="fill: #3a923a"/>
   </g>
   <g id="patch_33">
    <path d="M 514.625691 139.68 
L 526.069755 139.68 
L 526.069755 76.408543 
L 514.625691 76.408543 
z
" clip-path="url(#p819aefabb1)" style="fill: #3a923a"/>
   </g>
   <g id="patch_34">
    <path d="M 354.4088 139.68 
L 365.852864 139.68 
L 365.852864 89.807636 
L 354.4088 89.807636 
z
" clip-path="url(#p819aefabb1)" style="fill: #c03d3e"/>
   </g>
   <g id="patch_35">
    <path d="M 411.629118 139.68 
L 423.073182 139.68 
L 423.073182 107.223161 
L 411.629118 107.223161 
z
" clip-path="url(#p819aefabb1)" style="fill: #c03d3e"/>
   </g>
   <g id="patch_36">
    <path d="M 468.849436 139.68 
L 480.2935 139.68 
L 480.2935 83.082349 
L 468.849436 83.082349 
z
" clip-path="url(#p819aefabb1)" style="fill: #c03d3e"/>
   </g>
   <g id="patch_37">
    <path d="M 526.069755 139.68 
L 537.513818 139.68 
L 537.513818 78.175402 
L 526.069755 78.175402 
z
" clip-path="url(#p819aefabb1)" style="fill: #c03d3e"/>
   </g>
   <g id="matplotlib.axis_3">
    <g id="xtick_5">
     <g id="line2d_27">
      <g>
       <use xlink:href="#m12d1e2b0a9" x="342.964736" y="139.68" style="stroke: #000000; stroke-width: 0.8"/>
      </g>
     </g>
     <g id="text_13">
      <!-- ComplEx -->
      <g transform="translate(320.861611 154.278437)scale(0.1 -0.1)">
       <use xlink:href="#DejaVuSans-43"/>
       <use xlink:href="#DejaVuSans-6f" x="69.824219"/>
       <use xlink:href="#DejaVuSans-6d" x="131.005859"/>
       <use xlink:href="#DejaVuSans-70" x="228.417969"/>
       <use xlink:href="#DejaVuSans-6c" x="291.894531"/>
       <use xlink:href="#DejaVuSans-45" x="319.677734"/>
       <use xlink:href="#DejaVuSans-78" x="382.861328"/>
      </g>
     </g>
    </g>
    <g id="xtick_6">
     <g id="line2d_28">
      <g>
       <use xlink:href="#m12d1e2b0a9" x="400.185054" y="139.68" style="stroke: #000000; stroke-width: 0.8"/>
      </g>
     </g>
     <g id="text_14">
      <!-- RotatE -->
      <g transform="translate(383.732711 154.278437)scale(0.1 -0.1)">
       <use xlink:href="#DejaVuSans-52"/>
       <use xlink:href="#DejaVuSans-6f" x="64.982422"/>
       <use xlink:href="#DejaVuSans-74" x="126.164062"/>
       <use xlink:href="#DejaVuSans-61" x="165.373047"/>
       <use xlink:href="#DejaVuSans-74" x="226.652344"/>
       <use xlink:href="#DejaVuSans-45" x="265.861328"/>
      </g>
     </g>
    </g>
    <g id="xtick_7">
     <g id="line2d_29">
      <g>
       <use xlink:href="#m12d1e2b0a9" x="457.405373" y="139.68" style="stroke: #000000; stroke-width: 0.8"/>
      </g>
     </g>
     <g id="text_15">
      <!-- TransE -->
      <g transform="translate(441.036623 154.278437)scale(0.1 -0.1)">
       <use xlink:href="#DejaVuSans-54"/>
       <use xlink:href="#DejaVuSans-72" x="46.333984"/>
       <use xlink:href="#DejaVuSans-61" x="87.447266"/>
       <use xlink:href="#DejaVuSans-6e" x="148.726562"/>
       <use xlink:href="#DejaVuSans-73" x="212.105469"/>
       <use xlink:href="#DejaVuSans-45" x="264.205078"/>
      </g>
     </g>
    </g>
    <g id="xtick_8">
     <g id="line2d_30">
      <g>
       <use xlink:href="#m12d1e2b0a9" x="514.625691" y="139.68" style="stroke: #000000; stroke-width: 0.8"/>
      </g>
     </g>
     <g id="text_16">
      <!-- TuckER -->
      <g transform="translate(496.88116 154.278437)scale(0.1 -0.1)">
       <use xlink:href="#DejaVuSans-54"/>
       <use xlink:href="#DejaVuSans-75" x="45.958984"/>
       <use xlink:href="#DejaVuSans-63" x="109.337891"/>
       <use xlink:href="#DejaVuSans-6b" x="164.318359"/>
       <use xlink:href="#DejaVuSans-45" x="222.228516"/>
       <use xlink:href="#DejaVuSans-52" x="285.412109"/>
      </g>
     </g>
    </g>
   </g>
   <g id="matplotlib.axis_4">
    <g id="ytick_7">
     <g id="line2d_31">
      <g>
       <use xlink:href="#m939fae50d5" x="314.354577" y="139.68" style="stroke: #000000; stroke-width: 0.8"/>
      </g>
     </g>
     <g id="text_17">
      <!-- 0.0 -->
      <g transform="translate(291.451452 143.479219)scale(0.1 -0.1)">
       <use xlink:href="#DejaVuSans-30"/>
       <use xlink:href="#DejaVuSans-2e" x="63.623047"/>
       <use xlink:href="#DejaVuSans-30" x="95.410156"/>
      </g>
     </g>
    </g>
    <g id="ytick_8">
     <g id="line2d_32">
      <g>
       <use xlink:href="#m939fae50d5" x="314.354577" y="116.36" style="stroke: #000000; stroke-width: 0.8"/>
      </g>
     </g>
     <g id="text_18">
      <!-- 0.2 -->
      <g transform="translate(291.451452 120.159219)scale(0.1 -0.1)">
       <use xlink:href="#DejaVuSans-30"/>
       <use xlink:href="#DejaVuSans-2e" x="63.623047"/>
       <use xlink:href="#DejaVuSans-32" x="95.410156"/>
      </g>
     </g>
    </g>
    <g id="ytick_9">
     <g id="line2d_33">
      <g>
       <use xlink:href="#m939fae50d5" x="314.354577" y="93.04" style="stroke: #000000; stroke-width: 0.8"/>
      </g>
     </g>
     <g id="text_19">
      <!-- 0.4 -->
      <g transform="translate(291.451452 96.839219)scale(0.1 -0.1)">
       <use xlink:href="#DejaVuSans-30"/>
       <use xlink:href="#DejaVuSans-2e" x="63.623047"/>
       <use xlink:href="#DejaVuSans-34" x="95.410156"/>
      </g>
     </g>
    </g>
    <g id="ytick_10">
     <g id="line2d_34">
      <g>
       <use xlink:href="#m939fae50d5" x="314.354577" y="69.72" style="stroke: #000000; stroke-width: 0.8"/>
      </g>
     </g>
     <g id="text_20">
      <!-- 0.6 -->
      <g transform="translate(291.451452 73.519219)scale(0.1 -0.1)">
       <use xlink:href="#DejaVuSans-30"/>
       <use xlink:href="#DejaVuSans-2e" x="63.623047"/>
       <use xlink:href="#DejaVuSans-36" x="95.410156"/>
      </g>
     </g>
    </g>
    <g id="ytick_11">
     <g id="line2d_35">
      <g>
       <use xlink:href="#m939fae50d5" x="314.354577" y="46.4" style="stroke: #000000; stroke-width: 0.8"/>
      </g>
     </g>
     <g id="text_21">
      <!-- 0.8 -->
      <g transform="translate(291.451452 50.199219)scale(0.1 -0.1)">
       <use xlink:href="#DejaVuSans-30"/>
       <use xlink:href="#DejaVuSans-2e" x="63.623047"/>
       <use xlink:href="#DejaVuSans-38" x="95.410156"/>
      </g>
     </g>
    </g>
    <g id="ytick_12">
     <g id="line2d_36">
      <g>
       <use xlink:href="#m939fae50d5" x="314.354577" y="23.08" style="stroke: #000000; stroke-width: 0.8"/>
      </g>
     </g>
     <g id="text_22">
      <!-- 1.0 -->
      <g transform="translate(291.451452 26.879219)scale(0.1 -0.1)">
       <use xlink:href="#DejaVuSans-31"/>
       <use xlink:href="#DejaVuSans-2e" x="63.623047"/>
       <use xlink:href="#DejaVuSans-30" x="95.410156"/>
      </g>
     </g>
    </g>
   </g>
   <g id="line2d_37">
    <path clip-path="url(#p819aefabb1)" style="fill: none; stroke: #424242; stroke-width: 2.7; stroke-linecap: square"/>
   </g>
   <g id="line2d_38">
    <path clip-path="url(#p819aefabb1)" style="fill: none; stroke: #424242; stroke-width: 2.7; stroke-linecap: square"/>
   </g>
   <g id="line2d_39">
    <path clip-path="url(#p819aefabb1)" style="fill: none; stroke: #424242; stroke-width: 2.7; stroke-linecap: square"/>
   </g>
   <g id="line2d_40">
    <path clip-path="url(#p819aefabb1)" style="fill: none; stroke: #424242; stroke-width: 2.7; stroke-linecap: square"/>
   </g>
   <g id="line2d_41">
    <path clip-path="url(#p819aefabb1)" style="fill: none; stroke: #424242; stroke-width: 2.7; stroke-linecap: square"/>
   </g>
   <g id="line2d_42">
    <path clip-path="url(#p819aefabb1)" style="fill: none; stroke: #424242; stroke-width: 2.7; stroke-linecap: square"/>
   </g>
   <g id="line2d_43">
    <path clip-path="url(#p819aefabb1)" style="fill: none; stroke: #424242; stroke-width: 2.7; stroke-linecap: square"/>
   </g>
   <g id="line2d_44">
    <path clip-path="url(#p819aefabb1)" style="fill: none; stroke: #424242; stroke-width: 2.7; stroke-linecap: square"/>
   </g>
   <g id="line2d_45">
    <path clip-path="url(#p819aefabb1)" style="fill: none; stroke: #424242; stroke-width: 2.7; stroke-linecap: square"/>
   </g>
   <g id="line2d_46">
    <path clip-path="url(#p819aefabb1)" style="fill: none; stroke: #424242; stroke-width: 2.7; stroke-linecap: square"/>
   </g>
   <g id="line2d_47">
    <path clip-path="url(#p819aefabb1)" style="fill: none; stroke: #424242; stroke-width: 2.7; stroke-linecap: square"/>
   </g>
   <g id="line2d_48">
    <path clip-path="url(#p819aefabb1)" style="fill: none; stroke: #424242; stroke-width: 2.7; stroke-linecap: square"/>
   </g>
   <g id="line2d_49">
    <path clip-path="url(#p819aefabb1)" style="fill: none; stroke: #424242; stroke-width: 2.7; stroke-linecap: square"/>
   </g>
   <g id="line2d_50">
    <path clip-path="url(#p819aefabb1)" style="fill: none; stroke: #424242; stroke-width: 2.7; stroke-linecap: square"/>
   </g>
   <g id="line2d_51">
    <path clip-path="url(#p819aefabb1)" style="fill: none; stroke: #424242; stroke-width: 2.7; stroke-linecap: square"/>
   </g>
   <g id="line2d_52">
    <path clip-path="url(#p819aefabb1)" style="fill: none; stroke: #424242; stroke-width: 2.7; stroke-linecap: square"/>
   </g>
   <g id="patch_38">
    <path d="M 314.354577 139.68 
L 314.354577 23.08 
" style="fill: none; stroke: #000000; stroke-width: 0.8; stroke-linejoin: miter; stroke-linecap: square"/>
   </g>
   <g id="patch_39">
    <path d="M 314.354577 139.68 
L 543.23585 139.68 
" style="fill: none; stroke: #000000; stroke-width: 0.8; stroke-linejoin: miter; stroke-linecap: square"/>
   </g>
   <g id="text_23">
    <!-- Adjusted Index ($AH_{10}$) -->
    <g transform="translate(357.685214 17.08)scale(0.13 -0.13)">
     <defs>
      <path id="DejaVuSans-41" d="M 2188 4044 
L 1331 1722 
L 3047 1722 
L 2188 4044 
z
M 1831 4666 
L 2547 4666 
L 4325 0 
L 3669 0 
L 3244 1197 
L 1141 1197 
L 716 0 
L 50 0 
L 1831 4666 
z
" transform="scale(0.015625)"/>
      <path id="DejaVuSans-64" d="M 2906 2969 
L 2906 4863 
L 3481 4863 
L 3481 0 
L 2906 0 
L 2906 525 
Q 2725 213 2448 61 
Q 2172 -91 1784 -91 
Q 1150 -91 751 415 
Q 353 922 353 1747 
Q 353 2572 751 3078 
Q 1150 3584 1784 3584 
Q 2172 3584 2448 3432 
Q 2725 3281 2906 2969 
z
M 947 1747 
Q 947 1113 1208 752 
Q 1469 391 1925 391 
Q 2381 391 2643 752 
Q 2906 1113 2906 1747 
Q 2906 2381 2643 2742 
Q 2381 3103 1925 3103 
Q 1469 3103 1208 2742 
Q 947 2381 947 1747 
z
" transform="scale(0.015625)"/>
      <path id="DejaVuSans-6a" d="M 603 3500 
L 1178 3500 
L 1178 -63 
Q 1178 -731 923 -1031 
Q 669 -1331 103 -1331 
L -116 -1331 
L -116 -844 
L 38 -844 
Q 366 -844 484 -692 
Q 603 -541 603 -63 
L 603 3500 
z
M 603 4863 
L 1178 4863 
L 1178 4134 
L 603 4134 
L 603 4863 
z
" transform="scale(0.015625)"/>
      <path id="DejaVuSans-65" d="M 3597 1894 
L 3597 1613 
L 953 1613 
Q 991 1019 1311 708 
Q 1631 397 2203 397 
Q 2534 397 2845 478 
Q 3156 559 3463 722 
L 3463 178 
Q 3153 47 2828 -22 
Q 2503 -91 2169 -91 
Q 1331 -91 842 396 
Q 353 884 353 1716 
Q 353 2575 817 3079 
Q 1281 3584 2069 3584 
Q 2775 3584 3186 3129 
Q 3597 2675 3597 1894 
z
M 3022 2063 
Q 3016 2534 2758 2815 
Q 2500 3097 2075 3097 
Q 1594 3097 1305 2825 
Q 1016 2553 972 2059 
L 3022 2063 
z
" transform="scale(0.015625)"/>
      <path id="DejaVuSans-49" d="M 628 4666 
L 1259 4666 
L 1259 0 
L 628 0 
L 628 4666 
z
" transform="scale(0.015625)"/>
      <path id="DejaVuSans-Oblique-41" d="M 2356 4666 
L 3072 4666 
L 3938 0 
L 3278 0 
L 3084 1197 
L 984 1197 
L 325 0 
L -341 0 
L 2356 4666 
z
M 2584 4044 
L 1275 1722 
L 2988 1722 
L 2584 4044 
z
" transform="scale(0.015625)"/>
     </defs>
     <use xlink:href="#DejaVuSans-41" transform="translate(0 0.015625)"/>
     <use xlink:href="#DejaVuSans-64" transform="translate(68.408203 0.015625)"/>
     <use xlink:href="#DejaVuSans-6a" transform="translate(131.884766 0.015625)"/>
     <use xlink:href="#DejaVuSans-75" transform="translate(159.667969 0.015625)"/>
     <use xlink:href="#DejaVuSans-73" transform="translate(223.046875 0.015625)"/>
     <use xlink:href="#DejaVuSans-74" transform="translate(275.146484 0.015625)"/>
     <use xlink:href="#DejaVuSans-65" transform="translate(314.355469 0.015625)"/>
     <use xlink:href="#DejaVuSans-64" transform="translate(375.878906 0.015625)"/>
     <use xlink:href="#DejaVuSans-20" transform="translate(439.355469 0.015625)"/>
     <use xlink:href="#DejaVuSans-49" transform="translate(471.142578 0.015625)"/>
     <use xlink:href="#DejaVuSans-6e" transform="translate(500.634766 0.015625)"/>
     <use xlink:href="#DejaVuSans-64" transform="translate(564.013672 0.015625)"/>
     <use xlink:href="#DejaVuSans-65" transform="translate(627.490234 0.015625)"/>
     <use xlink:href="#DejaVuSans-78" transform="translate(689.013672 0.015625)"/>
     <use xlink:href="#DejaVuSans-20" transform="translate(748.193359 0.015625)"/>
     <use xlink:href="#DejaVuSans-28" transform="translate(779.980469 0.015625)"/>
     <use xlink:href="#DejaVuSans-Oblique-41" transform="translate(818.994141 0.015625)"/>
     <use xlink:href="#DejaVuSans-Oblique-48" transform="translate(887.402344 0.015625)"/>
     <use xlink:href="#DejaVuSans-31" transform="translate(962.597656 -16.390625)scale(0.7)"/>
     <use xlink:href="#DejaVuSans-30" transform="translate(1007.133789 -16.390625)scale(0.7)"/>
     <use xlink:href="#DejaVuSans-29" transform="translate(1054.404297 0.015625)"/>
    </g>
   </g>
  </g>
  <g id="axes_3">
   <g id="patch_40">
    <path d="M 584.927904 139.68 
L 813.809177 139.68 
L 813.809177 23.08 
L 584.927904 23.08 
z
" style="fill: #ffffff"/>
   </g>
   <g id="patch_41">
    <path d="M 590.649936 36285.634272 
L 602.094 36285.634272 
L 602.094 36285.634272 
L 590.649936 36285.634272 
z
" clip-path="url(#pcdfc50264e)" style="fill: #3274a1"/>
   </g>
   <g id="patch_42">
    <path d="M 647.870254 36285.634272 
L 659.314318 36285.634272 
L 659.314318 130.06542 
L 647.870254 130.06542 
z
" clip-path="url(#pcdfc50264e)" style="fill: #3274a1"/>
   </g>
   <g id="patch_43">
    <path d="M 705.090573 36285.634272 
L 716.534636 36285.634272 
L 716.534636 134.38 
L 705.090573 134.38 
z
" clip-path="url(#pcdfc50264e)" style="fill: #3274a1"/>
   </g>
   <g id="patch_44">
    <path d="M 762.310891 36285.634272 
L 773.754954 36285.634272 
L 773.754954 117.669626 
L 762.310891 117.669626 
z
" clip-path="url(#pcdfc50264e)" style="fill: #3274a1"/>
   </g>
   <g id="patch_45">
    <path d="M 602.094 36285.634272 
L 613.538063 36285.634272 
L 613.538063 70.169327 
L 602.094 70.169327 
z
" clip-path="url(#pcdfc50264e)" style="fill: #e1812c"/>
   </g>
   <g id="patch_46">
    <path d="M 659.314318 36285.634272 
L 670.758382 36285.634272 
L 670.758382 69.184663 
L 659.314318 69.184663 
z
" clip-path="url(#pcdfc50264e)" style="fill: #e1812c"/>
   </g>
   <g id="patch_47">
    <path d="M 716.534636 36285.634272 
L 727.9787 36285.634272 
L 727.9787 70.106505 
L 716.534636 70.106505 
z
" clip-path="url(#pcdfc50264e)" style="fill: #e1812c"/>
   </g>
   <g id="patch_48">
    <path d="M 773.754954 36285.634272 
L 785.199018 36285.634272 
L 785.199018 68.974905 
L 773.754954 68.974905 
z
" clip-path="url(#pcdfc50264e)" style="fill: #e1812c"/>
   </g>
   <g id="patch_49">
    <path d="M 613.538063 36285.634272 
L 624.982127 36285.634272 
L 624.982127 31.251351 
L 613.538063 31.251351 
z
" clip-path="url(#pcdfc50264e)" style="fill: #3a923a"/>
   </g>
   <g id="patch_50">
    <path d="M 670.758382 36285.634272 
L 682.202445 36285.634272 
L 682.202445 28.38 
L 670.758382 28.38 
z
" clip-path="url(#pcdfc50264e)" style="fill: #3a923a"/>
   </g>
   <g id="patch_51">
    <path d="M 727.9787 36285.634272 
L 739.422763 36285.634272 
L 739.422763 28.909121 
L 727.9787 28.909121 
z
" clip-path="url(#pcdfc50264e)" style="fill: #3a923a"/>
   </g>
   <g id="patch_52">
    <path d="M 785.199018 36285.634272 
L 796.643082 36285.634272 
L 796.643082 29.673216 
L 785.199018 29.673216 
z
" clip-path="url(#pcdfc50264e)" style="fill: #3a923a"/>
   </g>
   <g id="patch_53">
    <path d="M 624.982127 36285.634272 
L 636.426191 36285.634272 
L 636.426191 41.650967 
L 624.982127 41.650967 
z
" clip-path="url(#pcdfc50264e)" style="fill: #c03d3e"/>
   </g>
   <g id="patch_54">
    <path d="M 682.202445 36285.634272 
L 693.646509 36285.634272 
L 693.646509 48.404264 
L 682.202445 48.404264 
z
" clip-path="url(#pcdfc50264e)" style="fill: #c03d3e"/>
   </g>
   <g id="patch_55">
    <path d="M 739.422763 36285.634272 
L 750.866827 36285.634272 
L 750.866827 39.66218 
L 739.422763 39.66218 
z
" clip-path="url(#pcdfc50264e)" style="fill: #c03d3e"/>
   </g>
   <g id="patch_56">
    <path d="M 796.643082 36285.634272 
L 808.087145 36285.634272 
L 808.087145 38.355018 
L 796.643082 38.355018 
z
" clip-path="url(#pcdfc50264e)" style="fill: #c03d3e"/>
   </g>
   <g id="matplotlib.axis_5">
    <g id="xtick_9">
     <g id="line2d_53">
      <g>
       <use xlink:href="#m12d1e2b0a9" x="613.538063" y="139.68" style="stroke: #000000; stroke-width: 0.8"/>
      </g>
     </g>
     <g id="text_24">
      <!-- ComplEx -->
      <g transform="translate(591.434938 154.278437)scale(0.1 -0.1)">
       <use xlink:href="#DejaVuSans-43"/>
       <use xlink:href="#DejaVuSans-6f" x="69.824219"/>
       <use xlink:href="#DejaVuSans-6d" x="131.005859"/>
       <use xlink:href="#DejaVuSans-70" x="228.417969"/>
       <use xlink:href="#DejaVuSans-6c" x="291.894531"/>
       <use xlink:href="#DejaVuSans-45" x="319.677734"/>
       <use xlink:href="#DejaVuSans-78" x="382.861328"/>
      </g>
     </g>
    </g>
    <g id="xtick_10">
     <g id="line2d_54">
      <g>
       <use xlink:href="#m12d1e2b0a9" x="670.758382" y="139.68" style="stroke: #000000; stroke-width: 0.8"/>
      </g>
     </g>
     <g id="text_25">
      <!-- RotatE -->
      <g transform="translate(654.306038 154.278437)scale(0.1 -0.1)">
       <use xlink:href="#DejaVuSans-52"/>
       <use xlink:href="#DejaVuSans-6f" x="64.982422"/>
       <use xlink:href="#DejaVuSans-74" x="126.164062"/>
       <use xlink:href="#DejaVuSans-61" x="165.373047"/>
       <use xlink:href="#DejaVuSans-74" x="226.652344"/>
       <use xlink:href="#DejaVuSans-45" x="265.861328"/>
      </g>
     </g>
    </g>
    <g id="xtick_11">
     <g id="line2d_55">
      <g>
       <use xlink:href="#m12d1e2b0a9" x="727.9787" y="139.68" style="stroke: #000000; stroke-width: 0.8"/>
      </g>
     </g>
     <g id="text_26">
      <!-- TransE -->
      <g transform="translate(711.60995 154.278437)scale(0.1 -0.1)">
       <use xlink:href="#DejaVuSans-54"/>
       <use xlink:href="#DejaVuSans-72" x="46.333984"/>
       <use xlink:href="#DejaVuSans-61" x="87.447266"/>
       <use xlink:href="#DejaVuSans-6e" x="148.726562"/>
       <use xlink:href="#DejaVuSans-73" x="212.105469"/>
       <use xlink:href="#DejaVuSans-45" x="264.205078"/>
      </g>
     </g>
    </g>
    <g id="xtick_12">
     <g id="line2d_56">
      <g>
       <use xlink:href="#m12d1e2b0a9" x="785.199018" y="139.68" style="stroke: #000000; stroke-width: 0.8"/>
      </g>
     </g>
     <g id="text_27">
      <!-- TuckER -->
      <g transform="translate(767.454487 154.278437)scale(0.1 -0.1)">
       <use xlink:href="#DejaVuSans-54"/>
       <use xlink:href="#DejaVuSans-75" x="45.958984"/>
       <use xlink:href="#DejaVuSans-63" x="109.337891"/>
       <use xlink:href="#DejaVuSans-6b" x="164.318359"/>
       <use xlink:href="#DejaVuSans-45" x="222.228516"/>
       <use xlink:href="#DejaVuSans-52" x="285.412109"/>
      </g>
     </g>
    </g>
   </g>
   <g id="matplotlib.axis_6">
    <g id="ytick_13">
     <g id="line2d_57">
      <g>
       <use xlink:href="#m939fae50d5" x="584.927904" y="121.564478" style="stroke: #000000; stroke-width: 0.8"/>
      </g>
     </g>
     <g id="text_28">
      <!-- $\mathdefault{10^{-1}}$ -->
      <g transform="translate(554.427904 125.363696)scale(0.1 -0.1)">
       <defs>
        <path id="DejaVuSans-2212" d="M 678 2272 
L 4684 2272 
L 4684 1741 
L 678 1741 
L 678 2272 
z
" transform="scale(0.015625)"/>
       </defs>
       <use xlink:href="#DejaVuSans-31" transform="translate(0 0.684375)"/>
       <use xlink:href="#DejaVuSans-30" transform="translate(63.623047 0.684375)"/>
       <use xlink:href="#DejaVuSans-2212" transform="translate(128.203125 38.965625)scale(0.7)"/>
       <use xlink:href="#DejaVuSans-31" transform="translate(186.855469 38.965625)scale(0.7)"/>
      </g>
     </g>
    </g>
    <g id="ytick_14">
     <g id="line2d_58">
      <g>
       <use xlink:href="#m939fae50d5" x="584.927904" y="85.364208" style="stroke: #000000; stroke-width: 0.8"/>
      </g>
     </g>
     <g id="text_29">
      <!-- $\mathdefault{10^{0}}$ -->
      <g transform="translate(560.327904 89.163426)scale(0.1 -0.1)">
       <use xlink:href="#DejaVuSans-31" transform="translate(0 0.765625)"/>
       <use xlink:href="#DejaVuSans-30" transform="translate(63.623047 0.765625)"/>
       <use xlink:href="#DejaVuSans-30" transform="translate(128.203125 39.046875)scale(0.7)"/>
      </g>
     </g>
    </g>
    <g id="ytick_15">
     <g id="line2d_59">
      <g>
       <use xlink:href="#m939fae50d5" x="584.927904" y="49.163937" style="stroke: #000000; stroke-width: 0.8"/>
      </g>
     </g>
     <g id="text_30">
      <!-- $\mathdefault{10^{1}}$ -->
      <g transform="translate(560.327904 52.963156)scale(0.1 -0.1)">
       <use xlink:href="#DejaVuSans-31" transform="translate(0 0.684375)"/>
       <use xlink:href="#DejaVuSans-30" transform="translate(63.623047 0.684375)"/>
       <use xlink:href="#DejaVuSans-31" transform="translate(128.203125 38.965625)scale(0.7)"/>
      </g>
     </g>
    </g>
    <g id="ytick_16">
     <g id="line2d_60">
      <defs>
       <path id="m02372f0210" d="M 0 0 
L -2 0 
" style="stroke: #000000; stroke-width: 0.6"/>
      </defs>
      <g>
       <use xlink:href="#m02372f0210" x="584.927904" y="135.970013" style="stroke: #000000; stroke-width: 0.6"/>
      </g>
     </g>
    </g>
    <g id="ytick_17">
     <g id="line2d_61">
      <g>
       <use xlink:href="#m02372f0210" x="584.927904" y="132.461845" style="stroke: #000000; stroke-width: 0.6"/>
      </g>
     </g>
    </g>
    <g id="ytick_18">
     <g id="line2d_62">
      <g>
       <use xlink:href="#m02372f0210" x="584.927904" y="129.595462" style="stroke: #000000; stroke-width: 0.6"/>
      </g>
     </g>
    </g>
    <g id="ytick_19">
     <g id="line2d_63">
      <g>
       <use xlink:href="#m02372f0210" x="584.927904" y="127.17197" style="stroke: #000000; stroke-width: 0.6"/>
      </g>
     </g>
    </g>
    <g id="ytick_20">
     <g id="line2d_64">
      <g>
       <use xlink:href="#m02372f0210" x="584.927904" y="125.072646" style="stroke: #000000; stroke-width: 0.6"/>
      </g>
     </g>
    </g>
    <g id="ytick_21">
     <g id="line2d_65">
      <g>
       <use xlink:href="#m02372f0210" x="584.927904" y="123.220911" style="stroke: #000000; stroke-width: 0.6"/>
      </g>
     </g>
    </g>
    <g id="ytick_22">
     <g id="line2d_66">
      <g>
       <use xlink:href="#m02372f0210" x="584.927904" y="110.66711" style="stroke: #000000; stroke-width: 0.6"/>
      </g>
     </g>
    </g>
    <g id="ytick_23">
     <g id="line2d_67">
      <g>
       <use xlink:href="#m02372f0210" x="584.927904" y="104.292559" style="stroke: #000000; stroke-width: 0.6"/>
      </g>
     </g>
    </g>
    <g id="ytick_24">
     <g id="line2d_68">
      <g>
       <use xlink:href="#m02372f0210" x="584.927904" y="99.769743" style="stroke: #000000; stroke-width: 0.6"/>
      </g>
     </g>
    </g>
    <g id="ytick_25">
     <g id="line2d_69">
      <g>
       <use xlink:href="#m02372f0210" x="584.927904" y="96.261575" style="stroke: #000000; stroke-width: 0.6"/>
      </g>
     </g>
    </g>
    <g id="ytick_26">
     <g id="line2d_70">
      <g>
       <use xlink:href="#m02372f0210" x="584.927904" y="93.395192" style="stroke: #000000; stroke-width: 0.6"/>
      </g>
     </g>
    </g>
    <g id="ytick_27">
     <g id="line2d_71">
      <g>
       <use xlink:href="#m02372f0210" x="584.927904" y="90.9717" style="stroke: #000000; stroke-width: 0.6"/>
      </g>
     </g>
    </g>
    <g id="ytick_28">
     <g id="line2d_72">
      <g>
       <use xlink:href="#m02372f0210" x="584.927904" y="88.872376" style="stroke: #000000; stroke-width: 0.6"/>
      </g>
     </g>
    </g>
    <g id="ytick_29">
     <g id="line2d_73">
      <g>
       <use xlink:href="#m02372f0210" x="584.927904" y="87.020641" style="stroke: #000000; stroke-width: 0.6"/>
      </g>
     </g>
    </g>
    <g id="ytick_30">
     <g id="line2d_74">
      <g>
       <use xlink:href="#m02372f0210" x="584.927904" y="74.46684" style="stroke: #000000; stroke-width: 0.6"/>
      </g>
     </g>
    </g>
    <g id="ytick_31">
     <g id="line2d_75">
      <g>
       <use xlink:href="#m02372f0210" x="584.927904" y="68.092289" style="stroke: #000000; stroke-width: 0.6"/>
      </g>
     </g>
    </g>
    <g id="ytick_32">
     <g id="line2d_76">
      <g>
       <use xlink:href="#m02372f0210" x="584.927904" y="63.569473" style="stroke: #000000; stroke-width: 0.6"/>
      </g>
     </g>
    </g>
    <g id="ytick_33">
     <g id="line2d_77">
      <g>
       <use xlink:href="#m02372f0210" x="584.927904" y="60.061305" style="stroke: #000000; stroke-width: 0.6"/>
      </g>
     </g>
    </g>
    <g id="ytick_34">
     <g id="line2d_78">
      <g>
       <use xlink:href="#m02372f0210" x="584.927904" y="57.194922" style="stroke: #000000; stroke-width: 0.6"/>
      </g>
     </g>
    </g>
    <g id="ytick_35">
     <g id="line2d_79">
      <g>
       <use xlink:href="#m02372f0210" x="584.927904" y="54.77143" style="stroke: #000000; stroke-width: 0.6"/>
      </g>
     </g>
    </g>
    <g id="ytick_36">
     <g id="line2d_80">
      <g>
       <use xlink:href="#m02372f0210" x="584.927904" y="52.672106" style="stroke: #000000; stroke-width: 0.6"/>
      </g>
     </g>
    </g>
    <g id="ytick_37">
     <g id="line2d_81">
      <g>
       <use xlink:href="#m02372f0210" x="584.927904" y="50.820371" style="stroke: #000000; stroke-width: 0.6"/>
      </g>
     </g>
    </g>
    <g id="ytick_38">
     <g id="line2d_82">
      <g>
       <use xlink:href="#m02372f0210" x="584.927904" y="38.26657" style="stroke: #000000; stroke-width: 0.6"/>
      </g>
     </g>
    </g>
    <g id="ytick_39">
     <g id="line2d_83">
      <g>
       <use xlink:href="#m02372f0210" x="584.927904" y="31.892019" style="stroke: #000000; stroke-width: 0.6"/>
      </g>
     </g>
    </g>
    <g id="ytick_40">
     <g id="line2d_84">
      <g>
       <use xlink:href="#m02372f0210" x="584.927904" y="27.369203" style="stroke: #000000; stroke-width: 0.6"/>
      </g>
     </g>
    </g>
    <g id="ytick_41">
     <g id="line2d_85">
      <g>
       <use xlink:href="#m02372f0210" x="584.927904" y="23.861035" style="stroke: #000000; stroke-width: 0.6"/>
      </g>
     </g>
    </g>
   </g>
   <g id="line2d_86">
    <path clip-path="url(#pcdfc50264e)" style="fill: none; stroke: #424242; stroke-width: 2.7; stroke-linecap: square"/>
   </g>
   <g id="line2d_87">
    <path clip-path="url(#pcdfc50264e)" style="fill: none; stroke: #424242; stroke-width: 2.7; stroke-linecap: square"/>
   </g>
   <g id="line2d_88">
    <path clip-path="url(#pcdfc50264e)" style="fill: none; stroke: #424242; stroke-width: 2.7; stroke-linecap: square"/>
   </g>
   <g id="line2d_89">
    <path clip-path="url(#pcdfc50264e)" style="fill: none; stroke: #424242; stroke-width: 2.7; stroke-linecap: square"/>
   </g>
   <g id="line2d_90">
    <path clip-path="url(#pcdfc50264e)" style="fill: none; stroke: #424242; stroke-width: 2.7; stroke-linecap: square"/>
   </g>
   <g id="line2d_91">
    <path clip-path="url(#pcdfc50264e)" style="fill: none; stroke: #424242; stroke-width: 2.7; stroke-linecap: square"/>
   </g>
   <g id="line2d_92">
    <path clip-path="url(#pcdfc50264e)" style="fill: none; stroke: #424242; stroke-width: 2.7; stroke-linecap: square"/>
   </g>
   <g id="line2d_93">
    <path clip-path="url(#pcdfc50264e)" style="fill: none; stroke: #424242; stroke-width: 2.7; stroke-linecap: square"/>
   </g>
   <g id="line2d_94">
    <path clip-path="url(#pcdfc50264e)" style="fill: none; stroke: #424242; stroke-width: 2.7; stroke-linecap: square"/>
   </g>
   <g id="line2d_95">
    <path clip-path="url(#pcdfc50264e)" style="fill: none; stroke: #424242; stroke-width: 2.7; stroke-linecap: square"/>
   </g>
   <g id="line2d_96">
    <path clip-path="url(#pcdfc50264e)" style="fill: none; stroke: #424242; stroke-width: 2.7; stroke-linecap: square"/>
   </g>
   <g id="line2d_97">
    <path clip-path="url(#pcdfc50264e)" style="fill: none; stroke: #424242; stroke-width: 2.7; stroke-linecap: square"/>
   </g>
   <g id="line2d_98">
    <path clip-path="url(#pcdfc50264e)" style="fill: none; stroke: #424242; stroke-width: 2.7; stroke-linecap: square"/>
   </g>
   <g id="line2d_99">
    <path clip-path="url(#pcdfc50264e)" style="fill: none; stroke: #424242; stroke-width: 2.7; stroke-linecap: square"/>
   </g>
   <g id="line2d_100">
    <path clip-path="url(#pcdfc50264e)" style="fill: none; stroke: #424242; stroke-width: 2.7; stroke-linecap: square"/>
   </g>
   <g id="line2d_101">
    <path clip-path="url(#pcdfc50264e)" style="fill: none; stroke: #424242; stroke-width: 2.7; stroke-linecap: square"/>
   </g>
   <g id="patch_57">
    <path d="M 584.927904 139.68 
L 584.927904 23.08 
" style="fill: none; stroke: #000000; stroke-width: 0.8; stroke-linejoin: miter; stroke-linecap: square"/>
   </g>
   <g id="patch_58">
    <path d="M 584.927904 139.68 
L 813.809177 139.68 
" style="fill: none; stroke: #000000; stroke-width: 0.8; stroke-linejoin: miter; stroke-linecap: square"/>
   </g>
   <g id="text_31">
    <!-- z-Adjusted Metric ($ZH_{10}$) -->
    <g transform="translate(620.328541 17.08)scale(0.13 -0.13)">
     <defs>
      <path id="DejaVuSans-7a" d="M 353 3500 
L 3084 3500 
L 3084 2975 
L 922 459 
L 3084 459 
L 3084 0 
L 275 0 
L 275 525 
L 2438 3041 
L 353 3041 
L 353 3500 
z
" transform="scale(0.015625)"/>
      <path id="DejaVuSans-2d" d="M 313 2009 
L 1997 2009 
L 1997 1497 
L 313 1497 
L 313 2009 
z
" transform="scale(0.015625)"/>
      <path id="DejaVuSans-4d" d="M 628 4666 
L 1569 4666 
L 2759 1491 
L 3956 4666 
L 4897 4666 
L 4897 0 
L 4281 0 
L 4281 4097 
L 3078 897 
L 2444 897 
L 1241 4097 
L 1241 0 
L 628 0 
L 628 4666 
z
" transform="scale(0.015625)"/>
      <path id="DejaVuSans-Oblique-5a" d="M 838 4666 
L 4500 4666 
L 4409 4184 
L 794 531 
L 3769 531 
L 3669 0 
L -141 0 
L -50 481 
L 3566 4134 
L 738 4134 
L 838 4666 
z
" transform="scale(0.015625)"/>
     </defs>
     <use xlink:href="#DejaVuSans-7a" transform="translate(0 0.015625)"/>
     <use xlink:href="#DejaVuSans-2d" transform="translate(52.490234 0.015625)"/>
     <use xlink:href="#DejaVuSans-41" transform="translate(88.574219 0.015625)"/>
     <use xlink:href="#DejaVuSans-64" transform="translate(156.982422 0.015625)"/>
     <use xlink:href="#DejaVuSans-6a" transform="translate(220.458984 0.015625)"/>
     <use xlink:href="#DejaVuSans-75" transform="translate(248.242188 0.015625)"/>
     <use xlink:href="#DejaVuSans-73" transform="translate(311.621094 0.015625)"/>
     <use xlink:href="#DejaVuSans-74" transform="translate(363.720703 0.015625)"/>
     <use xlink:href="#DejaVuSans-65" transform="translate(402.929688 0.015625)"/>
     <use xlink:href="#DejaVuSans-64" transform="translate(464.453125 0.015625)"/>
     <use xlink:href="#DejaVuSans-20" transform="translate(527.929688 0.015625)"/>
     <use xlink:href="#DejaVuSans-4d" transform="translate(559.716797 0.015625)"/>
     <use xlink:href="#DejaVuSans-65" transform="translate(645.996094 0.015625)"/>
     <use xlink:href="#DejaVuSans-74" transform="translate(707.519531 0.015625)"/>
     <use xlink:href="#DejaVuSans-72" transform="translate(746.728516 0.015625)"/>
     <use xlink:href="#DejaVuSans-69" transform="translate(787.841797 0.015625)"/>
     <use xlink:href="#DejaVuSans-63" transform="translate(815.625 0.015625)"/>
     <use xlink:href="#DejaVuSans-20" transform="translate(870.605469 0.015625)"/>
     <use xlink:href="#DejaVuSans-28" transform="translate(902.392578 0.015625)"/>
     <use xlink:href="#DejaVuSans-Oblique-5a" transform="translate(941.40625 0.015625)"/>
     <use xlink:href="#DejaVuSans-Oblique-48" transform="translate(1009.912109 0.015625)"/>
     <use xlink:href="#DejaVuSans-31" transform="translate(1085.107422 -16.390625)scale(0.7)"/>
     <use xlink:href="#DejaVuSans-30" transform="translate(1129.643555 -16.390625)scale(0.7)"/>
     <use xlink:href="#DejaVuSans-29" transform="translate(1176.914062 0.015625)"/>
    </g>
   </g>
  </g>
  <g id="legend_1">
   <g id="text_32">
    <!-- dataset -->
    <g transform="translate(905.996595 54.338437)scale(0.1 -0.1)">
     <use xlink:href="#DejaVuSans-64"/>
     <use xlink:href="#DejaVuSans-61" x="63.476562"/>
     <use xlink:href="#DejaVuSans-74" x="124.755859"/>
     <use xlink:href="#DejaVuSans-61" x="163.964844"/>
     <use xlink:href="#DejaVuSans-73" x="225.244141"/>
     <use xlink:href="#DejaVuSans-65" x="277.34375"/>
     <use xlink:href="#DejaVuSans-74" x="338.867188"/>
    </g>
   </g>
   <g id="patch_59">
    <path d="M 836.450501 69.118125 
L 856.450501 69.118125 
L 856.450501 62.118125 
L 836.450501 62.118125 
z
" style="fill: #3274a1"/>
   </g>
   <g id="text_33">
    <!-- Nations ($|\mathcal{T}_{train}|=1,592$) -->
    <g transform="translate(864.450501 69.118125)scale(0.1 -0.1)">
     <defs>
      <path id="DejaVuSans-4e" d="M 628 4666 
L 1478 4666 
L 3547 763 
L 3547 4666 
L 4159 4666 
L 4159 0 
L 3309 0 
L 1241 3903 
L 1241 0 
L 628 0 
L 628 4666 
z
" transform="scale(0.015625)"/>
      <path id="DejaVuSans-7c" d="M 1344 4891 
L 1344 -1509 
L 813 -1509 
L 813 4891 
L 1344 4891 
z
" transform="scale(0.015625)"/>
      <path id="STIXNonUnicode-Italic-e240" d="M 4557 4614 
L 4672 4518 
Q 4134 3635 2746 3578 
L 2054 1197 
Q 1933 787 1801 537 
Q 1670 288 1484 173 
Q 1299 58 1136 29 
Q 973 0 691 0 
L 749 154 
Q 934 154 1059 326 
Q 1184 499 1286 870 
L 1882 2944 
Q 2042 3520 2042 3635 
Q 2042 3731 1974 3785 
Q 1907 3840 1818 3840 
Q 1498 3840 1110 3664 
Q 723 3488 390 3053 
L 262 3142 
Q 678 3744 1212 3993 
Q 1747 4243 2733 4243 
Q 2867 4243 3078 4224 
Q 3290 4205 3379 4205 
Q 4288 4205 4557 4614 
z
" transform="scale(0.015625)"/>
      <path id="DejaVuSans-Oblique-74" d="M 2706 3500 
L 2619 3053 
L 1472 3053 
L 1100 1153 
Q 1081 1047 1072 975 
Q 1063 903 1063 863 
Q 1063 663 1183 572 
Q 1303 481 1569 481 
L 2150 481 
L 2053 0 
L 1503 0 
Q 991 0 739 200 
Q 488 400 488 806 
Q 488 878 497 964 
Q 506 1050 525 1153 
L 897 3053 
L 409 3053 
L 500 3500 
L 978 3500 
L 1172 4494 
L 1747 4494 
L 1556 3500 
L 2706 3500 
z
" transform="scale(0.015625)"/>
      <path id="DejaVuSans-Oblique-72" d="M 2853 2969 
Q 2766 3016 2653 3041 
Q 2541 3066 2413 3066 
Q 1953 3066 1609 2717 
Q 1266 2369 1153 1784 
L 800 0 
L 225 0 
L 909 3500 
L 1484 3500 
L 1375 2956 
Q 1603 3259 1920 3421 
Q 2238 3584 2597 3584 
Q 2691 3584 2781 3573 
Q 2872 3563 2963 3538 
L 2853 2969 
z
" transform="scale(0.015625)"/>
      <path id="DejaVuSans-Oblique-61" d="M 3438 1997 
L 3047 0 
L 2472 0 
L 2578 531 
Q 2325 219 2001 64 
Q 1678 -91 1281 -91 
Q 834 -91 548 182 
Q 263 456 263 884 
Q 263 1497 752 1853 
Q 1241 2209 2100 2209 
L 2900 2209 
L 2931 2363 
Q 2938 2388 2941 2417 
Q 2944 2447 2944 2509 
Q 2944 2788 2717 2942 
Q 2491 3097 2081 3097 
Q 1800 3097 1504 3025 
Q 1209 2953 897 2809 
L 997 3341 
Q 1322 3463 1633 3523 
Q 1944 3584 2234 3584 
Q 2853 3584 3176 3315 
Q 3500 3047 3500 2534 
Q 3500 2431 3484 2292 
Q 3469 2153 3438 1997 
z
M 2816 1759 
L 2241 1759 
Q 1534 1759 1195 1570 
Q 856 1381 856 984 
Q 856 709 1029 553 
Q 1203 397 1509 397 
Q 1978 397 2328 733 
Q 2678 1069 2791 1631 
L 2816 1759 
z
" transform="scale(0.015625)"/>
      <path id="DejaVuSans-Oblique-69" d="M 1172 4863 
L 1747 4863 
L 1606 4134 
L 1031 4134 
L 1172 4863 
z
M 909 3500 
L 1484 3500 
L 800 0 
L 225 0 
L 909 3500 
z
" transform="scale(0.015625)"/>
      <path id="DejaVuSans-Oblique-6e" d="M 3566 2113 
L 3156 0 
L 2578 0 
L 2988 2091 
Q 3016 2238 3031 2350 
Q 3047 2463 3047 2528 
Q 3047 2791 2881 2937 
Q 2716 3084 2419 3084 
Q 1956 3084 1622 2776 
Q 1288 2469 1184 1941 
L 800 0 
L 225 0 
L 903 3500 
L 1478 3500 
L 1363 2950 
Q 1603 3253 1940 3418 
Q 2278 3584 2650 3584 
Q 3113 3584 3367 3334 
Q 3622 3084 3622 2631 
Q 3622 2519 3608 2391 
Q 3594 2263 3566 2113 
z
" transform="scale(0.015625)"/>
      <path id="DejaVuSans-3d" d="M 678 2906 
L 4684 2906 
L 4684 2381 
L 678 2381 
L 678 2906 
z
M 678 1631 
L 4684 1631 
L 4684 1100 
L 678 1100 
L 678 1631 
z
" transform="scale(0.015625)"/>
      <path id="DejaVuSans-2c" d="M 750 794 
L 1409 794 
L 1409 256 
L 897 -744 
L 494 -744 
L 750 256 
L 750 794 
z
" transform="scale(0.015625)"/>
      <path id="DejaVuSans-35" d="M 691 4666 
L 3169 4666 
L 3169 4134 
L 1269 4134 
L 1269 2991 
Q 1406 3038 1543 3061 
Q 1681 3084 1819 3084 
Q 2600 3084 3056 2656 
Q 3513 2228 3513 1497 
Q 3513 744 3044 326 
Q 2575 -91 1722 -91 
Q 1428 -91 1123 -41 
Q 819 9 494 109 
L 494 744 
Q 775 591 1075 516 
Q 1375 441 1709 441 
Q 2250 441 2565 725 
Q 2881 1009 2881 1497 
Q 2881 1984 2565 2268 
Q 2250 2553 1709 2553 
Q 1456 2553 1204 2497 
Q 953 2441 691 2322 
L 691 4666 
z
" transform="scale(0.015625)"/>
      <path id="DejaVuSans-39" d="M 703 97 
L 703 672 
Q 941 559 1184 500 
Q 1428 441 1663 441 
Q 2288 441 2617 861 
Q 2947 1281 2994 2138 
Q 2813 1869 2534 1725 
Q 2256 1581 1919 1581 
Q 1219 1581 811 2004 
Q 403 2428 403 3163 
Q 403 3881 828 4315 
Q 1253 4750 1959 4750 
Q 2769 4750 3195 4129 
Q 3622 3509 3622 2328 
Q 3622 1225 3098 567 
Q 2575 -91 1691 -91 
Q 1453 -91 1209 -44 
Q 966 3 703 97 
z
M 1959 2075 
Q 2384 2075 2632 2365 
Q 2881 2656 2881 3163 
Q 2881 3666 2632 3958 
Q 2384 4250 1959 4250 
Q 1534 4250 1286 3958 
Q 1038 3666 1038 3163 
Q 1038 2656 1286 2365 
Q 1534 2075 1959 2075 
z
" transform="scale(0.015625)"/>
     </defs>
     <use xlink:href="#DejaVuSans-4e" transform="translate(0 0.578125)"/>
     <use xlink:href="#DejaVuSans-61" transform="translate(74.804688 0.578125)"/>
     <use xlink:href="#DejaVuSans-74" transform="translate(136.083984 0.578125)"/>
     <use xlink:href="#DejaVuSans-69" transform="translate(175.292969 0.578125)"/>
     <use xlink:href="#DejaVuSans-6f" transform="translate(203.076172 0.578125)"/>
     <use xlink:href="#DejaVuSans-6e" transform="translate(264.257812 0.578125)"/>
     <use xlink:href="#DejaVuSans-73" transform="translate(327.636719 0.578125)"/>
     <use xlink:href="#DejaVuSans-20" transform="translate(379.736328 0.578125)"/>
     <use xlink:href="#DejaVuSans-28" transform="translate(411.523438 0.578125)"/>
     <use xlink:href="#DejaVuSans-7c" transform="translate(450.537109 0.578125)"/>
     <use xlink:href="#STIXNonUnicode-Italic-e240" transform="translate(484.228516 0.578125)"/>
     <use xlink:href="#DejaVuSans-Oblique-74" transform="translate(536.085541 -15.828125)scale(0.7)"/>
     <use xlink:href="#DejaVuSans-Oblique-72" transform="translate(563.53183 -15.828125)scale(0.7)"/>
     <use xlink:href="#DejaVuSans-Oblique-61" transform="translate(592.311127 -15.828125)scale(0.7)"/>
     <use xlink:href="#DejaVuSans-Oblique-69" transform="translate(635.206635 -15.828125)scale(0.7)"/>
     <use xlink:href="#DejaVuSans-Oblique-6e" transform="translate(654.654877 -15.828125)scale(0.7)"/>
     <use xlink:href="#DejaVuSans-7c" transform="translate(701.754486 0.578125)"/>
     <use xlink:href="#DejaVuSans-3d" transform="translate(754.928314 0.578125)"/>
     <use xlink:href="#DejaVuSans-31" transform="translate(858.199799 0.578125)"/>
     <use xlink:href="#DejaVuSans-2c" transform="translate(921.822845 0.578125)"/>
     <use xlink:href="#DejaVuSans-35" transform="translate(973.092377 0.578125)"/>
     <use xlink:href="#DejaVuSans-39" transform="translate(1031.215424 0.578125)"/>
     <use xlink:href="#DejaVuSans-32" transform="translate(1093.08847 0.578125)"/>
     <use xlink:href="#DejaVuSans-29" transform="translate(1156.711517 0.578125)"/>
    </g>
   </g>
   <g id="patch_60">
    <path d="M 836.450501 84.218125 
L 856.450501 84.218125 
L 856.450501 77.218125 
L 836.450501 77.218125 
z
" style="fill: #e1812c"/>
   </g>
   <g id="text_34">
    <!-- Kinships ($|\mathcal{T}_{train}|=8,544$) -->
    <g transform="translate(864.450501 84.218125)scale(0.1 -0.1)">
     <defs>
      <path id="DejaVuSans-4b" d="M 628 4666 
L 1259 4666 
L 1259 2694 
L 3353 4666 
L 4166 4666 
L 1850 2491 
L 4331 0 
L 3500 0 
L 1259 2247 
L 1259 0 
L 628 0 
L 628 4666 
z
" transform="scale(0.015625)"/>
      <path id="DejaVuSans-68" d="M 3513 2113 
L 3513 0 
L 2938 0 
L 2938 2094 
Q 2938 2591 2744 2837 
Q 2550 3084 2163 3084 
Q 1697 3084 1428 2787 
Q 1159 2491 1159 1978 
L 1159 0 
L 581 0 
L 581 4863 
L 1159 4863 
L 1159 2956 
Q 1366 3272 1645 3428 
Q 1925 3584 2291 3584 
Q 2894 3584 3203 3211 
Q 3513 2838 3513 2113 
z
" transform="scale(0.015625)"/>
     </defs>
     <use xlink:href="#DejaVuSans-4b" transform="translate(0 0.578125)"/>
     <use xlink:href="#DejaVuSans-69" transform="translate(65.576172 0.578125)"/>
     <use xlink:href="#DejaVuSans-6e" transform="translate(93.359375 0.578125)"/>
     <use xlink:href="#DejaVuSans-73" transform="translate(156.738281 0.578125)"/>
     <use xlink:href="#DejaVuSans-68" transform="translate(208.837891 0.578125)"/>
     <use xlink:href="#DejaVuSans-69" transform="translate(272.216797 0.578125)"/>
     <use xlink:href="#DejaVuSans-70" transform="translate(300 0.578125)"/>
     <use xlink:href="#DejaVuSans-73" transform="translate(363.476562 0.578125)"/>
     <use xlink:href="#DejaVuSans-20" transform="translate(415.576172 0.578125)"/>
     <use xlink:href="#DejaVuSans-28" transform="translate(447.363281 0.578125)"/>
     <use xlink:href="#DejaVuSans-7c" transform="translate(486.376953 0.578125)"/>
     <use xlink:href="#STIXNonUnicode-Italic-e240" transform="translate(520.068359 0.578125)"/>
     <use xlink:href="#DejaVuSans-Oblique-74" transform="translate(571.925385 -15.828125)scale(0.7)"/>
     <use xlink:href="#DejaVuSans-Oblique-72" transform="translate(599.371674 -15.828125)scale(0.7)"/>
     <use xlink:href="#DejaVuSans-Oblique-61" transform="translate(628.15097 -15.828125)scale(0.7)"/>
     <use xlink:href="#DejaVuSans-Oblique-69" transform="translate(671.046478 -15.828125)scale(0.7)"/>
     <use xlink:href="#DejaVuSans-Oblique-6e" transform="translate(690.49472 -15.828125)scale(0.7)"/>
     <use xlink:href="#DejaVuSans-7c" transform="translate(737.59433 0.578125)"/>
     <use xlink:href="#DejaVuSans-3d" transform="translate(790.768158 0.578125)"/>
     <use xlink:href="#DejaVuSans-38" transform="translate(894.039642 0.578125)"/>
     <use xlink:href="#DejaVuSans-2c" transform="translate(957.662689 0.578125)"/>
     <use xlink:href="#DejaVuSans-35" transform="translate(1008.93222 0.578125)"/>
     <use xlink:href="#DejaVuSans-34" transform="translate(1072.555267 0.578125)"/>
     <use xlink:href="#DejaVuSans-34" transform="translate(1136.178314 0.578125)"/>
     <use xlink:href="#DejaVuSans-29" transform="translate(1199.801361 0.578125)"/>
    </g>
   </g>
   <g id="patch_61">
    <path d="M 836.450501 99.318125 
L 856.450501 99.318125 
L 856.450501 92.318125 
L 836.450501 92.318125 
z
" style="fill: #3a923a"/>
   </g>
   <g id="text_35">
    <!-- WN18-RR ($|\mathcal{T}_{train}|=86,835$) -->
    <g transform="translate(864.450501 99.318125)scale(0.1 -0.1)">
     <defs>
      <path id="DejaVuSans-57" d="M 213 4666 
L 850 4666 
L 1831 722 
L 2809 4666 
L 3519 4666 
L 4500 722 
L 5478 4666 
L 6119 4666 
L 4947 0 
L 4153 0 
L 3169 4050 
L 2175 0 
L 1381 0 
L 213 4666 
z
" transform="scale(0.015625)"/>
      <path id="DejaVuSans-33" d="M 2597 2516 
Q 3050 2419 3304 2112 
Q 3559 1806 3559 1356 
Q 3559 666 3084 287 
Q 2609 -91 1734 -91 
Q 1441 -91 1130 -33 
Q 819 25 488 141 
L 488 750 
Q 750 597 1062 519 
Q 1375 441 1716 441 
Q 2309 441 2620 675 
Q 2931 909 2931 1356 
Q 2931 1769 2642 2001 
Q 2353 2234 1838 2234 
L 1294 2234 
L 1294 2753 
L 1863 2753 
Q 2328 2753 2575 2939 
Q 2822 3125 2822 3475 
Q 2822 3834 2567 4026 
Q 2313 4219 1838 4219 
Q 1578 4219 1281 4162 
Q 984 4106 628 3988 
L 628 4550 
Q 988 4650 1302 4700 
Q 1616 4750 1894 4750 
Q 2613 4750 3031 4423 
Q 3450 4097 3450 3541 
Q 3450 3153 3228 2886 
Q 3006 2619 2597 2516 
z
" transform="scale(0.015625)"/>
     </defs>
     <use xlink:href="#DejaVuSans-57" transform="translate(0 0.578125)"/>
     <use xlink:href="#DejaVuSans-4e" transform="translate(98.876953 0.578125)"/>
     <use xlink:href="#DejaVuSans-31" transform="translate(173.681641 0.578125)"/>
     <use xlink:href="#DejaVuSans-38" transform="translate(237.304688 0.578125)"/>
     <use xlink:href="#DejaVuSans-2d" transform="translate(300.927734 0.578125)"/>
     <use xlink:href="#DejaVuSans-52" transform="translate(337.011719 0.578125)"/>
     <use xlink:href="#DejaVuSans-52" transform="translate(406.494141 0.578125)"/>
     <use xlink:href="#DejaVuSans-20" transform="translate(475.976562 0.578125)"/>
     <use xlink:href="#DejaVuSans-28" transform="translate(507.763672 0.578125)"/>
     <use xlink:href="#DejaVuSans-7c" transform="translate(546.777344 0.578125)"/>
     <use xlink:href="#STIXNonUnicode-Italic-e240" transform="translate(580.46875 0.578125)"/>
     <use xlink:href="#DejaVuSans-Oblique-74" transform="translate(632.325775 -15.828125)scale(0.7)"/>
     <use xlink:href="#DejaVuSans-Oblique-72" transform="translate(659.772064 -15.828125)scale(0.7)"/>
     <use xlink:href="#DejaVuSans-Oblique-61" transform="translate(688.551361 -15.828125)scale(0.7)"/>
     <use xlink:href="#DejaVuSans-Oblique-69" transform="translate(731.446869 -15.828125)scale(0.7)"/>
     <use xlink:href="#DejaVuSans-Oblique-6e" transform="translate(750.895111 -15.828125)scale(0.7)"/>
     <use xlink:href="#DejaVuSans-7c" transform="translate(797.99472 0.578125)"/>
     <use xlink:href="#DejaVuSans-3d" transform="translate(851.168549 0.578125)"/>
     <use xlink:href="#DejaVuSans-38" transform="translate(954.440033 0.578125)"/>
     <use xlink:href="#DejaVuSans-36" transform="translate(1018.06308 0.578125)"/>
     <use xlink:href="#DejaVuSans-2c" transform="translate(1081.686127 0.578125)"/>
     <use xlink:href="#DejaVuSans-38" transform="translate(1132.955658 0.578125)"/>
     <use xlink:href="#DejaVuSans-33" transform="translate(1196.578705 0.578125)"/>
     <use xlink:href="#DejaVuSans-35" transform="translate(1260.201752 0.578125)"/>
     <use xlink:href="#DejaVuSans-29" transform="translate(1323.824799 0.578125)"/>
    </g>
   </g>
   <g id="patch_62">
    <path d="M 836.450501 114.418125 
L 856.450501 114.418125 
L 856.450501 107.418125 
L 836.450501 107.418125 
z
" style="fill: #c03d3e"/>
   </g>
   <g id="text_36">
    <!-- FB15k-237 ($|\mathcal{T}_{train}|=272,115$) -->
    <g transform="translate(864.450501 114.418125)scale(0.1 -0.1)">
     <defs>
      <path id="DejaVuSans-46" d="M 628 4666 
L 3309 4666 
L 3309 4134 
L 1259 4134 
L 1259 2759 
L 3109 2759 
L 3109 2228 
L 1259 2228 
L 1259 0 
L 628 0 
L 628 4666 
z
" transform="scale(0.015625)"/>
      <path id="DejaVuSans-42" d="M 1259 2228 
L 1259 519 
L 2272 519 
Q 2781 519 3026 730 
Q 3272 941 3272 1375 
Q 3272 1813 3026 2020 
Q 2781 2228 2272 2228 
L 1259 2228 
z
M 1259 4147 
L 1259 2741 
L 2194 2741 
Q 2656 2741 2882 2914 
Q 3109 3088 3109 3444 
Q 3109 3797 2882 3972 
Q 2656 4147 2194 4147 
L 1259 4147 
z
M 628 4666 
L 2241 4666 
Q 2963 4666 3353 4366 
Q 3744 4066 3744 3513 
Q 3744 3084 3544 2831 
Q 3344 2578 2956 2516 
Q 3422 2416 3680 2098 
Q 3938 1781 3938 1306 
Q 3938 681 3513 340 
Q 3088 0 2303 0 
L 628 0 
L 628 4666 
z
" transform="scale(0.015625)"/>
      <path id="DejaVuSans-37" d="M 525 4666 
L 3525 4666 
L 3525 4397 
L 1831 0 
L 1172 0 
L 2766 4134 
L 525 4134 
L 525 4666 
z
" transform="scale(0.015625)"/>
     </defs>
     <use xlink:href="#DejaVuSans-46" transform="translate(0 0.578125)"/>
     <use xlink:href="#DejaVuSans-42" transform="translate(57.519531 0.578125)"/>
     <use xlink:href="#DejaVuSans-31" transform="translate(126.123047 0.578125)"/>
     <use xlink:href="#DejaVuSans-35" transform="translate(189.746094 0.578125)"/>
     <use xlink:href="#DejaVuSans-6b" transform="translate(253.369141 0.578125)"/>
     <use xlink:href="#DejaVuSans-2d" transform="translate(311.279297 0.578125)"/>
     <use xlink:href="#DejaVuSans-32" transform="translate(347.363281 0.578125)"/>
     <use xlink:href="#DejaVuSans-33" transform="translate(410.986328 0.578125)"/>
     <use xlink:href="#DejaVuSans-37" transform="translate(474.609375 0.578125)"/>
     <use xlink:href="#DejaVuSans-20" transform="translate(538.232422 0.578125)"/>
     <use xlink:href="#DejaVuSans-28" transform="translate(570.019531 0.578125)"/>
     <use xlink:href="#DejaVuSans-7c" transform="translate(609.033203 0.578125)"/>
     <use xlink:href="#STIXNonUnicode-Italic-e240" transform="translate(642.724609 0.578125)"/>
     <use xlink:href="#DejaVuSans-Oblique-74" transform="translate(694.581635 -15.828125)scale(0.7)"/>
     <use xlink:href="#DejaVuSans-Oblique-72" transform="translate(722.027924 -15.828125)scale(0.7)"/>
     <use xlink:href="#DejaVuSans-Oblique-61" transform="translate(750.80722 -15.828125)scale(0.7)"/>
     <use xlink:href="#DejaVuSans-Oblique-69" transform="translate(793.702728 -15.828125)scale(0.7)"/>
     <use xlink:href="#DejaVuSans-Oblique-6e" transform="translate(813.15097 -15.828125)scale(0.7)"/>
     <use xlink:href="#DejaVuSans-7c" transform="translate(860.25058 0.578125)"/>
     <use xlink:href="#DejaVuSans-3d" transform="translate(913.424408 0.578125)"/>
     <use xlink:href="#DejaVuSans-32" transform="translate(1016.695892 0.578125)"/>
     <use xlink:href="#DejaVuSans-37" transform="translate(1080.318939 0.578125)"/>
     <use xlink:href="#DejaVuSans-32" transform="translate(1143.941986 0.578125)"/>
     <use xlink:href="#DejaVuSans-2c" transform="translate(1207.565033 0.578125)"/>
     <use xlink:href="#DejaVuSans-31" transform="translate(1258.834564 0.578125)"/>
     <use xlink:href="#DejaVuSans-31" transform="translate(1322.457611 0.578125)"/>
     <use xlink:href="#DejaVuSans-35" transform="translate(1386.080658 0.578125)"/>
     <use xlink:href="#DejaVuSans-29" transform="translate(1449.703705 0.578125)"/>
    </g>
   </g>
  </g>
 </g>
 <defs>
  <clipPath id="p74755ea20c">
   <rect x="43.78125" y="23.08" width="228.881273" height="116.6"/>
  </clipPath>
  <clipPath id="p819aefabb1">
   <rect x="314.354577" y="23.08" width="228.881273" height="116.6"/>
  </clipPath>
  <clipPath id="pcdfc50264e">
   <rect x="584.927904" y="23.08" width="228.881273" height="116.6"/>
  </clipPath>
 </defs>
</svg>
